<?xml version="1.0" standalone="no"?>
<!DOCTYPE svg PUBLIC "-//W3C//DTD SVG 1.1//EN" "http://www.w3.org/Graphics/SVG/1.1/DTD/svg11.dtd" >
<svg xmlns="http://www.w3.org/2000/svg" xmlns:xlink="http://www.w3.org/1999/xlink" version="1.1">
<metadata>
Created by FontForge 20190801 at Thu Jun  3 17:06:49 2021
 By www-data
Copyright (c) 2021 by atipo. All rights reserved.
</metadata>
<defs>
<font id="StrawfordBold" horiz-adv-x="591" >
  <font-face 
    font-family="StrawfordBold"
    font-weight="700"
    font-stretch="normal"
    units-per-em="1000"
    panose-1="0 0 8 0 0 0 0 0 0 0"
    ascent="800"
    descent="-200"
    x-height="460"
    cap-height="700"
    bbox="-209 -300 1133 954"
    underline-thickness="50"
    underline-position="-100"
    unicode-range="U+0020-2212"
  />
<missing-glyph horiz-adv-x="599" 
 />
    <glyph glyph-name=".notdef" horiz-adv-x="599" 
 />
    <glyph glyph-name=".null" horiz-adv-x="0" 
 />
    <glyph glyph-name="nonmarkingreturn" horiz-adv-x="333" 
 />
    <glyph glyph-name="space" unicode=" " horiz-adv-x="248" 
 />
    <glyph glyph-name="exclam" unicode="!" horiz-adv-x="304" 
d="M198 226h-92l-32 474h156zM154 -10q-34 0 -57 23t-23 54q0 32 22.5 55t57.5 23q36 0 58 -22.5t22 -55.5q0 -32 -22 -54.5t-58 -22.5z" />
    <glyph glyph-name="quotedbl" unicode="&#x22;" horiz-adv-x="334" 
d="M147 700l-19 -213h-73l-19 213h111zM297 700l-19 -213h-72l-19 213h110z" />
    <glyph glyph-name="numbersign" unicode="#" horiz-adv-x="466" 
d="M430 450v-73h-83l-15 -87h98v-73h-111l-19 -111h-72l19 111h-75l-19 -111h-72l19 111h-64v73h77l15 87h-92v73h105l19 110h72l-19 -110h75l19 110h72l-19 -110h70zM185 290h75l15 87h-75z" />
    <glyph glyph-name="dollar" unicode="$" horiz-adv-x="541" 
d="M509 192q0 -80 -60 -138t-162 -64l-4 -90h-55l4 92q-78 9 -127.5 52t-71.5 99l99 57q30 -69 106 -85l8 164l-14 3q-72 16 -118 63.5t-46 125.5q0 67 51.5 120.5t144.5 58.5l2 50h54l-2 -53q57 -8 100.5 -38.5t66.5 -74.5l-100 -66q-23 49 -73 61l-6 -139l24 -6
q86 -20 132.5 -68.5t46.5 -123.5zM196 466q0 -45 56 -62l6 127q-29 -5 -45.5 -23t-16.5 -42zM300 266l-7 -154q38 5 61.5 26t23.5 54q0 51 -78 74z" />
    <glyph glyph-name="percent" unicode="%" horiz-adv-x="727" 
d="M187 371q-61 0 -102.5 39.5t-41.5 99.5t42 100t102 40q59 0 101 -40t42 -100q0 -59 -42 -99t-101 -40zM234 0h-107l361 639h107zM186 453q23 0 39.5 16.5t16.5 40.5t-16.5 41t-39.5 17q-24 0 -40 -17t-16 -41t16 -40.5t40 -16.5zM542 -11q-61 0 -102.5 39.5t-41.5 99.5
t41.5 100t102.5 40q59 0 100.5 -40t41.5 -100q0 -59 -41.5 -99t-100.5 -40zM541 71q23 0 39.5 16.5t16.5 40.5t-16.5 41t-39.5 17q-24 0 -40.5 -17t-16.5 -41t16.5 -40.5t40.5 -16.5z" />
    <glyph glyph-name="ampersand" unicode="&#x26;" horiz-adv-x="648" 
d="M275 413l383 -413h-170l-46 50q-71 -60 -172 -60t-165.5 63t-64.5 153q0 113 96 178q-53 71 -53 138q0 74 56 131t148 57q89 0 146.5 -55t57.5 -137q0 -44 -24.5 -85t-56.5 -62l-79 82q30 28 30 64q0 29 -20.5 50.5t-53.5 21.5q-31 0 -52 -21t-21 -51q0 -20 11 -40.5
t19 -30t31 -33.5zM276 109q48 0 85 29l-144 156q-50 -30 -50 -88q0 -42 30.5 -69.5t78.5 -27.5z" />
    <glyph glyph-name="quotesingle" unicode="'" horiz-adv-x="183" 
d="M128 487h-73l-19 213h111z" />
    <glyph glyph-name="parenleft" unicode="(" horiz-adv-x="446" 
d="M403 -81v-104q-39 7 -85.5 27t-99.5 61.5t-95 96t-70 137t-28 178.5t28 178.5t70 137t95 95.5t99 61.5t86 27.5v-104q-24 -5 -53.5 -18.5t-70.5 -44.5t-73 -72.5t-55 -110t-23 -150.5t23 -150.5t55 -110t73 -72.5t70.5 -44.5t53.5 -18.5z" />
    <glyph glyph-name="parenright" unicode=")" horiz-adv-x="446" 
d="M43 -185v104q19 4 43 14.5t56.5 30t62 51t55.5 72t41.5 100t15.5 128.5t-15.5 128.5t-41.5 100t-55.5 72t-62 51t-56.5 30t-43 14.5v104q40 -7 86 -27.5t99 -61.5t95 -95.5t70 -137t28 -178.5t-28 -178.5t-70 -137t-95 -96t-99.5 -61.5t-85.5 -27z" />
    <glyph glyph-name="asterisk" unicode="*" horiz-adv-x="338" 
d="M209 388h-79l1 90l-72 -47l-46 63l83 50l-83 50l43 65l75 -48l-1 89h79l-2 -89l75 48l43 -65l-83 -50l82 -50l-45 -63l-72 47z" />
    <glyph glyph-name="plus" unicode="+" horiz-adv-x="438" 
d="M259 99h-80v168h-169v80h169v169h80v-169h169v-80h-169v-168z" />
    <glyph glyph-name="comma" unicode="," horiz-adv-x="237" 
d="M199 64q0 -18 -7 -35l-65 -164h-88l53 129q-24 8 -38.5 28t-14.5 45q0 31 23 54.5t57 23.5q36 0 58 -22.5t22 -58.5z" />
    <glyph glyph-name="hyphen" unicode="-" horiz-adv-x="427" 
d="M347 223h-267v99h267v-99z" />
    <glyph glyph-name="period" unicode="." horiz-adv-x="239" 
d="M119 -10q-35 0 -57.5 23t-22.5 54q0 32 22.5 55t57.5 23q36 0 58 -22.5t22 -55.5q0 -32 -22 -54.5t-58 -22.5z" />
    <glyph glyph-name="slash" unicode="/" horiz-adv-x="361" 
d="M139 0h-123l206 700h123z" />
    <glyph glyph-name="zero" unicode="0" horiz-adv-x="579" 
d="M289 -10q-115 0 -180 85.5t-65 243.5q0 159 65 245t180 86t180.5 -86t65.5 -245q0 -158 -65.5 -243.5t-180.5 -85.5zM289 112q55 0 83.5 48.5t28.5 158.5q0 209 -112 209t-112 -209q0 -110 28.5 -158.5t83.5 -48.5z" />
    <glyph glyph-name="one" unicode="1" horiz-adv-x="389" 
d="M330 0h-129v474l-153 -100v145l194 124h88v-643z" />
    <glyph glyph-name="two" unicode="2" horiz-adv-x="560" 
d="M425 234l-104 -116h189v-118h-450l245 282q24 27 38 45t26 46t12 56q0 39 -28.5 69t-74.5 30q-44 0 -72 -29t-28 -70q0 -43 32 -72l-79 -84q-36 26 -58 71.5t-22 95.5q0 82 62.5 146t164.5 64q108 0 173 -68.5t65 -152.5q0 -92 -91 -195z" />
    <glyph glyph-name="three" unicode="3" horiz-adv-x="530" 
d="M248 -10q-136 0 -201 115l106 65q12 -25 38 -41.5t57 -16.5q44 0 72.5 28.5t28.5 69.5q0 38 -28.5 67t-72.5 29q-39 0 -65 -26l-72 69l140 177h-188v114h406l-176 -231q2 1 8 1q72 -5 126.5 -63t54.5 -137q0 -90 -65 -155t-169 -65z" />
    <glyph glyph-name="four" unicode="4" horiz-adv-x="587" 
d="M467 0h-129v120h-318v80l339 443h108v-409h100v-114h-100v-120zM338 444l-160 -210h160v210z" />
    <glyph glyph-name="five" unicode="5" horiz-adv-x="536" 
d="M251 -10q-138 0 -205 115l106 65q13 -25 39.5 -41.5t59.5 -16.5q45 0 75.5 31t30.5 74t-31 73t-75 30q-65 0 -96 -61l-95 45l45 336h341v-115h-240l-18 -123q37 28 95 28q88 0 147.5 -63.5t59.5 -152.5q0 -95 -67.5 -159.5t-171.5 -64.5z" />
    <glyph glyph-name="six" unicode="6" horiz-adv-x="557" 
d="M459 640l-146 -201q87 -11 143.5 -73t56.5 -148q0 -94 -66.5 -161t-167.5 -67q-104 0 -169 66.5t-65 161.5q0 73 42 129l207 293h165zM279 112q43 0 71.5 29.5t28.5 76.5q0 46 -29 75t-71 29q-43 0 -72 -29.5t-29 -74.5q0 -47 28 -76.5t73 -29.5z" />
    <glyph glyph-name="seven" unicode="7" horiz-adv-x="520" 
d="M224 0h-151l229 518h-276v122h468z" />
    <glyph glyph-name="eight" unicode="8" horiz-adv-x="524" 
d="M262 -10q-101 0 -162.5 56t-61.5 138q0 100 85 149q-73 49 -73 137q0 77 58.5 128.5t152.5 51.5t152.5 -51.5t58.5 -128.5q0 -86 -71 -136q37 -21 61 -59.5t24 -90.5q0 -82 -61.5 -138t-162.5 -56zM261 386q37 1 57.5 23.5t20.5 52.5q0 31 -21.5 52t-56.5 21
q-34 0 -56 -21t-22 -52q0 -30 20.5 -52.5t57.5 -23.5zM262 111q38 0 61.5 23t23.5 57q0 33 -22 57.5t-63 24.5t-63 -25t-22 -57q0 -34 23.5 -57t61.5 -23z" />
    <glyph glyph-name="nine" unicode="9" horiz-adv-x="557" 
d="M513 422q0 -73 -42 -129l-207 -293h-171l146 202q-85 13 -139.5 74.5t-54.5 145.5q0 95 66 161.5t168 66.5q103 0 168.5 -66.5t65.5 -161.5zM179 422q0 -46 29 -75t71 -29q43 0 72 29.5t29 74.5q0 47 -28.5 76.5t-72.5 29.5q-43 0 -71.5 -29.5t-28.5 -76.5z" />
    <glyph glyph-name="colon" unicode=":" horiz-adv-x="234" 
d="M119 289q-35 0 -57.5 22.5t-22.5 53.5q0 33 22.5 56t57.5 23q36 0 58 -23t22 -56q0 -32 -22 -54t-58 -22zM119 -10q-35 0 -57.5 23t-22.5 54q0 32 22.5 55t57.5 23q36 0 58 -22.5t22 -55.5q0 -32 -22 -54.5t-58 -22.5z" />
    <glyph glyph-name="semicolon" unicode=";" horiz-adv-x="259" 
d="M119 289q-35 0 -57.5 22.5t-22.5 53.5q0 33 22.5 56t57.5 23q36 0 58 -23t22 -56q0 -32 -22 -54t-58 -22zM199 64q0 -18 -7 -35l-65 -164h-88l53 129q-24 8 -38.5 28t-14.5 45q0 31 23 54.5t57 23.5q36 0 58 -22.5t22 -58.5z" />
    <glyph glyph-name="less" unicode="&#x3c;" horiz-adv-x="458" 
d="M425 130v-100l-392 243l392 247v-96l-245 -151z" />
    <glyph glyph-name="equal" unicode="=" horiz-adv-x="438" 
d="M428 352h-418v79h418v-79zM428 129h-418v80h418v-80z" />
    <glyph glyph-name="greater" unicode="&#x3e;" horiz-adv-x="458" 
d="M425 273l-392 -243v100l245 143l-245 151v96z" />
    <glyph glyph-name="question" unicode="?" horiz-adv-x="471" 
d="M217 710q103 0 165 -60t62 -139q0 -43 -16.5 -78t-39.5 -57.5t-46 -42.5t-39.5 -43.5t-16.5 -49.5v-14h-125v14q0 39 16 70.5t38 52.5t44.5 40t38.5 43.5t16 52.5q0 40 -27 66.5t-70 26.5q-69 -1 -95 -68l-93 64q23 57 74 89.5t114 32.5zM222 145q36 0 58.5 -23t22.5 -55
t-22.5 -54.5t-58.5 -22.5q-34 0 -56.5 22.5t-22.5 54.5t22.5 55t56.5 23z" />
    <glyph glyph-name="at" unicode="@" horiz-adv-x="974" 
d="M497 -129v-97q-123 0 -227 56.5t-167 163t-63 240.5q0 127 63 230.5t165.5 159.5t219.5 56q130 0 233.5 -55.5t158.5 -145t55 -194.5q0 -110 -63.5 -191.5t-160.5 -81.5h-124v55q-49 -55 -130 -55q-84 0 -142.5 63.5t-58.5 150.5t58.5 150t142.5 63q81 0 130 -54v44h109
v-319h15q53 0 89 51.5t36 123.5q0 123 -94 212t-254 89q-140 0 -243 -95t-103 -257t104 -262.5t251 -100.5zM478 117q47 1 78 32t31 77t-31 77.5t-78 31.5t-77 -31.5t-30 -77.5q0 -47 30 -77.5t77 -31.5z" />
    <glyph glyph-name="A" unicode="A" horiz-adv-x="658" 
d="M660 0h-147l-45 131h-277l-45 -131h-148l253 700h163zM330 537l-95 -278h190z" />
    <glyph glyph-name="B" unicode="B" horiz-adv-x="626" 
d="M378 0h-297v700h275q97 0 158 -57t61 -141q0 -46 -19.5 -81t-43.5 -52q81 -49 81 -159q0 -91 -61.5 -150.5t-153.5 -59.5zM218 579v-166h124q40 0 66 22t26 62q0 38 -26 60t-66 22h-124zM218 297v-176h137q46 0 71 25t26 64q1 38 -25.5 62.5t-71.5 24.5h-137z" />
    <glyph glyph-name="C" unicode="C" horiz-adv-x="760" 
d="M406 -10q-155 0 -260.5 103.5t-105.5 256.5t105.5 256.5t260.5 103.5q105 0 185 -45.5t128 -125.5l-123 -70q-60 104 -190 104q-91 0 -154.5 -64t-63.5 -159t63.5 -159t154.5 -64q63 0 112 27.5t78 77.5l124 -70q-48 -79 -131 -125.5t-183 -46.5z" />
    <glyph glyph-name="D" unicode="D" horiz-adv-x="747" 
d="M351 0h-270v700h270q149 0 252.5 -102t103.5 -247q0 -146 -103.5 -248.5t-252.5 -102.5zM221 572v-444h110q96 0 162 60t66 163q0 102 -66 161.5t-162 59.5h-110z" />
    <glyph glyph-name="E" unicode="E" 
d="M532 0h-451v700h451v-126h-313v-151h284v-125h-284v-172h313v-126z" />
    <glyph glyph-name="F" unicode="F" horiz-adv-x="580" 
d="M219 0h-138v700h451v-126h-313v-174h284v-124h-284v-276z" />
    <glyph glyph-name="G" unicode="G" horiz-adv-x="813" 
d="M406 -10q-155 0 -260.5 103.5t-105.5 256.5t105.5 256.5t260.5 103.5q105 0 185 -45.5t128 -125.5l-124 -71q-60 105 -189 105q-91 0 -154.5 -64t-63.5 -159t63.5 -159t154.5 -64q67 0 117 31t76 86h-191v122h365v-16q0 -156 -104.5 -258t-262.5 -102z" />
    <glyph glyph-name="H" unicode="H" horiz-adv-x="766" 
d="M545 424v276h140v-700h-140v292h-324v-292h-140v700h140v-276h324z" />
    <glyph glyph-name="I" unicode="I" horiz-adv-x="465" 
d="M389 700v-125h-86v-450h86v-125h-313v125h87v450h-87v125h313z" />
    <glyph glyph-name="J" unicode="J" horiz-adv-x="584" 
d="M249 -10q-78 0 -139.5 42t-89.5 106l112 71q14 -35 45 -58.5t72 -23.5q57 0 91 34.5t34 97.5v441h141v-452q0 -115 -71.5 -186.5t-194.5 -71.5z" />
    <glyph glyph-name="K" unicode="K" horiz-adv-x="649" 
d="M353 368l300 -368h-171l-264 326v-326h-137v700h137v-294l263 294h166z" />
    <glyph glyph-name="L" unicode="L" horiz-adv-x="534" 
d="M514 0h-433v700h137v-571h296v-129z" />
    <glyph glyph-name="M" unicode="M" horiz-adv-x="915" 
d="M499 -5h-83l-199 438v-433h-136v700h157l220 -484l219 484h157v-700h-136v433z" />
    <glyph glyph-name="N" unicode="N" horiz-adv-x="751" 
d="M670 -5h-113l-340 471v-466h-136v700h133l320 -444v444h136v-705z" />
    <glyph glyph-name="O" unicode="O" horiz-adv-x="818" 
d="M408 -10q-156 0 -262 103.5t-106 256.5t106 256.5t262 103.5t263 -103.5t107 -256.5t-107 -256.5t-263 -103.5zM408 127q95 0 158 64.5t63 158.5t-63 158.5t-158 64.5q-94 0 -157 -64.5t-63 -158.5t62.5 -158.5t157.5 -64.5z" />
    <glyph glyph-name="P" unicode="P" horiz-adv-x="608" 
d="M221 0h-140v700h269q98 0 168.5 -67.5t70.5 -164.5q0 -98 -67.5 -168.5t-171.5 -70.5h-129v-229zM221 577v-221h100q52 0 85.5 31t33.5 81q0 48 -33.5 78.5t-85.5 30.5h-100z" />
    <glyph glyph-name="Q" unicode="Q" horiz-adv-x="818" 
d="M778 350q0 -164 -120 -269l103 -130h-151l-53 68q-70 -29 -149 -29q-156 0 -262 103.5t-106 256.5t106 256.5t262 103.5t263 -103.5t107 -256.5zM408 127q33 0 58 7l-120 153h149l74 -93q60 63 60 156q0 94 -63 158.5t-158 64.5q-94 0 -157 -64.5t-63 -158.5t62.5 -158.5
t157.5 -64.5z" />
    <glyph glyph-name="R" unicode="R" horiz-adv-x="626" 
d="M383 252l235 -252h-178l-217 250h-2v-250h-140v700h268q101 0 169 -63.5t68 -158.5q0 -86 -55.5 -150.5t-147.5 -75.5zM327 575h-106v-198h106q48 0 79 27t31 74q0 45 -30.5 71t-79.5 26z" />
    <glyph glyph-name="S" unicode="S" horiz-adv-x="594" 
d="M296 -10q-106 0 -171 51.5t-92 121.5l114 66q15 -43 53.5 -73t95.5 -30q55 0 86.5 22t31.5 61q0 67 -89 85l-68 12q-81 16 -132.5 67t-51.5 136q0 78 63 139.5t175 61.5q80 0 138.5 -36.5t87.5 -96.5l-115 -72q-10 32 -40 54.5t-71 22.5t-67.5 -21t-26.5 -50
q0 -58 74 -73l71 -14q98 -20 149 -76t51 -139q0 -90 -71 -154.5t-195 -64.5z" />
    <glyph glyph-name="T" unicode="T" horiz-adv-x="581" 
d="M363 0h-144v571h-209v129h561v-129h-208v-571z" />
    <glyph glyph-name="U" unicode="U" horiz-adv-x="726" 
d="M363 -10q-126 0 -205 79t-79 206v425h141v-418q0 -70 38.5 -113t104.5 -43t104.5 43t38.5 113v418h141v-425q0 -127 -79 -206t-205 -79z" />
    <glyph glyph-name="V" unicode="V" horiz-adv-x="693" 
d="M421 -5h-141l-275 705h154l188 -516l187 516h154z" />
    <glyph glyph-name="W" unicode="W" horiz-adv-x="990" 
d="M348 -5h-129l-214 705h150l132 -468l140 468h134l143 -468l131 468h150l-213 -705h-129l-149 465z" />
    <glyph glyph-name="X" unicode="X" horiz-adv-x="638" 
d="M398 357l231 -357h-158l-152 234l-151 -234h-158l230 357l-222 343h158l143 -221l143 221h158z" />
    <glyph glyph-name="Y" unicode="Y" horiz-adv-x="682" 
d="M416 0h-141v249l-268 451h160l176 -312l172 312h160l-259 -448v-252z" />
    <glyph glyph-name="Z" unicode="Z" horiz-adv-x="585" 
d="M544 0h-523l321 572h-292v128h514l-316 -572h296v-128z" />
    <glyph glyph-name="bracketleft" unicode="[" horiz-adv-x="306" 
d="M263 -180h-238v990h238v-94h-135v-802h135v-94z" />
    <glyph glyph-name="backslash" unicode="\" horiz-adv-x="362" 
d="M140 700l206 -700h-122l-206 700h122z" />
    <glyph glyph-name="bracketright" unicode="]" horiz-adv-x="306" 
d="M281 810v-990h-238v94h135v802h-135v94h238z" />
    <glyph glyph-name="asciicircum" unicode="^" horiz-adv-x="454" 
d="M114 395h-88l153 305h96l153 -305h-88l-113 231z" />
    <glyph glyph-name="underscore" unicode="_" horiz-adv-x="387" 
d="M369 -109h-351v99h351v-99z" />
    <glyph glyph-name="grave" unicode="`" horiz-adv-x="310" 
d="M199 676l38 -142h-88l-83 142h133z" />
    <glyph glyph-name="a" unicode="a" horiz-adv-x="513" 
d="M218 -11q-80 0 -128.5 43.5t-48.5 107.5q0 59 43 95.5t111 36.5h100q39 0 39 35q0 19 -23.5 36.5t-64.5 17.5q-71 0 -100 -62l-90 58q23 50 73 82t117 32q99 0 154 -57.5t55 -135.5v-278h-116v32q-39 -43 -121 -43zM235 89q45 0 71.5 25t26.5 62v6h-115
q-22 0 -35.5 -12.5t-13.5 -32.5q0 -21 17.5 -34.5t48.5 -13.5z" />
    <glyph glyph-name="b" unicode="b" horiz-adv-x="596" 
d="M317 471q103 0 173 -71.5t70 -169.5t-70 -169.5t-173 -71.5q-71 0 -129 36v-25h-125v700h125v-265q58 36 129 36zM309 107q53 1 87 36t34 87t-34 87t-87 36q-53 -1 -87 -36t-34 -87t34 -87t87 -36z" />
    <glyph glyph-name="c" unicode="c" horiz-adv-x="529" 
d="M287 -11q-108 0 -179.5 70.5t-71.5 170.5t71.5 170.5t179.5 70.5q71 0 126.5 -31.5t87.5 -85.5l-104 -68q-33 65 -110 67q-53 -1 -87 -36t-34 -87t34 -87t87 -36q73 2 106 60l104 -67q-31 -51 -86 -81t-124 -30z" />
    <glyph glyph-name="d" unicode="d" 
d="M408 435v265h125v-700h-125v25q-58 -36 -129 -36q-102 0 -172.5 71.5t-70.5 169.5t70.5 169.5t172.5 71.5q71 0 129 -36zM287 107q53 1 87 36t34 87t-34 87t-87 36q-53 -1 -87 -36t-34 -87t34 -87t87 -36z" />
    <glyph glyph-name="e" unicode="e" horiz-adv-x="565" 
d="M288 -11q-110 0 -181 70.5t-71 170.5t70 170.5t180 70.5q113 0 182 -78.5t59 -198.5h-358q10 -41 42.5 -65t76.5 -25q75 2 108 58l99 -70q-34 -48 -88 -75.5t-119 -27.5zM172 278h228q-10 34 -41 57t-73 24q-43 -1 -73 -23t-41 -58z" />
    <glyph glyph-name="f" unicode="f" horiz-adv-x="356" 
d="M232 0h-125v353h-87v102h27q28 0 46 14t18 40v23q0 89 56.5 138.5t144.5 49.5h20v-117h-16q-37 0 -60.5 -23t-23.5 -64v-56h115v-107h-115v-353z" />
    <glyph glyph-name="g" unicode="g" 
d="M408 435v25h125v-464q0 -104 -70 -171t-182 -67q-72 0 -128 31.5t-83 81.5l96 70q15 -27 46.5 -44.5t68.5 -17.5q58 0 92.5 33t34.5 84v29q-58 -36 -129 -36q-102 0 -172.5 71.5t-70.5 169.5t70.5 169.5t172.5 71.5q71 0 129 -36zM287 107q53 1 87 36t34 87t-34 87
t-87 36q-53 -1 -87 -36t-34 -87t34 -87t87 -36z" />
    <glyph glyph-name="h" unicode="h" horiz-adv-x="543" 
d="M188 0h-125v700h125v-270q43 41 115 41q78 0 130 -51.5t52 -127.5v-292h-125v266q0 39 -22.5 64.5t-62.5 25.5q-38 0 -62.5 -27t-24.5 -70v-259z" />
    <glyph glyph-name="i" unicode="i" horiz-adv-x="231" 
d="M115 549q-34 0 -56.5 21.5t-22.5 53.5t22.5 54.5t56.5 22.5q35 0 57.5 -22t22.5 -55q0 -32 -22.5 -53.5t-57.5 -21.5zM178 0h-125v460h125v-460z" />
    <glyph glyph-name="j" unicode="j" horiz-adv-x="225" 
d="M115 549q-34 0 -56.5 21.5t-22.5 53.5t22.5 54.5t56.5 22.5q35 0 57.5 -22t22.5 -55q0 -32 -22.5 -53.5t-57.5 -21.5zM-42 -232v117q96 0 96 98v477h125v-477q0 -110 -60.5 -162.5t-160.5 -52.5z" />
    <glyph glyph-name="k" unicode="k" horiz-adv-x="504" 
d="M307 257l202 -257h-158l-163 213v-213h-125v700h125v-403l139 163h160z" />
    <glyph glyph-name="l" unicode="l" horiz-adv-x="281" 
d="M248 -7h-24q-166 0 -166 173v534h125v-531q0 -58 65 -58v-118z" />
    <glyph glyph-name="m" unicode="m" horiz-adv-x="832" 
d="M188 0h-125v460h119v-37q41 48 118 48q89 0 136 -64q49 64 143 64q84 0 139.5 -51.5t55.5 -127.5v-292h-125v266q0 39 -22 64.5t-62 25.5q-38 0 -62 -26.5t-24 -68.5v-261h-125v266q0 39 -21 64.5t-60 25.5q-38 0 -61.5 -26.5t-23.5 -68.5v-261z" />
    <glyph glyph-name="n" unicode="n" horiz-adv-x="543" 
d="M188 0h-125v460h119v-37q41 48 121 48q78 0 130 -51.5t52 -127.5v-292h-125v266q0 39 -22.5 64.5t-62.5 25.5q-38 0 -62.5 -26t-24.5 -69v-261z" />
    <glyph glyph-name="o" unicode="o" horiz-adv-x="575" 
d="M287 -11q-108 0 -179.5 70t-71.5 171q0 100 71.5 170.5t179.5 70.5q109 0 180 -70t71 -171t-71 -171t-180 -70zM287 107q53 1 87 36t34 87t-34 87t-87 36q-53 -1 -87 -36t-34 -87t34 -87t87 -36z" />
    <glyph glyph-name="p" unicode="p" horiz-adv-x="597" 
d="M318 471q102 0 172.5 -71.5t70.5 -169.5t-70.5 -169.5t-172.5 -71.5q-68 0 -130 37v-257h-125v691h125v-26q62 37 130 37zM310 107q53 1 87 36t34 87t-34 87t-87 36q-53 -1 -87 -36t-34 -87t34 -87t87 -36z" />
    <glyph glyph-name="q" unicode="q" horiz-adv-x="592" 
d="M409 434v26h125v-691h-125v257q-62 -37 -130 -37q-102 0 -172.5 71.5t-70.5 169.5t70.5 169.5t172.5 71.5q68 0 130 -37zM287 107q53 1 87 36t34 87t-34 87t-87 36q-53 -1 -87 -36t-34 -87t34 -87t87 -36z" />
    <glyph glyph-name="r" unicode="r" horiz-adv-x="368" 
d="M186 0h-123v460h117v-54q37 61 127 61h35v-119h-49q-51 0 -79 -30t-28 -82v-236z" />
    <glyph glyph-name="s" unicode="s" horiz-adv-x="409" 
d="M201 -11q-71 0 -115 33t-60 84l109 41q16 -47 68 -47q56 0 56 37q0 33 -54 42q-78 13 -121.5 47t-43.5 104q0 59 45.5 100t120.5 41q64 0 105.5 -30t55.5 -78l-105 -35q-11 37 -56 37q-21 0 -33.5 -9.5t-12.5 -24.5q0 -31 54 -40q168 -26 168 -148q0 -67 -48 -110.5
t-133 -43.5z" />
    <glyph glyph-name="t" unicode="t" horiz-adv-x="408" 
d="M361 -6h-86q-82 0 -126 41.5t-44 121.5v196h-78v93h3q42 0 73 34.5t31 87.5v2h96v-110h131v-107h-131v-178q0 -67 68 -67h63v-114z" />
    <glyph glyph-name="u" unicode="u" horiz-adv-x="507" 
d="M253 -11q-102 0 -156 60t-54 153v258h125v-262q0 -39 22.5 -65t62.5 -26t63 26t23 65v262h125v-258q0 -93 -54 -153t-157 -60z" />
    <glyph glyph-name="v" unicode="v" horiz-adv-x="523" 
d="M310 -5h-97l-206 465h141l113 -285l121 285h135z" />
    <glyph glyph-name="w" unicode="w" horiz-adv-x="734" 
d="M262 -5h-93l-162 465h133l89 -271l89 271h98l91 -271l87 271h134l-161 -465h-93l-107 283z" />
    <glyph glyph-name="x" unicode="x" horiz-adv-x="511" 
d="M326 240l174 -240h-143l-101 142l-102 -142h-142l174 239l-158 221h138l90 -124l90 124h138z" />
    <glyph glyph-name="y" unicode="y" horiz-adv-x="543" 
d="M176 -232h-147l169 309l-191 383h139l124 -257l128 257h139z" />
    <glyph glyph-name="z" unicode="z" horiz-adv-x="464" 
d="M425 0h-397l208 350h-190v110h390l-202 -347h191v-113z" />
    <glyph glyph-name="braceleft" unicode="{" horiz-adv-x="406" 
d="M363 -86v-94q-125 1 -193 68t-68 179v122q0 34 -18 56t-46 22h-13v96h13q28 0 46 22t18 56v122q0 112 68 179t193 68v-94q-76 0 -116.5 -41t-40.5 -112v-131q0 -94 -66 -117q66 -24 66 -117v-131q0 -71 40.5 -112t116.5 -41z" />
    <glyph glyph-name="bar" unicode="|" horiz-adv-x="192" 
d="M155 -300h-119v1060h119v-1060z" />
    <glyph glyph-name="braceright" unicode="}" horiz-adv-x="406" 
d="M43 -180v94q77 0 117.5 41t40.5 112v131q0 93 65 117q-65 23 -65 117v131q0 71 -40.5 112t-117.5 41v94q125 -1 193 -68t68 -179v-122q0 -34 18 -56t46 -22h13v-96h-13q-28 0 -46 -22t-18 -56v-122q0 -112 -68 -179t-193 -68z" />
    <glyph glyph-name="asciitilde" unicode="~" horiz-adv-x="583" 
d="M393 233q-46 0 -109 35t-87 35q-23 0 -37.5 -16t-14.5 -47h-85q0 76 37.5 117t92.5 41q48 0 110.5 -35t85.5 -35q21 0 36.5 20t15.5 44h85q0 -77 -37.5 -118t-92.5 -41z" />
    <glyph glyph-name="exclamdown" unicode="&#xa1;" horiz-adv-x="304" 
d="M154 478q36 0 58 -22.5t22 -54.5q0 -33 -22 -55.5t-58 -22.5q-35 0 -57.5 23t-22.5 55q0 31 23 54t57 23zM74 -232l32 474h92l32 -474h-156z" />
    <glyph glyph-name="cent" unicode="&#xa2;" horiz-adv-x="544" 
d="M287 197q73 2 106 60l104 -67q-31 -51 -86 -81t-124 -30q-24 0 -51 5l-53 -184h-55l57 199q-68 28 -108.5 87.5t-40.5 133.5q0 100 71.5 170.5t179.5 70.5q11 0 31 -2l40 141h55l-44 -151q87 -28 132 -105l-104 -68q-18 38 -61 57l-67 -235q3 0 9 -0.5t9 -0.5zM166 320
q0 -68 53 -103l65 226q-51 -1 -84.5 -36.5t-33.5 -86.5z" />
    <glyph glyph-name="sterling" unicode="&#xa3;" horiz-adv-x="599" 
d="M230 246v-121h328v-125h-523v125h65v121h-75v105h19q26 0 41 14.5t15 39.5v22q0 99 63.5 161t170.5 62q71 0 126 -34t82 -86l-102 -84q-9 33 -36.5 57.5t-69.5 24.5q-45 0 -74.5 -29t-29.5 -78v-70h185v-105h-185z" />
    <glyph glyph-name="currency" unicode="&#xa4;" horiz-adv-x="594" 
d="M194 134l-76 -78l-78 79l76 78q-28 48 -28 106q0 57 29 109l-77 79l78 78l79 -80q48 28 104 28q52 0 99 -25l76 77l78 -78l-72 -75q33 -53 33 -113q0 -61 -32 -112l71 -72l-78 -79l-73 75q-47 -26 -102 -26t-107 29zM301 210q45 0 75.5 31t30.5 78t-30.5 77.5t-75.5 30.5
q-46 0 -77 -30.5t-31 -77.5t31 -78t77 -31z" />
    <glyph glyph-name="yen" unicode="&#xa5;" horiz-adv-x="626" 
d="M474 640h145l-194 -318h124v-83h-168v-45h168v-84h-168v-110h-128v110h-164v84h164v45h-164v83h118l-200 318h145l161 -270z" />
    <glyph glyph-name="section" unicode="&#xa7;" horiz-adv-x="479" 
d="M380 110q76 -56 76 -152q0 -68 -56 -125t-158 -57q-71 0 -123.5 33.5t-77.5 84.5l97 65q11 -30 38.5 -50t65.5 -20q43 0 66.5 22t23.5 50q0 29 -18 47t-55 33l-103 42q-61 24 -97 63t-36 106q0 40 22 73.5t56 49.5q-78 55 -78 153q0 68 56 125t158 57q71 0 123 -33.5
t78 -84.5l-98 -65q-11 29 -38 49.5t-65 20.5q-43 0 -66.5 -22t-23.5 -50q0 -30 18 -47.5t55 -32.5l103 -41q133 -53 133 -170q0 -38 -23 -73.5t-53 -50.5zM150 258q0 -45 64 -71l40 -16q29 -3 51.5 14.5t22.5 43.5q0 46 -61 70l-40 16q-30 6 -53.5 -12t-23.5 -45z" />
    <glyph glyph-name="dieresis" unicode="&#xa8;" horiz-adv-x="467" 
d="M139 546q-29 0 -47.5 19t-18.5 47q0 29 18.5 47.5t47.5 18.5q30 0 49 -18.5t19 -47.5t-19 -47.5t-49 -18.5zM326 546q-29 0 -48 19t-19 47q0 29 19 47.5t48 18.5t48.5 -18.5t19.5 -47.5q0 -28 -19.5 -47t-48.5 -19z" />
    <glyph glyph-name="copyright" unicode="&#xa9;" horiz-adv-x="798" 
d="M399 -10q-148 0 -253.5 105.5t-105.5 254.5t105.5 254.5t253.5 105.5q149 0 254.5 -106t105.5 -254t-105.5 -254t-254.5 -106zM399 69q116 0 198 82.5t82 198.5q0 117 -82 198.5t-198 81.5q-117 0 -199 -81.5t-82 -198.5q0 -116 82.5 -198.5t198.5 -82.5zM396 161
q-79 0 -131 53.5t-52 134.5q0 80 53.5 133.5t132.5 53.5q51 0 93.5 -24t65.5 -66l-68 -43q-29 54 -91 54q-45 0 -73.5 -30.5t-28.5 -76.5q0 -47 28.5 -78t73.5 -31q63 0 92 54l68 -44q-23 -41 -67.5 -65.5t-95.5 -24.5z" />
    <glyph glyph-name="ordfeminine" unicode="&#xaa;" horiz-adv-x="341" 
d="M154 334q-54 0 -87.5 28.5t-33.5 69.5q0 40 28.5 64t76.5 24h62q28 0 28 21q0 11 -16.5 22t-43.5 11q-50 0 -71 -41l-58 41q35 75 129 75q65 0 102.5 -36t37.5 -84v-188h-79v21q-22 -28 -75 -28zM162 402q27 0 45 14.5t18 38.5v4h-73q-14 0 -23 -7.5t-9 -20.5
q0 -29 42 -29z" />
    <glyph glyph-name="guillemotleft" unicode="&#xab;" horiz-adv-x="479" 
d="M269 81h-111l-132 174l132 173h114l-117 -173zM450 81h-111l-132 174l132 173h113l-117 -173z" />
    <glyph glyph-name="registered" unicode="&#xae;" horiz-adv-x="504" 
d="M252 376q-80 0 -136 56t-56 136t56 136t136 56t136 -56t56 -136t-56 -136t-136 -56zM252 420q62 0 104 43t42 105q0 63 -41.5 105.5t-104.5 42.5t-105 -42.5t-42 -105.5q0 -62 42 -105t105 -43zM227 471h-44v198h85q28 0 47.5 -18t19.5 -45q0 -28 -18 -45.5t-39 -17.5h-1
l76 -72h-60l-66 70v-70zM227 631v-51h35q11 0 19 7t8 19q0 11 -8 18t-19 7h-35z" />
    <glyph glyph-name="macron" unicode="&#xaf;" horiz-adv-x="411" 
d="M338 566h-265v88h265v-88z" />
    <glyph glyph-name="degree" unicode="&#xb0;" horiz-adv-x="378" 
d="M199 421q-63 0 -106 42.5t-43 102.5t43 102t106 42q62 0 105 -42t43 -102t-43 -102.5t-105 -42.5zM198 507q27 0 43 17t16 42q0 24 -16 41.5t-43 17.5t-43.5 -17.5t-16.5 -41.5q0 -26 16 -42.5t44 -16.5z" />
    <glyph glyph-name="uni00B2" unicode="&#xb2;" horiz-adv-x="403" 
d="M369 237h-329l179 205q54 62 54 108q0 27 -20.5 48.5t-53.5 21.5q-31 0 -51 -21t-20 -49q0 -32 23 -53l-59 -61q-26 19 -42 52t-16 70q0 59 46 105.5t119 46.5q78 0 126 -49.5t48 -110.5q0 -67 -66 -142l-74 -83h136v-88z" />
    <glyph glyph-name="uni00B3" unicode="&#xb3;" horiz-adv-x="393" 
d="M185 227q-96 0 -147 83l77 49q9 -18 28 -29.5t42 -11.5q32 0 52.5 19.5t20.5 49.5q0 28 -20.5 48.5t-52.5 20.5q-29 0 -48 -19l-53 54l98 125h-131v84h294l-128 -167l2 1h3q56 -3 95.5 -46t39.5 -101q0 -66 -48 -113t-124 -47z" />
    <glyph glyph-name="acute" unicode="&#xb4;" horiz-adv-x="317" 
d="M161 534h-88l38 142h133z" />
    <glyph glyph-name="paragraph" unicode="&#xb6;" horiz-adv-x="682" 
d="M234 700h367v-106h-69v-604q0 -106 -58 -164t-155 -58v100q52 0 80.5 30.5t28.5 78.5v617h-53v-654h-104v342h-23q-85 0 -146.5 61t-61.5 149q0 86 56.5 147t137.5 61z" />
    <glyph glyph-name="periodcentered" unicode="&#xb7;" horiz-adv-x="229" 
d="M116 204q-34 0 -57 23t-23 54q0 32 22.5 55t57.5 23q36 0 58 -22.5t22 -55.5q0 -32 -22 -54.5t-58 -22.5z" />
    <glyph glyph-name="cedilla" unicode="&#xb8;" horiz-adv-x="368" 
d="M172 -242q-63 0 -99 46l37 55q28 -30 62 -30q17 0 29 9t12 22t-12.5 22.5t-29.5 9.5q-16 0 -28 -7l-24 32l42 103h75l-32 -71q38 -1 64.5 -27.5t26.5 -63.5q0 -41 -33 -70.5t-90 -29.5z" />
    <glyph glyph-name="uni00B9" unicode="&#xb9;" horiz-adv-x="277" 
d="M241 237h-96v340l-109 -68v105l142 86h63v-463z" />
    <glyph glyph-name="ordmasculine" unicode="&#xba;" horiz-adv-x="395" 
d="M197 334q-70 0 -117 46t-47 112q0 65 47 111t117 46q71 0 117.5 -45.5t46.5 -111.5t-46.5 -112t-117.5 -46zM197 414q34 1 55.5 23t21.5 55t-21.5 55t-55.5 22q-33 0 -54.5 -22t-21.5 -55t21 -55t55 -23z" />
    <glyph glyph-name="guillemotright" unicode="&#xbb;" horiz-adv-x="479" 
d="M272 255l-133 -174h-110l114 174l-117 173h113zM452 255l-132 -174h-110l114 174l-117 173h113z" />
    <glyph glyph-name="onequarter" unicode="&#xbc;" horiz-adv-x="901" 
d="M241 237h-96v340l-109 -68v105l142 86h63v-463zM295 -80h-118l364 780h118zM793 0h-95v85h-229v59l246 319h78v-295h72v-81h-72v-87zM698 315l-112 -146h112v146z" />
    <glyph glyph-name="onehalf" unicode="&#xbd;" horiz-adv-x="934" 
d="M241 237h-96v340l-109 -68v105l142 86h63v-463zM295 -80h-118l364 780h118zM893 0h-328l178 205q55 61 55 108q0 26 -21 48t-53 22q-31 0 -51 -21t-20 -49q0 -32 23 -53l-60 -61q-26 19 -41.5 52t-15.5 70q0 59 46 105.5t119 46.5q78 0 126 -49.5t48 -110.5
q0 -67 -66 -142l-74 -83h135v-88z" />
    <glyph glyph-name="threequarters" unicode="&#xbe;" horiz-adv-x="900" 
d="M185 227q-96 0 -147 83l77 49q9 -18 28 -29.5t42 -11.5q32 0 52.5 19.5t20.5 49.5q0 28 -20.5 48.5t-52.5 20.5q-29 0 -48 -19l-53 54l98 125h-131v84h294l-128 -167l2 1h3q56 -3 95.5 -46t39.5 -101q0 -66 -48 -113t-124 -47zM379 -80h-117l364 780h117zM880 0h-95v85
h-230v59l246 319h79v-295h71v-81h-71v-87zM785 315l-113 -146h113v146z" />
    <glyph glyph-name="questiondown" unicode="&#xbf;" horiz-adv-x="450" 
d="M228 323q-36 0 -58.5 23t-22.5 55t22.5 54.5t58.5 22.5q34 0 57 -23t23 -54q0 -32 -22.5 -55t-57.5 -23zM328 -56l93 -64q-23 -57 -74 -89.5t-114 -32.5q-103 0 -165 60t-62 139q0 43 16.5 78t39.5 57.5t46 42.5t39.5 43.5t16.5 49.5v14h125v-14q0 -39 -16 -70.5
t-38.5 -52.5t-44.5 -40t-38 -43t-16 -53q0 -40 27 -66.5t70 -26.5q69 1 95 68z" />
    <glyph glyph-name="Agrave" unicode="&#xc0;" horiz-adv-x="658" 
d="M347 926l38 -142h-88l-83 142h133zM660 0h-147l-45 131h-277l-45 -131h-148l253 700h163zM330 537l-95 -278h190z" />
    <glyph glyph-name="Aacute" unicode="&#xc1;" horiz-adv-x="658" 
d="M313 926h133l-83 -142h-88zM660 0h-147l-45 131h-277l-45 -131h-148l253 700h163zM330 537l-95 -278h190z" />
    <glyph glyph-name="Acircumflex" unicode="&#xc2;" horiz-adv-x="658" 
d="M400 784l-69 62l-69 -62h-82l93 142h115l93 -142h-81zM660 0h-147l-45 131h-277l-45 -131h-148l253 700h163zM330 537l-95 -278h190z" />
    <glyph glyph-name="Atilde" unicode="&#xc3;" horiz-adv-x="658" 
d="M280 846q-14 0 -22.5 -11t-8.5 -26h-74q0 62 28 93.5t67 31.5q26 0 48 -12t37.5 -23.5t25.5 -11.5q14 0 22.5 11t8.5 27h74q0 -65 -27.5 -95t-67.5 -30q-29 0 -62.5 23t-48.5 23zM660 0h-147l-45 131h-277l-45 -131h-148l253 700h163zM330 537l-95 -278h190z" />
    <glyph glyph-name="Adieresis" unicode="&#xc4;" horiz-adv-x="658" 
d="M237 796q-29 0 -47.5 19t-18.5 47q0 29 18.5 47.5t47.5 18.5q30 0 49 -18.5t19 -47.5t-19 -47.5t-49 -18.5zM424 796q-29 0 -48 19t-19 47q0 29 19 47.5t48 18.5t48.5 -18.5t19.5 -47.5q0 -28 -19.5 -47t-48.5 -19zM660 0h-147l-45 131h-277l-45 -131h-148l253 700h163z
M330 537l-95 -278h190z" />
    <glyph glyph-name="Aring" unicode="&#xc5;" horiz-adv-x="658" 
d="M332 759q-44 0 -73.5 28t-29.5 70t29.5 69.5t73.5 27.5t73 -27.5t29 -69.5q0 -43 -28.5 -70.5t-73.5 -27.5zM332 897q-18 0 -29.5 -11.5t-11.5 -28.5t11.5 -28.5t29.5 -11.5t29 11.5t11 28.5t-11 28.5t-29 11.5zM660 0h-147l-45 131h-277l-45 -131h-148l253 700h163z
M330 537l-95 -278h190z" />
    <glyph glyph-name="AE" unicode="&#xc6;" horiz-adv-x="891" 
d="M146 0h-148l253 700h580v-126h-374l56 -151h289v-125h-247l62 -172h214v-126h-318l-45 131h-277zM330 537l-98 -278h194z" />
    <glyph glyph-name="Ccedilla" unicode="&#xc7;" horiz-adv-x="760" 
d="M596 232l124 -70q-45 -75 -121 -120.5t-168 -50.5l-19 -42q38 -1 64.5 -27.5t26.5 -63.5q0 -41 -33 -70.5t-90 -29.5q-63 0 -99 46l37 55q28 -30 62 -30q17 0 29 9t12 22t-12.5 22.5t-29.5 9.5q-16 0 -28 -7l-24 32l31 76q-138 17 -228 117t-90 240q0 153 105.5 256.5
t260.5 103.5q105 0 185 -45.5t128 -125.5l-123 -70q-60 104 -190 104q-91 0 -154.5 -64t-63.5 -159t63.5 -159t154.5 -64q63 0 112 27.5t78 77.5z" />
    <glyph glyph-name="Egrave" unicode="&#xc8;" 
d="M340 926l38 -142h-88l-83 142h133zM532 0h-451v700h451v-126h-313v-151h284v-125h-284v-172h313v-126z" />
    <glyph glyph-name="Eacute" unicode="&#xc9;" 
d="M356 784h-88l38 142h133zM532 0h-451v700h451v-126h-313v-151h284v-125h-284v-172h313v-126z" />
    <glyph glyph-name="Ecircumflex" unicode="&#xca;" 
d="M255 784h-82l93 142h115l93 -142h-81l-69 62zM532 0h-451v700h451v-126h-313v-151h284v-125h-284v-172h313v-126z" />
    <glyph glyph-name="Edieresis" unicode="&#xcb;" 
d="M230 796q-28 0 -47 19t-19 47q0 29 18.5 47.5t47.5 18.5q30 0 49 -18.5t19 -47.5t-19 -47.5t-49 -18.5zM417 796q-29 0 -48 19t-19 47q0 29 19 47.5t48 18.5t48.5 -18.5t19.5 -47.5q0 -28 -19.5 -47t-48.5 -19zM532 0h-451v700h451v-126h-313v-151h284v-125h-284v-172
h313v-126z" />
    <glyph glyph-name="Igrave" unicode="&#xcc;" horiz-adv-x="465" 
d="M252 926l38 -142h-88l-83 142h133zM389 700v-125h-86v-450h86v-125h-313v125h87v450h-87v125h313z" />
    <glyph glyph-name="Iacute" unicode="&#xcd;" horiz-adv-x="465" 
d="M217 926h133l-83 -142h-88zM389 700v-125h-86v-450h86v-125h-313v125h87v450h-87v125h313z" />
    <glyph glyph-name="Icircumflex" unicode="&#xce;" horiz-adv-x="465" 
d="M305 784l-69 62l-69 -62h-82l93 142h115l93 -142h-81zM389 700v-125h-86v-450h86v-125h-313v125h87v450h-87v125h313z" />
    <glyph glyph-name="Idieresis" unicode="&#xcf;" horiz-adv-x="465" 
d="M142 796q-28 0 -47 19t-19 47q0 29 18.5 47.5t47.5 18.5q30 0 49 -18.5t19 -47.5t-19 -47.5t-49 -18.5zM329 796q-29 0 -48 19t-19 47q0 29 19 47.5t48 18.5t48.5 -18.5t19.5 -47.5q0 -28 -19.5 -47t-48.5 -19zM76 700h313v-125h-86v-450h86v-125h-313v125h87v450h-87
v125z" />
    <glyph glyph-name="Eth" unicode="&#xd0;" horiz-adv-x="747" 
d="M81 700h270q149 0 252.5 -102t103.5 -247q0 -146 -103.5 -248.5t-252.5 -102.5h-270v302h-63v102h63v296zM221 128h110q96 0 162 60t66 163q0 102 -66 161.5t-162 59.5h-110v-168h164v-102h-164v-174z" />
    <glyph glyph-name="Ntilde" unicode="&#xd1;" horiz-adv-x="751" 
d="M438 800q-29 0 -62.5 23t-48.5 23q-14 0 -22.5 -11t-8.5 -26h-74q0 62 28 93.5t67 31.5q26 0 48 -12t37.5 -23.5t25.5 -11.5q14 0 22.5 11t8.5 27h74q0 -65 -27.5 -95t-67.5 -30zM670 -5h-113l-340 471v-466h-136v700h133l320 -444v444h136v-705z" />
    <glyph glyph-name="Ograve" unicode="&#xd2;" horiz-adv-x="818" 
d="M429 926l38 -142h-88l-83 142h133zM408 -10q-156 0 -262 103.5t-106 256.5t106 256.5t262 103.5t263 -103.5t107 -256.5t-107 -256.5t-263 -103.5zM408 127q95 0 158 64.5t63 158.5t-63 158.5t-158 64.5q-94 0 -157 -64.5t-63 -158.5t62.5 -158.5t157.5 -64.5z" />
    <glyph glyph-name="Oacute" unicode="&#xd3;" horiz-adv-x="818" 
d="M444 784h-88l38 142h133zM408 -10q-156 0 -262 103.5t-106 256.5t106 256.5t262 103.5t263 -103.5t107 -256.5t-107 -256.5t-263 -103.5zM408 127q95 0 158 64.5t63 158.5t-63 158.5t-158 64.5q-94 0 -157 -64.5t-63 -158.5t62.5 -158.5t157.5 -64.5z" />
    <glyph glyph-name="Ocircumflex" unicode="&#xd4;" horiz-adv-x="818" 
d="M344 784h-82l93 142h115l93 -142h-81l-69 62zM408 -10q-156 0 -262 103.5t-106 256.5t106 256.5t262 103.5t263 -103.5t107 -256.5t-107 -256.5t-263 -103.5zM408 127q95 0 158 64.5t63 158.5t-63 158.5t-158 64.5q-94 0 -157 -64.5t-63 -158.5t62.5 -158.5t157.5 -64.5z
" />
    <glyph glyph-name="Otilde" unicode="&#xd5;" horiz-adv-x="818" 
d="M473 800q-29 0 -62.5 23t-48.5 23q-14 0 -22.5 -11t-8.5 -26h-74q0 62 28 93.5t67 31.5q26 0 48 -12t37.5 -23.5t25.5 -11.5q14 0 22.5 11t8.5 27h74q0 -65 -27.5 -95t-67.5 -30zM408 -10q-156 0 -262 103.5t-106 256.5t106 256.5t262 103.5t263 -103.5t107 -256.5
t-107 -256.5t-263 -103.5zM408 127q95 0 158 64.5t63 158.5t-63 158.5t-158 64.5q-94 0 -157 -64.5t-63 -158.5t62.5 -158.5t157.5 -64.5z" />
    <glyph glyph-name="Odieresis" unicode="&#xd6;" horiz-adv-x="818" 
d="M319 796q-29 0 -47.5 19t-18.5 47q0 29 18.5 47.5t47.5 18.5q30 0 49 -18.5t19 -47.5t-19 -47.5t-49 -18.5zM506 796q-29 0 -48 19t-19 47q0 29 19 47.5t48 18.5t48.5 -18.5t19.5 -47.5q0 -28 -19.5 -47t-48.5 -19zM408 -10q-156 0 -262 103.5t-106 256.5t106 256.5
t262 103.5t263 -103.5t107 -256.5t-107 -256.5t-263 -103.5zM408 127q95 0 158 64.5t63 158.5t-63 158.5t-158 64.5q-94 0 -157 -64.5t-63 -158.5t62.5 -158.5t157.5 -64.5z" />
    <glyph glyph-name="multiply" unicode="&#xd7;" horiz-adv-x="465" 
d="M234 250l-119 -119l-56 57l120 119l-120 120l56 56l119 -120l121 120l56 -56l-120 -120l119 -119l-56 -56z" />
    <glyph glyph-name="Oslash" unicode="&#xd8;" horiz-adv-x="818" 
d="M741 601l-36 -33q73 -95 73 -218q0 -153 -107 -256.5t-263 -103.5q-137 0 -239 83l-98 -91v118l39 36q-70 94 -70 214q0 153 106 256.5t262 103.5q135 0 237 -81l96 89v-117zM188 350q0 -61 30 -115l321 297q-57 41 -131 41q-94 0 -157 -64.5t-63 -158.5zM408 127
q95 0 158 64.5t63 158.5q0 66 -32 118l-322 -298q57 -43 133 -43z" />
    <glyph glyph-name="Ugrave" unicode="&#xd9;" horiz-adv-x="726" 
d="M373 926l38 -142h-88l-83 142h133zM363 -10q-126 0 -205 79t-79 206v425h141v-418q0 -70 38.5 -113t104.5 -43t104.5 43t38.5 113v418h141v-425q0 -127 -79 -206t-205 -79z" />
    <glyph glyph-name="Uacute" unicode="&#xda;" horiz-adv-x="726" 
d="M389 784h-88l38 142h133zM363 -10q-126 0 -205 79t-79 206v425h141v-418q0 -70 38.5 -113t104.5 -43t104.5 43t38.5 113v418h141v-425q0 -127 -79 -206t-205 -79z" />
    <glyph glyph-name="Ucircumflex" unicode="&#xdb;" horiz-adv-x="726" 
d="M288 784h-82l93 142h115l93 -142h-81l-69 62zM363 -10q-126 0 -205 79t-79 206v425h141v-418q0 -70 38.5 -113t104.5 -43t104.5 43t38.5 113v418h141v-425q0 -127 -79 -206t-205 -79z" />
    <glyph glyph-name="Udieresis" unicode="&#xdc;" horiz-adv-x="726" 
d="M263 796q-29 0 -47.5 19t-18.5 47q0 29 18.5 47.5t47.5 18.5q30 0 49 -18.5t19 -47.5t-19 -47.5t-49 -18.5zM450 796q-29 0 -48 19t-19 47q0 29 19 47.5t48 18.5t48.5 -18.5t19.5 -47.5q0 -28 -19.5 -47t-48.5 -19zM363 -10q-126 0 -205 79t-79 206v425h141v-418
q0 -70 38.5 -113t104.5 -43t104.5 43t38.5 113v418h141v-425q0 -127 -79 -206t-205 -79z" />
    <glyph glyph-name="Yacute" unicode="&#xdd;" horiz-adv-x="682" 
d="M376 784h-88l38 142h133zM416 0h-141v249l-268 451h160l176 -312l172 312h160l-259 -448v-252z" />
    <glyph glyph-name="Thorn" unicode="&#xde;" horiz-adv-x="612" 
d="M221 0h-140v700h140v-96h129q98 0 168.5 -67.5t70.5 -164.5q0 -98 -67.5 -168.5t-171.5 -70.5h-129v-133zM221 481v-221h100q52 0 85.5 31t33.5 81q0 48 -33.5 78.5t-85.5 30.5h-100z" />
    <glyph glyph-name="germandbls" unicode="&#xdf;" horiz-adv-x="584" 
d="M301 -242q-63 0 -117 28l30 111q39 -22 85 -22q56 0 91 36t35 86q0 55 -41 88.5t-102 33.5h-37l99 230h-156v-349h-125v516q0 93 57 148.5t147 55.5h20v-117h-15q-37 0 -60.5 -23t-23.5 -64v-56h329l-111 -254q60 -16 104.5 -71.5t44.5 -137.5q0 -40 -15.5 -81t-45 -77
t-80 -58.5t-113.5 -22.5z" />
    <glyph glyph-name="agrave" unicode="&#xe0;" horiz-adv-x="513" 
d="M268 676l38 -142h-88l-83 142h133zM218 -11q-80 0 -128.5 43.5t-48.5 107.5q0 59 43 95.5t111 36.5h100q39 0 39 35q0 19 -23.5 36.5t-64.5 17.5q-71 0 -100 -62l-90 58q23 50 73 82t117 32q99 0 154 -57.5t55 -135.5v-278h-116v32q-39 -43 -121 -43zM235 89
q45 0 71.5 25t26.5 62v6h-115q-22 0 -35.5 -12.5t-13.5 -32.5q0 -21 17.5 -34.5t48.5 -13.5z" />
    <glyph glyph-name="aacute" unicode="&#xe1;" horiz-adv-x="513" 
d="M284 534h-88l38 142h133zM218 -11q-80 0 -128.5 43.5t-48.5 107.5q0 59 43 95.5t111 36.5h100q39 0 39 35q0 19 -23.5 36.5t-64.5 17.5q-71 0 -100 -62l-90 58q23 50 73 82t117 32q99 0 154 -57.5t55 -135.5v-278h-116v32q-39 -43 -121 -43zM235 89q45 0 71.5 25t26.5 62
v6h-115q-22 0 -35.5 -12.5t-13.5 -32.5q0 -21 17.5 -34.5t48.5 -13.5z" />
    <glyph glyph-name="acircumflex" unicode="&#xe2;" horiz-adv-x="513" 
d="M183 534h-82l93 142h115l93 -142h-81l-69 62zM218 -11q-80 0 -128.5 43.5t-48.5 107.5q0 59 43 95.5t111 36.5h100q39 0 39 35q0 19 -23.5 36.5t-64.5 17.5q-71 0 -100 -62l-90 58q23 50 73 82t117 32q99 0 154 -57.5t55 -135.5v-278h-116v32q-39 -43 -121 -43zM235 89
q45 0 71.5 25t26.5 62v6h-115q-22 0 -35.5 -12.5t-13.5 -32.5q0 -21 17.5 -34.5t48.5 -13.5z" />
    <glyph glyph-name="atilde" unicode="&#xe3;" horiz-adv-x="513" 
d="M313 550q-29 0 -62.5 23t-48.5 23q-14 0 -22.5 -11t-8.5 -26h-74q0 62 28 93.5t67 31.5q26 0 48 -12t37.5 -23.5t25.5 -11.5q14 0 22.5 11t8.5 27h74q0 -65 -27.5 -95t-67.5 -30zM218 -11q-80 0 -128.5 43.5t-48.5 107.5q0 59 43 95.5t111 36.5h100q39 0 39 35
q0 19 -23.5 36.5t-64.5 17.5q-71 0 -100 -62l-90 58q23 50 73 82t117 32q99 0 154 -57.5t55 -135.5v-278h-116v32q-39 -43 -121 -43zM235 89q45 0 71.5 25t26.5 62v6h-115q-22 0 -35.5 -12.5t-13.5 -32.5q0 -21 17.5 -34.5t48.5 -13.5z" />
    <glyph glyph-name="adieresis" unicode="&#xe4;" horiz-adv-x="513" 
d="M159 546q-29 0 -47.5 19t-18.5 47q0 29 18.5 47.5t47.5 18.5q30 0 49 -18.5t19 -47.5t-19 -47.5t-49 -18.5zM346 546q-29 0 -48 19t-19 47q0 29 19 47.5t48 18.5t48.5 -18.5t19.5 -47.5q0 -28 -19.5 -47t-48.5 -19zM218 -11q-80 0 -128.5 43.5t-48.5 107.5q0 59 43 95.5
t111 36.5h100q39 0 39 35q0 19 -23.5 36.5t-64.5 17.5q-71 0 -100 -62l-90 58q23 50 73 82t117 32q99 0 154 -57.5t55 -135.5v-278h-116v32q-39 -43 -121 -43zM235 89q45 0 71.5 25t26.5 62v6h-115q-22 0 -35.5 -12.5t-13.5 -32.5q0 -21 17.5 -34.5t48.5 -13.5z" />
    <glyph glyph-name="aring" unicode="&#xe5;" horiz-adv-x="513" 
d="M254 509q-44 0 -73.5 28t-29.5 70t29.5 69.5t73.5 27.5t73 -27.5t29 -69.5q0 -43 -28.5 -70.5t-73.5 -27.5zM254 567q18 0 29 11.5t11 28.5t-11 28.5t-29 11.5t-29.5 -11.5t-11.5 -28.5t11.5 -28.5t29.5 -11.5zM218 -11q-80 0 -128.5 43.5t-48.5 107.5q0 59 43 95.5
t111 36.5h100q39 0 39 35q0 19 -23.5 36.5t-64.5 17.5q-71 0 -100 -62l-90 58q23 50 73 82t117 32q99 0 154 -57.5t55 -135.5v-278h-116v32q-39 -43 -121 -43zM235 89q45 0 71.5 25t26.5 62v6h-115q-22 0 -35.5 -12.5t-13.5 -32.5q0 -21 17.5 -34.5t48.5 -13.5z" />
    <glyph glyph-name="ae" unicode="&#xe6;" horiz-adv-x="856" 
d="M225 -11q-86 0 -135 43t-49 108q0 59 43 95.5t111 36.5h100q39 0 39 35q0 19 -24 36.5t-65 17.5q-71 0 -100 -62l-90 58q23 50 72.5 82t117.5 32q103 0 161 -66q69 66 171 66q113 0 182 -78.5t59 -198.5h-357q10 -42 42 -65.5t76 -24.5q76 2 109 58l98 -70
q-34 -48 -87.5 -75.5t-119.5 -27.5q-111 0 -182 76q-62 -76 -172 -76zM464 278h227q-9 34 -40 57t-74 24q-43 -1 -72.5 -23t-40.5 -58zM235 89q45 0 71.5 25t26.5 62v6h-115q-22 0 -35.5 -12.5t-13.5 -32.5q0 -21 17.5 -34.5t48.5 -13.5z" />
    <glyph glyph-name="ccedilla" unicode="&#xe7;" horiz-adv-x="529" 
d="M287 107q73 2 106 60l104 -67q-62 -99 -187 -110l-18 -41q38 -1 64.5 -27.5t26.5 -63.5q0 -41 -33 -70.5t-90 -29.5q-63 0 -99 46l37 55q28 -30 62 -30q17 0 28.5 9t11.5 22t-12 22.5t-29 9.5q-16 0 -28 -7l-24 32l31 76q-90 16 -146 82.5t-56 154.5q0 100 71.5 170.5
t179.5 70.5q71 0 126.5 -31.5t87.5 -85.5l-104 -68q-33 65 -110 67q-53 -1 -87 -36t-34 -87t34 -87t87 -36z" />
    <glyph glyph-name="egrave" unicode="&#xe8;" horiz-adv-x="565" 
d="M318 676l38 -142h-88l-83 142h133zM288 -11q-110 0 -181 70.5t-71 170.5t70 170.5t180 70.5q113 0 182 -78.5t59 -198.5h-358q10 -41 42.5 -65t76.5 -25q75 2 108 58l99 -70q-34 -48 -88 -75.5t-119 -27.5zM172 278h228q-10 34 -41 57t-73 24q-43 -1 -73 -23t-41 -58z
" />
    <glyph glyph-name="eacute" unicode="&#xe9;" horiz-adv-x="565" 
d="M334 534h-88l38 142h133zM288 -11q-110 0 -181 70.5t-71 170.5t70 170.5t180 70.5q113 0 182 -78.5t59 -198.5h-358q10 -41 42.5 -65t76.5 -25q75 2 108 58l99 -70q-34 -48 -88 -75.5t-119 -27.5zM172 278h228q-10 34 -41 57t-73 24q-43 -1 -73 -23t-41 -58z" />
    <glyph glyph-name="ecircumflex" unicode="&#xea;" horiz-adv-x="565" 
d="M233 534h-82l93 142h115l93 -142h-81l-69 62zM288 -11q-110 0 -181 70.5t-71 170.5t70 170.5t180 70.5q113 0 182 -78.5t59 -198.5h-358q10 -41 42.5 -65t76.5 -25q75 2 108 58l99 -70q-34 -48 -88 -75.5t-119 -27.5zM172 278h228q-10 34 -41 57t-73 24q-43 -1 -73 -23
t-41 -58z" />
    <glyph glyph-name="edieresis" unicode="&#xeb;" horiz-adv-x="565" 
d="M209 546q-29 0 -47.5 19t-18.5 47q0 29 18.5 47.5t47.5 18.5q30 0 49 -18.5t19 -47.5t-19 -47.5t-49 -18.5zM396 546q-29 0 -48 19t-19 47q0 29 19 47.5t48 18.5t48.5 -18.5t19.5 -47.5q0 -28 -19.5 -47t-48.5 -19zM288 -11q-110 0 -181 70.5t-71 170.5t70 170.5
t180 70.5q113 0 182 -78.5t59 -198.5h-358q10 -41 42.5 -65t76.5 -25q75 2 108 58l99 -70q-34 -48 -88 -75.5t-119 -27.5zM172 278h228q-10 34 -41 57t-73 24q-43 -1 -73 -23t-41 -58z" />
    <glyph glyph-name="igrave" unicode="&#xec;" horiz-adv-x="230" 
d="M133 676l38 -142h-88l-83 142h133zM178 0h-125v460h125v-460z" />
    <glyph glyph-name="iacute" unicode="&#xed;" horiz-adv-x="230" 
d="M148 534h-88l38 142h133zM178 0h-125v460h125v-460z" />
    <glyph glyph-name="icircumflex" unicode="&#xee;" horiz-adv-x="230" 
d="M48 534h-82l93 142h115l93 -142h-81l-69 62zM178 0h-125v460h125v-460z" />
    <glyph glyph-name="idieresis" unicode="&#xef;" horiz-adv-x="230" 
d="M23 546q-29 0 -47.5 19t-18.5 47q0 29 18.5 47.5t47.5 18.5q30 0 49 -18.5t19 -47.5t-19 -47.5t-49 -18.5zM210 546q-29 0 -48 19t-19 47q0 29 19 47.5t48 18.5t48.5 -18.5t19.5 -47.5q0 -28 -19.5 -47t-48.5 -19zM178 0h-125v460h125v-460z" />
    <glyph glyph-name="eth" unicode="&#xf0;" horiz-adv-x="575" 
d="M464 613l-82 -28q156 -154 156 -355q0 -101 -71 -171t-180 -70q-108 0 -179.5 70t-71.5 171q0 100 71.5 170.5t179.5 70.5q35 0 63 -7q-27 45 -68 88l-151 -51v72l94 32q-59 47 -148 95h150q49 -27 96 -63l141 48v-72zM287 107q53 1 87 36t34 87t-34 87t-87 36
q-53 -1 -87 -36t-34 -87t34 -87t87 -36z" />
    <glyph glyph-name="ntilde" unicode="&#xf1;" horiz-adv-x="543" 
d="M345 550q-29 0 -62.5 23t-48.5 23q-14 0 -22.5 -11t-8.5 -26h-74q0 62 28 93.5t67 31.5q26 0 48 -12t37.5 -23.5t25.5 -11.5q14 0 22.5 11t8.5 27h74q0 -65 -27.5 -95t-67.5 -30zM188 0h-125v460h119v-37q41 48 121 48q78 0 130 -51.5t52 -127.5v-292h-125v266
q0 39 -22.5 64.5t-62.5 25.5q-38 0 -62.5 -26t-24.5 -69v-261z" />
    <glyph glyph-name="ograve" unicode="&#xf2;" horiz-adv-x="575" 
d="M304 676l38 -142h-88l-83 142h133zM287 -11q-108 0 -179.5 70t-71.5 171q0 100 71.5 170.5t179.5 70.5q109 0 180 -70t71 -171t-71 -171t-180 -70zM287 107q53 1 87 36t34 87t-34 87t-87 36q-53 -1 -87 -36t-34 -87t34 -87t87 -36z" />
    <glyph glyph-name="oacute" unicode="&#xf3;" horiz-adv-x="575" 
d="M320 534h-88l38 142h133zM287 -11q-108 0 -179.5 70t-71.5 171q0 100 71.5 170.5t179.5 70.5q109 0 180 -70t71 -171t-71 -171t-180 -70zM287 107q53 1 87 36t34 87t-34 87t-87 36q-53 -1 -87 -36t-34 -87t34 -87t87 -36z" />
    <glyph glyph-name="ocircumflex" unicode="&#xf4;" horiz-adv-x="575" 
d="M219 534h-82l93 142h115l93 -142h-81l-69 62zM287 -11q-108 0 -179.5 70t-71.5 171q0 100 71.5 170.5t179.5 70.5q109 0 180 -70t71 -171t-71 -171t-180 -70zM287 107q53 1 87 36t34 87t-34 87t-87 36q-53 -1 -87 -36t-34 -87t34 -87t87 -36z" />
    <glyph glyph-name="otilde" unicode="&#xf5;" horiz-adv-x="575" 
d="M348 550q-29 0 -62.5 23t-48.5 23q-14 0 -22.5 -11t-8.5 -26h-74q0 62 28 93.5t67 31.5q26 0 48 -12t37.5 -23.5t25.5 -11.5q14 0 22.5 11t8.5 27h74q0 -65 -27.5 -95t-67.5 -30zM287 -11q-108 0 -179.5 70t-71.5 171q0 100 71.5 170.5t179.5 70.5q109 0 180 -70t71 -171
t-71 -171t-180 -70zM287 107q53 1 87 36t34 87t-34 87t-87 36q-53 -1 -87 -36t-34 -87t34 -87t87 -36z" />
    <glyph glyph-name="odieresis" unicode="&#xf6;" horiz-adv-x="575" 
d="M195 546q-29 0 -47.5 19t-18.5 47q0 29 18.5 47.5t47.5 18.5q30 0 49 -18.5t19 -47.5t-19 -47.5t-49 -18.5zM382 546q-29 0 -48 19t-19 47q0 29 19 47.5t48 18.5t48.5 -18.5t19.5 -47.5q0 -28 -19.5 -47t-48.5 -19zM287 -11q-108 0 -179.5 70t-71.5 171q0 100 71.5 170.5
t179.5 70.5q109 0 180 -70t71 -171t-71 -171t-180 -70zM287 107q53 1 87 36t34 87t-34 87t-87 36q-53 -1 -87 -36t-34 -87t34 -87t87 -36z" />
    <glyph glyph-name="divide" unicode="&#xf7;" horiz-adv-x="438" 
d="M219 420q-25 0 -43.5 18t-18.5 44q0 27 18 45t44 18t44.5 -18t18.5 -45q0 -26 -18.5 -44t-44.5 -18zM428 267h-418v80h418v-80zM219 75q-26 0 -44 18.5t-18 44.5t18 44t44 18t44.5 -18t18.5 -44t-18.5 -44.5t-44.5 -18.5z" />
    <glyph glyph-name="oslash" unicode="&#xf8;" horiz-adv-x="575" 
d="M453 414l85 65v-114l-28 -22q28 -51 28 -113q0 -101 -71 -171t-180 -70q-94 0 -166 57l-84 -64v114l27 21q-28 51 -28 113q0 100 71.5 170.5t179.5 70.5q94 0 166 -57zM166 230q0 -19 4 -32l180 138q-31 17 -63 17q-53 -1 -87 -36t-34 -87zM408 230q0 18 -4 33l-181 -139
q31 -17 64 -17q53 1 87 36t34 87z" />
    <glyph glyph-name="ugrave" unicode="&#xf9;" horiz-adv-x="507" 
d="M271 676l38 -142h-88l-83 142h133zM253 -11q-102 0 -156 60t-54 153v258h125v-262q0 -39 22.5 -65t62.5 -26t63 26t23 65v262h125v-258q0 -93 -54 -153t-157 -60z" />
    <glyph glyph-name="uacute" unicode="&#xfa;" horiz-adv-x="507" 
d="M287 534h-88l38 142h133zM253 -11q-102 0 -156 60t-54 153v258h125v-262q0 -39 22.5 -65t62.5 -26t63 26t23 65v262h125v-258q0 -93 -54 -153t-157 -60z" />
    <glyph glyph-name="ucircumflex" unicode="&#xfb;" horiz-adv-x="507" 
d="M186 534h-82l93 142h115l93 -142h-81l-69 62zM253 -11q-102 0 -156 60t-54 153v258h125v-262q0 -39 22.5 -65t62.5 -26t63 26t23 65v262h125v-258q0 -93 -54 -153t-157 -60z" />
    <glyph glyph-name="udieresis" unicode="&#xfc;" horiz-adv-x="507" 
d="M161 546q-29 0 -47.5 19t-18.5 47q0 29 18.5 47.5t47.5 18.5q30 0 49 -18.5t19 -47.5t-19 -47.5t-49 -18.5zM348 546q-29 0 -48 19t-19 47q0 29 19 47.5t48 18.5t48.5 -18.5t19.5 -47.5q0 -28 -19.5 -47t-48.5 -19zM253 -11q-102 0 -156 60t-54 153v258h125v-262
q0 -39 22.5 -65t62.5 -26t63 26t23 65v262h125v-258q0 -93 -54 -153t-157 -60z" />
    <glyph glyph-name="yacute" unicode="&#xfd;" horiz-adv-x="543" 
d="M311 534h-88l38 142h133zM176 -232h-147l169 309l-191 383h139l124 -257l128 257h139z" />
    <glyph glyph-name="thorn" unicode="&#xfe;" horiz-adv-x="597" 
d="M318 471q102 0 172.5 -71.5t70.5 -169.5t-70.5 -169.5t-172.5 -71.5q-68 0 -130 37v-257h-125v931h125v-266q62 37 130 37zM310 107q53 1 87 36t34 87t-34 87t-87 36q-53 -1 -87 -36t-34 -87t34 -87t87 -36z" />
    <glyph glyph-name="ydieresis" unicode="&#xff;" horiz-adv-x="543" 
d="M186 546q-28 0 -47 19t-19 47q0 29 18.5 47.5t47.5 18.5q30 0 49 -18.5t19 -47.5t-19 -47.5t-49 -18.5zM373 546q-29 0 -48 19t-19 47q0 29 19 47.5t48 18.5t48.5 -18.5t19.5 -47.5q0 -28 -19.5 -47t-48.5 -19zM176 -232h-147l169 309l-191 383h139l124 -257l128 257h139
z" />
    <glyph glyph-name="Amacron" unicode="&#x100;" horiz-adv-x="658" 
d="M201 904h265v-88h-265v88zM660 0h-147l-45 131h-277l-45 -131h-148l253 700h163zM330 537l-95 -278h190z" />
    <glyph glyph-name="amacron" unicode="&#x101;" horiz-adv-x="513" 
d="M388 566h-265v88h265v-88zM218 -11q-80 0 -128.5 43.5t-48.5 107.5q0 59 43 95.5t111 36.5h100q39 0 39 35q0 19 -23.5 36.5t-64.5 17.5q-71 0 -100 -62l-90 58q23 50 73 82t117 32q99 0 154 -57.5t55 -135.5v-278h-116v32q-39 -43 -121 -43zM235 89q45 0 71.5 25
t26.5 62v6h-115q-22 0 -35.5 -12.5t-13.5 -32.5q0 -21 17.5 -34.5t48.5 -13.5z" />
    <glyph glyph-name="Abreve" unicode="&#x102;" horiz-adv-x="658" 
d="M329 781q-61 0 -100 39.5t-39 102.5h77q0 -28 18 -46t44 -18q29 0 45.5 18t16.5 46h77q0 -63 -40 -102.5t-99 -39.5zM660 0h-147l-45 131h-277l-45 -131h-148l253 700h163zM330 537l-95 -278h190z" />
    <glyph glyph-name="abreve" unicode="&#x103;" horiz-adv-x="513" 
d="M251 531q-61 0 -100 39.5t-39 102.5h77q0 -28 18 -46t44 -18q29 0 45.5 18t16.5 46h77q0 -63 -40 -102.5t-99 -39.5zM218 -11q-80 0 -128.5 43.5t-48.5 107.5q0 59 43 95.5t111 36.5h100q39 0 39 35q0 19 -23.5 36.5t-64.5 17.5q-71 0 -100 -62l-90 58q23 50 73 82
t117 32q99 0 154 -57.5t55 -135.5v-278h-116v32q-39 -43 -121 -43zM235 89q45 0 71.5 25t26.5 62v6h-115q-22 0 -35.5 -12.5t-13.5 -32.5q0 -21 17.5 -34.5t48.5 -13.5z" />
    <glyph glyph-name="Aogonek" unicode="&#x104;" horiz-adv-x="658" 
d="M661 -150l19 -78q-34 -14 -77 -14q-56 0 -98 32t-42 90q0 75 72 120h-22l-45 131h-277l-45 -131h-148l253 700h163l246 -700h1q-37 -11 -66 -37t-29 -60q0 -28 19 -42.5t44 -14.5q16 0 32 4zM330 537l-95 -278h190z" />
    <glyph glyph-name="aogonek" unicode="&#x105;" horiz-adv-x="513" 
d="M455 -150l19 -78q-34 -14 -77 -14q-56 0 -98 32t-42 90q0 81 82 126v26q-39 -43 -121 -43q-80 0 -128.5 43.5t-48.5 107.5q0 59 43 95.5t111 36.5h100q39 0 39 35q0 19 -23.5 36.5t-64.5 17.5q-71 0 -100 -62l-90 58q23 50 73 82t117 32q99 0 154 -57.5t55 -135.5v-278
q-37 -11 -66 -37t-29 -60q0 -28 19 -42.5t44 -14.5q16 0 32 4zM333 176v6h-115q-22 0 -35.5 -12.5t-13.5 -32.5q0 -21 17.5 -34.5t48.5 -13.5q45 0 71.5 25t26.5 62z" />
    <glyph glyph-name="Cacute" unicode="&#x106;" horiz-adv-x="760" 
d="M437 784h-88l38 142h133zM406 -10q-155 0 -260.5 103.5t-105.5 256.5t105.5 256.5t260.5 103.5q105 0 185 -45.5t128 -125.5l-123 -70q-60 104 -190 104q-91 0 -154.5 -64t-63.5 -159t63.5 -159t154.5 -64q63 0 112 27.5t78 77.5l124 -70q-48 -79 -131 -125.5t-183 -46.5
z" />
    <glyph glyph-name="cacute" unicode="&#x107;" horiz-adv-x="529" 
d="M320 534h-88l38 142h133zM287 -11q-108 0 -179.5 70.5t-71.5 170.5t71.5 170.5t179.5 70.5q71 0 126.5 -31.5t87.5 -85.5l-104 -68q-33 65 -110 67q-53 -1 -87 -36t-34 -87t34 -87t87 -36q73 2 106 60l104 -67q-31 -51 -86 -81t-124 -30z" />
    <glyph glyph-name="Ccircumflex" unicode="&#x108;" horiz-adv-x="760" 
d="M336 784h-82l93 142h115l93 -142h-81l-69 62zM406 -10q-155 0 -260.5 103.5t-105.5 256.5t105.5 256.5t260.5 103.5q105 0 185 -45.5t128 -125.5l-123 -70q-60 104 -190 104q-91 0 -154.5 -64t-63.5 -159t63.5 -159t154.5 -64q63 0 112 27.5t78 77.5l124 -70
q-48 -79 -131 -125.5t-183 -46.5z" />
    <glyph glyph-name="ccircumflex" unicode="&#x109;" horiz-adv-x="529" 
d="M219 534h-82l93 142h115l93 -142h-81l-69 62zM287 -11q-108 0 -179.5 70.5t-71.5 170.5t71.5 170.5t179.5 70.5q71 0 126.5 -31.5t87.5 -85.5l-104 -68q-33 65 -110 67q-53 -1 -87 -36t-34 -87t34 -87t87 -36q73 2 106 60l104 -67q-31 -51 -86 -81t-124 -30z" />
    <glyph glyph-name="Cdotaccent" unicode="&#x10a;" horiz-adv-x="760" 
d="M404 796q-34 0 -56.5 21.5t-22.5 53.5t22.5 54.5t56.5 22.5q35 0 57.5 -22t22.5 -55q0 -32 -22.5 -53.5t-57.5 -21.5zM406 -10q-155 0 -260.5 103.5t-105.5 256.5t105.5 256.5t260.5 103.5q105 0 185 -45.5t128 -125.5l-123 -70q-60 104 -190 104q-91 0 -154.5 -64
t-63.5 -159t63.5 -159t154.5 -64q63 0 112 27.5t78 77.5l124 -70q-48 -79 -131 -125.5t-183 -46.5z" />
    <glyph glyph-name="cdotaccent" unicode="&#x10b;" horiz-adv-x="529" 
d="M287 546q-34 0 -56.5 21.5t-22.5 53.5t22.5 54.5t56.5 22.5q35 0 57.5 -22t22.5 -55q0 -32 -22.5 -53.5t-57.5 -21.5zM287 -11q-108 0 -179.5 70.5t-71.5 170.5t71.5 170.5t179.5 70.5q71 0 126.5 -31.5t87.5 -85.5l-104 -68q-33 65 -110 67q-53 -1 -87 -36t-34 -87
t34 -87t87 -36q73 2 106 60l104 -67q-31 -51 -86 -81t-124 -30z" />
    <glyph glyph-name="Ccaron" unicode="&#x10c;" horiz-adv-x="760" 
d="M347 784l-93 142h82l69 -62l69 62h81l-93 -142h-115zM406 -10q-155 0 -260.5 103.5t-105.5 256.5t105.5 256.5t260.5 103.5q105 0 185 -45.5t128 -125.5l-123 -70q-60 104 -190 104q-91 0 -154.5 -64t-63.5 -159t63.5 -159t154.5 -64q63 0 112 27.5t78 77.5l124 -70
q-48 -79 -131 -125.5t-183 -46.5z" />
    <glyph glyph-name="ccaron" unicode="&#x10d;" horiz-adv-x="529" 
d="M230 534l-93 142h82l69 -62l69 62h81l-93 -142h-115zM287 -11q-108 0 -179.5 70.5t-71.5 170.5t71.5 170.5t179.5 70.5q71 0 126.5 -31.5t87.5 -85.5l-104 -68q-33 65 -110 67q-53 -1 -87 -36t-34 -87t34 -87t87 -36q73 2 106 60l104 -67q-31 -51 -86 -81t-124 -30z" />
    <glyph glyph-name="Dcaron" unicode="&#x10e;" horiz-adv-x="747" 
d="M245 784l-93 142h82l69 -62l69 62h81l-93 -142h-115zM351 0h-270v700h270q149 0 252.5 -102t103.5 -247q0 -146 -103.5 -248.5t-252.5 -102.5zM221 572v-444h110q96 0 162 60t66 163q0 102 -66 161.5t-162 59.5h-110z" />
    <glyph glyph-name="dcaron" unicode="&#x10f;" horiz-adv-x="600" 
d="M408 435v265h125v-700h-125v25q-58 -36 -129 -36q-102 0 -172.5 71.5t-70.5 169.5t70.5 169.5t172.5 71.5q71 0 129 -36zM589 525l9 175h116l-45 -175h-80zM287 107q53 1 87 36t34 87t-34 87t-87 36q-53 -1 -87 -36t-34 -87t34 -87t87 -36z" />
    <glyph glyph-name="Dcroat" unicode="&#x110;" horiz-adv-x="747" 
d="M81 700h270q149 0 252.5 -102t103.5 -247q0 -146 -103.5 -248.5t-252.5 -102.5h-270v302h-63v102h63v296zM221 128h110q96 0 162 60t66 163q0 102 -66 161.5t-162 59.5h-110v-168h164v-102h-164v-174z" />
    <glyph glyph-name="dcroat" unicode="&#x111;" horiz-adv-x="596" 
d="M533 620h60v-82h-60v-538h-125v25q-58 -36 -129 -36q-102 0 -172.5 71.5t-70.5 169.5t70.5 169.5t172.5 71.5q71 0 129 -36v103h-141v82h141v80h125v-80zM287 107q53 1 87 36t34 87t-34 87t-87 36q-53 -1 -87 -36t-34 -87t34 -87t87 -36z" />
    <glyph glyph-name="Emacron" unicode="&#x112;" 
d="M460 816h-265v88h265v-88zM532 0h-451v700h451v-126h-313v-151h284v-125h-284v-172h313v-126z" />
    <glyph glyph-name="emacron" unicode="&#x113;" horiz-adv-x="565" 
d="M438 566h-265v88h265v-88zM288 -11q-110 0 -181 70.5t-71 170.5t70 170.5t180 70.5q113 0 182 -78.5t59 -198.5h-358q10 -41 42.5 -65t76.5 -25q75 2 108 58l99 -70q-34 -48 -88 -75.5t-119 -27.5zM172 278h228q-10 34 -41 57t-73 24q-43 -1 -73 -23t-41 -58z" />
    <glyph glyph-name="Ebreve" unicode="&#x114;" 
d="M322 781q-61 0 -100 39.5t-39 102.5h77q0 -28 18 -46t44 -18q29 0 45.5 18t16.5 46h77q0 -63 -40 -102.5t-99 -39.5zM532 0h-451v700h451v-126h-313v-151h284v-125h-284v-172h313v-126z" />
    <glyph glyph-name="ebreve" unicode="&#x115;" horiz-adv-x="565" 
d="M301 531q-61 0 -100 39.5t-39 102.5h77q0 -28 18 -46t44 -18q29 0 45.5 18t16.5 46h77q0 -63 -40 -102.5t-99 -39.5zM288 -11q-110 0 -181 70.5t-71 170.5t70 170.5t180 70.5q113 0 182 -78.5t59 -198.5h-358q10 -41 42.5 -65t76.5 -25q75 2 108 58l99 -70
q-34 -48 -88 -75.5t-119 -27.5zM172 278h228q-10 34 -41 57t-73 24q-43 -1 -73 -23t-41 -58z" />
    <glyph glyph-name="Edotaccent" unicode="&#x116;" 
d="M323 796q-34 0 -56.5 21.5t-22.5 53.5t22.5 54.5t56.5 22.5q35 0 57.5 -22t22.5 -55q0 -32 -22.5 -53.5t-57.5 -21.5zM532 0h-451v700h451v-126h-313v-151h284v-125h-284v-172h313v-126z" />
    <glyph glyph-name="edotaccent" unicode="&#x117;" horiz-adv-x="565" 
d="M301 546q-34 0 -56.5 21.5t-22.5 53.5t22.5 54.5t56.5 22.5q35 0 57.5 -22t22.5 -55q0 -32 -22.5 -53.5t-57.5 -21.5zM288 -11q-110 0 -181 70.5t-71 170.5t70 170.5t180 70.5q113 0 182 -78.5t59 -198.5h-358q10 -41 42.5 -65t76.5 -25q75 2 108 58l99 -70
q-34 -48 -88 -75.5t-119 -27.5zM172 278h228q-10 34 -41 57t-73 24q-43 -1 -73 -23t-41 -58z" />
    <glyph glyph-name="Eogonek" unicode="&#x118;" 
d="M533 -150l19 -78q-34 -14 -77 -14q-56 0 -98 32t-42 90q0 75 72 120h-326v700h451v-126h-313v-151h284v-125h-284v-172h313v-126h1q-37 -11 -66 -37t-29 -60q0 -28 19 -42.5t44 -14.5q16 0 32 4z" />
    <glyph glyph-name="eogonek" unicode="&#x119;" horiz-adv-x="565" 
d="M286 471q113 0 182 -78.5t59 -198.5h-358q10 -41 42.5 -65t76.5 -25q75 2 108 58l99 -70q-47 -68 -129 -92q-37 -11 -66 -37t-29 -60q0 -28 19 -42.5t44 -14.5q16 0 32 4l19 -78q-34 -14 -77 -14q-56 0 -98 32t-42 90q0 70 64 114q-88 18 -142 84t-54 152q0 100 70 170.5
t180 70.5zM172 278h228q-10 34 -41 57t-73 24q-43 -1 -73 -23t-41 -58z" />
    <glyph glyph-name="Ecaron" unicode="&#x11a;" 
d="M266 784l-93 142h82l69 -62l69 62h81l-93 -142h-115zM532 0h-451v700h451v-126h-313v-151h284v-125h-284v-172h313v-126z" />
    <glyph glyph-name="ecaron" unicode="&#x11b;" horiz-adv-x="565" 
d="M244 534l-93 142h82l69 -62l69 62h81l-93 -142h-115zM288 -11q-110 0 -181 70.5t-71 170.5t70 170.5t180 70.5q113 0 182 -78.5t59 -198.5h-358q10 -41 42.5 -65t76.5 -25q75 2 108 58l99 -70q-34 -48 -88 -75.5t-119 -27.5zM172 278h228q-10 34 -41 57t-73 24
q-43 -1 -73 -23t-41 -58z" />
    <glyph glyph-name="Gcircumflex" unicode="&#x11c;" horiz-adv-x="813" 
d="M342 784h-82l93 142h115l93 -142h-81l-69 62zM406 -10q-155 0 -260.5 103.5t-105.5 256.5t105.5 256.5t260.5 103.5q105 0 185 -45.5t128 -125.5l-124 -71q-60 105 -189 105q-91 0 -154.5 -64t-63.5 -159t63.5 -159t154.5 -64q67 0 117 31t76 86h-191v122h365v-16
q0 -156 -104.5 -258t-262.5 -102z" />
    <glyph glyph-name="gcircumflex" unicode="&#x11d;" 
d="M363 534l-69 62l-69 -62h-82l93 142h115l93 -142h-81zM408 435v25h125v-464q0 -104 -70 -171t-182 -67q-72 0 -128 31.5t-83 81.5l96 70q15 -27 46.5 -44.5t68.5 -17.5q58 0 92.5 33t34.5 84v29q-58 -36 -129 -36q-102 0 -172.5 71.5t-70.5 169.5t70.5 169.5t172.5 71.5
q71 0 129 -36zM287 107q53 1 87 36t34 87t-34 87t-87 36q-53 -1 -87 -36t-34 -87t34 -87t87 -36z" />
    <glyph glyph-name="Gbreve" unicode="&#x11e;" horiz-adv-x="813" 
d="M409 781q-61 0 -100 39.5t-39 102.5h77q0 -28 18 -46t44 -18q29 0 45.5 18t16.5 46h77q0 -63 -40 -102.5t-99 -39.5zM406 -10q-155 0 -260.5 103.5t-105.5 256.5t105.5 256.5t260.5 103.5q105 0 185 -45.5t128 -125.5l-124 -71q-60 105 -189 105q-91 0 -154.5 -64
t-63.5 -159t63.5 -159t154.5 -64q67 0 117 31t76 86h-191v122h365v-16q0 -156 -104.5 -258t-262.5 -102z" />
    <glyph glyph-name="gbreve" unicode="&#x11f;" 
d="M292 531q-61 0 -100 39.5t-39 102.5h77q0 -28 18 -46t44 -18q29 0 45.5 18t16.5 46h77q0 -63 -40 -102.5t-99 -39.5zM408 435v25h125v-464q0 -104 -70 -171t-182 -67q-72 0 -128 31.5t-83 81.5l96 70q15 -27 46.5 -44.5t68.5 -17.5q58 0 92.5 33t34.5 84v29
q-58 -36 -129 -36q-102 0 -172.5 71.5t-70.5 169.5t70.5 169.5t172.5 71.5q71 0 129 -36zM287 107q53 1 87 36t34 87t-34 87t-87 36q-53 -1 -87 -36t-34 -87t34 -87t87 -36z" />
    <glyph glyph-name="Gdotaccent" unicode="&#x120;" horiz-adv-x="813" 
d="M410 796q-34 0 -56.5 21.5t-22.5 53.5t22.5 54.5t56.5 22.5q35 0 57.5 -22t22.5 -55q0 -32 -22.5 -53.5t-57.5 -21.5zM406 -10q-155 0 -260.5 103.5t-105.5 256.5t105.5 256.5t260.5 103.5q105 0 185 -45.5t128 -125.5l-124 -71q-60 105 -189 105q-91 0 -154.5 -64
t-63.5 -159t63.5 -159t154.5 -64q67 0 117 31t76 86h-191v122h365v-16q0 -156 -104.5 -258t-262.5 -102z" />
    <glyph glyph-name="gdotaccent" unicode="&#x121;" 
d="M293 546q-34 0 -56.5 21.5t-22.5 53.5t22.5 54.5t56.5 22.5q35 0 57.5 -22t22.5 -55q0 -32 -22.5 -53.5t-57.5 -21.5zM408 435v25h125v-464q0 -104 -70 -171t-182 -67q-72 0 -128 31.5t-83 81.5l96 70q15 -27 46.5 -44.5t68.5 -17.5q58 0 92.5 33t34.5 84v29
q-58 -36 -129 -36q-102 0 -172.5 71.5t-70.5 169.5t70.5 169.5t172.5 71.5q71 0 129 -36zM287 107q53 1 87 36t34 87t-34 87t-87 36q-53 -1 -87 -36t-34 -87t34 -87t87 -36z" />
    <glyph glyph-name="uni0122" unicode="&#x122;" horiz-adv-x="813" 
d="M406 -10q-155 0 -260.5 103.5t-105.5 256.5t105.5 256.5t260.5 103.5q105 0 185 -45.5t128 -125.5l-124 -71q-60 105 -189 105q-91 0 -154.5 -64t-63.5 -159t63.5 -159t154.5 -64q67 0 117 31t76 86h-191v122h365v-16q0 -156 -104.5 -258t-262.5 -102zM463 -120
q0 -16 -8 -29l-62 -112h-66l47 85q-19 6 -30.5 22t-11.5 35q0 25 18.5 43t46.5 18t47 -18t19 -44z" />
    <glyph glyph-name="uni0123" unicode="&#x123;" 
d="M299 515q-29 0 -48 18t-19 44q0 16 8 29l62 112h66l-47 -85q19 -6 30.5 -22t11.5 -35q0 -25 -18.5 -43t-45.5 -18zM408 435v25h125v-464q0 -104 -70 -171t-182 -67q-72 0 -128 31.5t-83 81.5l96 70q15 -27 46.5 -44.5t68.5 -17.5q58 0 92.5 33t34.5 84v29
q-58 -36 -129 -36q-102 0 -172.5 71.5t-70.5 169.5t70.5 169.5t172.5 71.5q71 0 129 -36zM287 107q53 1 87 36t34 87t-34 87t-87 36q-53 -1 -87 -36t-34 -87t34 -87t87 -36z" />
    <glyph glyph-name="Hcircumflex" unicode="&#x124;" horiz-adv-x="766" 
d="M457 784l-69 62l-69 -62h-82l93 142h115l93 -142h-81zM545 424v276h140v-700h-140v292h-324v-292h-140v700h140v-276h324z" />
    <glyph glyph-name="hcircumflex" unicode="&#x125;" horiz-adv-x="543" 
d="M53 748h-82l93 142h115l93 -142h-81l-69 62zM188 0h-125v700h125v-270q43 41 115 41q78 0 130 -51.5t52 -127.5v-292h-125v266q0 39 -22.5 64.5t-62.5 25.5q-38 0 -62.5 -27t-24.5 -70v-259z" />
    <glyph glyph-name="Hbar" unicode="&#x126;" horiz-adv-x="770" 
d="M688 611h57v-98h-57v-513h-140v292h-324v-292h-140v513h-59v98h59v89h140v-89h324v89h140v-89zM224 424h324v89h-324v-89z" />
    <glyph glyph-name="hbar" unicode="&#x127;" horiz-adv-x="543" 
d="M303 471q78 0 130 -51.5t52 -127.5v-292h-125v266q0 39 -22.5 64.5t-62.5 25.5q-38 0 -62.5 -27t-24.5 -70v-259h-125v538h-55v82h55v80h125v-80h146v-82h-146v-108q43 41 115 41z" />
    <glyph glyph-name="Itilde" unicode="&#x128;" horiz-adv-x="465" 
d="M185 846q-14 0 -22.5 -11t-8.5 -26h-74q0 62 28 93.5t67 31.5q26 0 48 -12t37.5 -23.5t25.5 -11.5q14 0 22.5 11t8.5 27h74q0 -65 -27.5 -95t-67.5 -30q-29 0 -62.5 23t-48.5 23zM76 700h313v-125h-86v-450h86v-125h-313v125h87v450h-87v125z" />
    <glyph glyph-name="itilde" unicode="&#x129;" horiz-adv-x="230" 
d="M177 550q-29 0 -62.5 23t-48.5 23q-14 0 -22.5 -11t-8.5 -26h-74q0 62 28 93.5t67 31.5q26 0 48 -12t37.5 -23.5t25.5 -11.5q14 0 22.5 11t8.5 27h74q0 -65 -27.5 -95t-67.5 -30zM178 0h-125v460h125v-460z" />
    <glyph glyph-name="Imacron" unicode="&#x12a;" horiz-adv-x="465" 
d="M106 904h265v-88h-265v88zM389 700v-125h-86v-450h86v-125h-313v125h87v450h-87v125h313z" />
    <glyph glyph-name="imacron" unicode="&#x12b;" horiz-adv-x="230" 
d="M252 566h-265v88h265v-88zM178 0h-125v460h125v-460z" />
    <glyph glyph-name="Ibreve" unicode="&#x12c;" horiz-adv-x="465" 
d="M234 781q-61 0 -100 39.5t-39 102.5h77q0 -28 18 -46t44 -18q29 0 45.5 18t16.5 46h77q0 -63 -40 -102.5t-99 -39.5zM389 700v-125h-86v-450h86v-125h-313v125h87v450h-87v125h313z" />
    <glyph glyph-name="ibreve" unicode="&#x12d;" horiz-adv-x="230" 
d="M115 531q-61 0 -100 39.5t-39 102.5h77q0 -28 18 -46t44 -18q29 0 45.5 18t16.5 46h77q0 -63 -40 -102.5t-99 -39.5zM178 0h-125v460h125v-460z" />
    <glyph glyph-name="Iogonek" unicode="&#x12e;" horiz-adv-x="465" 
d="M389 -150l19 -78q-34 -14 -77 -14q-56 0 -98 32t-42 90q0 75 72 120h-187v125h87v450h-87v125h313v-125h-86v-450h86v-125q-37 -11 -66 -37t-29 -60q0 -28 19 -42.5t44 -14.5q16 0 32 4z" />
    <glyph glyph-name="iogonek" unicode="&#x12f;" horiz-adv-x="230" 
d="M116 546q-34 0 -56.5 21.5t-22.5 53.5t22.5 54.5t56.5 22.5q35 0 57.5 -22t22.5 -55q0 -32 -22.5 -53.5t-57.5 -21.5zM178 -150l19 -78q-34 -14 -77 -14q-56 0 -98 32t-42 90q0 75 73 120v460h125v-460q-37 -11 -66 -37t-29 -60q0 -28 19 -42.5t44 -14.5q16 0 32 4z" />
    <glyph glyph-name="Idotaccent" unicode="&#x130;" horiz-adv-x="465" 
d="M235 796q-34 0 -56.5 21.5t-22.5 53.5t22.5 54.5t56.5 22.5q35 0 57.5 -22t22.5 -55q0 -32 -22.5 -53.5t-57.5 -21.5zM389 700v-125h-86v-450h86v-125h-313v125h87v450h-87v125h313z" />
    <glyph glyph-name="dotlessi" unicode="&#x131;" horiz-adv-x="230" 
d="M178 0h-125v460h125v-460z" />
    <glyph glyph-name="IJ" unicode="&#x132;" horiz-adv-x="1040" 
d="M76 700h313v-125h-86v-450h86v-125h-313v125h87v450h-87v125zM829 259v441h141v-452q0 -115 -71.5 -186.5t-194.5 -71.5q-78 0 -139.5 42t-89.5 106l112 71q14 -35 45 -58.5t72 -23.5q57 0 91 34.5t34 97.5z" />
    <glyph glyph-name="ij" unicode="&#x133;" horiz-adv-x="456" 
d="M115 549q-34 0 -56.5 21.5t-22.5 53.5t22.5 54.5t56.5 22.5q35 0 57.5 -22t22.5 -55q0 -32 -22.5 -53.5t-57.5 -21.5zM346 549q-34 0 -56.5 21.5t-22.5 53.5t22.5 54.5t56.5 22.5q35 0 57.5 -22t22.5 -55q0 -32 -22.5 -53.5t-57.5 -21.5zM178 0h-125v460h125v-460z
M189 -232v117q96 0 96 98v477h125v-477q0 -110 -60.5 -162.5t-160.5 -52.5z" />
    <glyph glyph-name="Jcircumflex" unicode="&#x134;" horiz-adv-x="584" 
d="M363 784h-82l93 142h115l93 -142h-81l-69 62zM249 -10q-78 0 -139.5 42t-89.5 106l112 71q14 -35 45 -58.5t72 -23.5q57 0 91 34.5t34 97.5v441h141v-452q0 -115 -71.5 -186.5t-194.5 -71.5z" />
    <glyph glyph-name="jcircumflex" unicode="&#x135;" horiz-adv-x="236" 
d="M43 534h-82l93 142h115l93 -142h-81l-69 62zM-39 -232v117q96 0 96 98v477h125v-477q0 -110 -60.5 -162.5t-160.5 -52.5z" />
    <glyph glyph-name="uni0136" unicode="&#x136;" horiz-adv-x="649" 
d="M647 700l-294 -332l300 -368h-171l-264 326v-326h-137v700h137v-294l263 294h166zM354 -58q28 0 47 -18t19 -44q0 -16 -8 -29l-62 -112h-66l47 85q-19 6 -30.5 22t-11.5 35q0 25 18.5 43t46.5 18z" />
    <glyph glyph-name="uni0137" unicode="&#x137;" horiz-adv-x="504" 
d="M487 460l-180 -203l202 -257h-158l-163 213v-213h-125v700h125v-403l139 163h160zM267 -58q28 0 47 -18t19 -44q0 -16 -8 -29l-62 -112h-66l47 85q-19 6 -30.5 22t-11.5 35q0 25 18.5 43t46.5 18z" />
    <glyph glyph-name="kgreenlandic" unicode="&#x138;" horiz-adv-x="504" 
d="M307 257l202 -257h-158l-163 213v-213h-125v460h125v-163l139 163h160z" />
    <glyph glyph-name="Lacute" unicode="&#x139;" horiz-adv-x="534" 
d="M176 784h-88l38 142h133zM514 0h-433v700h137v-571h296v-129z" />
    <glyph glyph-name="lacute" unicode="&#x13a;" horiz-adv-x="281" 
d="M146 748h-88l38 142h133zM248 -7h-24q-166 0 -166 173v534h125v-531q0 -58 65 -58v-118z" />
    <glyph glyph-name="uni013B" unicode="&#x13b;" horiz-adv-x="534" 
d="M514 0h-433v700h137v-571h296v-129zM384 -120q0 -16 -8 -29l-62 -112h-66l47 85q-19 6 -30.5 22t-11.5 35q0 25 18.5 43t46.5 18t47 -18t19 -44z" />
    <glyph glyph-name="uni013C" unicode="&#x13c;" horiz-adv-x="281" 
d="M248 -7h-24q-166 0 -166 173v534h125v-531q0 -58 65 -58v-118zM219 -120q0 -16 -8 -29l-62 -112h-66l47 85q-19 6 -30.5 22t-11.5 35q0 25 18.5 43t46.5 18t47 -18t19 -44z" />
    <glyph glyph-name="Lcaron" unicode="&#x13d;" horiz-adv-x="537" 
d="M514 0h-433v700h137v-571h296v-129zM428 525h-81l10 175h115z" />
    <glyph glyph-name="lcaron" unicode="&#x13e;" horiz-adv-x="271" 
d="M248 -7h-24q-166 0 -166 173v534h125v-531q0 -58 65 -58v-118zM317 525h-81l10 175h115z" />
    <glyph glyph-name="Ldot" unicode="&#x13f;" horiz-adv-x="537" 
d="M514 0h-433v700h137v-571h296v-129zM393 306q-35 0 -57.5 22.5t-22.5 54.5t22.5 55t57.5 23q36 0 58 -22.5t22 -55.5q0 -32 -22 -54.5t-58 -22.5z" />
    <glyph glyph-name="ldot" unicode="&#x140;" horiz-adv-x="373" 
d="M248 -7h-24q-166 0 -166 173v534h125v-531q0 -58 65 -58v-118zM316 301q-34 0 -57 22.5t-23 54.5t22.5 55t57.5 23q36 0 58 -22.5t22 -55.5q0 -32 -22 -54.5t-58 -22.5z" />
    <glyph glyph-name="Lslash" unicode="&#x141;" horiz-adv-x="537" 
d="M218 303v-174h296v-129h-433v240l-70 -32v103l70 32v357h137v-294l207 95v-103z" />
    <glyph glyph-name="lslash" unicode="&#x142;" horiz-adv-x="328" 
d="M315 483v-97l-82 -52v-165q0 -58 65 -58v-118h-24q-166 0 -166 173v90l-63 -40v97l63 40v347h125v-269z" />
    <glyph glyph-name="Nacute" unicode="&#x143;" horiz-adv-x="751" 
d="M410 784h-88l38 142h133zM670 -5h-113l-340 471v-466h-136v700h133l320 -444v444h136v-705z" />
    <glyph glyph-name="nacute" unicode="&#x144;" horiz-adv-x="543" 
d="M317 534h-88l38 142h133zM188 0h-125v460h119v-37q41 48 121 48q78 0 130 -51.5t52 -127.5v-292h-125v266q0 39 -22.5 64.5t-62.5 25.5q-38 0 -62.5 -26t-24.5 -69v-261z" />
    <glyph glyph-name="uni0145" unicode="&#x145;" horiz-adv-x="751" 
d="M670 -5h-113l-340 471v-466h-136v700h133l320 -444v444h136v-705zM455 -120q0 -16 -8 -29l-62 -112h-66l47 85q-19 6 -30.5 22t-11.5 35q0 25 18.5 43t46.5 18t47 -18t19 -44z" />
    <glyph glyph-name="uni0146" unicode="&#x146;" horiz-adv-x="543" 
d="M188 0h-125v460h119v-37q41 48 121 48q78 0 130 -51.5t52 -127.5v-292h-125v266q0 39 -22.5 64.5t-62.5 25.5q-38 0 -62.5 -26t-24.5 -69v-261zM341 -120q0 -16 -8 -29l-62 -112h-66l47 85q-19 6 -30.5 22t-11.5 35q0 25 18.5 43t46.5 18t47 -18t19 -44z" />
    <glyph glyph-name="Ncaron" unicode="&#x147;" horiz-adv-x="751" 
d="M320 784l-93 142h82l69 -62l69 62h81l-93 -142h-115zM670 -5h-113l-340 471v-466h-136v700h133l320 -444v444h136v-705z" />
    <glyph glyph-name="ncaron" unicode="&#x148;" horiz-adv-x="543" 
d="M227 534l-93 142h82l69 -62l69 62h81l-93 -142h-115zM188 0h-125v460h119v-37q41 48 121 48q78 0 130 -51.5t52 -127.5v-292h-125v266q0 39 -22.5 64.5t-62.5 25.5q-38 0 -62.5 -26t-24.5 -69v-261z" />
    <glyph glyph-name="napostrophe" unicode="&#x149;" horiz-adv-x="543" 
d="M77 600q0 -11 -8 -29l-62 -111h-66l47 84q-19 6 -31 21.5t-12 35.5q0 25 18.5 43t46.5 18q29 0 48 -18t19 -44zM188 0h-125v460h119v-37q41 48 121 48q78 0 130 -51.5t52 -127.5v-292h-125v266q0 39 -22.5 64.5t-62.5 25.5q-38 0 -62.5 -26t-24.5 -69v-261z" />
    <glyph glyph-name="Eng" unicode="&#x14a;" horiz-adv-x="751" 
d="M406 -210v129q58 0 93 28t35 75v24l-317 420v-466h-136v700h133l320 -429v429h136v-658q0 -114 -65.5 -183t-198.5 -69z" />
    <glyph glyph-name="eng" unicode="&#x14b;" horiz-adv-x="543" 
d="M265 -232v117q44 0 69.5 27t25.5 71v283q0 39 -22.5 64.5t-62.5 25.5q-38 0 -62.5 -27t-24.5 -70v-259h-125v460h119v-59q13 26 47.5 48t82.5 22q76 0 124.5 -51t48.5 -128v-309q0 -110 -60 -162.5t-160 -52.5z" />
    <glyph glyph-name="Omacron" unicode="&#x14c;" horiz-adv-x="818" 
d="M548 816h-265v88h265v-88zM408 -10q-156 0 -262 103.5t-106 256.5t106 256.5t262 103.5t263 -103.5t107 -256.5t-107 -256.5t-263 -103.5zM408 127q95 0 158 64.5t63 158.5t-63 158.5t-158 64.5q-94 0 -157 -64.5t-63 -158.5t62.5 -158.5t157.5 -64.5z" />
    <glyph glyph-name="omacron" unicode="&#x14d;" horiz-adv-x="575" 
d="M424 566h-265v88h265v-88zM287 -11q-108 0 -179.5 70t-71.5 171q0 100 71.5 170.5t179.5 70.5q109 0 180 -70t71 -171t-71 -171t-180 -70zM287 107q53 1 87 36t34 87t-34 87t-87 36q-53 -1 -87 -36t-34 -87t34 -87t87 -36z" />
    <glyph glyph-name="Obreve" unicode="&#x14e;" horiz-adv-x="818" 
d="M411 781q-61 0 -100 39.5t-39 102.5h77q0 -28 18 -46t44 -18q29 0 45.5 18t16.5 46h77q0 -63 -40 -102.5t-99 -39.5zM408 -10q-156 0 -262 103.5t-106 256.5t106 256.5t262 103.5t263 -103.5t107 -256.5t-107 -256.5t-263 -103.5zM408 127q95 0 158 64.5t63 158.5
t-63 158.5t-158 64.5q-94 0 -157 -64.5t-63 -158.5t62.5 -158.5t157.5 -64.5z" />
    <glyph glyph-name="obreve" unicode="&#x14f;" horiz-adv-x="575" 
d="M287 531q-61 0 -100 39.5t-39 102.5h77q0 -28 18 -46t44 -18q29 0 45.5 18t16.5 46h77q0 -63 -40 -102.5t-99 -39.5zM287 -11q-108 0 -179.5 70t-71.5 171q0 100 71.5 170.5t179.5 70.5q109 0 180 -70t71 -171t-71 -171t-180 -70zM287 107q53 1 87 36t34 87t-34 87
t-87 36q-53 -1 -87 -36t-34 -87t34 -87t87 -36z" />
    <glyph glyph-name="Ohungarumlaut" unicode="&#x150;" horiz-adv-x="818" 
d="M380 784h-81l38 142h118zM530 784h-80l38 142h117zM408 -10q-156 0 -262 103.5t-106 256.5t106 256.5t262 103.5t263 -103.5t107 -256.5t-107 -256.5t-263 -103.5zM408 127q95 0 158 64.5t63 158.5t-63 158.5t-158 64.5q-94 0 -157 -64.5t-63 -158.5t62.5 -158.5
t157.5 -64.5z" />
    <glyph glyph-name="ohungarumlaut" unicode="&#x151;" horiz-adv-x="575" 
d="M256 534h-81l38 142h118zM406 534h-80l38 142h117zM287 -11q-108 0 -179.5 70t-71.5 171q0 100 71.5 170.5t179.5 70.5q109 0 180 -70t71 -171t-71 -171t-180 -70zM287 107q53 1 87 36t34 87t-34 87t-87 36q-53 -1 -87 -36t-34 -87t34 -87t87 -36z" />
    <glyph glyph-name="OE" unicode="&#x152;" horiz-adv-x="1139" 
d="M408 -10q-156 0 -262 103.5t-106 256.5t106 256.5t262 103.5q129 0 221 -79v69h451v-126h-313v-151h284v-125h-284v-172h313v-126h-451v69q-92 -79 -221 -79zM408 127q95 0 158 64.5t63 158.5t-63 158.5t-158 64.5q-94 0 -157 -64.5t-63 -158.5t62.5 -158.5t157.5 -64.5z
" />
    <glyph glyph-name="oe" unicode="&#x153;" horiz-adv-x="936" 
d="M658 471q113 0 182 -78.5t59 -198.5h-358q10 -42 42 -65.5t76 -24.5q76 2 109 58l98 -70q-34 -48 -87.5 -75.5t-119.5 -27.5q-112 0 -186 76q-71 -76 -186 -76q-108 0 -179.5 70t-71.5 171q0 100 71.5 170.5t179.5 70.5q113 0 186 -76q73 76 185 76zM544 278h227
q-9 34 -40 57t-73 24q-44 -1 -73.5 -23t-40.5 -58zM287 107q53 1 87 36t34 87t-34 87t-87 36q-53 -1 -87 -36t-34 -87t34 -87t87 -36z" />
    <glyph glyph-name="Racute" unicode="&#x154;" horiz-adv-x="626" 
d="M299 926h133l-83 -142h-88zM383 252l235 -252h-178l-217 250h-2v-250h-140v700h268q101 0 169 -63.5t68 -158.5q0 -86 -55.5 -150.5t-147.5 -75.5zM327 575h-106v-198h106q48 0 79 27t31 74q0 45 -30.5 71t-79.5 26z" />
    <glyph glyph-name="racute" unicode="&#x155;" horiz-adv-x="368" 
d="M240 534h-88l38 142h133zM186 0h-123v460h117v-54q37 61 127 61h35v-119h-49q-51 0 -79 -30t-28 -82v-236z" />
    <glyph glyph-name="uni0156" unicode="&#x156;" horiz-adv-x="626" 
d="M383 252l235 -252h-178l-217 250h-2v-250h-140v700h268q101 0 169 -63.5t68 -158.5q0 -86 -55.5 -150.5t-147.5 -75.5zM327 575h-106v-198h106q48 0 79 27t31 74q0 45 -30.5 71t-79.5 26zM345 -58q28 0 47 -18t19 -44q0 -16 -8 -29l-62 -112h-66l47 85q-19 6 -30.5 22
t-11.5 35q0 25 18.5 43t46.5 18z" />
    <glyph glyph-name="uni0157" unicode="&#x157;" horiz-adv-x="368" 
d="M186 0h-123v460h117v-54q37 61 127 61h35v-119h-49q-51 0 -79 -30t-28 -82v-236zM240 -120q0 -16 -8 -29l-62 -112h-66l47 85q-19 6 -30.5 22t-11.5 35q0 25 18.5 43t46.5 18t47 -18t19 -44z" />
    <glyph glyph-name="Rcaron" unicode="&#x158;" horiz-adv-x="626" 
d="M467 926l-93 -142h-115l-93 142h82l69 -62l69 62h81zM383 252l235 -252h-178l-217 250h-2v-250h-140v700h268q101 0 169 -63.5t68 -158.5q0 -86 -55.5 -150.5t-147.5 -75.5zM327 575h-106v-198h106q48 0 79 27t31 74q0 45 -30.5 71t-79.5 26z" />
    <glyph glyph-name="rcaron" unicode="&#x159;" horiz-adv-x="368" 
d="M150 534l-93 142h82l69 -62l69 62h81l-93 -142h-115zM186 0h-123v460h117v-54q37 61 127 61h35v-119h-49q-51 0 -79 -30t-28 -82v-236z" />
    <glyph glyph-name="Sacute" unicode="&#x15a;" horiz-adv-x="594" 
d="M346 784h-88l38 142h133zM296 -10q-106 0 -171 51.5t-92 121.5l114 66q15 -43 53.5 -73t95.5 -30q55 0 86.5 22t31.5 61q0 67 -89 85l-68 12q-81 16 -132.5 67t-51.5 136q0 78 63 139.5t175 61.5q80 0 138.5 -36.5t87.5 -96.5l-115 -72q-10 32 -40 54.5t-71 22.5
t-67.5 -21t-26.5 -50q0 -58 74 -73l71 -14q98 -20 149 -76t51 -139q0 -90 -71 -154.5t-195 -64.5z" />
    <glyph glyph-name="sacute" unicode="&#x15b;" horiz-adv-x="409" 
d="M230 534h-88l38 142h133zM201 -11q-71 0 -115 33t-60 84l109 41q16 -47 68 -47q56 0 56 37q0 33 -54 42q-78 13 -121.5 47t-43.5 104q0 59 45.5 100t120.5 41q64 0 105.5 -30t55.5 -78l-105 -35q-11 37 -56 37q-21 0 -33.5 -9.5t-12.5 -24.5q0 -31 54 -40
q168 -26 168 -148q0 -67 -48 -110.5t-133 -43.5z" />
    <glyph glyph-name="Scircumflex" unicode="&#x15c;" horiz-adv-x="594" 
d="M245 784h-82l93 142h115l93 -142h-81l-69 62zM296 -10q-106 0 -171 51.5t-92 121.5l114 66q15 -43 53.5 -73t95.5 -30q55 0 86.5 22t31.5 61q0 67 -89 85l-68 12q-81 16 -132.5 67t-51.5 136q0 78 63 139.5t175 61.5q80 0 138.5 -36.5t87.5 -96.5l-115 -72
q-10 32 -40 54.5t-71 22.5t-67.5 -21t-26.5 -50q0 -58 74 -73l71 -14q98 -20 149 -76t51 -139q0 -90 -71 -154.5t-195 -64.5z" />
    <glyph glyph-name="scircumflex" unicode="&#x15d;" horiz-adv-x="409" 
d="M129 534h-82l93 142h115l93 -142h-81l-69 62zM201 -11q-71 0 -115 33t-60 84l109 41q16 -47 68 -47q56 0 56 37q0 33 -54 42q-78 13 -121.5 47t-43.5 104q0 59 45.5 100t120.5 41q64 0 105.5 -30t55.5 -78l-105 -35q-11 37 -56 37q-21 0 -33.5 -9.5t-12.5 -24.5
q0 -31 54 -40q168 -26 168 -148q0 -67 -48 -110.5t-133 -43.5z" />
    <glyph glyph-name="Scedilla" unicode="&#x15e;" horiz-adv-x="594" 
d="M562 209q0 -83 -62.5 -146t-171.5 -72l-19 -42q38 -1 64.5 -27.5t26.5 -63.5q0 -41 -33 -70.5t-90 -29.5q-63 0 -99 46l37 55q28 -30 62 -30q17 0 29 9t12 22t-12.5 22.5t-29.5 9.5q-16 0 -28 -7l-24 32l31 75q-88 11 -143 59.5t-79 111.5l114 66q15 -43 53.5 -73
t95.5 -30q55 0 86.5 22t31.5 61q0 67 -89 85l-68 12q-81 16 -132.5 67t-51.5 136q0 78 63 139.5t175 61.5q80 0 138.5 -36.5t87.5 -96.5l-115 -72q-10 32 -40 54.5t-71 22.5t-67.5 -21t-26.5 -50q0 -58 74 -73l71 -14q98 -20 149 -76t51 -139z" />
    <glyph glyph-name="scedilla" unicode="&#x15f;" horiz-adv-x="409" 
d="M382 143q0 -61 -41 -103.5t-114 -49.5l-19 -41q38 -1 64.5 -27t26.5 -64q0 -41 -33 -70.5t-89 -29.5q-63 0 -99 46l37 55q28 -30 62 -30q17 0 28.5 9t11.5 22t-12 22.5t-29 9.5q-16 0 -28 -7l-25 32l32 76q-51 10 -83.5 40.5t-45.5 72.5l109 41q16 -47 68 -47q56 0 56 37
q0 33 -54 42q-78 13 -121.5 47t-43.5 104q0 59 45.5 100t120.5 41q64 0 105.5 -30t55.5 -78l-105 -35q-11 37 -56 37q-21 0 -33.5 -9.5t-12.5 -24.5q0 -31 54 -40q168 -26 168 -148z" />
    <glyph glyph-name="Scaron" unicode="&#x160;" horiz-adv-x="594" 
d="M256 784l-93 142h82l69 -62l69 62h81l-93 -142h-115zM296 -10q-106 0 -171 51.5t-92 121.5l114 66q15 -43 53.5 -73t95.5 -30q55 0 86.5 22t31.5 61q0 67 -89 85l-68 12q-81 16 -132.5 67t-51.5 136q0 78 63 139.5t175 61.5q80 0 138.5 -36.5t87.5 -96.5l-115 -72
q-10 32 -40 54.5t-71 22.5t-67.5 -21t-26.5 -50q0 -58 74 -73l71 -14q98 -20 149 -76t51 -139q0 -90 -71 -154.5t-195 -64.5z" />
    <glyph glyph-name="scaron" unicode="&#x161;" horiz-adv-x="409" 
d="M140 534l-93 142h82l69 -62l69 62h81l-93 -142h-115zM201 -11q-71 0 -115 33t-60 84l109 41q16 -47 68 -47q56 0 56 37q0 33 -54 42q-78 13 -121.5 47t-43.5 104q0 59 45.5 100t120.5 41q64 0 105.5 -30t55.5 -78l-105 -35q-11 37 -56 37q-21 0 -33.5 -9.5t-12.5 -24.5
q0 -31 54 -40q168 -26 168 -148q0 -67 -48 -110.5t-133 -43.5z" />
    <glyph glyph-name="uni0162" unicode="&#x162;" horiz-adv-x="581" 
d="M363 571v-571h-38l-23 -51q38 -1 64.5 -27.5t26.5 -63.5q0 -41 -33 -70.5t-90 -29.5q-63 0 -99 46l37 55q28 -30 62 -30q17 0 29 9t12 22t-12.5 22.5t-29.5 9.5q-16 0 -28 -7l-24 32l34 83h-32v571h-209v129h561v-129h-208z" />
    <glyph glyph-name="uni0163" unicode="&#x163;" horiz-adv-x="408" 
d="M361 460v-107h-131v-178q0 -67 68 -67h63v-114h-86h-3l-20 -45q38 -1 64.5 -27.5t26.5 -63.5q0 -41 -33 -70.5t-90 -29.5q-63 0 -99 46l37 55q28 -30 62 -30q17 0 29 9t12 22t-12.5 22.5t-29.5 9.5q-16 0 -28 -7l-24 32l36 87q-98 32 -98 153v196h-78v93h3q42 0 73 34.5
t31 87.5v2h96v-110h131z" />
    <glyph glyph-name="Tcaron" unicode="&#x164;" horiz-adv-x="581" 
d="M238 784l-93 142h82l69 -62l69 62h81l-93 -142h-115zM363 0h-144v571h-209v129h561v-129h-208v-571z" />
    <glyph glyph-name="tcaron" unicode="&#x165;" horiz-adv-x="408" 
d="M357 514h-81l10 175h115zM361 -6h-86q-82 0 -126 41.5t-44 121.5v196h-78v93h3q42 0 73 34.5t31 87.5v2h96v-110h131v-107h-131v-178q0 -67 68 -67h63v-114z" />
    <glyph glyph-name="Tbar" unicode="&#x166;" horiz-adv-x="582" 
d="M571 700v-129h-208v-171h153v-102h-153v-298h-144v298h-153v102h153v171h-209v129h561z" />
    <glyph glyph-name="tbar" unicode="&#x167;" horiz-adv-x="372" 
d="M361 460v-107h-131v-61h110v-81h-110v-36q0 -67 68 -67h63v-114h-86q-82 0 -126 41.5t-44 121.5v54h-74v81h74v61h-78v93h3q42 0 73 34.5t31 87.5v2h96v-110h131z" />
    <glyph glyph-name="Utilde" unicode="&#x168;" horiz-adv-x="726" 
d="M417 800q-29 0 -62.5 23t-48.5 23q-14 0 -22.5 -11t-8.5 -26h-74q0 62 28 93.5t67 31.5q26 0 48 -12t37.5 -23.5t25.5 -11.5q14 0 22.5 11t8.5 27h74q0 -65 -27.5 -95t-67.5 -30zM363 -10q-126 0 -205 79t-79 206v425h141v-418q0 -70 38.5 -113t104.5 -43t104.5 43
t38.5 113v418h141v-425q0 -127 -79 -206t-205 -79z" />
    <glyph glyph-name="utilde" unicode="&#x169;" horiz-adv-x="507" 
d="M315 550q-29 0 -62.5 23t-48.5 23q-14 0 -22.5 -11t-8.5 -26h-74q0 62 28 93.5t67 31.5q26 0 48 -12t37.5 -23.5t25.5 -11.5q14 0 22.5 11t8.5 27h74q0 -65 -27.5 -95t-67.5 -30zM253 -11q-102 0 -156 60t-54 153v258h125v-262q0 -39 22.5 -65t62.5 -26t63 26t23 65v262
h125v-258q0 -93 -54 -153t-157 -60z" />
    <glyph glyph-name="Umacron" unicode="&#x16a;" horiz-adv-x="726" 
d="M493 816h-265v88h265v-88zM363 -10q-126 0 -205 79t-79 206v425h141v-418q0 -70 38.5 -113t104.5 -43t104.5 43t38.5 113v418h141v-425q0 -127 -79 -206t-205 -79z" />
    <glyph glyph-name="umacron" unicode="&#x16b;" horiz-adv-x="507" 
d="M391 566h-265v88h265v-88zM253 -11q-102 0 -156 60t-54 153v258h125v-262q0 -39 22.5 -65t62.5 -26t63 26t23 65v262h125v-258q0 -93 -54 -153t-157 -60z" />
    <glyph glyph-name="Ubreve" unicode="&#x16c;" horiz-adv-x="726" 
d="M355 781q-61 0 -100 39.5t-39 102.5h77q0 -28 18 -46t44 -18q29 0 45.5 18t16.5 46h77q0 -63 -40 -102.5t-99 -39.5zM363 -10q-126 0 -205 79t-79 206v425h141v-418q0 -70 38.5 -113t104.5 -43t104.5 43t38.5 113v418h141v-425q0 -127 -79 -206t-205 -79z" />
    <glyph glyph-name="ubreve" unicode="&#x16d;" horiz-adv-x="507" 
d="M253 531q-61 0 -100 39.5t-39 102.5h77q0 -28 18 -46t44 -18q29 0 45.5 18t16.5 46h77q0 -63 -40 -102.5t-99 -39.5zM253 -11q-102 0 -156 60t-54 153v258h125v-262q0 -39 22.5 -65t62.5 -26t63 26t23 65v262h125v-258q0 -93 -54 -153t-157 -60z" />
    <glyph glyph-name="Uring" unicode="&#x16e;" horiz-adv-x="726" 
d="M358 759q-44 0 -73.5 28t-29.5 70t29.5 69.5t73.5 27.5t73 -27.5t29 -69.5q0 -43 -28.5 -70.5t-73.5 -27.5zM358 817q18 0 29 11.5t11 28.5t-11 28.5t-29 11.5t-29.5 -11.5t-11.5 -28.5t11.5 -28.5t29.5 -11.5zM363 -10q-126 0 -205 79t-79 206v425h141v-418
q0 -70 38.5 -113t104.5 -43t104.5 43t38.5 113v418h141v-425q0 -127 -79 -206t-205 -79z" />
    <glyph glyph-name="uring" unicode="&#x16f;" horiz-adv-x="507" 
d="M256 509q-44 0 -73.5 28t-29.5 70t29.5 69.5t73.5 27.5t73 -27.5t29 -69.5q0 -43 -28.5 -70.5t-73.5 -27.5zM256 567q18 0 29 11.5t11 28.5t-11 28.5t-29 11.5t-29.5 -11.5t-11.5 -28.5t11.5 -28.5t29.5 -11.5zM253 -11q-102 0 -156 60t-54 153v258h125v-262
q0 -39 22.5 -65t62.5 -26t63 26t23 65v262h125v-258q0 -93 -54 -153t-157 -60z" />
    <glyph glyph-name="Uhungarumlaut" unicode="&#x170;" horiz-adv-x="726" 
d="M325 784h-81l38 142h118zM475 784h-80l38 142h117zM363 -10q-126 0 -205 79t-79 206v425h141v-418q0 -70 38.5 -113t104.5 -43t104.5 43t38.5 113v418h141v-425q0 -127 -79 -206t-205 -79z" />
    <glyph glyph-name="uhungarumlaut" unicode="&#x171;" horiz-adv-x="507" 
d="M223 534h-81l38 142h118zM373 534h-80l38 142h117zM253 -11q-102 0 -156 60t-54 153v258h125v-262q0 -39 22.5 -65t62.5 -26t63 26t23 65v262h125v-258q0 -93 -54 -153t-157 -60z" />
    <glyph glyph-name="Uogonek" unicode="&#x172;" horiz-adv-x="726" 
d="M506 282v418h141v-425q0 -106 -57 -180.5t-152 -96.5q-36 -12 -63 -37t-27 -58q0 -28 19 -42.5t44 -14.5q16 0 32 4l19 -78q-34 -14 -77 -14q-56 0 -98 32t-42 90q0 70 64 114q-104 17 -167 93t-63 188v425h141v-418q0 -70 38.5 -113t104.5 -43t104.5 43t38.5 113z" />
    <glyph glyph-name="uogonek" unicode="&#x173;" horiz-adv-x="507" 
d="M339 198v262h125v-258q0 -73 -35 -128t-102 -75q-36 -11 -64 -36.5t-28 -59.5q0 -28 19 -42.5t44 -14.5q16 0 32 4l19 -78q-34 -14 -77 -14q-56 0 -98 32t-42 90q0 69 64 115q-75 16 -114 72.5t-39 134.5v258h125v-262q0 -39 22.5 -65t62.5 -26t63 26t23 65z" />
    <glyph glyph-name="Wcircumflex" unicode="&#x174;" horiz-adv-x="990" 
d="M430 784h-82l93 142h115l93 -142h-81l-69 62zM348 -5h-129l-214 705h150l132 -468l140 468h134l143 -468l131 468h150l-213 -705h-129l-149 465z" />
    <glyph glyph-name="wcircumflex" unicode="&#x175;" horiz-adv-x="734" 
d="M292 534h-82l93 142h115l93 -142h-81l-69 62zM262 -5h-93l-162 465h133l89 -271l89 271h98l91 -271l87 271h134l-161 -465h-93l-107 283z" />
    <glyph glyph-name="Ycircumflex" unicode="&#x176;" horiz-adv-x="682" 
d="M276 784h-82l93 142h115l93 -142h-81l-69 62zM416 0h-141v249l-268 451h160l176 -312l172 312h160l-259 -448v-252z" />
    <glyph glyph-name="ycircumflex" unicode="&#x177;" horiz-adv-x="543" 
d="M210 534h-82l93 142h115l93 -142h-81l-69 62zM176 -232h-147l169 309l-191 383h139l124 -257l128 257h139z" />
    <glyph glyph-name="Ydieresis" unicode="&#x178;" horiz-adv-x="682" 
d="M251 796q-29 0 -47.5 19t-18.5 47q0 29 18.5 47.5t47.5 18.5q30 0 49 -18.5t19 -47.5t-19 -47.5t-49 -18.5zM438 796q-29 0 -48 19t-19 47q0 29 19 47.5t48 18.5t48.5 -18.5t19.5 -47.5q0 -28 -19.5 -47t-48.5 -19zM416 0h-141v249l-268 451h160l176 -312l172 312h160
l-259 -448v-252z" />
    <glyph glyph-name="Zacute" unicode="&#x179;" horiz-adv-x="585" 
d="M325 784h-88l38 142h133zM544 0h-523l321 572h-292v128h514l-316 -572h296v-128z" />
    <glyph glyph-name="zacute" unicode="&#x17a;" horiz-adv-x="464" 
d="M271 534h-88l38 142h133zM425 0h-397l208 350h-190v110h390l-202 -347h191v-113z" />
    <glyph glyph-name="Zdotaccent" unicode="&#x17b;" horiz-adv-x="585" 
d="M292 796q-34 0 -56.5 21.5t-22.5 53.5t22.5 54.5t56.5 22.5q35 0 57.5 -22t22.5 -55q0 -32 -22.5 -53.5t-57.5 -21.5zM544 0h-523l321 572h-292v128h514l-316 -572h296v-128z" />
    <glyph glyph-name="zdotaccent" unicode="&#x17c;" horiz-adv-x="464" 
d="M238 546q-34 0 -56.5 21.5t-22.5 53.5t22.5 54.5t56.5 22.5q35 0 57.5 -22t22.5 -55q0 -32 -22.5 -53.5t-57.5 -21.5zM425 0h-397l208 350h-190v110h390l-202 -347h191v-113z" />
    <glyph glyph-name="Zcaron" unicode="&#x17d;" horiz-adv-x="585" 
d="M235 784l-93 142h82l69 -62l69 62h81l-93 -142h-115zM544 0h-523l321 572h-292v128h514l-316 -572h296v-128z" />
    <glyph glyph-name="zcaron" unicode="&#x17e;" horiz-adv-x="464" 
d="M181 534l-93 142h82l69 -62l69 62h81l-93 -142h-115zM425 0h-397l208 350h-190v110h390l-202 -347h191v-113z" />
    <glyph glyph-name="uni01CD" unicode="&#x1cd;" horiz-adv-x="658" 
d="M481 926l-93 -142h-115l-93 142h82l69 -62l69 62h81zM660 0h-147l-45 131h-277l-45 -131h-148l253 700h163zM330 537l-95 -278h190z" />
    <glyph glyph-name="uni01CE" unicode="&#x1ce;" horiz-adv-x="513" 
d="M194 534l-93 142h82l69 -62l69 62h81l-93 -142h-115zM218 -11q-80 0 -128.5 43.5t-48.5 107.5q0 59 43 95.5t111 36.5h100q39 0 39 35q0 19 -23.5 36.5t-64.5 17.5q-71 0 -100 -62l-90 58q23 50 73 82t117 32q99 0 154 -57.5t55 -135.5v-278h-116v32q-39 -43 -121 -43z
M235 89q45 0 71.5 25t26.5 62v6h-115q-22 0 -35.5 -12.5t-13.5 -32.5q0 -21 17.5 -34.5t48.5 -13.5z" />
    <glyph glyph-name="uni01CF" unicode="&#x1cf;" horiz-adv-x="465" 
d="M385 926l-93 -142h-115l-93 142h82l69 -62l69 62h81zM389 700v-125h-86v-450h86v-125h-313v125h87v450h-87v125h313z" />
    <glyph glyph-name="uni01D0" unicode="&#x1d0;" horiz-adv-x="230" 
d="M58 534l-93 142h82l69 -62l69 62h81l-93 -142h-115zM178 0h-125v460h125v-460z" />
    <glyph glyph-name="uni01D1" unicode="&#x1d1;" horiz-adv-x="818" 
d="M354 784l-93 142h82l69 -62l69 62h81l-93 -142h-115zM408 -10q-156 0 -262 103.5t-106 256.5t106 256.5t262 103.5t263 -103.5t107 -256.5t-107 -256.5t-263 -103.5zM408 127q95 0 158 64.5t63 158.5t-63 158.5t-158 64.5q-94 0 -157 -64.5t-63 -158.5t62.5 -158.5
t157.5 -64.5z" />
    <glyph glyph-name="uni01D2" unicode="&#x1d2;" horiz-adv-x="575" 
d="M230 534l-93 142h82l69 -62l69 62h81l-93 -142h-115zM287 -11q-108 0 -179.5 70t-71.5 171q0 100 71.5 170.5t179.5 70.5q109 0 180 -70t71 -171t-71 -171t-180 -70zM287 107q53 1 87 36t34 87t-34 87t-87 36q-53 -1 -87 -36t-34 -87t34 -87t87 -36z" />
    <glyph glyph-name="Gcaron" unicode="&#x1e6;" horiz-adv-x="813" 
d="M353 784l-93 142h82l69 -62l69 62h81l-93 -142h-115zM406 -10q-155 0 -260.5 103.5t-105.5 256.5t105.5 256.5t260.5 103.5q105 0 185 -45.5t128 -125.5l-124 -71q-60 105 -189 105q-91 0 -154.5 -64t-63.5 -159t63.5 -159t154.5 -64q67 0 117 31t76 86h-191v122h365v-16
q0 -156 -104.5 -258t-262.5 -102z" />
    <glyph glyph-name="gcaron" unicode="&#x1e7;" 
d="M444 676l-93 -142h-115l-93 142h82l69 -62l69 62h81zM408 435v25h125v-464q0 -104 -70 -171t-182 -67q-72 0 -128 31.5t-83 81.5l96 70q15 -27 46.5 -44.5t68.5 -17.5q58 0 92.5 33t34.5 84v29q-58 -36 -129 -36q-102 0 -172.5 71.5t-70.5 169.5t70.5 169.5t172.5 71.5
q71 0 129 -36zM287 107q53 1 87 36t34 87t-34 87t-87 36q-53 -1 -87 -36t-34 -87t34 -87t87 -36z" />
    <glyph glyph-name="uni0218" unicode="&#x218;" horiz-adv-x="594" 
d="M296 -10q-106 0 -171 51.5t-92 121.5l114 66q15 -43 53.5 -73t95.5 -30q55 0 86.5 22t31.5 61q0 67 -89 85l-68 12q-81 16 -132.5 67t-51.5 136q0 78 63 139.5t175 61.5q80 0 138.5 -36.5t87.5 -96.5l-115 -72q-10 32 -40 54.5t-71 22.5t-67.5 -21t-26.5 -50
q0 -58 74 -73l71 -14q98 -20 149 -76t51 -139q0 -90 -71 -154.5t-195 -64.5zM360 -120q0 -16 -8 -29l-62 -112h-66l47 85q-19 6 -30.5 22t-11.5 35q0 25 18.5 43t46.5 18t47 -18t19 -44z" />
    <glyph glyph-name="uni0219" unicode="&#x219;" horiz-adv-x="409" 
d="M201 -11q-71 0 -115 33t-60 84l109 41q16 -47 68 -47q56 0 56 37q0 33 -54 42q-78 13 -121.5 47t-43.5 104q0 59 45.5 100t120.5 41q64 0 105.5 -30t55.5 -78l-105 -35q-11 37 -56 37q-21 0 -33.5 -9.5t-12.5 -24.5q0 -31 54 -40q168 -26 168 -148q0 -67 -48 -110.5
t-133 -43.5zM259 -120q0 -16 -8 -29l-62 -112h-66l47 85q-19 6 -30.5 22t-11.5 35q0 25 18.5 43t46.5 18t47 -18t19 -44z" />
    <glyph glyph-name="uni021A" unicode="&#x21a;" horiz-adv-x="581" 
d="M363 0h-144v571h-209v129h561v-129h-208v-571zM352 -120q0 -16 -8 -29l-62 -112h-66l47 85q-19 6 -30.5 22t-11.5 35q0 25 18.5 43t46.5 18t47 -18t19 -44z" />
    <glyph glyph-name="uni021B" unicode="&#x21b;" horiz-adv-x="408" 
d="M361 -6h-86q-82 0 -126 41.5t-44 121.5v196h-78v93h3q42 0 73 34.5t31 87.5v2h96v-110h131v-107h-131v-178q0 -67 68 -67h63v-114zM302 -120q0 -16 -8 -29l-62 -112h-66l47 85q-19 6 -30.5 22t-11.5 35q0 25 18.5 43t46.5 18t47 -18t19 -44z" />
    <glyph glyph-name="uni0237" unicode="&#x237;" horiz-adv-x="236" 
d="M-39 -232v117q96 0 96 98v477h125v-477q0 -110 -60.5 -162.5t-160.5 -52.5z" />
    <glyph glyph-name="circumflex" unicode="&#x2c6;" horiz-adv-x="447" 
d="M155 534h-82l93 142h115l93 -142h-81l-69 62z" />
    <glyph glyph-name="caron" unicode="&#x2c7;" horiz-adv-x="447" 
d="M166 534l-93 142h82l69 -62l69 62h81l-93 -142h-115z" />
    <glyph glyph-name="breve" unicode="&#x2d8;" horiz-adv-x="424" 
d="M212 531q-61 0 -100 39.5t-39 102.5h77q0 -28 18 -46t44 -18q29 0 45.5 18t16.5 46h77q0 -63 -40 -102.5t-99 -39.5z" />
    <glyph glyph-name="dotaccent" unicode="&#x2d9;" horiz-adv-x="306" 
d="M152 546q-34 0 -56.5 21.5t-22.5 53.5t22.5 54.5t56.5 22.5q35 0 57.5 -22t22.5 -55q0 -32 -22.5 -53.5t-57.5 -21.5z" />
    <glyph glyph-name="ring" unicode="&#x2da;" horiz-adv-x="351" 
d="M176 509q-44 0 -73.5 28t-29.5 70t29.5 69.5t73.5 27.5t73 -27.5t29 -69.5q0 -43 -28.5 -70.5t-73.5 -27.5zM176 567q18 0 29 11.5t11 28.5t-11 28.5t-29 11.5t-29.5 -11.5t-11.5 -28.5t11.5 -28.5t29.5 -11.5z" />
    <glyph glyph-name="ogonek" unicode="&#x2db;" horiz-adv-x="363" 
d="M213 -242q-56 0 -98 32t-42 90q0 48 31 84t73 52l94 -16q-37 -11 -66 -37t-29 -60q0 -28 19 -42.5t44 -14.5q16 0 32 4l19 -78q-34 -14 -77 -14z" />
    <glyph glyph-name="tilde" unicode="&#x2dc;" horiz-adv-x="457" 
d="M289 550q-29 0 -62.5 23t-48.5 23q-14 0 -22.5 -11t-8.5 -26h-74q0 62 28 93.5t67 31.5q26 0 48 -12t37.5 -23.5t25.5 -11.5q14 0 22.5 11t8.5 27h74q0 -65 -27.5 -95t-67.5 -30z" />
    <glyph glyph-name="hungarumlaut" unicode="&#x2dd;" horiz-adv-x="452" 
d="M154 534h-81l38 142h118zM304 534h-80l38 142h117z" />
    <glyph glyph-name="uni0312" unicode="&#x312;" horiz-adv-x="0" 
d="M-209 577q0 16 8 29l62 112h66l-47 -85q19 -6 30.5 -22t11.5 -35q0 -25 -18.5 -43t-45.5 -18q-29 0 -48 18t-19 44z" />
    <glyph glyph-name="uni0326" unicode="&#x326;" horiz-adv-x="0" 
d="M-73 -120q0 -16 -8 -29l-62 -112h-66l47 85q-19 6 -30.5 22t-11.5 35q0 25 18.5 43t46.5 18t47 -18t19 -44z" />
    <glyph glyph-name="Wgrave" unicode="&#x1e80;" horiz-adv-x="990" 
d="M515 926l38 -142h-88l-83 142h133zM348 -5h-129l-214 705h150l132 -468l140 468h134l143 -468l131 468h150l-213 -705h-129l-149 465z" />
    <glyph glyph-name="wgrave" unicode="&#x1e81;" horiz-adv-x="734" 
d="M377 676l38 -142h-88l-83 142h133zM262 -5h-93l-162 465h133l89 -271l89 271h98l91 -271l87 271h134l-161 -465h-93l-107 283z" />
    <glyph glyph-name="Wacute" unicode="&#x1e82;" horiz-adv-x="990" 
d="M531 784h-88l38 142h133zM348 -5h-129l-214 705h150l132 -468l140 468h134l143 -468l131 468h150l-213 -705h-129l-149 465z" />
    <glyph glyph-name="wacute" unicode="&#x1e83;" horiz-adv-x="734" 
d="M393 534h-88l38 142h133zM262 -5h-93l-162 465h133l89 -271l89 271h98l91 -271l87 271h134l-161 -465h-93l-107 283z" />
    <glyph glyph-name="Wdieresis" unicode="&#x1e84;" horiz-adv-x="990" 
d="M406 796q-28 0 -47 19t-19 47q0 29 18.5 47.5t47.5 18.5q30 0 49 -18.5t19 -47.5t-19 -47.5t-49 -18.5zM593 796q-29 0 -48 19t-19 47q0 29 19 47.5t48 18.5t48.5 -18.5t19.5 -47.5q0 -28 -19.5 -47t-48.5 -19zM348 -5h-129l-214 705h150l132 -468l140 468h134l143 -468
l131 468h150l-213 -705h-129l-149 465z" />
    <glyph glyph-name="wdieresis" unicode="&#x1e85;" horiz-adv-x="734" 
d="M267 546q-29 0 -47.5 19t-18.5 47q0 29 18.5 47.5t47.5 18.5q30 0 49 -18.5t19 -47.5t-19 -47.5t-49 -18.5zM454 546q-29 0 -48 19t-19 47q0 29 19 47.5t48 18.5t48.5 -18.5t19.5 -47.5q0 -28 -19.5 -47t-48.5 -19zM262 -5h-93l-162 465h133l89 -271l89 271h98l91 -271
l87 271h134l-161 -465h-93l-107 283z" />
    <glyph glyph-name="uni1E9E" unicode="&#x1e9e;" horiz-adv-x="741" 
d="M487 -10q-63 0 -121 25.5t-91 58.5l81 104q56 -52 131 -52q50 0 80.5 22t30.5 60q0 60 -81 79l-167 40v94l99 137q-52 19 -94 19q-60 0 -96.5 -34t-36.5 -95v-448h-141v448q0 125 76 193.5t198 68.5q78 0 151.5 -26t125.5 -61l-132 -193l54 -14q192 -49 192 -208
q0 -95 -67 -156.5t-192 -61.5z" />
    <glyph glyph-name="uni1EBC" unicode="&#x1ebc;" 
d="M384 800q-29 0 -62.5 23t-48.5 23q-14 0 -22.5 -11t-8.5 -26h-74q0 62 28 93.5t67 31.5q26 0 48 -12t37.5 -23.5t25.5 -11.5q14 0 22.5 11t8.5 27h74q0 -65 -27.5 -95t-67.5 -30zM532 0h-451v700h451v-126h-313v-151h284v-125h-284v-172h313v-126z" />
    <glyph glyph-name="uni1EBD" unicode="&#x1ebd;" horiz-adv-x="565" 
d="M362 550q-29 0 -62.5 23t-48.5 23q-14 0 -22.5 -11t-8.5 -26h-74q0 62 28 93.5t67 31.5q26 0 48 -12t37.5 -23.5t25.5 -11.5q14 0 22.5 11t8.5 27h74q0 -65 -27.5 -95t-67.5 -30zM288 -11q-110 0 -181 70.5t-71 170.5t70 170.5t180 70.5q113 0 182 -78.5t59 -198.5h-358
q10 -41 42.5 -65t76.5 -25q75 2 108 58l99 -70q-34 -48 -88 -75.5t-119 -27.5zM172 278h228q-10 34 -41 57t-73 24q-43 -1 -73 -23t-41 -58z" />
    <glyph glyph-name="Ygrave" unicode="&#x1ef2;" horiz-adv-x="682" 
d="M361 926l38 -142h-88l-83 142h133zM416 0h-141v249l-268 451h160l176 -312l172 312h160l-259 -448v-252z" />
    <glyph glyph-name="ygrave" unicode="&#x1ef3;" horiz-adv-x="543" 
d="M295 676l38 -142h-88l-83 142h133zM176 -232h-147l169 309l-191 383h139l124 -257l128 257h139z" />
    <glyph glyph-name="endash" unicode="&#x2013;" horiz-adv-x="577" 
d="M495 233h-413v99h413v-99z" />
    <glyph glyph-name="emdash" unicode="&#x2014;" horiz-adv-x="797" 
d="M715 233h-633v99h633v-99z" />
    <glyph glyph-name="quoteleft" unicode="&#x2018;" horiz-adv-x="240" 
d="M41 516q0 17 7 34l66 164h87l-53 -129q24 -7 38.5 -27.5t14.5 -45.5q0 -31 -22.5 -54.5t-57.5 -23.5q-36 0 -58 23t-22 59z" />
    <glyph glyph-name="quoteright" unicode="&#x2019;" horiz-adv-x="240" 
d="M199 668q0 -18 -7 -35l-65 -164h-88l53 129q-24 8 -38.5 28t-14.5 45q0 31 23 54.5t57 23.5q36 0 58 -22.5t22 -58.5z" />
    <glyph glyph-name="quotesinglbase" unicode="&#x201a;" horiz-adv-x="239" 
d="M199 64q0 -18 -7 -35l-65 -164h-88l53 129q-24 8 -38.5 28t-14.5 45q0 31 23 54.5t57 23.5q36 0 58 -22.5t22 -58.5z" />
    <glyph glyph-name="quotedblleft" unicode="&#x201c;" horiz-adv-x="445" 
d="M41 516q0 17 7 34l66 164h87l-53 -129q24 -7 38.5 -27.5t14.5 -45.5q0 -31 -22.5 -54.5t-57.5 -23.5q-36 0 -58 23t-22 59zM245 516q0 15 8 34l65 164h87l-52 -129q24 -7 38 -27.5t14 -45.5q0 -31 -22.5 -54.5t-56.5 -23.5q-36 0 -58.5 23t-22.5 59z" />
    <glyph glyph-name="quotedblright" unicode="&#x201d;" horiz-adv-x="445" 
d="M199 668q0 -18 -7 -35l-65 -164h-88l53 129q-24 8 -38.5 28t-14.5 45q0 31 23 54.5t57 23.5q36 0 58 -22.5t22 -58.5zM404 668q0 -16 -8 -35l-65 -164h-87l52 129q-23 8 -37.5 28t-14.5 45q0 31 22.5 54.5t56.5 23.5q37 0 59 -22.5t22 -58.5z" />
    <glyph glyph-name="quotedblbase" unicode="&#x201e;" horiz-adv-x="445" 
d="M199 64q0 -18 -7 -35l-65 -164h-88l53 129q-24 8 -38.5 28t-14.5 45q0 31 23 54.5t57 23.5q36 0 58 -22.5t22 -58.5zM404 64q0 -16 -8 -35l-65 -164h-87l52 129q-23 8 -37.5 28t-14.5 45q0 31 22.5 54.5t56.5 23.5q37 0 59 -22.5t22 -58.5z" />
    <glyph glyph-name="dagger" unicode="&#x2020;" horiz-adv-x="451" 
d="M264 55h-78l-11 365h-139v86h138v194h102v-194h139v-86h-140z" />
    <glyph glyph-name="daggerdbl" unicode="&#x2021;" horiz-adv-x="451" 
d="M276 55h-102v164h-132v87h133v156h-139v87h138v151h102v-151h139v-87h-140v-156h134v-87h-133v-164z" />
    <glyph glyph-name="bullet" unicode="&#x2022;" horiz-adv-x="354" 
d="M175 119q-43 0 -74 31t-31 74q0 45 31 77t74 32q45 0 77 -32t32 -77q0 -43 -32 -74t-77 -31z" />
    <glyph glyph-name="ellipsis" unicode="&#x2026;" horiz-adv-x="666" 
d="M119 -10q-35 0 -57.5 23t-22.5 54q0 32 22.5 55t57.5 23q36 0 58 -22.5t22 -55.5q0 -32 -22 -54.5t-58 -22.5zM333 -10q-35 0 -57.5 22.5t-22.5 54.5t22.5 55t57.5 23q36 0 58 -22.5t22 -55.5q0 -32 -22 -54.5t-58 -22.5zM547 -10q-35 0 -57.5 22.5t-22.5 54.5t22.5 55
t57.5 23q36 0 58 -22.5t22 -55.5q0 -32 -22 -54.5t-58 -22.5z" />
    <glyph glyph-name="perthousand" unicode="&#x2030;" horiz-adv-x="1051" 
d="M187 371q-61 0 -102.5 39.5t-41.5 99.5t42 100t102 40q59 0 101 -40t42 -100q0 -59 -42 -99t-101 -40zM234 0h-107l361 639h107zM186 453q23 0 39.5 16.5t16.5 40.5t-16.5 41t-39.5 17q-24 0 -40 -17t-16 -41t16 -40.5t40 -16.5zM542 -11q-61 0 -102.5 39.5t-41.5 99.5
t41.5 100t102.5 40q59 0 100.5 -40t41.5 -100q0 -59 -41.5 -99t-100.5 -40zM865 -11q-60 0 -102 40t-42 99q0 60 42 100t102 40q59 0 101 -40t42 -100q0 -59 -42 -99t-101 -40zM541 71q23 0 39.5 16.5t16.5 40.5t-16.5 41t-39.5 17q-24 0 -40.5 -17t-16.5 -41t16.5 -40.5
t40.5 -16.5zM865 71q23 0 39.5 16.5t16.5 40.5t-16.5 41t-39.5 17q-24 0 -40.5 -17t-16.5 -41t16 -40.5t41 -16.5z" />
    <glyph glyph-name="guilsinglleft" unicode="&#x2039;" horiz-adv-x="298" 
d="M269 81h-111l-132 174l132 173h114l-117 -173z" />
    <glyph glyph-name="guilsinglright" unicode="&#x203a;" horiz-adv-x="298" 
d="M272 255l-133 -174h-110l114 174l-117 173h113z" />
    <glyph glyph-name="fraction" unicode="&#x2044;" horiz-adv-x="281" 
d="M17 -80h-117l364 780h117z" />
    <glyph glyph-name="Euro" unicode="&#x20ac;" horiz-adv-x="745" 
d="M420 110q58 0 103 27.5t71 75.5l111 -65q-43 -73 -118 -115.5t-167 -42.5q-115 0 -200.5 65t-115.5 170h-64v72h52q-1 8 -1 23q0 19 1 28h-52v70h65q30 104 115.5 168t199.5 64q92 0 166.5 -42t118.5 -115l-111 -65q-26 47 -71 74.5t-103 27.5q-60 0 -106.5 -30.5
t-70.5 -81.5h239l-20 -70h-238q-2 -18 -2 -28q0 -15 1 -23h225l-19 -72h-188q23 -53 70 -84t109 -31z" />
    <glyph glyph-name="uni2116" unicode="&#x2116;" horiz-adv-x="1170" 
d="M917 222q-91 0 -153.5 60.5t-62.5 152.5q0 93 62.5 154t153.5 61t153.5 -61t62.5 -154t-62.5 -153t-153.5 -60zM644 -5h-113l-313 411l-1 -406h-136v640h133l294 -383v383h136v-645zM917 334q42 0 71 29t29 72q0 45 -28.5 74t-71.5 29q-42 0 -71 -29t-29 -74
q0 -43 29 -72t71 -29zM1090 48h-351v114h351v-114z" />
    <glyph glyph-name="trademark" unicode="&#x2122;" horiz-adv-x="722" 
d="M125 629h-82v71h243v-71h-82v-231h-79v231zM509 533l87 167h83v-302h-73v178l-97 -184l-98 184v-178h-73v302h83z" />
    <glyph glyph-name="minus" unicode="&#x2212;" horiz-adv-x="438" 
d="M428 267h-418v80h418v-80z" />
    <glyph glyph-name="CR" horiz-adv-x="0" 
 />
    <glyph glyph-name="i.loclTRK" horiz-adv-x="230" 
d="M116 546q-34 0 -56.5 21.5t-22.5 53.5t22.5 54.5t56.5 22.5q35 0 57.5 -22t22.5 -55q0 -32 -22.5 -53.5t-57.5 -21.5zM178 0h-125v460h125v-460z" />
    <glyph glyph-name="a.ss01" 
d="M408 436v24h125v-460h-125v24q-59 -35 -129 -35q-102 0 -172.5 71.5t-70.5 169.5t70.5 169.5t172.5 71.5q70 0 129 -35zM287 107q53 1 87 36t34 87t-34 87t-87 36q-53 -1 -87 -36t-34 -87t34 -87t87 -36z" />
    <glyph glyph-name="aacute.ss01" 
d="M280 676h133l-83 -142h-88zM408 436v24h125v-460h-125v24q-59 -35 -129 -35q-102 0 -172.5 71.5t-70.5 169.5t70.5 169.5t172.5 71.5q70 0 129 -35zM287 107q53 1 87 36t34 87t-34 87t-87 36q-53 -1 -87 -36t-34 -87t34 -87t87 -36z" />
    <glyph glyph-name="abreve.ss01" 
d="M297 531q-61 0 -100 39.5t-39 102.5h77q0 -28 18 -46t44 -18q29 0 45.5 18t16.5 46h77q0 -63 -40 -102.5t-99 -39.5zM408 436v24h125v-460h-125v24q-59 -35 -129 -35q-102 0 -172.5 71.5t-70.5 169.5t70.5 169.5t172.5 71.5q70 0 129 -35zM287 107q53 1 87 36t34 87
t-34 87t-87 36q-53 -1 -87 -36t-34 -87t34 -87t87 -36z" />
    <glyph glyph-name="uni01CE.ss01" 
d="M448 676l-93 -142h-115l-93 142h82l69 -62l69 62h81zM408 436v24h125v-460h-125v24q-59 -35 -129 -35q-102 0 -172.5 71.5t-70.5 169.5t70.5 169.5t172.5 71.5q70 0 129 -35zM287 107q53 1 87 36t34 87t-34 87t-87 36q-53 -1 -87 -36t-34 -87t34 -87t87 -36z" />
    <glyph glyph-name="acircumflex.ss01" 
d="M367 534l-69 62l-69 -62h-82l93 142h115l93 -142h-81zM408 436v24h125v-460h-125v24q-59 -35 -129 -35q-102 0 -172.5 71.5t-70.5 169.5t70.5 169.5t172.5 71.5q70 0 129 -35zM287 107q53 1 87 36t34 87t-34 87t-87 36q-53 -1 -87 -36t-34 -87t34 -87t87 -36z" />
    <glyph glyph-name="adieresis.ss01" 
d="M205 546q-29 0 -47.5 19t-18.5 47q0 29 18.5 47.5t47.5 18.5q30 0 49 -18.5t19 -47.5t-19 -47.5t-49 -18.5zM392 546q-29 0 -48 19t-19 47q0 29 19 47.5t48 18.5t48.5 -18.5t19.5 -47.5q0 -28 -19.5 -47t-48.5 -19zM408 436v24h125v-460h-125v24q-59 -35 -129 -35
q-102 0 -172.5 71.5t-70.5 169.5t70.5 169.5t172.5 71.5q70 0 129 -35zM287 107q53 1 87 36t34 87t-34 87t-87 36q-53 -1 -87 -36t-34 -87t34 -87t87 -36z" />
    <glyph glyph-name="agrave.ss01" 
d="M314 676l38 -142h-88l-83 142h133zM408 436v24h125v-460h-125v24q-59 -35 -129 -35q-102 0 -172.5 71.5t-70.5 169.5t70.5 169.5t172.5 71.5q70 0 129 -35zM287 107q53 1 87 36t34 87t-34 87t-87 36q-53 -1 -87 -36t-34 -87t34 -87t87 -36z" />
    <glyph glyph-name="amacron.ss01" 
d="M169 654h265v-88h-265v88zM408 436v24h125v-460h-125v24q-59 -35 -129 -35q-102 0 -172.5 71.5t-70.5 169.5t70.5 169.5t172.5 71.5q70 0 129 -35zM287 107q53 1 87 36t34 87t-34 87t-87 36q-53 -1 -87 -36t-34 -87t34 -87t87 -36z" />
    <glyph glyph-name="aogonek.ss01" 
d="M534 -150l19 -78q-34 -14 -77 -14q-56 0 -98 32t-42 90q0 75 72 120v24q-59 -35 -129 -35q-102 0 -172.5 71.5t-70.5 169.5t70.5 169.5t172.5 71.5q70 0 129 -35v24h125v-460h1q-37 -11 -66 -37t-29 -60q0 -28 19 -42.5t44 -14.5q16 0 32 4zM287 107q53 1 87 36t34 87
t-34 87t-87 36q-53 -1 -87 -36t-34 -87t34 -87t87 -36z" />
    <glyph glyph-name="aring.ss01" 
d="M299 509q-44 0 -73.5 28t-29.5 70t29.5 69.5t73.5 27.5t73 -27.5t29 -69.5q0 -43 -28.5 -70.5t-73.5 -27.5zM299 647q-18 0 -29.5 -11.5t-11.5 -28.5t11.5 -28.5t29.5 -11.5t29 11.5t11 28.5t-11 28.5t-29 11.5zM408 436v24h125v-460h-125v24q-59 -35 -129 -35
q-102 0 -172.5 71.5t-70.5 169.5t70.5 169.5t172.5 71.5q70 0 129 -35zM287 107q53 1 87 36t34 87t-34 87t-87 36q-53 -1 -87 -36t-34 -87t34 -87t87 -36z" />
    <glyph glyph-name="atilde.ss01" 
d="M247 596q-14 0 -22.5 -11t-8.5 -26h-74q0 62 28 93.5t67 31.5q26 0 48 -12t37.5 -23.5t25.5 -11.5q14 0 22.5 11t8.5 27h74q0 -65 -27.5 -95t-67.5 -30q-29 0 -62.5 23t-48.5 23zM408 436v24h125v-460h-125v24q-59 -35 -129 -35q-102 0 -172.5 71.5t-70.5 169.5
t70.5 169.5t172.5 71.5q70 0 129 -35zM287 107q53 1 87 36t34 87t-34 87t-87 36q-53 -1 -87 -36t-34 -87t34 -87t87 -36z" />
    <glyph glyph-name="ae.ss01" horiz-adv-x="951" 
d="M279 -11q-102 0 -172.5 71.5t-70.5 169.5t70.5 169.5t172.5 71.5q70 0 129 -39v28h125v-36q58 47 139 47q114 0 182 -76.5t59 -200.5h-362q10 -44 44.5 -70t78.5 -26q35 0 66 15.5t47 41.5l94 -63q-34 -48 -88 -75.5t-119 -27.5q-83 0 -141 47v-36h-125v26
q-56 -37 -129 -37zM554 278h236q-11 38 -43 62.5t-75 25.5q-44 -1 -75 -24.5t-43 -63.5zM287 107q53 1 87 36t34 87t-34 87t-87 36q-53 -1 -87 -36t-34 -87t34 -87t87 -36z" />
    <glyph glyph-name="ordfeminine.ss01" horiz-adv-x="392" 
d="M274 622v20h84v-301h-84v19q-37 -26 -85 -26q-67 0 -111.5 46.5t-44.5 111.5t44 111t112 46q47 0 85 -27zM198 414q33 0 54.5 22.5t21.5 55.5t-21.5 55t-54.5 22q-34 0 -55.5 -22t-21.5 -55t21.5 -55.5t55.5 -22.5z" />
    <glyph glyph-name="zero.tf" horiz-adv-x="579" 
d="M289 -10q-115 0 -180 85.5t-65 243.5q0 159 65 245t180 86t180.5 -86t65.5 -245q0 -158 -65.5 -243.5t-180.5 -85.5zM289 112q55 0 83.5 48.5t28.5 158.5q0 209 -112 209t-112 -209q0 -110 28.5 -158.5t83.5 -48.5z" />
    <glyph glyph-name="one.tf" horiz-adv-x="579" 
d="M420 0h-129v474l-153 -100v145l194 124h88v-643z" />
    <glyph glyph-name="two.tf" horiz-adv-x="579" 
d="M435 234l-104 -116h189v-118h-450l245 282q24 27 38 45t26 46t12 56q0 39 -28.5 69t-74.5 30q-44 0 -72 -29t-28 -70q0 -43 32 -72l-79 -84q-36 26 -58 71.5t-22 95.5q0 82 62.5 146t164.5 64q108 0 173 -68.5t65 -152.5q0 -92 -91 -195z" />
    <glyph glyph-name="three.tf" horiz-adv-x="579" 
d="M273 -10q-136 0 -201 115l106 65q12 -25 38 -41.5t57 -16.5q44 0 72.5 28.5t28.5 69.5q0 38 -28.5 67t-72.5 29q-39 0 -65 -26l-72 69l140 177h-188v114h406l-176 -231q2 1 8 1q72 -5 126.5 -63t54.5 -137q0 -90 -65 -155t-169 -65z" />
    <glyph glyph-name="four.tf" horiz-adv-x="579" 
d="M484 0h-129v120h-318v80l339 443h108v-409h100v-114h-100v-120zM355 444l-160 -210h160v210z" />
    <glyph glyph-name="five.tf" horiz-adv-x="579" 
d="M273 -10q-138 0 -205 115l106 65q13 -25 39.5 -41.5t59.5 -16.5q45 0 75.5 31t30.5 74t-31 73t-75 30q-65 0 -96 -61l-95 45l45 336h341v-115h-240l-18 -123q37 28 95 28q88 0 147.5 -63.5t59.5 -152.5q0 -95 -67.5 -159.5t-171.5 -64.5z" />
    <glyph glyph-name="six.tf" horiz-adv-x="579" 
d="M470 640l-146 -201q87 -11 143.5 -73t56.5 -148q0 -94 -66.5 -161t-167.5 -67q-104 0 -169 66.5t-65 161.5q0 73 42 129l207 293h165zM290 112q43 0 71.5 29.5t28.5 76.5q0 46 -29 75t-71 29q-43 0 -72 -29.5t-29 -74.5q0 -47 28 -76.5t73 -29.5z" />
    <glyph glyph-name="seven.tf" horiz-adv-x="579" 
d="M254 0h-151l229 518h-276v122h468z" />
    <glyph glyph-name="eight.tf" horiz-adv-x="579" 
d="M291 -10q-101 0 -162.5 56t-61.5 138q0 100 85 149q-73 49 -73 137q0 77 58.5 128.5t152.5 51.5t152.5 -51.5t58.5 -128.5q0 -86 -71 -136q37 -21 61 -59.5t24 -90.5q0 -82 -61.5 -138t-162.5 -56zM290 386q37 1 57.5 23.5t20.5 52.5q0 31 -21.5 52t-56.5 21
q-34 0 -56 -21t-22 -52q0 -30 20.5 -52.5t57.5 -23.5zM291 111q38 0 61.5 23t23.5 57q0 33 -22 57.5t-63 24.5t-63 -25t-22 -57q0 -34 23.5 -57t61.5 -23z" />
    <glyph glyph-name="nine.tf" horiz-adv-x="579" 
d="M524 422q0 -73 -42 -129l-207 -293h-171l146 202q-85 13 -139.5 74.5t-54.5 145.5q0 95 66 161.5t168 66.5q103 0 168.5 -66.5t65.5 -161.5zM190 422q0 -46 29 -75t71 -29q43 0 72 29.5t29 74.5q0 47 -28.5 76.5t-72.5 29.5q-43 0 -71.5 -29.5t-28.5 -76.5z" />
    <glyph glyph-name="exclamdown.case" horiz-adv-x="304" 
d="M154 710q36 0 58 -22.5t22 -54.5q0 -33 -22 -55.5t-58 -22.5q-35 0 -57.5 23t-22.5 55q0 31 23 54t57 23zM74 0l32 474h92l32 -474h-156z" />
    <glyph glyph-name="questiondown.case" horiz-adv-x="450" 
d="M228 555q-36 0 -58.5 23t-22.5 55t22.5 54.5t58.5 22.5q34 0 57 -23t23 -54q0 -32 -22.5 -55t-57.5 -23zM328 176l93 -64q-23 -57 -74 -89.5t-114 -32.5q-103 0 -165 60t-62 139q0 43 16.5 78t39.5 57.5t46 42.5t39.5 43.5t16.5 49.5v14h125v-14q0 -39 -16 -70.5
t-38.5 -52.5t-44.5 -40t-38 -43t-16 -53q0 -40 27 -66.5t70 -26.5q68 1 95 68z" />
    <glyph glyph-name="parenleft.case" horiz-adv-x="442" 
d="M403 -51v-104q-39 7 -85.5 27t-99.5 61.5t-95 96t-70 137t-28 178.5t28 178.5t70 137t95 95.5t99 61.5t86 27.5v-104q-24 -5 -53.5 -18.5t-70.5 -44.5t-73 -72.5t-55 -110t-23 -150.5t23 -150.5t55 -110t73 -72.5t70.5 -44.5t53.5 -18.5z" />
    <glyph glyph-name="parenright.case" horiz-adv-x="432" 
d="M29 -155v104q24 5 54 18.5t70.5 44.5t72.5 72.5t55 110t23 150.5t-23 150.5t-55 110t-72.5 72.5t-70.5 44.5t-54 18.5v104q40 -7 86 -27.5t99 -61.5t95 -95.5t70 -137t28 -178.5t-28 -178.5t-70 -137t-95 -96t-99.5 -61.5t-85.5 -27z" />
    <glyph glyph-name="braceleft.case" horiz-adv-x="381" 
d="M363 -56v-94q-125 1 -193 68t-68 179v122q0 34 -18 56t-46 22h-13v96h13q28 0 46 22t18 56v122q0 112 68 179t193 68v-94q-76 0 -116.5 -41t-40.5 -112v-131q0 -94 -66 -117q66 -24 66 -117v-131q0 -71 40.5 -112t116.5 -41z" />
    <glyph glyph-name="braceright.case" horiz-adv-x="381" 
d="M18 -150v94q77 0 117.5 41t40.5 112v131q0 93 65 117q-65 23 -65 117v131q0 71 -40.5 112t-117.5 41v94q125 -1 193 -68t68 -179v-122q0 -34 18 -56t46 -22h13v-96h-13q-28 0 -46 -22t-18 -56v-122q0 -112 -68 -179t-193 -68z" />
    <glyph glyph-name="bracketleft.case" horiz-adv-x="310" 
d="M263 -150h-238v990h238v-94h-135v-802h135v-94z" />
    <glyph glyph-name="bracketright.case" horiz-adv-x="327" 
d="M302 840v-990h-238v94h135v802h-135v94h238z" />
    <glyph glyph-name="hyphen.case" horiz-adv-x="427" 
d="M347 402v-99h-267v99h267z" />
    <glyph glyph-name="endash.case" horiz-adv-x="577" 
d="M495 412v-99h-413v99h413z" />
    <glyph glyph-name="emdash.case" horiz-adv-x="797" 
d="M715 412v-99h-633v99h633z" />
    <glyph glyph-name="guillemotleft.case" horiz-adv-x="479" 
d="M269 161h-111l-132 174l132 173h114l-117 -173zM450 161h-111l-132 174l132 173h113l-117 -173z" />
    <glyph glyph-name="guillemotright.case" horiz-adv-x="479" 
d="M272 335l-133 -174h-110l114 174l-117 173h113zM452 335l-132 -174h-110l114 174l-117 173h113z" />
    <glyph glyph-name="guilsinglleft.case" horiz-adv-x="298" 
d="M269 161h-111l-132 174l132 173h114l-117 -173z" />
    <glyph glyph-name="guilsinglright.case" horiz-adv-x="298" 
d="M272 335l-133 -174h-110l114 174l-117 173h113z" />
    <glyph glyph-name="ampersand.ss01" horiz-adv-x="610" 
d="M487 0h-227q-98 0 -159 54.5t-61 136.5q0 101 84 151q-48 48 -48 121q0 80 58 133.5t145 53.5q51 0 93.5 -20.5t67.5 -56.5l-95 -79q-20 38 -66 38q-28 0 -50 -19.5t-22 -51.5q0 -35 24 -54.5t60 -19.5h293v-109h-97v-278zM271 114h94v164h-105q-41 0 -66 -22t-25 -59
q0 -42 30 -62.5t72 -20.5z" />
    <glyph glyph-name="caron.Slovak" horiz-adv-x="271" 
d="M154 491h-81l10 175h115z" />
    </font>
</defs>
</svg>
