<?xml version="1.0" standalone="no"?>
<!DOCTYPE svg PUBLIC "-//W3C//DTD SVG 1.1//EN" "http://www.w3.org/Graphics/SVG/1.1/DTD/svg11.dtd" >
<svg xmlns="http://www.w3.org/2000/svg" xmlns:xlink="http://www.w3.org/1999/xlink" version="1.1">
<metadata>
Created by FontForge 20190801 at Thu Jun  3 17:06:48 2021
 By www-data
Copyright (c) 2021 by atipo. All rights reserved.
</metadata>
<defs>
<font id="StrawfordBlack" horiz-adv-x="589" >
  <font-face 
    font-family="StrawfordBlack"
    font-weight="900"
    font-stretch="normal"
    units-per-em="1000"
    panose-1="0 0 10 0 0 0 0 0 0 0"
    ascent="800"
    descent="-200"
    x-height="464"
    cap-height="700"
    bbox="-224 -300 1138 962"
    underline-thickness="50"
    underline-position="-100"
    unicode-range="U+0020-2212"
  />
<missing-glyph horiz-adv-x="599" 
 />
    <glyph glyph-name=".notdef" horiz-adv-x="599" 
 />
    <glyph glyph-name=".null" horiz-adv-x="0" 
 />
    <glyph glyph-name="nonmarkingreturn" horiz-adv-x="333" 
 />
    <glyph glyph-name="space" unicode=" " horiz-adv-x="235" 
 />
    <glyph glyph-name="exclam" unicode="!" horiz-adv-x="304" 
d="M207 232h-110l-39 468h188zM155 -10q-40 0 -65 25t-25 61t25 62t65 26q41 0 66 -25.5t25 -62.5q0 -36 -25 -61t-66 -25z" />
    <glyph glyph-name="quotedbl" unicode="&#x22;" horiz-adv-x="343" 
d="M153 700l-19 -219h-85l-19 219h123zM313 700l-19 -219h-85l-19 219h123z" />
    <glyph glyph-name="numbersign" unicode="#" horiz-adv-x="457" 
d="M427 456v-85h-75l-13 -75h88v-85h-103l-18 -105h-84l18 105h-66l-18 -105h-84l18 105h-60v85h75l13 75h-88v85h103l18 104h84l-18 -104h66l18 104h84l-18 -104h60zM189 296h66l13 75h-66z" />
    <glyph glyph-name="dollar" unicode="$" horiz-adv-x="548" 
d="M523 198q0 -83 -62.5 -143t-172.5 -65l-6 -90h-64l6 93q-79 12 -127.5 57t-71.5 106l115 64q28 -64 94 -82l9 129l-5 1q-78 14 -127.5 62.5t-49.5 135.5q0 69 54 124.5t155 59.5l3 50h64l-4 -54q117 -21 169 -119l-116 -78q-21 44 -62 58l-8 -107l20 -4q187 -37 187 -198
zM212 459q0 -32 41 -45l7 95q-48 -11 -48 -50zM306 255l-8 -122q31 5 50.5 22t19.5 43q0 44 -62 57z" />
    <glyph glyph-name="percent" unicode="%" horiz-adv-x="746" 
d="M188 367q-62 0 -105 40t-43 101q0 62 43 102t105 40q61 0 103.5 -40.5t42.5 -101.5t-42.5 -101t-103.5 -40zM251 0h-125l361 639h125zM187 460q20 0 33.5 14t13.5 34t-14 34.5t-33 14.5q-20 0 -33.5 -14.5t-13.5 -34.5t13.5 -34t33.5 -14zM560 -11q-62 0 -105 40t-43 101
q0 62 43 102t105 40q61 0 103.5 -40.5t42.5 -101.5t-42.5 -101t-103.5 -40zM559 82q20 0 33.5 14t13.5 34t-14 34.5t-33 14.5q-20 0 -33.5 -14.5t-13.5 -34.5t13.5 -34t33.5 -14z" />
    <glyph glyph-name="ampersand" unicode="&#x26;" horiz-adv-x="654" 
d="M297 405l377 -405h-204l-38 41q-67 -51 -162 -51q-102 0 -168.5 63.5t-66.5 158.5q0 107 86 171q-42 63 -42 127q0 80 62 140t158 60t157.5 -58t61.5 -148q0 -48 -28.5 -91.5t-61.5 -64.5l-95 96q29 25 29 58q0 26 -17.5 44.5t-45.5 18.5q-26 0 -44.5 -18.5t-18.5 -44.5
q0 -11 3.5 -22t11 -21.5t13 -17.5t17 -19t16.5 -17zM277 131q33 0 58 15l-120 130q-29 -24 -29 -64q0 -35 24.5 -58t66.5 -23z" />
    <glyph glyph-name="quotesingle" unicode="'" horiz-adv-x="183" 
d="M134 481h-85l-19 219h123z" />
    <glyph glyph-name="parenleft" unicode="(" horiz-adv-x="452" 
d="M412 -65v-120q-34 5 -73 21t-83.5 42.5t-84.5 68.5t-73.5 93.5t-53 122.5t-19.5 152t19.5 152t53 122.5t73.5 93t84.5 68.5t83.5 42.5t73 21.5v-120q-23 -5 -51.5 -16.5t-68.5 -40.5t-71.5 -68.5t-54 -106.5t-22.5 -148t22.5 -148t54 -106.5t71.5 -68.5t68.5 -40.5
t51.5 -16.5z" />
    <glyph glyph-name="parenright" unicode=")" horiz-adv-x="452" 
d="M40 -185v120q23 5 51.5 16.5t68.5 40.5t71.5 68.5t54 106.5t22.5 148t-22.5 148t-54 106.5t-71.5 68.5t-68.5 40.5t-51.5 16.5v120q34 -6 73 -21.5t83.5 -42.5t84.5 -68.5t73.5 -93t53 -122.5t19.5 -152t-19.5 -152t-53 -122.5t-73.5 -93.5t-84.5 -68.5t-83.5 -42.5
t-73 -21z" />
    <glyph glyph-name="asterisk" unicode="*" horiz-adv-x="340" 
d="M216 375h-91l1 85l-70 -42l-51 73l78 47l-78 47l50 74l71 -43l-1 84h91l-1 -83l70 42l50 -74l-78 -47l78 -47l-51 -73l-69 42z" />
    <glyph glyph-name="plus" unicode="+" horiz-adv-x="438" 
d="M262 99h-86v165h-166v86h166v166h86v-166h166v-86h-166v-165z" />
    <glyph glyph-name="comma" unicode="," horiz-adv-x="239" 
d="M211 71q0 -20 -9 -41l-69 -171h-103l58 136q-27 9 -42.5 31.5t-15.5 49.5q0 35 25 61.5t65 26.5q42 0 66.5 -26t24.5 -67z" />
    <glyph glyph-name="hyphen" unicode="-" horiz-adv-x="427" 
d="M347 215h-267v115h267v-115z" />
    <glyph glyph-name="period" unicode="." horiz-adv-x="241" 
d="M120 -10q-40 0 -65 25t-25 61t25 62t65 26q41 0 66 -25.5t25 -62.5q0 -36 -25 -61t-66 -25z" />
    <glyph glyph-name="slash" unicode="/" horiz-adv-x="377" 
d="M161 0h-151l206 700h151z" />
    <glyph glyph-name="zero" unicode="0" horiz-adv-x="579" 
d="M289 -10q-117 0 -185 85.5t-68 243.5t68 244.5t185 86.5t185 -86.5t68 -244.5t-68 -243.5t-185 -85.5zM289 135q45 0 69 40.5t24 143.5t-24 144.5t-69 41.5t-69 -41.5t-24 -144.5t24 -143.5t69 -40.5z" />
    <glyph glyph-name="one" unicode="1" horiz-adv-x="389" 
d="M344 0h-155v454l-146 -97v171l174 112h127v-640z" />
    <glyph glyph-name="two" unicode="2" horiz-adv-x="560" 
d="M441 241l-87 -101h163v-140h-464l251 301q19 23 28.5 36.5t20 38t10.5 48.5q0 34 -24 57.5t-60 23.5t-59 -24t-23 -57q0 -37 30 -62l-90 -102q-41 25 -65.5 73.5t-24.5 106.5q0 82 63.5 146t168.5 64q113 0 178.5 -70.5t65.5 -155.5q0 -88 -82 -183z" />
    <glyph glyph-name="three" unicode="3" horiz-adv-x="530" 
d="M244 -10q-137 0 -203 117l127 77q9 -20 30 -34.5t46 -14.5q36 0 60 23.5t24 57.5q0 32 -23.5 55.5t-60.5 23.5q-35 0 -61 -28l-87 80l122 158h-165v135h421l-165 -223h3q72 -6 124 -64.5t52 -136.5q0 -94 -69 -160t-175 -66z" />
    <glyph glyph-name="four" unicode="4" horiz-adv-x="607" 
d="M487 0h-155v114h-312v115l310 411h157v-393h100v-133h-100v-114zM332 438l-144 -191h144v191z" />
    <glyph glyph-name="five" unicode="5" horiz-adv-x="536" 
d="M248 -10q-142 0 -208 117l127 77q9 -21 30.5 -35t50.5 -14q39 0 64 25.5t25 60.5q0 34 -26 59t-63 25q-55 0 -81 -52l-113 51l46 336h353v-135h-235l-14 -96q33 24 85 24q89 0 148.5 -63.5t59.5 -153.5q0 -95 -70 -160.5t-179 -65.5z" />
    <glyph glyph-name="six" unicode="6" horiz-adv-x="557" 
d="M484 640l-144 -198q80 -18 130 -79t50 -141q0 -96 -68.5 -164t-172.5 -68t-172.5 68t-68.5 164q0 70 40 128l207 290h199zM279 135q34 0 57.5 23.5t23.5 63.5t-24 63t-57 23t-57 -23t-24 -63t23.5 -63.5t57.5 -23.5z" />
    <glyph glyph-name="seven" unicode="7" horiz-adv-x="520" 
d="M246 0h-182l208 495h-252v145h480z" />
    <glyph glyph-name="eight" unicode="8" horiz-adv-x="524" 
d="M262 -10q-106 0 -170 56t-64 140q0 93 77 144q-67 50 -67 134q0 79 61 132.5t162 53.5q100 0 161 -53.5t61 -132.5q0 -83 -65 -133q78 -49 78 -145q0 -84 -64 -140t-170 -56zM261 393q30 0 46.5 18.5t16.5 42.5q0 25 -17.5 42t-45.5 17t-46 -17t-18 -42q0 -24 16.5 -42.5
t47.5 -18.5zM262 134q29 0 48 18t19 44t-17.5 45t-49.5 19t-49.5 -19t-17.5 -45t19 -44t48 -18z" />
    <glyph glyph-name="nine" unicode="9" horiz-adv-x="557" 
d="M520 418q0 -70 -40 -128l-207 -290h-209l146 200q-77 20 -124.5 80.5t-47.5 137.5q0 96 68.5 164t172.5 68t172.5 -68t68.5 -164zM279 505q-34 0 -57.5 -23.5t-23.5 -63.5t24 -63t57 -23t57 23t24 63t-23.5 63.5t-57.5 23.5z" />
    <glyph glyph-name="colon" unicode=":" horiz-adv-x="234" 
d="M120 276q-40 0 -65 25t-25 61t25 62t65 26q41 0 66 -25.5t25 -62.5q0 -36 -25 -61t-66 -25zM120 -10q-40 0 -65 25t-25 61t25 62t65 26q41 0 66 -25.5t25 -62.5q0 -36 -25 -61t-66 -25z" />
    <glyph glyph-name="semicolon" unicode=";" horiz-adv-x="259" 
d="M120 276q-40 0 -65 25t-25 61t25 62t65 26q41 0 66 -25.5t25 -62.5q0 -36 -25 -61t-66 -25zM211 71q0 -20 -9 -41l-69 -171h-103l58 136q-27 9 -42.5 31.5t-15.5 49.5q0 35 25 61.5t65 26.5q42 0 66.5 -26t24.5 -67z" />
    <glyph glyph-name="less" unicode="&#x3c;" horiz-adv-x="458" 
d="M428 138v-108l-398 243l398 247v-104l-239 -143z" />
    <glyph glyph-name="equal" unicode="=" horiz-adv-x="438" 
d="M428 351h-418v86h418v-86zM428 123h-418v86h418v-86z" />
    <glyph glyph-name="greater" unicode="&#x3e;" horiz-adv-x="458" 
d="M428 273l-398 -243v108l239 135l-239 143v104z" />
    <glyph glyph-name="question" unicode="?" horiz-adv-x="480" 
d="M215 710q113 0 179 -63t66 -146q0 -45 -16.5 -79.5t-39.5 -55t-46 -38t-39.5 -38t-16.5 -44.5v-14h-150v14q0 40 16 70t38 48.5t44.5 34.5t38.5 37t16 47q0 38 -24.5 62.5t-65.5 24.5q-37 -1 -57.5 -20.5t-27.5 -41.5l-110 76q24 61 77 93.5t118 32.5zM225 164
q41 0 66 -25.5t25 -62.5q0 -36 -25 -61t-66 -25q-40 0 -65 25t-25 61t25 62t65 26z" />
    <glyph glyph-name="at" unicode="@" horiz-adv-x="965" 
d="M492 -113v-113q-123 0 -227 56.5t-167 163t-63 240.5q0 127 63 230.5t165.5 159.5t219.5 56q129 0 232.5 -55t159 -144t55.5 -192q0 -111 -64 -194t-160 -83h-142v53q-44 -53 -121 -53q-83 0 -139 64.5t-56 149.5t56 149t139 64q77 0 121 -52v43h130v-304h12
q42 0 76 47.5t34 115.5q0 112 -88.5 196.5t-244.5 84.5q-136 0 -233 -89.5t-97 -246.5q0 -156 98 -251.5t241 -95.5zM474 136q40 1 65 26.5t25 63.5t-25 64t-65 26t-65 -26t-25 -64t25 -63.5t65 -26.5z" />
    <glyph glyph-name="A" unicode="A" horiz-adv-x="655" 
d="M665 0h-178l-37 119h-245l-37 -119h-178l238 700h208zM328 514l-75 -240h149z" />
    <glyph glyph-name="B" unicode="B" horiz-adv-x="628" 
d="M388 0h-318v700h293q101 0 163 -58.5t62 -143.5q0 -42 -17 -76t-37 -51q70 -55 70 -154q0 -92 -62 -154.5t-154 -62.5zM235 555v-130h112q30 0 51 17.5t21 48.5t-20.5 47.5t-51.5 16.5h-112zM235 285v-140h122q37 0 56.5 20t20.5 52q1 30 -20.5 49t-56.5 19h-122z" />
    <glyph glyph-name="C" unicode="C" horiz-adv-x="762" 
d="M404 -10q-156 0 -262.5 103t-106.5 257t106.5 257t262.5 103q109 0 191 -47.5t131 -131.5l-151 -83q-53 97 -171 97q-78 0 -133.5 -56t-55.5 -139t55.5 -139t133.5 -56q117 0 171 98l152 -83q-48 -83 -133.5 -131.5t-189.5 -48.5z" />
    <glyph glyph-name="D" unicode="D" horiz-adv-x="750" 
d="M354 0h-284v700h284q151 0 256 -102t105 -247q0 -146 -104.5 -248.5t-256.5 -102.5zM240 545v-390h93q83 0 142.5 51t59.5 145q0 93 -59.5 143.5t-142.5 50.5h-93z" />
    <glyph glyph-name="E" unicode="E" horiz-adv-x="584" 
d="M529 0h-459v700h459v-152h-292v-113h263v-150h-263v-133h292v-152z" />
    <glyph glyph-name="F" unicode="F" horiz-adv-x="577" 
d="M237 0h-167v700h459v-152h-292v-136h263v-150h-263v-262z" />
    <glyph glyph-name="G" unicode="G" horiz-adv-x="809" 
d="M404 -10q-156 0 -262.5 103t-106.5 257t106.5 257t262.5 103q109 0 191 -47.5t131 -131.5l-151 -83q-53 97 -171 97q-78 0 -133.5 -56t-55.5 -139t55.5 -139t133.5 -56q101 0 156 75h-154v145h368v-21q0 -160 -105.5 -262t-264.5 -102z" />
    <glyph glyph-name="H" unicode="H" horiz-adv-x="764" 
d="M524 438v262h170v-700h-170v278h-284v-278h-170v700h170v-262h284z" />
    <glyph glyph-name="I" unicode="I" horiz-adv-x="461" 
d="M396 700v-150h-81v-400h81v-150h-331v150h81v400h-81v150h331z" />
    <glyph glyph-name="J" unicode="J" horiz-adv-x="598" 
d="M254 -10q-81 0 -145 43t-94 112l135 82q13 -32 40.5 -52t63.5 -20q54 0 84 31t30 88v426h170v-443q0 -120 -76 -193.5t-208 -73.5z" />
    <glyph glyph-name="K" unicode="K" horiz-adv-x="657" 
d="M393 368l279 -368h-203l-234 312v-312h-165v700h165v-282l235 282h196z" />
    <glyph glyph-name="L" unicode="L" horiz-adv-x="532" 
d="M517 0h-447v700h165v-545h282v-155z" />
    <glyph glyph-name="M" unicode="M" horiz-adv-x="912" 
d="M516 0h-120l-161 382v-382h-165v700h195l191 -448l191 448h195v-700h-165v382z" />
    <glyph glyph-name="N" unicode="N" horiz-adv-x="754" 
d="M684 0h-165l-284 417v-417h-165v700h165l284 -415v415h165v-700z" />
    <glyph glyph-name="O" unicode="O" horiz-adv-x="817" 
d="M408 -10q-158 0 -265.5 103t-107.5 257t107.5 257t265.5 103t266 -103t108 -257t-108 -257t-266 -103zM408 155q84 0 139 56t55 139t-55 139t-139 56q-83 0 -138 -56t-55 -139t55 -139t138 -56z" />
    <glyph glyph-name="P" unicode="P" horiz-adv-x="613" 
d="M240 0h-170v700h288q99 0 169.5 -68t70.5 -169t-66.5 -173t-173.5 -72h-118v-218zM240 553v-183h78q43 0 71.5 25t28.5 68q0 42 -28.5 66t-71.5 24h-78z" />
    <glyph glyph-name="Q" unicode="Q" horiz-adv-x="817" 
d="M782 350q0 -163 -118 -266l100 -133h-177l-46 61q-64 -22 -133 -22q-158 0 -265.5 103t-107.5 257t107.5 257t265.5 103t266 -103t108 -257zM408 155q17 0 25 1l-104 140h175l55 -72q43 53 43 126q0 83 -55 139t-139 56q-83 0 -138 -56t-55 -139t55 -139t138 -56z" />
    <glyph glyph-name="R" unicode="R" horiz-adv-x="629" 
d="M423 242l206 -242h-209l-180 232v-232h-170v700h288q100 0 170 -65t70 -165q0 -83 -47.5 -146t-127.5 -82zM328 550h-88v-164h88q37 0 63.5 21.5t26.5 62.5q0 40 -26.5 60t-63.5 20z" />
    <glyph glyph-name="S" unicode="S" horiz-adv-x="594" 
d="M293 -10q-110 0 -174.5 52.5t-93.5 128.5l137 80q14 -44 47.5 -70t83.5 -26q96 0 96 62q0 53 -71 65l-66 12q-83 15 -135.5 66.5t-52.5 141.5q0 79 66 143.5t183 64.5q83 0 143 -37t91 -97l-138 -87q-23 66 -96 66q-31 0 -52.5 -14.5t-21.5 -36.5q0 -41 56 -52l70 -14
q100 -20 152 -76.5t52 -144.5q0 -95 -74 -161t-202 -66z" />
    <glyph glyph-name="T" unicode="T" horiz-adv-x="580" 
d="M377 0h-174v545h-198v155h570v-155h-198v-545z" />
    <glyph glyph-name="U" unicode="U" horiz-adv-x="724" 
d="M362 -10q-130 0 -211 80t-81 211v419h170v-409q0 -63 32.5 -100t89.5 -37t89.5 37t32.5 100v409h170v-419q0 -131 -81 -211t-211 -80z" />
    <glyph glyph-name="V" unicode="V" horiz-adv-x="705" 
d="M460 0h-204l-251 700h186l162 -503l161 503h186z" />
    <glyph glyph-name="W" unicode="W" horiz-adv-x="1024" 
d="M395 0h-187l-203 700h181l119 -454l124 454h166l124 -454l119 454h181l-203 -700h-187l-117 407z" />
    <glyph glyph-name="X" unicode="X" horiz-adv-x="660" 
d="M426 358l229 -358h-191l-134 209l-134 -209h-191l230 358l-220 342h191l124 -193l124 193h191z" />
    <glyph glyph-name="Y" unicode="Y" horiz-adv-x="709" 
d="M447 0h-170v245l-272 455h193l159 -287l154 287h193l-257 -451v-249z" />
    <glyph glyph-name="Z" unicode="Z" horiz-adv-x="587" 
d="M552 0h-537l292 545h-263v155h528l-286 -545h266v-155z" />
    <glyph glyph-name="bracketleft" unicode="[" horiz-adv-x="309" 
d="M269 -180h-244v990h244v-110h-125v-770h125v-110z" />
    <glyph glyph-name="backslash" unicode="\" horiz-adv-x="377" 
d="M161 700l206 -700h-151l-206 700h151z" />
    <glyph glyph-name="bracketright" unicode="]" horiz-adv-x="309" 
d="M284 810v-990h-244v110h125v770h-125v110h244z" />
    <glyph glyph-name="asciicircum" unicode="^" horiz-adv-x="454" 
d="M114 392h-94l153 308h108l153 -308h-94l-113 232z" />
    <glyph glyph-name="underscore" unicode="_" horiz-adv-x="387" 
d="M372 -125h-357v115h357v-115z" />
    <glyph glyph-name="grave" unicode="`" horiz-adv-x="316" 
d="M213 680l33 -146h-103l-83 146h153z" />
    <glyph glyph-name="a" unicode="a" horiz-adv-x="512" 
d="M212 -11q-81 0 -129 44t-48 109q0 60 43 96.5t112 36.5h96q32 0 32 29q0 15 -20 29t-55 14q-60 0 -88 -52l-106 68q24 48 75.5 80t118.5 32q106 0 162.5 -62t56.5 -143v-270h-140v16q-40 -27 -110 -27zM237 103q35 0 57 19t22 45v6h-93q-16 0 -26.5 -9.5t-10.5 -24.5
q0 -16 14 -26t37 -10z" />
    <glyph glyph-name="b" unicode="b" horiz-adv-x="594" 
d="M319 475q104 0 174.5 -73t70.5 -170t-70.5 -170t-174.5 -73q-57 0 -114 26v-15h-150v700h150v-251q57 26 114 26zM307 129q46 1 74 30.5t28 72.5t-28 72.5t-74 30.5q-46 -1 -74 -30.5t-28 -72.5t28 -72.5t74 -30.5z" />
    <glyph glyph-name="c" unicode="c" horiz-adv-x="524" 
d="M287 -11q-113 0 -185 71.5t-72 171.5t72 171.5t185 71.5q73 0 129 -31.5t88 -86.5l-124 -81q-12 25 -36.5 41.5t-56.5 17.5q-46 -1 -74 -30.5t-28 -72.5t28 -72.5t74 -30.5q59 1 88 49l123 -80q-32 -50 -86.5 -79.5t-124.5 -29.5z" />
    <glyph glyph-name="d" unicode="d" 
d="M389 449v251h150v-700h-150v15q-57 -26 -114 -26q-104 0 -174.5 73t-70.5 170t70.5 170t174.5 73q57 0 114 -26zM287 129q46 1 74 30.5t28 72.5t-28 72.5t-74 30.5q-46 -1 -74 -30.5t-28 -72.5t28 -72.5t74 -30.5z" />
    <glyph glyph-name="e" unicode="e" horiz-adv-x="565" 
d="M287 -11q-113 0 -185 71.5t-72 171.5t72 171.5t185 71.5q117 0 186.5 -79.5t60.5 -204.5h-345q24 -65 98 -66q64 2 91 46l117 -84q-75 -98 -208 -98zM192 283h192q-28 59 -97 61q-72 -2 -95 -61z" />
    <glyph glyph-name="f" unicode="f" horiz-adv-x="363" 
d="M251 0h-150v339h-86v120h23q29 0 48.5 14t19.5 41v11q0 94 60 144.5t154 50.5h22v-140h-16q-30 0 -52.5 -20.5t-22.5 -58.5v-37h107v-125h-107v-339z" />
    <glyph glyph-name="g" unicode="g" 
d="M389 449v15h150v-468q0 -103 -73.5 -170.5t-188.5 -67.5q-74 0 -129 31.5t-82 80.5l111 84q12 -22 40 -37t60 -15q51 0 81.5 27t30.5 67v19q-57 -26 -114 -26q-104 0 -174.5 73t-70.5 170t70.5 170t174.5 73q57 0 114 -26zM287 129q46 1 74 30.5t28 72.5t-28 72.5
t-74 30.5q-46 -1 -74 -30.5t-28 -72.5t28 -72.5t74 -30.5z" />
    <glyph glyph-name="h" unicode="h" horiz-adv-x="543" 
d="M205 0h-150v700h150v-254q41 29 104 29q77 0 130.5 -51.5t53.5 -127.5v-296h-150v265q0 31 -17.5 52.5t-51.5 21.5q-30 0 -49.5 -22t-19.5 -56v-261z" />
    <glyph glyph-name="i" unicode="i" horiz-adv-x="231" 
d="M115 540q-39 0 -65 24.5t-26 60.5q0 37 26 62t65 25q41 0 66.5 -25t25.5 -62t-25.5 -61t-66.5 -24zM191 0h-150v464h150v-464z" />
    <glyph glyph-name="j" unicode="j" horiz-adv-x="225" 
d="M115 540q-39 0 -65 24.5t-26 60.5q0 37 26 62t65 25q41 0 66.5 -25t25.5 -62t-25.5 -61t-66.5 -24zM-45 -232v140q42 0 64 18t22 63v475h150v-475q0 -221 -236 -221z" />
    <glyph glyph-name="k" unicode="k" horiz-adv-x="510" 
d="M341 259l184 -259h-185l-135 198v-198h-150v700h150v-385l111 149h187z" />
    <glyph glyph-name="l" unicode="l" horiz-adv-x="286" 
d="M256 -7h-33q-173 0 -173 181v526h150v-522q0 -45 56 -45v-140z" />
    <glyph glyph-name="m" unicode="m" horiz-adv-x="824" 
d="M205 0h-150v464h144v-23q40 34 107 34q75 0 127 -52q56 52 138 52q86 0 144.5 -51.5t58.5 -127.5v-296h-150v265q0 31 -17.5 52.5t-51.5 21.5q-30 0 -49.5 -21t-19.5 -53v-265h-150v265q0 31 -16.5 52.5t-48.5 21.5q-30 0 -48 -21t-18 -53v-265z" />
    <glyph glyph-name="n" unicode="n" horiz-adv-x="543" 
d="M205 0h-150v464h144v-23q40 34 110 34q77 0 130.5 -51.5t53.5 -127.5v-296h-150v265q0 31 -17.5 52.5t-51.5 21.5q-31 0 -50 -20t-19 -54v-265z" />
    <glyph glyph-name="o" unicode="o" horiz-adv-x="574" 
d="M287 -11q-113 0 -185 71.5t-72 171.5t72 171.5t185 71.5t185 -71.5t72 -171.5t-72 -171.5t-185 -71.5zM287 129q46 1 74 30.5t28 72.5t-28 72.5t-74 30.5q-46 -1 -74 -30.5t-28 -72.5t28 -72.5t74 -30.5z" />
    <glyph glyph-name="p" unicode="p" horiz-adv-x="595" 
d="M320 475q104 0 174.5 -73t70.5 -170t-70.5 -170t-174.5 -73q-60 0 -115 27v-247h-150v695h150v-16q55 27 115 27zM308 129q46 1 74 30.5t28 72.5t-28 72.5t-74 30.5q-46 -1 -74 -30.5t-28 -72.5t28 -72.5t74 -30.5z" />
    <glyph glyph-name="q" unicode="q" horiz-adv-x="590" 
d="M390 448v16h150v-695h-150v247q-56 -27 -115 -27q-104 0 -174.5 73t-70.5 170t70.5 170t174.5 73q59 0 115 -27zM287 129q46 1 74 30.5t28 72.5t-28 72.5t-74 30.5q-46 -1 -74 -30.5t-28 -72.5t28 -72.5t74 -30.5z" />
    <glyph glyph-name="r" unicode="r" horiz-adv-x="374" 
d="M203 0h-148v464h142v-45q37 51 121 51h36v-141h-57q-46 0 -70 -25.5t-24 -73.5v-230z" />
    <glyph glyph-name="s" unicode="s" horiz-adv-x="407" 
d="M199 -11q-77 0 -122 35.5t-57 89.5l131 43q8 -37 51 -37q39 0 39 24q0 22 -34 26q-86 13 -130.5 48.5t-44.5 109.5q0 61 47.5 104t124.5 43q70 0 112.5 -32.5t55.5 -82.5l-128 -34q-6 25 -39 25q-14 0 -22.5 -6.5t-8.5 -15.5q0 -21 34 -25q93 -13 136 -50t43 -102
q0 -71 -50 -117t-138 -46z" />
    <glyph glyph-name="t" unicode="t" horiz-adv-x="424" 
d="M379 -7h-102q-175 0 -175 164v182h-77v111h4q42 0 74.5 37t32.5 85v2h116v-110h127v-125h-127v-155q0 -54 55 -54h72v-137z" />
    <glyph glyph-name="u" unicode="u" horiz-adv-x="498" 
d="M249 -11q-106 0 -162.5 61t-56.5 157v257h150v-263q0 -29 18 -50t51 -21t51 21t18 50v263h150v-257q0 -96 -56.5 -157t-162.5 -61z" />
    <glyph glyph-name="v" unicode="v" horiz-adv-x="539" 
d="M339 0h-140l-194 464h170l94 -270l105 270h160z" />
    <glyph glyph-name="w" unicode="w" horiz-adv-x="754" 
d="M293 0h-135l-153 464h160l79 -260l75 260h116l75 -260l79 260h160l-153 -464h-135l-84 244z" />
    <glyph glyph-name="x" unicode="x" horiz-adv-x="537" 
d="M351 240l176 -240h-169l-89 125l-90 -125h-169l176 240l-161 224h163l81 -110l80 110h163z" />
    <glyph glyph-name="y" unicode="y" horiz-adv-x="559" 
d="M190 -232h-176l178 322l-187 374h166l107 -225l112 225h164z" />
    <glyph glyph-name="z" unicode="z" horiz-adv-x="480" 
d="M444 0h-419l194 334h-173v130h409l-185 -329h174v-135z" />
    <glyph glyph-name="braceleft" unicode="{" horiz-adv-x="406" 
d="M366 -70v-110q-127 1 -197 69.5t-70 180.5v111q0 34 -17 56t-45 22h-12v112h12q28 0 45 22t17 56v111q0 112 70 180.5t197 69.5v-110q-71 0 -109.5 -37.5t-38.5 -102.5v-128q0 -95 -69 -117q69 -22 69 -117v-128q0 -65 38.5 -102.5t109.5 -37.5z" />
    <glyph glyph-name="bar" unicode="|" horiz-adv-x="204" 
d="M174 -300h-144v1060h144v-1060z" />
    <glyph glyph-name="braceright" unicode="}" horiz-adv-x="406" 
d="M40 -180v110q71 0 109.5 37.5t38.5 102.5v128q0 95 69 117q-69 22 -69 117v128q0 65 -38.5 102.5t-109.5 37.5v110q127 -1 197 -69.5t70 -180.5v-111q0 -34 17 -56t45 -22h12v-112h-12q-28 0 -45 -22t-17 -56v-111q0 -112 -70 -180.5t-197 -69.5z" />
    <glyph glyph-name="asciitilde" unicode="~" horiz-adv-x="587" 
d="M397 229q-51 0 -112.5 32.5t-84.5 32.5q-21 0 -34.5 -14.5t-13.5 -41.5h-92q0 77 38 119t92 42q50 0 111.5 -32.5t85.5 -32.5q21 0 34.5 14.5t13.5 41.5h92q0 -77 -38 -119t-92 -42z" />
    <glyph glyph-name="exclamdown" unicode="&#xa1;" horiz-adv-x="304" 
d="M155 478q41 0 66 -25t25 -61q0 -37 -25 -62.5t-66 -25.5q-40 0 -65 26t-25 62t25 61t65 25zM58 -232l39 468h110l39 -468h-188z" />
    <glyph glyph-name="cent" unicode="&#xa2;" horiz-adv-x="544" 
d="M287 219q59 1 88 49l123 -80q-32 -50 -86.5 -79.5t-124.5 -29.5q-27 0 -47 4l-53 -183h-64l57 199q-69 29 -109.5 89.5t-40.5 133.5q0 100 72 171.5t185 71.5q18 0 27 -1l39 136h64l-43 -148q85 -28 130 -105l-124 -81q-14 30 -45 47l-56 -194h8zM185 322q0 -50 36 -80
l53 182q-41 -5 -65 -33.5t-24 -68.5z" />
    <glyph glyph-name="sterling" unicode="&#xa3;" horiz-adv-x="600" 
d="M235 227v-77h337v-150h-557v150h65v77h-75v127h19q26 0 41 14.5t15 39.5v3q0 103 66 171t186 68q77 0 135.5 -35.5t87.5 -89.5l-121 -102q-8 33 -34.5 57.5t-67.5 24.5q-42 0 -69.5 -28t-27.5 -74v-49h175v-127h-175z" />
    <glyph glyph-name="currency" unicode="&#xa4;" horiz-adv-x="594" 
d="M200 131l-78 -79l-87 87l78 79q-25 47 -25 101t26 103l-79 80l87 87l80 -81q47 25 99 25q48 0 94 -22l77 78l87 -87l-74 -75q30 -49 30 -108q0 -57 -29 -107l73 -73l-87 -87l-75 76q-44 -23 -96 -23t-101 26zM301 225q39 0 65 26.5t26 67.5q0 40 -26 66.5t-65 26.5
t-66 -26.5t-27 -66.5q0 -41 27 -67.5t66 -26.5z" />
    <glyph glyph-name="yen" unicode="&#xa5;" horiz-adv-x="646" 
d="M470 640h171l-187 -312h114v-93h-163v-35h163v-94h-163v-106h-151v106h-158v94h158v35h-158v93h105l-196 312h171l147 -253z" />
    <glyph glyph-name="section" unicode="&#xa7;" horiz-adv-x="481" 
d="M394 116q72 -54 72 -150q0 -72 -59 -131t-165 -59q-71 0 -125.5 34.5t-81.5 85.5l114 76q11 -26 35 -44t58 -18q36 0 56.5 18t20.5 42q0 22 -14 35.5t-44 25.5l-104 41q-66 26 -104 64.5t-38 110.5q0 37 20.5 71t52.5 51q-73 54 -73 151q0 72 59 131t165 59
q71 0 125.5 -34.5t81.5 -85.5l-114 -76q-11 26 -35 44t-58 18q-36 0 -56.5 -18t-20.5 -42q0 -22 14 -35.5t44 -25.5l104 -41q66 -26 104 -64.5t38 -110.5q0 -35 -22 -71.5t-50 -51.5zM167 255q0 -24 15 -36.5t45 -24.5l27 -10q24 -3 42 12t18 35q0 24 -15 36.5t-45 24.5
l-27 10q-24 3 -42 -12t-18 -35z" />
    <glyph glyph-name="dieresis" unicode="&#xa8;" horiz-adv-x="486" 
d="M144 543q-32 0 -53 20.5t-21 52.5q0 33 21 53.5t53 20.5q34 0 55 -20.5t21 -53.5q0 -32 -21 -52.5t-55 -20.5zM340 543q-32 0 -53 20.5t-21 52.5q0 33 21 53.5t53 20.5q34 0 55 -20.5t21 -53.5q0 -32 -21 -52.5t-55 -20.5z" />
    <glyph glyph-name="copyright" unicode="&#xa9;" horiz-adv-x="789" 
d="M394 -10q-148 0 -253.5 105.5t-105.5 254.5t105.5 254.5t253.5 105.5t254 -106t106 -254t-106 -254t-254 -106zM394 77q113 0 192.5 80t79.5 193t-79.5 192.5t-192.5 79.5t-192.5 -79.5t-79.5 -192.5t80 -193t192 -80zM390 161q-78 0 -129 53.5t-51 134.5
q0 80 53.5 133.5t131.5 53.5q51 0 94.5 -25.5t66.5 -67.5l-72 -48q-30 55 -89 55q-41 0 -67.5 -28.5t-26.5 -72.5q0 -45 26.5 -73.5t67.5 -28.5q60 0 89 55l72 -47q-22 -43 -68 -68.5t-98 -25.5z" />
    <glyph glyph-name="ordfeminine" unicode="&#xaa;" horiz-adv-x="337" 
d="M152 334q-54 0 -88 29t-34 70q0 39 28 62.5t73 23.5h62q24 0 24 19q0 10 -13.5 19t-38.5 9q-43 0 -62 -34l-67 44q36 73 129 73q69 0 105.5 -37t36.5 -87v-184h-91v13q-20 -20 -64 -20zM161 408q22 0 36.5 12.5t14.5 28.5v4h-60q-11 0 -17.5 -6t-6.5 -16q0 -23 33 -23z
" />
    <glyph glyph-name="guillemotleft" unicode="&#xab;" horiz-adv-x="491" 
d="M277 81h-127l-130 174l130 173h131l-114 -173zM467 81h-127l-130 174l130 173h131l-114 -173z" />
    <glyph glyph-name="registered" unicode="&#xae;" horiz-adv-x="504" 
d="M252 760q80 0 136 -56t56 -136t-56 -136t-136 -56t-136 56t-56 136t56 136t136 56zM282 543l76 -71q35 40 35 96q0 61 -40 102.5t-101 41.5t-101.5 -41.5t-40.5 -102.5t40.5 -102.5t101.5 -41.5q65 0 106 47h-65l-64 69v-69h-46v199h86q29 0 48.5 -17.5t19.5 -46.5
t-17.5 -46t-36.5 -17h-1zM229 581h34q10 0 17.5 6.5t7.5 18.5q0 11 -7.5 17.5t-17.5 6.5h-34v-49z" />
    <glyph glyph-name="macron" unicode="&#xaf;" horiz-adv-x="405" 
d="M335 563h-265v100h265v-100z" />
    <glyph glyph-name="degree" unicode="&#xb0;" horiz-adv-x="378" 
d="M203 413q-66 0 -109.5 43t-43.5 106q0 62 44 105t109 43t109 -43t44 -105q0 -63 -44 -106t-109 -43zM202 513q22 0 35.5 14t13.5 35q0 20 -13.5 34t-35.5 14t-35.5 -14t-13.5 -34q0 -21 13 -35t36 -14z" />
    <glyph glyph-name="uni00B2" unicode="&#xb2;" horiz-adv-x="406" 
d="M372 237h-338l183 219q15 18 21 27t14 27t8 36q0 24 -17.5 41.5t-43.5 17.5q-27 0 -43.5 -17.5t-16.5 -41.5q0 -27 22 -45l-66 -75q-29 18 -47 53.5t-18 77.5q0 60 46.5 106.5t122.5 46.5q82 0 129.5 -51t47.5 -113q0 -65 -60 -133l-63 -74h119v-102z" />
    <glyph glyph-name="uni00B3" unicode="&#xb3;" horiz-adv-x="385" 
d="M178 227q-100 0 -148 85l92 56q15 -35 56 -35q26 0 43.5 17t17.5 41t-17.5 41t-43.5 17q-25 0 -45 -20l-63 58l89 115h-120v98h306l-120 -162h1q53 -5 91 -47t38 -100q0 -69 -50 -116.5t-127 -47.5z" />
    <glyph glyph-name="acute" unicode="&#xb4;" horiz-adv-x="326" 
d="M173 534h-103l33 146h153z" />
    <glyph glyph-name="paragraph" unicode="&#xb6;" horiz-adv-x="679" 
d="M229 700h380v-125h-69v-575q0 -115 -61 -173.5t-165 -58.5v115q51 0 78.5 27.5t27.5 69.5v595h-43v-635h-120v342h-14q-85 0 -146.5 61t-61.5 149q0 86 56.5 147t137.5 61z" />
    <glyph glyph-name="periodcentered" unicode="&#xb7;" horiz-adv-x="229" 
d="M117 204q-40 0 -65 25t-25 61t25 62t65 26q41 0 66 -25.5t25 -62.5q0 -36 -25 -61t-66 -25z" />
    <glyph glyph-name="cedilla" unicode="&#xb8;" horiz-adv-x="368" 
d="M169 -242q-63 0 -99 46l37 61q28 -30 62 -30q16 0 27.5 8t11.5 20q0 13 -12 21t-28 8t-28 -7l-25 29l40 106h81l-29 -68q38 -1 64.5 -27t26.5 -65q0 -41 -35 -71.5t-94 -30.5z" />
    <glyph glyph-name="uni00B9" unicode="&#xb9;" horiz-adv-x="279" 
d="M249 237h-113v328l-106 -70v123l127 82h92v-463z" />
    <glyph glyph-name="ordmasculine" unicode="&#xba;" horiz-adv-x="393" 
d="M196 334q-73 0 -119.5 46.5t-46.5 111.5t46.5 111t119.5 46t120 -46t47 -111t-47 -111.5t-120 -46.5zM196 425q30 1 48.5 20t18.5 47t-18.5 47t-48.5 19q-29 0 -47.5 -19t-18.5 -47t18 -47t48 -20z" />
    <glyph glyph-name="guillemotright" unicode="&#xbb;" horiz-adv-x="491" 
d="M281 255l-130 -174h-127l110 174l-114 173h131zM471 255l-130 -174h-127l110 174l-114 173h131z" />
    <glyph glyph-name="onequarter" unicode="&#xbc;" horiz-adv-x="942" 
d="M249 237h-113v328l-106 -70v123l127 82h92v-463zM323 -80h-144l364 780h144zM840 0h-112v82h-226v84l224 297h114v-285h72v-94h-72v-84zM728 317l-104 -138h104v138z" />
    <glyph glyph-name="onehalf" unicode="&#xbd;" horiz-adv-x="948" 
d="M249 237h-113v328l-106 -70v123l127 82h92v-463zM323 -80h-144l364 780h144zM914 0h-338l183 219q15 18 21 27t14 27t8 36q0 24 -17.5 41.5t-43.5 17.5q-27 0 -43.5 -17.5t-16.5 -41.5q0 -27 22 -45l-66 -75q-29 18 -47 53.5t-18 77.5q0 60 46.5 106.5t122.5 46.5
q82 0 129.5 -51t47.5 -113q0 -65 -60 -133l-63 -74h119v-102z" />
    <glyph glyph-name="threequarters" unicode="&#xbe;" horiz-adv-x="1022" 
d="M178 227q-100 0 -148 85l92 56q15 -35 56 -35q26 0 43.5 17t17.5 41t-17.5 41t-43.5 17q-25 0 -45 -20l-63 58l89 115h-120v98h306l-120 -162h1q53 -5 91 -47t38 -100q0 -69 -50 -116.5t-127 -47.5zM384 -80h-144l364 780h144zM920 0h-112v82h-226v84l224 297h114v-285
h72v-94h-72v-84zM808 317l-104 -138h104v138z" />
    <glyph glyph-name="questiondown" unicode="&#xbf;" horiz-adv-x="450" 
d="M225 304q-41 0 -66 25.5t-25 62.5q0 36 25 61t66 25q40 0 65 -25t25 -61t-25 -62t-65 -26zM320 -40l110 -76q-24 -61 -77 -93.5t-118 -32.5q-113 0 -179 63t-66 146q0 45 16.5 79.5t39.5 55t46 38t39.5 38t16.5 44.5v14h150v-14q0 -40 -16 -70t-38 -48.5t-44.5 -34.5
t-38.5 -37t-16 -47q0 -38 24.5 -62.5t65.5 -24.5q37 1 57.5 20.5t27.5 41.5z" />
    <glyph glyph-name="Agrave" unicode="&#xc0;" horiz-adv-x="655" 
d="M353 930l33 -146h-103l-83 146h153zM665 0h-178l-37 119h-245l-37 -119h-178l238 700h208zM328 514l-75 -240h149z" />
    <glyph glyph-name="Aacute" unicode="&#xc1;" horiz-adv-x="655" 
d="M303 930h153l-83 -146h-103zM665 0h-178l-37 119h-245l-37 -119h-178l238 700h208zM328 514l-75 -240h149z" />
    <glyph glyph-name="Acircumflex" unicode="&#xc2;" horiz-adv-x="655" 
d="M395 784l-66 58l-67 -58h-93l93 146h133l93 -146h-93zM665 0h-178l-37 119h-245l-37 -119h-178l238 700h208zM328 514l-75 -240h149z" />
    <glyph glyph-name="Atilde" unicode="&#xc3;" horiz-adv-x="655" 
d="M282 842q-12 0 -20 -9.5t-8 -23.5h-82q0 68 29.5 100t70.5 32q35 0 66.5 -21t40.5 -21q12 0 20 9.5t8 23.5h82q0 -71 -29 -101.5t-71 -30.5q-29 0 -60.5 21t-46.5 21zM665 0h-178l-37 119h-245l-37 -119h-178l238 700h208zM328 514l-75 -240h149z" />
    <glyph glyph-name="Adieresis" unicode="&#xc4;" horiz-adv-x="655" 
d="M230 793q-32 0 -53 20.5t-21 52.5q0 33 21 53.5t53 20.5q34 0 55 -20.5t21 -53.5q0 -32 -21 -52.5t-55 -20.5zM426 793q-32 0 -53 20.5t-21 52.5q0 33 21 53.5t53 20.5q34 0 55 -20.5t21 -53.5q0 -32 -21 -52.5t-55 -20.5zM665 0h-178l-37 119h-245l-37 -119h-178
l238 700h208zM328 514l-75 -240h149z" />
    <glyph glyph-name="Aring" unicode="&#xc5;" horiz-adv-x="655" 
d="M330 761q-45 0 -74.5 28t-29.5 71t29.5 71t74.5 28t74.5 -28t29.5 -71q0 -44 -29 -71.5t-75 -27.5zM330 896q-16 0 -26.5 -10.5t-10.5 -25.5t10.5 -25.5t26.5 -10.5t26.5 10.5t10.5 25.5t-10.5 25.5t-26.5 10.5zM665 0h-178l-37 119h-245l-37 -119h-178l238 700h208z
M328 514l-75 -240h149z" />
    <glyph glyph-name="AE" unicode="&#xc6;" horiz-adv-x="889" 
d="M168 0h-178l238 700h606v-152h-348l37 -113h282v-150h-233l43 -133h219v-152h-347l-37 119h-245zM328 514l-75 -240h149z" />
    <glyph glyph-name="Ccedilla" unicode="&#xc7;" horiz-adv-x="762" 
d="M575 253l152 -83q-45 -77 -122 -124.5t-171 -54.5l-17 -39q38 -1 64.5 -27t26.5 -65q0 -41 -35 -71.5t-94 -30.5q-63 0 -99 46l37 61q28 -30 62 -30q16 0 27.5 8t11.5 20q0 13 -12 21t-28 8t-28 -7l-25 29l30 79q-138 17 -229 116.5t-91 240.5q0 154 106.5 257t262.5 103
q109 0 191 -47.5t131 -131.5l-151 -83q-53 97 -171 97q-78 0 -133.5 -56t-55.5 -139t55.5 -139t133.5 -56q117 0 171 98z" />
    <glyph glyph-name="Egrave" unicode="&#xc8;" horiz-adv-x="584" 
d="M342 930l33 -146h-103l-83 146h153zM529 0h-459v700h459v-152h-292v-113h263v-150h-263v-133h292v-152z" />
    <glyph glyph-name="Eacute" unicode="&#xc9;" horiz-adv-x="584" 
d="M362 784h-103l33 146h153zM529 0h-459v700h459v-152h-292v-113h263v-150h-263v-133h292v-152z" />
    <glyph glyph-name="Ecircumflex" unicode="&#xca;" horiz-adv-x="584" 
d="M251 784h-93l93 146h133l93 -146h-93l-66 58zM529 0h-459v700h459v-152h-292v-113h263v-150h-263v-133h292v-152z" />
    <glyph glyph-name="Edieresis" unicode="&#xcb;" horiz-adv-x="584" 
d="M219 793q-32 0 -53 20.5t-21 52.5q0 33 21 53.5t53 20.5q34 0 55 -20.5t21 -53.5q0 -32 -21 -52.5t-55 -20.5zM415 793q-32 0 -53 20.5t-21 52.5q0 33 21 53.5t53 20.5q34 0 55 -20.5t21 -53.5q0 -32 -21 -52.5t-55 -20.5zM529 0h-459v700h459v-152h-292v-113h263v-150
h-263v-133h292v-152z" />
    <glyph glyph-name="Igrave" unicode="&#xcc;" horiz-adv-x="461" 
d="M258 930l33 -146h-103l-83 146h153zM396 700v-150h-81v-400h81v-150h-331v150h81v400h-81v150h331z" />
    <glyph glyph-name="Iacute" unicode="&#xcd;" horiz-adv-x="461" 
d="M208 930h153l-83 -146h-103zM396 700v-150h-81v-400h81v-150h-331v150h81v400h-81v150h331z" />
    <glyph glyph-name="Icircumflex" unicode="&#xce;" horiz-adv-x="461" 
d="M300 784l-66 58l-67 -58h-93l93 146h133l93 -146h-93zM396 700v-150h-81v-400h81v-150h-331v150h81v400h-81v150h331z" />
    <glyph glyph-name="Idieresis" unicode="&#xcf;" horiz-adv-x="461" 
d="M135 793q-32 0 -53 20.5t-21 52.5q0 33 21 53.5t53 20.5q34 0 55 -20.5t21 -53.5q0 -32 -21 -52.5t-55 -20.5zM331 793q-32 0 -53 20.5t-21 52.5q0 33 21 53.5t53 20.5q34 0 55 -20.5t21 -53.5q0 -32 -21 -52.5t-55 -20.5zM65 700h331v-150h-81v-400h81v-150h-331v150h81
v400h-81v150z" />
    <glyph glyph-name="Eth" unicode="&#xd0;" horiz-adv-x="750" 
d="M70 700h284q151 0 256 -102t105 -247q0 -146 -104.5 -248.5t-256.5 -102.5h-284v290h-58v120h58v290zM240 155h93q83 0 142.5 51t59.5 145q0 93 -59.5 143.5t-142.5 50.5h-93v-135h145v-120h-145v-135z" />
    <glyph glyph-name="Ntilde" unicode="&#xd1;" horiz-adv-x="754" 
d="M436 800q-29 0 -60.5 21t-46.5 21q-12 0 -20 -9.5t-8 -23.5h-82q0 68 29.5 100t70.5 32q35 0 66.5 -21t40.5 -21q12 0 20 9.5t8 23.5h82q0 -71 -29 -101.5t-71 -30.5zM684 0h-165l-284 417v-417h-165v700h165l284 -415v415h165v-700z" />
    <glyph glyph-name="Ograve" unicode="&#xd2;" horiz-adv-x="817" 
d="M436 930l33 -146h-103l-83 146h153zM408 -10q-158 0 -265.5 103t-107.5 257t107.5 257t265.5 103t266 -103t108 -257t-108 -257t-266 -103zM408 155q84 0 139 56t55 139t-55 139t-139 56q-83 0 -138 -56t-55 -139t55 -139t138 -56z" />
    <glyph glyph-name="Oacute" unicode="&#xd3;" horiz-adv-x="817" 
d="M456 784h-103l33 146h153zM408 -10q-158 0 -265.5 103t-107.5 257t107.5 257t265.5 103t266 -103t108 -257t-108 -257t-266 -103zM408 155q84 0 139 56t55 139t-55 139t-139 56q-83 0 -138 -56t-55 -139t55 -139t138 -56z" />
    <glyph glyph-name="Ocircumflex" unicode="&#xd4;" horiz-adv-x="817" 
d="M345 784h-93l93 146h133l93 -146h-93l-66 58zM408 -10q-158 0 -265.5 103t-107.5 257t107.5 257t265.5 103t266 -103t108 -257t-108 -257t-266 -103zM408 155q84 0 139 56t55 139t-55 139t-139 56q-83 0 -138 -56t-55 -139t55 -139t138 -56z" />
    <glyph glyph-name="Otilde" unicode="&#xd5;" horiz-adv-x="817" 
d="M472 800q-29 0 -60.5 21t-46.5 21q-12 0 -20 -9.5t-8 -23.5h-82q0 68 29.5 100t70.5 32q35 0 66.5 -21t40.5 -21q12 0 20 9.5t8 23.5h82q0 -71 -29 -101.5t-71 -30.5zM408 -10q-158 0 -265.5 103t-107.5 257t107.5 257t265.5 103t266 -103t108 -257t-108 -257t-266 -103z
M408 155q84 0 139 56t55 139t-55 139t-139 56q-83 0 -138 -56t-55 -139t55 -139t138 -56z" />
    <glyph glyph-name="Odieresis" unicode="&#xd6;" horiz-adv-x="817" 
d="M313 793q-32 0 -53 20.5t-21 52.5q0 33 21 53.5t53 20.5q34 0 55 -20.5t21 -53.5q0 -32 -21 -52.5t-55 -20.5zM509 793q-32 0 -53 20.5t-21 52.5q0 33 21 53.5t53 20.5q34 0 55 -20.5t21 -53.5q0 -32 -21 -52.5t-55 -20.5zM408 -10q-158 0 -265.5 103t-107.5 257
t107.5 257t265.5 103t266 -103t108 -257t-108 -257t-266 -103zM408 155q84 0 139 56t55 139t-55 139t-139 56q-83 0 -138 -56t-55 -139t55 -139t138 -56z" />
    <glyph glyph-name="multiply" unicode="&#xd7;" horiz-adv-x="457" 
d="M228 246l-117 -117l-61 61l118 117l-118 118l61 60l117 -117l118 117l61 -60l-118 -118l117 -117l-61 -60z" />
    <glyph glyph-name="Oslash" unicode="&#xd8;" horiz-adv-x="817" 
d="M744 588l-30 -27q68 -92 68 -211q0 -154 -108 -257t-266 -103q-134 0 -236 78l-98 -89v133l29 26q-68 93 -68 212q0 154 107.5 257t265.5 103q135 0 238 -78l98 89v-133zM215 350q0 -50 21 -91l280 255q-46 31 -108 31q-83 0 -138 -56t-55 -139zM408 155q84 0 139 56
t55 139q0 50 -20 90l-281 -254q46 -31 107 -31z" />
    <glyph glyph-name="Ugrave" unicode="&#xd9;" horiz-adv-x="724" 
d="M380 930l33 -146h-103l-83 146h153zM362 -10q-130 0 -211 80t-81 211v419h170v-409q0 -63 32.5 -100t89.5 -37t89.5 37t32.5 100v409h170v-419q0 -131 -81 -211t-211 -80z" />
    <glyph glyph-name="Uacute" unicode="&#xda;" horiz-adv-x="724" 
d="M400 784h-103l33 146h153zM362 -10q-130 0 -211 80t-81 211v419h170v-409q0 -63 32.5 -100t89.5 -37t89.5 37t32.5 100v409h170v-419q0 -131 -81 -211t-211 -80z" />
    <glyph glyph-name="Ucircumflex" unicode="&#xdb;" horiz-adv-x="724" 
d="M289 784h-93l93 146h133l93 -146h-93l-66 58zM362 -10q-130 0 -211 80t-81 211v419h170v-409q0 -63 32.5 -100t89.5 -37t89.5 37t32.5 100v409h170v-419q0 -131 -81 -211t-211 -80z" />
    <glyph glyph-name="Udieresis" unicode="&#xdc;" horiz-adv-x="724" 
d="M257 793q-32 0 -53 20.5t-21 52.5q0 33 21 53.5t53 20.5q34 0 55 -20.5t21 -53.5q0 -32 -21 -52.5t-55 -20.5zM453 793q-32 0 -53 20.5t-21 52.5q0 33 21 53.5t53 20.5q34 0 55 -20.5t21 -53.5q0 -32 -21 -52.5t-55 -20.5zM362 -10q-130 0 -211 80t-81 211v419h170v-409
q0 -63 32.5 -100t89.5 -37t89.5 37t32.5 100v409h170v-419q0 -131 -81 -211t-211 -80z" />
    <glyph glyph-name="Yacute" unicode="&#xdd;" horiz-adv-x="709" 
d="M402 784h-103l33 146h153zM447 0h-170v245l-272 455h193l159 -287l154 287h193l-257 -451v-249z" />
    <glyph glyph-name="Thorn" unicode="&#xde;" horiz-adv-x="618" 
d="M240 0h-170v700h170v-90h118q99 0 169.5 -68t70.5 -169t-66.5 -173t-173.5 -72h-118v-128zM240 463v-183h78q43 0 71.5 25t28.5 68q0 42 -28.5 66t-71.5 24h-78z" />
    <glyph glyph-name="germandbls" unicode="&#xdf;" horiz-adv-x="604" 
d="M323 -242q-65 0 -125 30l31 133q39 -24 94 -24q44 0 75 29t31 75t-35 75t-91 29h-46l93 229h-145v-334h-150v501q0 100 61 159.5t158 59.5h22v-140h-16q-30 0 -52.5 -20.5t-22.5 -58.5v-37h348l-108 -256q58 -18 98.5 -71.5t40.5 -135.5q0 -41 -15.5 -82t-45 -78t-82 -60
t-118.5 -23z" />
    <glyph glyph-name="agrave" unicode="&#xe0;" horiz-adv-x="512" 
d="M278 680l33 -146h-103l-83 146h153zM212 -11q-81 0 -129 44t-48 109q0 60 43 96.5t112 36.5h96q32 0 32 29q0 15 -20 29t-55 14q-60 0 -88 -52l-106 68q24 48 75.5 80t118.5 32q106 0 162.5 -62t56.5 -143v-270h-140v16q-40 -27 -110 -27zM237 103q35 0 57 19t22 45v6
h-93q-16 0 -26.5 -9.5t-10.5 -24.5q0 -16 14 -26t37 -10z" />
    <glyph glyph-name="aacute" unicode="&#xe1;" horiz-adv-x="512" 
d="M298 534h-103l33 146h153zM212 -11q-81 0 -129 44t-48 109q0 60 43 96.5t112 36.5h96q32 0 32 29q0 15 -20 29t-55 14q-60 0 -88 -52l-106 68q24 48 75.5 80t118.5 32q106 0 162.5 -62t56.5 -143v-270h-140v16q-40 -27 -110 -27zM237 103q35 0 57 19t22 45v6h-93
q-16 0 -26.5 -9.5t-10.5 -24.5q0 -16 14 -26t37 -10z" />
    <glyph glyph-name="acircumflex" unicode="&#xe2;" horiz-adv-x="512" 
d="M187 534h-93l93 146h133l93 -146h-93l-66 58zM212 -11q-81 0 -129 44t-48 109q0 60 43 96.5t112 36.5h96q32 0 32 29q0 15 -20 29t-55 14q-60 0 -88 -52l-106 68q24 48 75.5 80t118.5 32q106 0 162.5 -62t56.5 -143v-270h-140v16q-40 -27 -110 -27zM237 103q35 0 57 19
t22 45v6h-93q-16 0 -26.5 -9.5t-10.5 -24.5q0 -16 14 -26t37 -10z" />
    <glyph glyph-name="atilde" unicode="&#xe3;" horiz-adv-x="512" 
d="M314 550q-29 0 -60.5 21t-46.5 21q-12 0 -20 -9.5t-8 -23.5h-82q0 68 29.5 100t70.5 32q35 0 66.5 -21t40.5 -21q12 0 20 9.5t8 23.5h82q0 -71 -29 -101.5t-71 -30.5zM212 -11q-81 0 -129 44t-48 109q0 60 43 96.5t112 36.5h96q32 0 32 29q0 15 -20 29t-55 14
q-60 0 -88 -52l-106 68q24 48 75.5 80t118.5 32q106 0 162.5 -62t56.5 -143v-270h-140v16q-40 -27 -110 -27zM237 103q35 0 57 19t22 45v6h-93q-16 0 -26.5 -9.5t-10.5 -24.5q0 -16 14 -26t37 -10z" />
    <glyph glyph-name="adieresis" unicode="&#xe4;" horiz-adv-x="512" 
d="M155 543q-32 0 -53 20.5t-21 52.5q0 33 21 53.5t53 20.5q34 0 55 -20.5t21 -53.5q0 -32 -21 -52.5t-55 -20.5zM351 543q-32 0 -53 20.5t-21 52.5q0 33 21 53.5t53 20.5q34 0 55 -20.5t21 -53.5q0 -32 -21 -52.5t-55 -20.5zM212 -11q-81 0 -129 44t-48 109q0 60 43 96.5
t112 36.5h96q32 0 32 29q0 15 -20 29t-55 14q-60 0 -88 -52l-106 68q24 48 75.5 80t118.5 32q106 0 162.5 -62t56.5 -143v-270h-140v16q-40 -27 -110 -27zM237 103q35 0 57 19t22 45v6h-93q-16 0 -26.5 -9.5t-10.5 -24.5q0 -16 14 -26t37 -10z" />
    <glyph glyph-name="aring" unicode="&#xe5;" horiz-adv-x="512" 
d="M255 511q-45 0 -74.5 28t-29.5 71t29.5 71t74.5 28t74.5 -28t29.5 -71q0 -44 -29 -71.5t-75 -27.5zM255 574q16 0 26.5 10.5t10.5 25.5t-10.5 25.5t-26.5 10.5t-26.5 -10.5t-10.5 -25.5t10.5 -25.5t26.5 -10.5zM212 -11q-81 0 -129 44t-48 109q0 60 43 96.5t112 36.5h96
q32 0 32 29q0 15 -20 29t-55 14q-60 0 -88 -52l-106 68q24 48 75.5 80t118.5 32q106 0 162.5 -62t56.5 -143v-270h-140v16q-40 -27 -110 -27zM237 103q35 0 57 19t22 45v6h-93q-16 0 -26.5 -9.5t-10.5 -24.5q0 -16 14 -26t37 -10z" />
    <glyph glyph-name="ae" unicode="&#xe6;" horiz-adv-x="845" 
d="M223 -11q-90 0 -139 43.5t-49 109.5q0 60 43 96.5t112 36.5h96q32 0 32 29q0 15 -20 29t-55 14q-60 0 -88 -52l-106 68q24 48 75.5 80t118.5 32q98 0 157 -56q69 56 167 56q117 0 186.5 -79.5t60.5 -204.5h-345q24 -65 98 -66q64 2 91 46l117 -84q-75 -98 -208 -98
q-105 0 -177 64q-64 -64 -167 -64zM472 283h192q-28 59 -97 61q-72 -2 -95 -61zM237 103q35 0 57 19t22 45v6h-93q-16 0 -26.5 -9.5t-10.5 -24.5q0 -16 14 -26t37 -10z" />
    <glyph glyph-name="ccedilla" unicode="&#xe7;" horiz-adv-x="524" 
d="M287 129q59 1 88 49l123 -80q-29 -46 -77 -74.5t-109 -33.5l-16 -38q38 -1 64.5 -27t26.5 -65q0 -41 -35 -71.5t-94 -30.5q-63 0 -99 46l37 61q28 -30 62 -30q16 0 27.5 8t11.5 20q0 13 -12 21t-28 8t-28 -7l-25 29l30 80q-91 16 -147.5 83.5t-56.5 154.5q0 100 72 171.5
t185 71.5q73 0 129 -31.5t88 -86.5l-124 -81q-12 25 -36.5 41.5t-56.5 17.5q-46 -1 -74 -30.5t-28 -72.5t28 -72.5t74 -30.5z" />
    <glyph glyph-name="egrave" unicode="&#xe8;" horiz-adv-x="565" 
d="M326 680l33 -146h-103l-83 146h153zM287 -11q-113 0 -185 71.5t-72 171.5t72 171.5t185 71.5q117 0 186.5 -79.5t60.5 -204.5h-345q24 -65 98 -66q64 2 91 46l117 -84q-75 -98 -208 -98zM192 283h192q-28 59 -97 61q-72 -2 -95 -61z" />
    <glyph glyph-name="eacute" unicode="&#xe9;" horiz-adv-x="565" 
d="M346 534h-103l33 146h153zM287 -11q-113 0 -185 71.5t-72 171.5t72 171.5t185 71.5q117 0 186.5 -79.5t60.5 -204.5h-345q24 -65 98 -66q64 2 91 46l117 -84q-75 -98 -208 -98zM192 283h192q-28 59 -97 61q-72 -2 -95 -61z" />
    <glyph glyph-name="ecircumflex" unicode="&#xea;" horiz-adv-x="565" 
d="M235 534h-93l93 146h133l93 -146h-93l-66 58zM287 -11q-113 0 -185 71.5t-72 171.5t72 171.5t185 71.5q117 0 186.5 -79.5t60.5 -204.5h-345q24 -65 98 -66q64 2 91 46l117 -84q-75 -98 -208 -98zM192 283h192q-28 59 -97 61q-72 -2 -95 -61z" />
    <glyph glyph-name="edieresis" unicode="&#xeb;" horiz-adv-x="565" 
d="M203 543q-32 0 -53 20.5t-21 52.5q0 33 21 53.5t53 20.5q34 0 55 -20.5t21 -53.5q0 -32 -21 -52.5t-55 -20.5zM399 543q-32 0 -53 20.5t-21 52.5q0 33 21 53.5t53 20.5q34 0 55 -20.5t21 -53.5q0 -32 -21 -52.5t-55 -20.5zM287 -11q-113 0 -185 71.5t-72 171.5t72 171.5
t185 71.5q117 0 186.5 -79.5t60.5 -204.5h-345q24 -65 98 -66q64 2 91 46l117 -84q-75 -98 -208 -98zM192 283h192q-28 59 -97 61q-72 -2 -95 -61z" />
    <glyph glyph-name="igrave" unicode="&#xec;" horiz-adv-x="230" 
d="M140 680l33 -146h-103l-83 146h153zM190 0h-150v464h150v-464z" />
    <glyph glyph-name="iacute" unicode="&#xed;" horiz-adv-x="230" 
d="M160 534h-103l33 146h153zM190 0h-150v464h150v-464z" />
    <glyph glyph-name="icircumflex" unicode="&#xee;" horiz-adv-x="230" 
d="M49 534h-93l93 146h133l93 -146h-93l-66 58zM190 0h-150v464h150v-464z" />
    <glyph glyph-name="idieresis" unicode="&#xef;" horiz-adv-x="230" 
d="M17 543q-32 0 -53 20.5t-21 52.5q0 33 21 53.5t53 20.5q34 0 55 -20.5t21 -53.5q0 -32 -21 -52.5t-55 -20.5zM213 543q-32 0 -53 20.5t-21 52.5q0 33 21 53.5t53 20.5q34 0 55 -20.5t21 -53.5q0 -32 -21 -52.5t-55 -20.5zM190 0h-150v464h150v-464z" />
    <glyph glyph-name="eth" unicode="&#xf0;" horiz-adv-x="574" 
d="M464 616l-81 -27q161 -159 161 -357q0 -100 -72 -171.5t-185 -71.5t-185 71.5t-72 171.5t72 171.5t185 71.5q13 0 39 -2q-29 44 -60 76l-151 -51v78l88 30q-55 44 -148 94h177q40 -22 86 -55l146 49v-78zM287 129q46 1 74 30.5t28 72.5t-28 72.5t-74 30.5
q-46 -1 -74 -30.5t-28 -72.5t28 -72.5t74 -30.5z" />
    <glyph glyph-name="ntilde" unicode="&#xf1;" horiz-adv-x="543" 
d="M345 550q-29 0 -60.5 21t-46.5 21q-12 0 -20 -9.5t-8 -23.5h-82q0 68 29.5 100t70.5 32q35 0 66.5 -21t40.5 -21q12 0 20 9.5t8 23.5h82q0 -71 -29 -101.5t-71 -30.5zM205 0h-150v464h144v-23q40 34 110 34q77 0 130.5 -51.5t53.5 -127.5v-296h-150v265q0 31 -17.5 52.5
t-51.5 21.5q-31 0 -50 -20t-19 -54v-265z" />
    <glyph glyph-name="ograve" unicode="&#xf2;" horiz-adv-x="574" 
d="M312 680l33 -146h-103l-83 146h153zM287 -11q-113 0 -185 71.5t-72 171.5t72 171.5t185 71.5t185 -71.5t72 -171.5t-72 -171.5t-185 -71.5zM287 129q46 1 74 30.5t28 72.5t-28 72.5t-74 30.5q-46 -1 -74 -30.5t-28 -72.5t28 -72.5t74 -30.5z" />
    <glyph glyph-name="oacute" unicode="&#xf3;" horiz-adv-x="574" 
d="M332 534h-103l33 146h153zM287 -11q-113 0 -185 71.5t-72 171.5t72 171.5t185 71.5t185 -71.5t72 -171.5t-72 -171.5t-185 -71.5zM287 129q46 1 74 30.5t28 72.5t-28 72.5t-74 30.5q-46 -1 -74 -30.5t-28 -72.5t28 -72.5t74 -30.5z" />
    <glyph glyph-name="ocircumflex" unicode="&#xf4;" horiz-adv-x="574" 
d="M221 534h-93l93 146h133l93 -146h-93l-66 58zM287 -11q-113 0 -185 71.5t-72 171.5t72 171.5t185 71.5t185 -71.5t72 -171.5t-72 -171.5t-185 -71.5zM287 129q46 1 74 30.5t28 72.5t-28 72.5t-74 30.5q-46 -1 -74 -30.5t-28 -72.5t28 -72.5t74 -30.5z" />
    <glyph glyph-name="otilde" unicode="&#xf5;" horiz-adv-x="574" 
d="M348 550q-29 0 -60.5 21t-46.5 21q-12 0 -20 -9.5t-8 -23.5h-82q0 68 29.5 100t70.5 32q35 0 66.5 -21t40.5 -21q12 0 20 9.5t8 23.5h82q0 -71 -29 -101.5t-71 -30.5zM287 -11q-113 0 -185 71.5t-72 171.5t72 171.5t185 71.5t185 -71.5t72 -171.5t-72 -171.5t-185 -71.5z
M287 129q46 1 74 30.5t28 72.5t-28 72.5t-74 30.5q-46 -1 -74 -30.5t-28 -72.5t28 -72.5t74 -30.5z" />
    <glyph glyph-name="odieresis" unicode="&#xf6;" horiz-adv-x="574" 
d="M189 543q-32 0 -53 20.5t-21 52.5q0 33 21 53.5t53 20.5q34 0 55 -20.5t21 -53.5q0 -32 -21 -52.5t-55 -20.5zM385 543q-32 0 -53 20.5t-21 52.5q0 33 21 53.5t53 20.5q34 0 55 -20.5t21 -53.5q0 -32 -21 -52.5t-55 -20.5zM287 -11q-113 0 -185 71.5t-72 171.5t72 171.5
t185 71.5t185 -71.5t72 -171.5t-72 -171.5t-185 -71.5zM287 129q46 1 74 30.5t28 72.5t-28 72.5t-74 30.5q-46 -1 -74 -30.5t-28 -72.5t28 -72.5t74 -30.5z" />
    <glyph glyph-name="divide" unicode="&#xf7;" horiz-adv-x="438" 
d="M219 414q-27 0 -46 19t-19 46q0 28 19 46.5t46 18.5q28 0 46.5 -18.5t18.5 -46.5q0 -27 -18.5 -46t-46.5 -19zM428 264h-418v86h418v-86zM219 76q-27 0 -46 19t-19 46q0 28 19 46.5t46 18.5q28 0 46.5 -18.5t18.5 -46.5q0 -27 -18.5 -46t-46.5 -19z" />
    <glyph glyph-name="oslash" unicode="&#xf8;" horiz-adv-x="574" 
d="M454 419l90 67v-128l-25 -19q25 -50 25 -107q0 -100 -72 -171.5t-185 -71.5q-98 0 -167 56l-89 -66v128l24 18q-25 50 -25 107q0 100 72 171.5t185 71.5q98 0 167 -56zM185 232q0 -7 1 -11l142 106q-19 8 -41 8q-46 -1 -74 -30.5t-28 -72.5zM389 232q0 7 -1 11l-143 -106
q21 -8 42 -8q46 1 74 30.5t28 72.5z" />
    <glyph glyph-name="ugrave" unicode="&#xf9;" horiz-adv-x="498" 
d="M274 680l33 -146h-103l-83 146h153zM249 -11q-106 0 -162.5 61t-56.5 157v257h150v-263q0 -29 18 -50t51 -21t51 21t18 50v263h150v-257q0 -96 -56.5 -157t-162.5 -61z" />
    <glyph glyph-name="uacute" unicode="&#xfa;" horiz-adv-x="498" 
d="M294 534h-103l33 146h153zM249 -11q-106 0 -162.5 61t-56.5 157v257h150v-263q0 -29 18 -50t51 -21t51 21t18 50v263h150v-257q0 -96 -56.5 -157t-162.5 -61z" />
    <glyph glyph-name="ucircumflex" unicode="&#xfb;" horiz-adv-x="498" 
d="M183 534h-93l93 146h133l93 -146h-93l-66 58zM249 -11q-106 0 -162.5 61t-56.5 157v257h150v-263q0 -29 18 -50t51 -21t51 21t18 50v263h150v-257q0 -96 -56.5 -157t-162.5 -61z" />
    <glyph glyph-name="udieresis" unicode="&#xfc;" horiz-adv-x="498" 
d="M151 543q-32 0 -53 20.5t-21 52.5q0 33 21 53.5t53 20.5q34 0 55 -20.5t21 -53.5q0 -32 -21 -52.5t-55 -20.5zM347 543q-32 0 -53 20.5t-21 52.5q0 33 21 53.5t53 20.5q34 0 55 -20.5t21 -53.5q0 -32 -21 -52.5t-55 -20.5zM249 -11q-106 0 -162.5 61t-56.5 157v257h150
v-263q0 -29 18 -50t51 -21t51 21t18 50v263h150v-257q0 -96 -56.5 -157t-162.5 -61z" />
    <glyph glyph-name="yacute" unicode="&#xfd;" horiz-adv-x="559" 
d="M334 534h-103l33 146h153zM190 -232h-176l178 322l-187 374h166l107 -225l112 225h164z" />
    <glyph glyph-name="thorn" unicode="&#xfe;" horiz-adv-x="595" 
d="M320 475q104 0 174.5 -73t70.5 -170t-70.5 -170t-174.5 -73q-60 0 -115 27v-247h-150v931h150v-252q55 27 115 27zM308 129q46 1 74 30.5t28 72.5t-28 72.5t-74 30.5q-46 -1 -74 -30.5t-28 -72.5t28 -72.5t74 -30.5z" />
    <glyph glyph-name="ydieresis" unicode="&#xff;" horiz-adv-x="559" 
d="M191 543q-32 0 -53 20.5t-21 52.5q0 33 21 53.5t53 20.5q34 0 55 -20.5t21 -53.5q0 -32 -21 -52.5t-55 -20.5zM387 543q-32 0 -53 20.5t-21 52.5q0 33 21 53.5t53 20.5q34 0 55 -20.5t21 -53.5q0 -32 -21 -52.5t-55 -20.5zM190 -232h-176l178 322l-187 374h166l107 -225
l112 225h164z" />
    <glyph glyph-name="Amacron" unicode="&#x100;" horiz-adv-x="655" 
d="M200 913h265v-100h-265v100zM665 0h-178l-37 119h-245l-37 -119h-178l238 700h208zM328 514l-75 -240h149z" />
    <glyph glyph-name="amacron" unicode="&#x101;" horiz-adv-x="512" 
d="M390 563h-265v100h265v-100zM212 -11q-81 0 -129 44t-48 109q0 60 43 96.5t112 36.5h96q32 0 32 29q0 15 -20 29t-55 14q-60 0 -88 -52l-106 68q24 48 75.5 80t118.5 32q106 0 162.5 -62t56.5 -143v-270h-140v16q-40 -27 -110 -27zM237 103q35 0 57 19t22 45v6h-93
q-16 0 -26.5 -9.5t-10.5 -24.5q0 -16 14 -26t37 -10z" />
    <glyph glyph-name="Abreve" unicode="&#x102;" horiz-adv-x="655" 
d="M328 780q-64 0 -104 40t-40 106h86q0 -24 16 -40.5t42 -16.5q27 0 42 16t15 41h86q0 -65 -41 -105.5t-102 -40.5zM665 0h-178l-37 119h-245l-37 -119h-178l238 700h208zM328 514l-75 -240h149z" />
    <glyph glyph-name="abreve" unicode="&#x103;" horiz-adv-x="512" 
d="M253 530q-63 0 -103.5 40t-40.5 106h86q0 -24 16 -40.5t42 -16.5q27 0 42 16t15 41h86q0 -65 -41 -105.5t-102 -40.5zM212 -11q-81 0 -129 44t-48 109q0 60 43 96.5t112 36.5h96q32 0 32 29q0 15 -20 29t-55 14q-60 0 -88 -52l-106 68q24 48 75.5 80t118.5 32
q106 0 162.5 -62t56.5 -143v-270h-140v16q-40 -27 -110 -27zM237 103q35 0 57 19t22 45v6h-93q-16 0 -26.5 -9.5t-10.5 -24.5q0 -16 14 -26t37 -10z" />
    <glyph glyph-name="Aogonek" unicode="&#x104;" horiz-adv-x="655" 
d="M665 -141l19 -88q-39 -13 -80 -13q-60 0 -104.5 32t-44.5 90q0 75 72 120h-40l-37 119h-245l-37 -119h-178l238 700h208l229 -700q-37 -10 -66 -34.5t-29 -57.5q0 -26 18.5 -39.5t44.5 -13.5q16 0 32 4zM328 514l-75 -240h149z" />
    <glyph glyph-name="aogonek" unicode="&#x105;" horiz-adv-x="512" 
d="M461 -141l19 -88q-39 -13 -80 -13q-60 0 -104.5 32t-44.5 90q0 75 72 120h-1v16q-40 -27 -110 -27q-81 0 -129 44t-48 109q0 60 43 96.5t112 36.5h96q32 0 32 29q0 15 -20 29t-55 14q-60 0 -88 -52l-106 68q24 48 75.5 80t118.5 32q106 0 162.5 -62t56.5 -143v-270h-1
q-37 -10 -66 -34.5t-29 -57.5q0 -26 18.5 -39.5t44.5 -13.5q16 0 32 4zM316 167v6h-93q-16 0 -26.5 -9.5t-10.5 -24.5q0 -16 14 -26t37 -10q35 0 57 19t22 45z" />
    <glyph glyph-name="Cacute" unicode="&#x106;" horiz-adv-x="762" 
d="M444 784h-103l33 146h153zM404 -10q-156 0 -262.5 103t-106.5 257t106.5 257t262.5 103q109 0 191 -47.5t131 -131.5l-151 -83q-53 97 -171 97q-78 0 -133.5 -56t-55.5 -139t55.5 -139t133.5 -56q117 0 171 98l152 -83q-48 -83 -133.5 -131.5t-189.5 -48.5z" />
    <glyph glyph-name="cacute" unicode="&#x107;" horiz-adv-x="524" 
d="M332 534h-103l33 146h153zM287 -11q-113 0 -185 71.5t-72 171.5t72 171.5t185 71.5q73 0 129 -31.5t88 -86.5l-124 -81q-12 25 -36.5 41.5t-56.5 17.5q-46 -1 -74 -30.5t-28 -72.5t28 -72.5t74 -30.5q59 1 88 49l123 -80q-32 -50 -86.5 -79.5t-124.5 -29.5z" />
    <glyph glyph-name="Ccircumflex" unicode="&#x108;" horiz-adv-x="762" 
d="M333 784h-93l93 146h133l93 -146h-93l-66 58zM404 -10q-156 0 -262.5 103t-106.5 257t106.5 257t262.5 103q109 0 191 -47.5t131 -131.5l-151 -83q-53 97 -171 97q-78 0 -133.5 -56t-55.5 -139t55.5 -139t133.5 -56q117 0 171 98l152 -83q-48 -83 -133.5 -131.5
t-189.5 -48.5z" />
    <glyph glyph-name="ccircumflex" unicode="&#x109;" horiz-adv-x="524" 
d="M221 534h-93l93 146h133l93 -146h-93l-66 58zM287 -11q-113 0 -185 71.5t-72 171.5t72 171.5t185 71.5q73 0 129 -31.5t88 -86.5l-124 -81q-12 25 -36.5 41.5t-56.5 17.5q-46 -1 -74 -30.5t-28 -72.5t28 -72.5t74 -30.5q59 1 88 49l123 -80q-32 -50 -86.5 -79.5
t-124.5 -29.5z" />
    <glyph glyph-name="Cdotaccent" unicode="&#x10a;" horiz-adv-x="762" 
d="M400 790q-39 0 -65 24.5t-26 60.5q0 37 26 62t65 25q41 0 66.5 -25t25.5 -62t-25.5 -61t-66.5 -24zM404 -10q-156 0 -262.5 103t-106.5 257t106.5 257t262.5 103q109 0 191 -47.5t131 -131.5l-151 -83q-53 97 -171 97q-78 0 -133.5 -56t-55.5 -139t55.5 -139t133.5 -56
q117 0 171 98l152 -83q-48 -83 -133.5 -131.5t-189.5 -48.5z" />
    <glyph glyph-name="cdotaccent" unicode="&#x10b;" horiz-adv-x="524" 
d="M288 540q-39 0 -65 24.5t-26 60.5q0 37 26 62t65 25q41 0 66.5 -25t25.5 -62t-25.5 -61t-66.5 -24zM287 -11q-113 0 -185 71.5t-72 171.5t72 171.5t185 71.5q73 0 129 -31.5t88 -86.5l-124 -81q-12 25 -36.5 41.5t-56.5 17.5q-46 -1 -74 -30.5t-28 -72.5t28 -72.5
t74 -30.5q59 1 88 49l123 -80q-32 -50 -86.5 -79.5t-124.5 -29.5z" />
    <glyph glyph-name="Ccaron" unicode="&#x10c;" horiz-adv-x="762" 
d="M333 784l-93 146h93l67 -58l66 58h93l-93 -146h-133zM404 -10q-156 0 -262.5 103t-106.5 257t106.5 257t262.5 103q109 0 191 -47.5t131 -131.5l-151 -83q-53 97 -171 97q-78 0 -133.5 -56t-55.5 -139t55.5 -139t133.5 -56q117 0 171 98l152 -83q-48 -83 -133.5 -131.5
t-189.5 -48.5z" />
    <glyph glyph-name="ccaron" unicode="&#x10d;" horiz-adv-x="524" 
d="M221 534l-93 146h93l67 -58l66 58h93l-93 -146h-133zM287 -11q-113 0 -185 71.5t-72 171.5t72 171.5t185 71.5q73 0 129 -31.5t88 -86.5l-124 -81q-12 25 -36.5 41.5t-56.5 17.5q-46 -1 -74 -30.5t-28 -72.5t28 -72.5t74 -30.5q59 1 88 49l123 -80q-32 -50 -86.5 -79.5
t-124.5 -29.5z" />
    <glyph glyph-name="Dcaron" unicode="&#x10e;" horiz-adv-x="750" 
d="M208 784l-93 146h93l67 -58l66 58h93l-93 -146h-133zM354 0h-284v700h284q151 0 256 -102t105 -247q0 -146 -104.5 -248.5t-256.5 -102.5zM240 545v-390h93q83 0 142.5 51t59.5 145q0 93 -59.5 143.5t-142.5 50.5h-93z" />
    <glyph glyph-name="dcaron" unicode="&#x10f;" horiz-adv-x="600" 
d="M389 449v251h150v-700h-150v15q-57 -26 -114 -26q-104 0 -174.5 73t-70.5 170t70.5 170t174.5 73q57 0 114 -26zM592 514l10 186h133l-50 -186h-93zM287 129q46 1 74 30.5t28 72.5t-28 72.5t-74 30.5q-46 -1 -74 -30.5t-28 -72.5t28 -72.5t74 -30.5z" />
    <glyph glyph-name="Dcroat" unicode="&#x110;" horiz-adv-x="750" 
d="M70 700h284q151 0 256 -102t105 -247q0 -146 -104.5 -248.5t-256.5 -102.5h-284v290h-58v120h58v290zM240 155h93q83 0 142.5 51t59.5 145q0 93 -59.5 143.5t-142.5 50.5h-93v-135h145v-120h-145v-135z" />
    <glyph glyph-name="dcroat" unicode="&#x111;" horiz-adv-x="596" 
d="M539 625h57v-90h-57v-535h-150v15q-57 -26 -114 -26q-104 0 -174.5 73t-70.5 170t70.5 170t174.5 73q57 0 114 -26v86h-128v90h128v75h150v-75zM287 129q46 1 74 30.5t28 72.5t-28 72.5t-74 30.5q-46 -1 -74 -30.5t-28 -72.5t28 -72.5t74 -30.5z" />
    <glyph glyph-name="Emacron" unicode="&#x112;" horiz-adv-x="584" 
d="M454 813h-265v100h265v-100zM529 0h-459v700h459v-152h-292v-113h263v-150h-263v-133h292v-152z" />
    <glyph glyph-name="emacron" unicode="&#x113;" horiz-adv-x="565" 
d="M438 563h-265v100h265v-100zM287 -11q-113 0 -185 71.5t-72 171.5t72 171.5t185 71.5q117 0 186.5 -79.5t60.5 -204.5h-345q24 -65 98 -66q64 2 91 46l117 -84q-75 -98 -208 -98zM192 283h192q-28 59 -97 61q-72 -2 -95 -61z" />
    <glyph glyph-name="Ebreve" unicode="&#x114;" horiz-adv-x="584" 
d="M317 780q-63 0 -103.5 40t-40.5 106h86q0 -24 16 -40.5t42 -16.5q27 0 42 16t15 41h86q0 -65 -41 -105.5t-102 -40.5zM529 0h-459v700h459v-152h-292v-113h263v-150h-263v-133h292v-152z" />
    <glyph glyph-name="ebreve" unicode="&#x115;" horiz-adv-x="565" 
d="M301 530q-63 0 -103.5 40t-40.5 106h86q0 -24 16 -40.5t42 -16.5q27 0 42 16t15 41h86q0 -65 -41 -105.5t-102 -40.5zM287 -11q-113 0 -185 71.5t-72 171.5t72 171.5t185 71.5q117 0 186.5 -79.5t60.5 -204.5h-345q24 -65 98 -66q64 2 91 46l117 -84q-75 -98 -208 -98z
M192 283h192q-28 59 -97 61q-72 -2 -95 -61z" />
    <glyph glyph-name="Edotaccent" unicode="&#x116;" horiz-adv-x="584" 
d="M318 790q-39 0 -65 24.5t-26 60.5q0 37 26 62t65 25q41 0 66.5 -25t25.5 -62t-25.5 -61t-66.5 -24zM529 0h-459v700h459v-152h-292v-113h263v-150h-263v-133h292v-152z" />
    <glyph glyph-name="edotaccent" unicode="&#x117;" horiz-adv-x="565" 
d="M302 540q-39 0 -65 24.5t-26 60.5q0 37 26 62t65 25q41 0 66.5 -25t25.5 -62t-25.5 -61t-66.5 -24zM287 -11q-113 0 -185 71.5t-72 171.5t72 171.5t185 71.5q117 0 186.5 -79.5t60.5 -204.5h-345q24 -65 98 -66q64 2 91 46l117 -84q-75 -98 -208 -98zM192 283h192
q-28 59 -97 61q-72 -2 -95 -61z" />
    <glyph glyph-name="Eogonek" unicode="&#x118;" horiz-adv-x="584" 
d="M530 -141l19 -88q-39 -13 -80 -13q-60 0 -104.5 32t-44.5 90q0 75 72 120h-322v700h459v-152h-292v-113h263v-150h-263v-133h292v-152h1q-37 -10 -66 -34.5t-29 -57.5q0 -26 18.5 -39.5t44.5 -13.5q16 0 32 4z" />
    <glyph glyph-name="eogonek" unicode="&#x119;" horiz-adv-x="565" 
d="M287 475q117 0 186.5 -79.5t60.5 -204.5h-345q24 -65 98 -66q64 2 91 46l117 -84q-50 -66 -133 -88q-36 -11 -63 -35t-27 -56q0 -26 18.5 -39.5t44.5 -13.5q16 0 32 4l19 -88q-39 -13 -80 -13q-60 0 -104.5 32t-44.5 90q0 70 66 116q-87 20 -140 86t-53 150
q0 100 72 171.5t185 71.5zM192 283h192q-28 59 -97 61q-72 -2 -95 -61z" />
    <glyph glyph-name="Ecaron" unicode="&#x11a;" horiz-adv-x="584" 
d="M251 784l-93 146h93l67 -58l66 58h93l-93 -146h-133zM529 0h-459v700h459v-152h-292v-113h263v-150h-263v-133h292v-152z" />
    <glyph glyph-name="ecaron" unicode="&#x11b;" horiz-adv-x="565" 
d="M235 534l-93 146h93l67 -58l66 58h93l-93 -146h-133zM287 -11q-113 0 -185 71.5t-72 171.5t72 171.5t185 71.5q117 0 186.5 -79.5t60.5 -204.5h-345q24 -65 98 -66q64 2 91 46l117 -84q-75 -98 -208 -98zM192 283h192q-28 59 -97 61q-72 -2 -95 -61z" />
    <glyph glyph-name="Gcircumflex" unicode="&#x11c;" horiz-adv-x="809" 
d="M342 784h-93l93 146h133l93 -146h-93l-66 58zM404 -10q-156 0 -262.5 103t-106.5 257t106.5 257t262.5 103q109 0 191 -47.5t131 -131.5l-151 -83q-53 97 -171 97q-78 0 -133.5 -56t-55.5 -139t55.5 -139t133.5 -56q101 0 156 75h-154v145h368v-21q0 -160 -105.5 -262
t-264.5 -102z" />
    <glyph glyph-name="gcircumflex" unicode="&#x11d;" 
d="M363 534l-66 58l-67 -58h-93l93 146h133l93 -146h-93zM389 449v15h150v-468q0 -103 -73.5 -170.5t-188.5 -67.5q-74 0 -129 31.5t-82 80.5l111 84q12 -22 40 -37t60 -15q51 0 81.5 27t30.5 67v19q-57 -26 -114 -26q-104 0 -174.5 73t-70.5 170t70.5 170t174.5 73
q57 0 114 -26zM287 129q46 1 74 30.5t28 72.5t-28 72.5t-74 30.5q-46 -1 -74 -30.5t-28 -72.5t28 -72.5t74 -30.5z" />
    <glyph glyph-name="Gbreve" unicode="&#x11e;" horiz-adv-x="809" 
d="M408 780q-64 0 -104 40t-40 106h86q0 -24 16 -40.5t42 -16.5q27 0 42 16t15 41h86q0 -65 -41 -105.5t-102 -40.5zM404 -10q-156 0 -262.5 103t-106.5 257t106.5 257t262.5 103q109 0 191 -47.5t131 -131.5l-151 -83q-53 97 -171 97q-78 0 -133.5 -56t-55.5 -139
t55.5 -139t133.5 -56q101 0 156 75h-154v145h368v-21q0 -160 -105.5 -262t-264.5 -102z" />
    <glyph glyph-name="gbreve" unicode="&#x11f;" 
d="M296 530q-64 0 -104 40t-40 106h86q0 -24 16 -40.5t42 -16.5q27 0 42 16t15 41h86q0 -65 -41 -105.5t-102 -40.5zM389 449v15h150v-468q0 -103 -73.5 -170.5t-188.5 -67.5q-74 0 -129 31.5t-82 80.5l111 84q12 -22 40 -37t60 -15q51 0 81.5 27t30.5 67v19
q-57 -26 -114 -26q-104 0 -174.5 73t-70.5 170t70.5 170t174.5 73q57 0 114 -26zM287 129q46 1 74 30.5t28 72.5t-28 72.5t-74 30.5q-46 -1 -74 -30.5t-28 -72.5t28 -72.5t74 -30.5z" />
    <glyph glyph-name="Gdotaccent" unicode="&#x120;" horiz-adv-x="809" 
d="M409 790q-39 0 -65 24.5t-26 60.5q0 37 26 62t65 25q41 0 66.5 -25t25.5 -62t-25.5 -61t-66.5 -24zM404 -10q-156 0 -262.5 103t-106.5 257t106.5 257t262.5 103q109 0 191 -47.5t131 -131.5l-151 -83q-53 97 -171 97q-78 0 -133.5 -56t-55.5 -139t55.5 -139t133.5 -56
q101 0 156 75h-154v145h368v-21q0 -160 -105.5 -262t-264.5 -102z" />
    <glyph glyph-name="gdotaccent" unicode="&#x121;" 
d="M297 540q-39 0 -65 24.5t-26 60.5q0 37 26 62t65 25q41 0 66.5 -25t25.5 -62t-25.5 -61t-66.5 -24zM389 449v15h150v-468q0 -103 -73.5 -170.5t-188.5 -67.5q-74 0 -129 31.5t-82 80.5l111 84q12 -22 40 -37t60 -15q51 0 81.5 27t30.5 67v19q-57 -26 -114 -26
q-104 0 -174.5 73t-70.5 170t70.5 170t174.5 73q57 0 114 -26zM287 129q46 1 74 30.5t28 72.5t-28 72.5t-74 30.5q-46 -1 -74 -30.5t-28 -72.5t28 -72.5t74 -30.5z" />
    <glyph glyph-name="uni0122" unicode="&#x122;" horiz-adv-x="809" 
d="M404 -10q-156 0 -262.5 103t-106.5 257t106.5 257t262.5 103q109 0 191 -47.5t131 -131.5l-151 -83q-53 97 -171 97q-78 0 -133.5 -56t-55.5 -139t55.5 -139t133.5 -56q101 0 156 75h-154v145h368v-21q0 -160 -105.5 -262t-264.5 -102zM469 -126q0 -18 -10 -35l-69 -114
h-75l53 87q-21 7 -33.5 24t-12.5 38q0 28 20.5 48t52.5 20q33 0 53.5 -20t20.5 -48z" />
    <glyph glyph-name="uni0123" unicode="&#x123;" 
d="M301 515q-33 0 -53.5 20t-20.5 48q0 18 10 35l69 114h75l-53 -87q21 -7 33.5 -24t12.5 -38q0 -28 -20.5 -48t-52.5 -20zM389 449v15h150v-468q0 -103 -73.5 -170.5t-188.5 -67.5q-74 0 -129 31.5t-82 80.5l111 84q12 -22 40 -37t60 -15q51 0 81.5 27t30.5 67v19
q-57 -26 -114 -26q-104 0 -174.5 73t-70.5 170t70.5 170t174.5 73q57 0 114 -26zM287 129q46 1 74 30.5t28 72.5t-28 72.5t-74 30.5q-46 -1 -74 -30.5t-28 -72.5t28 -72.5t74 -30.5z" />
    <glyph glyph-name="Hcircumflex" unicode="&#x124;" horiz-adv-x="764" 
d="M453 784l-66 58l-67 -58h-93l93 146h133l93 -146h-93zM524 438v262h170v-700h-170v278h-284v-278h-170v700h170v-262h284z" />
    <glyph glyph-name="hcircumflex" unicode="&#x125;" horiz-adv-x="543" 
d="M55 748h-93l93 146h133l93 -146h-93l-66 58zM205 0h-150v700h150v-254q41 29 104 29q77 0 130.5 -51.5t53.5 -127.5v-296h-150v265q0 31 -17.5 52.5t-51.5 21.5q-30 0 -49.5 -22t-19.5 -56v-261z" />
    <glyph glyph-name="Hbar" unicode="&#x126;" horiz-adv-x="770" 
d="M697 620h53v-113h-53v-507h-170v278h-284v-278h-170v507h-53v113h53v80h170v-80h284v80h170v-80zM243 438h284v69h-284v-69z" />
    <glyph glyph-name="hbar" unicode="&#x127;" horiz-adv-x="543" 
d="M309 475q77 0 130.5 -51.5t53.5 -127.5v-296h-150v265q0 31 -17.5 52.5t-51.5 21.5q-30 0 -49.5 -22t-19.5 -56v-261h-150v535h-50v90h50v75h150v-75h135v-90h-135v-89q41 29 104 29z" />
    <glyph glyph-name="Itilde" unicode="&#x128;" horiz-adv-x="461" 
d="M187 842q-12 0 -20 -9.5t-8 -23.5h-82q0 68 29.5 100t70.5 32q35 0 66.5 -21t40.5 -21q12 0 20 9.5t8 23.5h82q0 -71 -29 -101.5t-71 -30.5q-29 0 -60.5 21t-46.5 21zM396 700v-150h-81v-400h81v-150h-331v150h81v400h-81v150h331z" />
    <glyph glyph-name="itilde" unicode="&#x129;" horiz-adv-x="230" 
d="M176 550q-29 0 -60.5 21t-46.5 21q-12 0 -20 -9.5t-8 -23.5h-82q0 68 29.5 100t70.5 32q35 0 66.5 -21t40.5 -21q12 0 20 9.5t8 23.5h82q0 -71 -29 -101.5t-71 -30.5zM190 0h-150v464h150v-464z" />
    <glyph glyph-name="Imacron" unicode="&#x12a;" horiz-adv-x="461" 
d="M105 913h265v-100h-265v100zM396 700v-150h-81v-400h81v-150h-331v150h81v400h-81v150h331z" />
    <glyph glyph-name="imacron" unicode="&#x12b;" horiz-adv-x="230" 
d="M252 563h-265v100h265v-100zM190 0h-150v464h150v-464z" />
    <glyph glyph-name="Ibreve" unicode="&#x12c;" horiz-adv-x="461" 
d="M233 780q-63 0 -103.5 40t-40.5 106h86q0 -24 16 -40.5t42 -16.5q27 0 42 16t15 41h86q0 -65 -41 -105.5t-102 -40.5zM396 700v-150h-81v-400h81v-150h-331v150h81v400h-81v150h331z" />
    <glyph glyph-name="ibreve" unicode="&#x12d;" horiz-adv-x="230" 
d="M115 530q-63 0 -103.5 40t-40.5 106h86q0 -24 16 -40.5t42 -16.5q27 0 42 16t15 41h86q0 -65 -41 -105.5t-102 -40.5zM190 0h-150v464h150v-464z" />
    <glyph glyph-name="Iogonek" unicode="&#x12e;" horiz-adv-x="461" 
d="M395 -141l19 -88q-39 -13 -80 -13q-60 0 -104.5 32t-44.5 90q0 75 72 120h-192v150h81v400h-81v150h331v-150h-81v-400h81v-150h-1q-37 -10 -66 -34.5t-29 -57.5q0 -26 18.5 -39.5t44.5 -13.5q16 0 32 4z" />
    <glyph glyph-name="iogonek" unicode="&#x12f;" horiz-adv-x="230" 
d="M116 540q-39 0 -65 24.5t-26 60.5q0 37 26 62t65 25q41 0 66.5 -25t25.5 -62t-25.5 -61t-66.5 -24zM190 -141l19 -88q-39 -13 -80 -13q-60 0 -104.5 32t-44.5 90q0 75 72 120h-12v464h150v-464q-37 -10 -66 -34.5t-29 -57.5q0 -26 18.5 -39.5t44.5 -13.5q16 0 32 4z" />
    <glyph glyph-name="Idotaccent" unicode="&#x130;" horiz-adv-x="461" 
d="M234 790q-39 0 -65 24.5t-26 60.5q0 37 26 62t65 25q41 0 66.5 -25t25.5 -62t-25.5 -61t-66.5 -24zM396 700v-150h-81v-400h81v-150h-331v150h81v400h-81v150h331z" />
    <glyph glyph-name="dotlessi" unicode="&#x131;" horiz-adv-x="230" 
d="M190 0h-150v464h150v-464z" />
    <glyph glyph-name="IJ" unicode="&#x132;" horiz-adv-x="1049" 
d="M65 700h331v-150h-81v-400h81v-150h-331v150h81v400h-81v150zM819 274v426h170v-443q0 -120 -76 -193.5t-208 -73.5q-81 0 -145 43t-94 112l135 82q13 -32 40.5 -52t63.5 -20q54 0 84 31t30 88z" />
    <glyph glyph-name="ij" unicode="&#x133;" horiz-adv-x="456" 
d="M115 540q-39 0 -65 24.5t-26 60.5q0 37 26 62t65 25q41 0 66.5 -25t25.5 -62t-25.5 -61t-66.5 -24zM346 540q-39 0 -65 24.5t-26 60.5q0 37 26 62t65 25q41 0 66.5 -25t25.5 -62t-25.5 -61t-66.5 -24zM191 0h-150v464h150v-464zM186 -232v140q42 0 64 18t22 63v475h150
v-475q0 -221 -236 -221z" />
    <glyph glyph-name="Jcircumflex" unicode="&#x134;" horiz-adv-x="598" 
d="M367 784h-93l93 146h133l93 -146h-93l-66 58zM254 -10q-81 0 -145 43t-94 112l135 82q13 -32 40.5 -52t63.5 -20q54 0 84 31t30 88v426h170v-443q0 -120 -76 -193.5t-208 -73.5z" />
    <glyph glyph-name="jcircumflex" unicode="&#x135;" horiz-adv-x="236" 
d="M40 534h-93l93 146h133l93 -146h-93l-66 58zM-45 -232v140q42 0 64 18t22 63v475h150v-475q0 -221 -236 -221z" />
    <glyph glyph-name="uni0136" unicode="&#x136;" horiz-adv-x="657" 
d="M666 700l-273 -332l279 -368h-203l-234 312v-312h-165v700h165v-282l235 282h196zM355 -58q33 0 53.5 -20t20.5 -48q0 -18 -10 -35l-69 -114h-75l53 87q-21 7 -33.5 24t-12.5 38q0 28 20.5 48t52.5 20z" />
    <glyph glyph-name="uni0137" unicode="&#x137;" horiz-adv-x="510" 
d="M340 0l-135 198v-198h-150v700h150v-385l111 149h187l-162 -205l184 -259h-185zM272 -58q33 0 53.5 -20t20.5 -48q0 -18 -10 -35l-69 -114h-75l53 87q-21 7 -33.5 24t-12.5 38q0 28 20.5 48t52.5 20z" />
    <glyph glyph-name="kgreenlandic" unicode="&#x138;" horiz-adv-x="510" 
d="M341 259l184 -259h-185l-135 198v-198h-150v464h150v-149l111 149h187z" />
    <glyph glyph-name="Lacute" unicode="&#x139;" horiz-adv-x="532" 
d="M188 784h-103l33 146h153zM517 0h-447v700h165v-545h282v-155z" />
    <glyph glyph-name="lacute" unicode="&#x13a;" horiz-adv-x="286" 
d="M156 748h-103l33 146h153zM256 -7h-33q-173 0 -173 181v526h150v-522q0 -45 56 -45v-140z" />
    <glyph glyph-name="uni013B" unicode="&#x13b;" horiz-adv-x="532" 
d="M517 0h-447v700h165v-545h282v-155zM392 -126q0 -18 -10 -35l-69 -114h-75l53 87q-21 7 -33.5 24t-12.5 38q0 28 20.5 48t52.5 20q33 0 53.5 -20t20.5 -48z" />
    <glyph glyph-name="uni013C" unicode="&#x13c;" horiz-adv-x="286" 
d="M256 -7h-33q-173 0 -173 181v526h150v-522q0 -45 56 -45v-140zM228 -126q0 -18 -10 -35l-69 -114h-75l53 87q-21 7 -33.5 24t-12.5 38q0 28 20.5 48t52.5 20q33 0 53.5 -20t20.5 -48z" />
    <glyph glyph-name="Lcaron" unicode="&#x13d;" horiz-adv-x="537" 
d="M517 0h-447v700h165v-545h282v-155zM437 514h-93l10 186h133z" />
    <glyph glyph-name="lcaron" unicode="&#x13e;" horiz-adv-x="271" 
d="M256 -7h-33q-173 0 -173 181v526h150v-522q0 -45 56 -45v-140zM348 514h-93l10 186h133z" />
    <glyph glyph-name="Ldot" unicode="&#x13f;" horiz-adv-x="537" 
d="M517 0h-447v700h165v-545h282v-155zM403 306q-40 0 -65 25t-25 61t25 62t65 26q41 0 66 -25.5t25 -62.5q0 -36 -25 -61t-66 -25z" />
    <glyph glyph-name="ldot" unicode="&#x140;" horiz-adv-x="403" 
d="M256 -7h-33q-173 0 -173 181v526h150v-522q0 -45 56 -45v-140zM342 301q-40 0 -65 25t-25 61t25 62t65 26q41 0 66 -25.5t25 -62.5q0 -36 -25 -61t-66 -25z" />
    <glyph glyph-name="Lslash" unicode="&#x141;" horiz-adv-x="537" 
d="M235 306v-151h282v-155h-447v231l-65 -29v118l65 29v351h165v-276l190 86v-118z" />
    <glyph glyph-name="lslash" unicode="&#x142;" horiz-adv-x="328" 
d="M323 485v-108l-73 -44v-155q0 -45 56 -45v-140h-33q-173 0 -173 181v69l-60 -36v108l60 36v349h150v-259z" />
    <glyph glyph-name="Nacute" unicode="&#x143;" horiz-adv-x="754" 
d="M420 784h-103l33 146h153zM684 0h-165l-284 417v-417h-165v700h165l284 -415v415h165v-700z" />
    <glyph glyph-name="nacute" unicode="&#x144;" horiz-adv-x="543" 
d="M329 534h-103l33 146h153zM205 0h-150v464h144v-23q40 34 110 34q77 0 130.5 -51.5t53.5 -127.5v-296h-150v265q0 31 -17.5 52.5t-51.5 21.5q-31 0 -50 -20t-19 -54v-265z" />
    <glyph glyph-name="uni0145" unicode="&#x145;" horiz-adv-x="754" 
d="M684 0h-165l-284 417v-417h-165v700h165l284 -415v415h165v-700zM461 -126q0 -18 -10 -35l-69 -114h-75l53 87q-21 7 -33.5 24t-12.5 38q0 28 20.5 48t52.5 20q33 0 53.5 -20t20.5 -48z" />
    <glyph glyph-name="uni0146" unicode="&#x146;" horiz-adv-x="543" 
d="M205 0h-150v464h144v-23q40 34 110 34q77 0 130.5 -51.5t53.5 -127.5v-296h-150v265q0 31 -17.5 52.5t-51.5 21.5q-31 0 -50 -20t-19 -54v-265zM349 -126q0 -18 -10 -35l-69 -114h-75l53 87q-21 7 -33.5 24t-12.5 38q0 28 20.5 48t52.5 20q33 0 53.5 -20t20.5 -48z" />
    <glyph glyph-name="Ncaron" unicode="&#x147;" horiz-adv-x="754" 
d="M309 784l-93 146h93l67 -58l66 58h93l-93 -146h-133zM684 0h-165l-284 417v-417h-165v700h165l284 -415v415h165v-700z" />
    <glyph glyph-name="ncaron" unicode="&#x148;" horiz-adv-x="543" 
d="M218 534l-93 146h93l67 -58l66 58h93l-93 -146h-133zM205 0h-150v464h144v-23q40 34 110 34q77 0 130.5 -51.5t53.5 -127.5v-296h-150v265q0 31 -17.5 52.5t-51.5 21.5q-31 0 -50 -20t-19 -54v-265z" />
    <glyph glyph-name="napostrophe" unicode="&#x149;" horiz-adv-x="543" 
d="M79 613q0 -18 -10 -35l-69 -114h-75l53 87q-21 7 -33.5 24t-12.5 38q0 28 20.5 48t52.5 20q33 0 53.5 -20t20.5 -48zM205 0h-150v464h144v-23q40 34 110 34q77 0 130.5 -51.5t53.5 -127.5v-296h-150v265q0 31 -17.5 52.5t-51.5 21.5q-31 0 -50 -20t-19 -54v-265z" />
    <glyph glyph-name="Eng" unicode="&#x14a;" horiz-adv-x="754" 
d="M402 -210v154q56 0 86 21t30 54v11l-283 387v-417h-165v700h165l284 -395v395h165v-652q0 -118 -67.5 -188t-214.5 -70z" />
    <glyph glyph-name="eng" unicode="&#x14b;" horiz-adv-x="543" 
d="M257 -232v140q39 0 62.5 22t23.5 59v276q0 31 -17.5 52.5t-51.5 21.5q-30 0 -49.5 -22t-19.5 -56v-261h-150v464h144v-56q14 25 45.5 46t77.5 21q74 0 122.5 -51.5t48.5 -127.5v-307q0 -221 -236 -221z" />
    <glyph glyph-name="Omacron" unicode="&#x14c;" horiz-adv-x="817" 
d="M548 813h-265v100h265v-100zM408 -10q-158 0 -265.5 103t-107.5 257t107.5 257t265.5 103t266 -103t108 -257t-108 -257t-266 -103zM408 155q84 0 139 56t55 139t-55 139t-139 56q-83 0 -138 -56t-55 -139t55 -139t138 -56z" />
    <glyph glyph-name="omacron" unicode="&#x14d;" horiz-adv-x="574" 
d="M424 563h-265v100h265v-100zM287 -11q-113 0 -185 71.5t-72 171.5t72 171.5t185 71.5t185 -71.5t72 -171.5t-72 -171.5t-185 -71.5zM287 129q46 1 74 30.5t28 72.5t-28 72.5t-74 30.5q-46 -1 -74 -30.5t-28 -72.5t28 -72.5t74 -30.5z" />
    <glyph glyph-name="Obreve" unicode="&#x14e;" horiz-adv-x="817" 
d="M411 780q-63 0 -103.5 40t-40.5 106h86q0 -24 16 -40.5t42 -16.5q27 0 42 16t15 41h86q0 -65 -41 -105.5t-102 -40.5zM408 -10q-158 0 -265.5 103t-107.5 257t107.5 257t265.5 103t266 -103t108 -257t-108 -257t-266 -103zM408 155q84 0 139 56t55 139t-55 139t-139 56
q-83 0 -138 -56t-55 -139t55 -139t138 -56z" />
    <glyph glyph-name="obreve" unicode="&#x14f;" horiz-adv-x="574" 
d="M287 530q-63 0 -103.5 40t-40.5 106h86q0 -24 16 -40.5t42 -16.5q27 0 42 16t15 41h86q0 -65 -41 -105.5t-102 -40.5zM287 -11q-113 0 -185 71.5t-72 171.5t72 171.5t185 71.5t185 -71.5t72 -171.5t-72 -171.5t-185 -71.5zM287 129q46 1 74 30.5t28 72.5t-28 72.5
t-74 30.5q-46 -1 -74 -30.5t-28 -72.5t28 -72.5t74 -30.5z" />
    <glyph glyph-name="Ohungarumlaut" unicode="&#x150;" horiz-adv-x="817" 
d="M386 784h-93l38 146h133zM546 784h-93l38 146h133zM408 -10q-158 0 -265.5 103t-107.5 257t107.5 257t265.5 103t266 -103t108 -257t-108 -257t-266 -103zM408 155q84 0 139 56t55 139t-55 139t-139 56q-83 0 -138 -56t-55 -139t55 -139t138 -56z" />
    <glyph glyph-name="ohungarumlaut" unicode="&#x151;" horiz-adv-x="574" 
d="M262 534h-93l38 146h133zM422 534h-93l38 146h133zM287 -11q-113 0 -185 71.5t-72 171.5t72 171.5t185 71.5t185 -71.5t72 -171.5t-72 -171.5t-185 -71.5zM287 129q46 1 74 30.5t28 72.5t-28 72.5t-74 30.5q-46 -1 -74 -30.5t-28 -72.5t28 -72.5t74 -30.5z" />
    <glyph glyph-name="OE" unicode="&#x152;" horiz-adv-x="1116" 
d="M408 -10q-158 0 -265.5 103t-107.5 257t107.5 257t265.5 103q110 0 194 -53v43h459v-152h-292v-113h263v-150h-263v-133h292v-152h-459v43q-84 -53 -194 -53zM408 155q84 0 139 56t55 139t-55 139t-139 56q-83 0 -138 -56t-55 -139t55 -139t138 -56z" />
    <glyph glyph-name="oe" unicode="&#x153;" horiz-adv-x="923" 
d="M645 475q117 0 186.5 -79.5t60.5 -204.5h-345q24 -65 98 -66q64 2 91 46l117 -84q-75 -98 -208 -98q-107 0 -179 66q-72 -66 -179 -66q-113 0 -185 71.5t-72 171.5t72 171.5t185 71.5q107 0 179 -66q72 66 179 66zM550 283h192q-28 59 -97 61q-72 -2 -95 -61zM287 129
q42 1 69.5 26.5t31.5 63.5v13v13q-4 38 -31.5 63.5t-69.5 26.5q-46 -1 -74 -30.5t-28 -72.5t28 -72.5t74 -30.5z" />
    <glyph glyph-name="Racute" unicode="&#x154;" horiz-adv-x="629" 
d="M283 930h153l-83 -146h-103zM423 242l206 -242h-209l-180 232v-232h-170v700h288q100 0 170 -65t70 -165q0 -83 -47.5 -146t-127.5 -82zM328 550h-88v-164h88q37 0 63.5 21.5t26.5 62.5q0 40 -26.5 60t-63.5 20z" />
    <glyph glyph-name="racute" unicode="&#x155;" horiz-adv-x="374" 
d="M252 534h-103l33 146h153zM203 0h-148v464h142v-45q37 51 121 51h36v-141h-57q-46 0 -70 -25.5t-24 -73.5v-230z" />
    <glyph glyph-name="uni0156" unicode="&#x156;" horiz-adv-x="629" 
d="M423 242l206 -242h-209l-180 232v-232h-170v700h288q100 0 170 -65t70 -165q0 -83 -47.5 -146t-127.5 -82zM328 550h-88v-164h88q37 0 63.5 21.5t26.5 62.5q0 40 -26.5 60t-63.5 20zM346 -58q33 0 53.5 -20t20.5 -48q0 -18 -10 -35l-69 -114h-75l53 87q-21 7 -33.5 24
t-12.5 38q0 28 20.5 48t52.5 20z" />
    <glyph glyph-name="uni0157" unicode="&#x157;" horiz-adv-x="374" 
d="M203 0h-148v464h142v-45q37 51 121 51h36v-141h-57q-46 0 -70 -25.5t-24 -73.5v-230zM248 -126q0 -18 -10 -35l-69 -114h-75l53 87q-21 7 -33.5 24t-12.5 38q0 28 20.5 48t52.5 20q33 0 53.5 -20t20.5 -48z" />
    <glyph glyph-name="Rcaron" unicode="&#x158;" horiz-adv-x="629" 
d="M468 930l-93 -146h-133l-93 146h93l67 -58l66 58h93zM423 242l206 -242h-209l-180 232v-232h-170v700h288q100 0 170 -65t70 -165q0 -83 -47.5 -146t-127.5 -82zM328 550h-88v-164h88q37 0 63.5 21.5t26.5 62.5q0 40 -26.5 60t-63.5 20z" />
    <glyph glyph-name="rcaron" unicode="&#x159;" horiz-adv-x="374" 
d="M141 534l-93 146h93l67 -58l66 58h93l-93 -146h-133zM203 0h-148v464h142v-45q37 51 121 51h36v-141h-57q-46 0 -70 -25.5t-24 -73.5v-230z" />
    <glyph glyph-name="Sacute" unicode="&#x15a;" horiz-adv-x="594" 
d="M361 784h-103l33 146h153zM293 -10q-110 0 -174.5 52.5t-93.5 128.5l137 80q14 -44 47.5 -70t83.5 -26q96 0 96 62q0 53 -71 65l-66 12q-83 15 -135.5 66.5t-52.5 141.5q0 79 66 143.5t183 64.5q83 0 143 -37t91 -97l-138 -87q-23 66 -96 66q-31 0 -52.5 -14.5
t-21.5 -36.5q0 -41 56 -52l70 -14q100 -20 152 -76.5t52 -144.5q0 -95 -74 -161t-202 -66z" />
    <glyph glyph-name="sacute" unicode="&#x15b;" horiz-adv-x="407" 
d="M237 534h-103l33 146h153zM199 -11q-77 0 -122 35.5t-57 89.5l131 43q8 -37 51 -37q39 0 39 24q0 22 -34 26q-86 13 -130.5 48.5t-44.5 109.5q0 61 47.5 104t124.5 43q70 0 112.5 -32.5t55.5 -82.5l-128 -34q-6 25 -39 25q-14 0 -22.5 -6.5t-8.5 -15.5q0 -21 34 -25
q93 -13 136 -50t43 -102q0 -71 -50 -117t-138 -46z" />
    <glyph glyph-name="Scircumflex" unicode="&#x15c;" horiz-adv-x="594" 
d="M250 784h-93l93 146h133l93 -146h-93l-66 58zM293 -10q-110 0 -174.5 52.5t-93.5 128.5l137 80q14 -44 47.5 -70t83.5 -26q96 0 96 62q0 53 -71 65l-66 12q-83 15 -135.5 66.5t-52.5 141.5q0 79 66 143.5t183 64.5q83 0 143 -37t91 -97l-138 -87q-23 66 -96 66
q-31 0 -52.5 -14.5t-21.5 -36.5q0 -41 56 -52l70 -14q100 -20 152 -76.5t52 -144.5q0 -95 -74 -161t-202 -66z" />
    <glyph glyph-name="scircumflex" unicode="&#x15d;" horiz-adv-x="407" 
d="M126 534h-93l93 146h133l93 -146h-93l-66 58zM199 -11q-77 0 -122 35.5t-57 89.5l131 43q8 -37 51 -37q39 0 39 24q0 22 -34 26q-86 13 -130.5 48.5t-44.5 109.5q0 61 47.5 104t124.5 43q70 0 112.5 -32.5t55.5 -82.5l-128 -34q-6 25 -39 25q-14 0 -22.5 -6.5t-8.5 -15.5
q0 -21 34 -25q93 -13 136 -50t43 -102q0 -71 -50 -117t-138 -46z" />
    <glyph glyph-name="Scedilla" unicode="&#x15e;" horiz-adv-x="594" 
d="M569 217q0 -86 -62 -149.5t-171 -75.5l-17 -40q38 -1 64.5 -27t26.5 -65q0 -41 -35 -71.5t-94 -30.5q-63 0 -99 46l37 61q28 -30 62 -30q16 0 27.5 8t11.5 20q0 13 -12 21t-28 8t-28 -7l-25 29l29 78q-93 9 -149 59.5t-82 119.5l137 80q14 -44 47.5 -70t83.5 -26
q96 0 96 62q0 53 -71 65l-66 12q-83 15 -135.5 66.5t-52.5 141.5q0 79 66 143.5t183 64.5q83 0 143 -37t91 -97l-138 -87q-23 66 -96 66q-31 0 -52.5 -14.5t-21.5 -36.5q0 -41 56 -52l70 -14q100 -20 152 -76.5t52 -144.5z" />
    <glyph glyph-name="scedilla" unicode="&#x15f;" horiz-adv-x="407" 
d="M387 152q0 -64 -42 -108.5t-116 -52.5l-16 -39q38 -1 64.5 -27t26.5 -65q0 -41 -35 -71.5t-94 -30.5q-63 0 -99 46l37 61q28 -30 62 -30q16 0 27.5 8t11.5 20q0 13 -12 21t-28 8t-28 -7l-25 29l30 79q-55 11 -88 44t-43 77l131 43q8 -37 51 -37q39 0 39 24q0 22 -34 26
q-86 13 -130.5 48.5t-44.5 109.5q0 61 47.5 104t124.5 43q70 0 112.5 -32.5t55.5 -82.5l-128 -34q-6 25 -39 25q-14 0 -22.5 -6.5t-8.5 -15.5q0 -21 34 -25q93 -13 136 -50t43 -102z" />
    <glyph glyph-name="Scaron" unicode="&#x160;" horiz-adv-x="594" 
d="M250 784l-93 146h93l67 -58l66 58h93l-93 -146h-133zM293 -10q-110 0 -174.5 52.5t-93.5 128.5l137 80q14 -44 47.5 -70t83.5 -26q96 0 96 62q0 53 -71 65l-66 12q-83 15 -135.5 66.5t-52.5 141.5q0 79 66 143.5t183 64.5q83 0 143 -37t91 -97l-138 -87q-23 66 -96 66
q-31 0 -52.5 -14.5t-21.5 -36.5q0 -41 56 -52l70 -14q100 -20 152 -76.5t52 -144.5q0 -95 -74 -161t-202 -66z" />
    <glyph glyph-name="scaron" unicode="&#x161;" horiz-adv-x="407" 
d="M126 534l-93 146h93l67 -58l66 58h93l-93 -146h-133zM199 -11q-77 0 -122 35.5t-57 89.5l131 43q8 -37 51 -37q39 0 39 24q0 22 -34 26q-86 13 -130.5 48.5t-44.5 109.5q0 61 47.5 104t124.5 43q70 0 112.5 -32.5t55.5 -82.5l-128 -34q-6 25 -39 25q-14 0 -22.5 -6.5
t-8.5 -15.5q0 -21 34 -25q93 -13 136 -50t43 -102q0 -71 -50 -117t-138 -46z" />
    <glyph glyph-name="uni0162" unicode="&#x162;" horiz-adv-x="580" 
d="M377 545v-545h-51l-20 -48q38 -1 64.5 -27t26.5 -65q0 -41 -35 -71.5t-94 -30.5q-63 0 -99 46l37 61q28 -30 62 -30q16 0 27.5 8t11.5 20q0 13 -12 21t-28 8t-28 -7l-25 29l32 86h-43v545h-198v155h570v-155h-198z" />
    <glyph glyph-name="uni0163" unicode="&#x163;" horiz-adv-x="424" 
d="M379 464v-125h-127v-155q0 -54 55 -54h72v-137h-99l-17 -41q38 -1 64.5 -27t26.5 -65q0 -41 -35 -71.5t-94 -30.5q-63 0 -99 46l37 61q28 -30 62 -30q16 0 27.5 8t11.5 20q0 13 -12 21t-28 8t-28 -7l-25 29l33 88q-102 32 -102 155v182h-77v111h4q42 0 74.5 37t32.5 85v2
h116v-110h127z" />
    <glyph glyph-name="Tcaron" unicode="&#x164;" horiz-adv-x="580" 
d="M229 784l-93 146h93l67 -58l66 58h93l-93 -146h-133zM377 0h-174v545h-198v155h570v-155h-198v-545z" />
    <glyph glyph-name="tcaron" unicode="&#x165;" horiz-adv-x="424" 
d="M386 514h-93l10 186h133zM379 -7h-102q-175 0 -175 164v182h-77v111h4q42 0 74.5 37t32.5 85v2h116v-110h127v-125h-127v-155q0 -54 55 -54h72v-137z" />
    <glyph glyph-name="Tbar" unicode="&#x166;" horiz-adv-x="582" 
d="M575 700v-155h-198v-140h145v-120h-145v-285h-174v285h-143v120h143v140h-198v155h570z" />
    <glyph glyph-name="tbar" unicode="&#x167;" horiz-adv-x="372" 
d="M379 464v-125h-127v-44h104v-90h-104v-21q0 -54 55 -54h72v-137h-102q-175 0 -175 164v48h-71v90h71v44h-77v111h4q42 0 74.5 37t32.5 85v2h116v-110h127z" />
    <glyph glyph-name="Utilde" unicode="&#x168;" horiz-adv-x="724" 
d="M416 800q-29 0 -60.5 21t-46.5 21q-12 0 -20 -9.5t-8 -23.5h-82q0 68 29.5 100t70.5 32q35 0 66.5 -21t40.5 -21q12 0 20 9.5t8 23.5h82q0 -71 -29 -101.5t-71 -30.5zM362 -10q-130 0 -211 80t-81 211v419h170v-409q0 -63 32.5 -100t89.5 -37t89.5 37t32.5 100v409h170
v-419q0 -131 -81 -211t-211 -80z" />
    <glyph glyph-name="utilde" unicode="&#x169;" horiz-adv-x="498" 
d="M310 550q-29 0 -60.5 21t-46.5 21q-12 0 -20 -9.5t-8 -23.5h-82q0 68 29.5 100t70.5 32q35 0 66.5 -21t40.5 -21q12 0 20 9.5t8 23.5h82q0 -71 -29 -101.5t-71 -30.5zM249 -11q-106 0 -162.5 61t-56.5 157v257h150v-263q0 -29 18 -50t51 -21t51 21t18 50v263h150v-257
q0 -96 -56.5 -157t-162.5 -61z" />
    <glyph glyph-name="Umacron" unicode="&#x16a;" horiz-adv-x="724" 
d="M492 813h-265v100h265v-100zM362 -10q-130 0 -211 80t-81 211v419h170v-409q0 -63 32.5 -100t89.5 -37t89.5 37t32.5 100v409h170v-419q0 -131 -81 -211t-211 -80z" />
    <glyph glyph-name="umacron" unicode="&#x16b;" horiz-adv-x="498" 
d="M386 563h-265v100h265v-100zM249 -11q-106 0 -162.5 61t-56.5 157v257h150v-263q0 -29 18 -50t51 -21t51 21t18 50v263h150v-257q0 -96 -56.5 -157t-162.5 -61z" />
    <glyph glyph-name="Ubreve" unicode="&#x16c;" horiz-adv-x="724" 
d="M355 780q-63 0 -103.5 40t-40.5 106h86q0 -24 16 -40.5t42 -16.5q27 0 42 16t15 41h86q0 -65 -41 -105.5t-102 -40.5zM362 -10q-130 0 -211 80t-81 211v419h170v-409q0 -63 32.5 -100t89.5 -37t89.5 37t32.5 100v409h170v-419q0 -131 -81 -211t-211 -80z" />
    <glyph glyph-name="ubreve" unicode="&#x16d;" horiz-adv-x="498" 
d="M249 530q-63 0 -103.5 40t-40.5 106h86q0 -24 16 -40.5t42 -16.5q27 0 42 16t15 41h86q0 -65 -41 -105.5t-102 -40.5zM249 -11q-106 0 -162.5 61t-56.5 157v257h150v-263q0 -29 18 -50t51 -21t51 21t18 50v263h150v-257q0 -96 -56.5 -157t-162.5 -61z" />
    <glyph glyph-name="Uring" unicode="&#x16e;" horiz-adv-x="724" 
d="M357 761q-45 0 -74.5 28t-29.5 71t29.5 71t74.5 28t74.5 -28t29.5 -71q0 -44 -29 -71.5t-75 -27.5zM357 824q16 0 26.5 10.5t10.5 25.5t-10.5 25.5t-26.5 10.5t-26.5 -10.5t-10.5 -25.5t10.5 -25.5t26.5 -10.5zM362 -10q-130 0 -211 80t-81 211v419h170v-409
q0 -63 32.5 -100t89.5 -37t89.5 37t32.5 100v409h170v-419q0 -131 -81 -211t-211 -80z" />
    <glyph glyph-name="uring" unicode="&#x16f;" horiz-adv-x="498" 
d="M251 511q-45 0 -74.5 28t-29.5 71t29.5 71t74.5 28t74.5 -28t29.5 -71q0 -44 -29 -71.5t-75 -27.5zM251 574q16 0 26.5 10.5t10.5 25.5t-10.5 25.5t-26.5 10.5t-26.5 -10.5t-10.5 -25.5t10.5 -25.5t26.5 -10.5zM249 -11q-106 0 -162.5 61t-56.5 157v257h150v-263
q0 -29 18 -50t51 -21t51 21t18 50v263h150v-257q0 -96 -56.5 -157t-162.5 -61z" />
    <glyph glyph-name="Uhungarumlaut" unicode="&#x170;" horiz-adv-x="724" 
d="M330 784h-93l38 146h133zM490 784h-93l38 146h133zM362 -10q-130 0 -211 80t-81 211v419h170v-409q0 -63 32.5 -100t89.5 -37t89.5 37t32.5 100v409h170v-419q0 -131 -81 -211t-211 -80z" />
    <glyph glyph-name="uhungarumlaut" unicode="&#x171;" horiz-adv-x="498" 
d="M224 534h-93l38 146h133zM384 534h-93l38 146h133zM249 -11q-106 0 -162.5 61t-56.5 157v257h150v-263q0 -29 18 -50t51 -21t51 21t18 50v263h150v-257q0 -96 -56.5 -157t-162.5 -61z" />
    <glyph glyph-name="Uogonek" unicode="&#x172;" horiz-adv-x="724" 
d="M484 291v409h170v-419q0 -111 -59 -186.5t-159 -96.5q-35 -11 -61 -35t-26 -55q0 -26 18.5 -39.5t44.5 -13.5q16 0 32 4l19 -88q-39 -13 -80 -13q-60 0 -104.5 32t-44.5 90q0 70 65 115q-105 19 -167 95.5t-62 190.5v419h170v-409q0 -63 32.5 -100t89.5 -37t89.5 37
t32.5 100z" />
    <glyph glyph-name="uogonek" unicode="&#x173;" horiz-adv-x="498" 
d="M318 201v263h150v-257q0 -78 -38 -134.5t-111 -75.5q-35 -11 -60.5 -34.5t-25.5 -54.5q0 -26 18.5 -39.5t44.5 -13.5q16 0 32 4l19 -88q-39 -13 -80 -13q-60 0 -104.5 32t-44.5 90q0 72 66 116q-76 18 -115 75t-39 136v257h150v-263q0 -29 18 -50t51 -21t51 21t18 50z
" />
    <glyph glyph-name="Wcircumflex" unicode="&#x174;" horiz-adv-x="1024" 
d="M452 784h-93l93 146h133l93 -146h-93l-66 58zM395 0h-187l-203 700h181l119 -454l124 454h166l124 -454l119 454h181l-203 -700h-187l-117 407z" />
    <glyph glyph-name="wcircumflex" unicode="&#x175;" horiz-adv-x="754" 
d="M300 534h-93l93 146h133l93 -146h-93l-66 58zM293 0h-135l-153 464h160l79 -260l75 260h116l75 -260l79 260h160l-153 -464h-135l-84 244z" />
    <glyph glyph-name="Ycircumflex" unicode="&#x176;" horiz-adv-x="709" 
d="M291 784h-93l93 146h133l93 -146h-93l-66 58zM447 0h-170v245l-272 455h193l159 -287l154 287h193l-257 -451v-249z" />
    <glyph glyph-name="ycircumflex" unicode="&#x177;" horiz-adv-x="559" 
d="M223 534h-93l93 146h133l93 -146h-93l-66 58zM190 -232h-176l178 322l-187 374h166l107 -225l112 225h164z" />
    <glyph glyph-name="Ydieresis" unicode="&#x178;" horiz-adv-x="709" 
d="M259 793q-32 0 -53 20.5t-21 52.5q0 33 21 53.5t53 20.5q34 0 55 -20.5t21 -53.5q0 -32 -21 -52.5t-55 -20.5zM455 793q-32 0 -53 20.5t-21 52.5q0 33 21 53.5t53 20.5q34 0 55 -20.5t21 -53.5q0 -32 -21 -52.5t-55 -20.5zM447 0h-170v245l-272 455h193l159 -287l154 287
h193l-257 -451v-249z" />
    <glyph glyph-name="Zacute" unicode="&#x179;" horiz-adv-x="587" 
d="M337 784h-103l33 146h153zM552 0h-537l292 545h-263v155h528l-286 -545h266v-155z" />
    <glyph glyph-name="zacute" unicode="&#x17a;" horiz-adv-x="480" 
d="M293 534h-103l33 146h153zM444 0h-419l194 334h-173v130h409l-185 -329h174v-135z" />
    <glyph glyph-name="Zdotaccent" unicode="&#x17b;" horiz-adv-x="587" 
d="M293 790q-39 0 -65 24.5t-26 60.5q0 37 26 62t65 25q41 0 66.5 -25t25.5 -62t-25.5 -61t-66.5 -24zM552 0h-537l292 545h-263v155h528l-286 -545h266v-155z" />
    <glyph glyph-name="zdotaccent" unicode="&#x17c;" horiz-adv-x="480" 
d="M249 540q-39 0 -65 24.5t-26 60.5q0 37 26 62t65 25q41 0 66.5 -25t25.5 -62t-25.5 -61t-66.5 -24zM444 0h-419l194 334h-173v130h409l-185 -329h174v-135z" />
    <glyph glyph-name="Zcaron" unicode="&#x17d;" horiz-adv-x="587" 
d="M226 784l-93 146h93l67 -58l66 58h93l-93 -146h-133zM552 0h-537l292 545h-263v155h528l-286 -545h266v-155z" />
    <glyph glyph-name="zcaron" unicode="&#x17e;" horiz-adv-x="480" 
d="M182 534l-93 146h93l67 -58l66 58h93l-93 -146h-133zM444 0h-419l194 334h-173v130h409l-185 -329h174v-135z" />
    <glyph glyph-name="uni01CD" unicode="&#x1cd;" horiz-adv-x="655" 
d="M488 930l-93 -146h-133l-93 146h93l67 -58l66 58h93zM665 0h-178l-37 119h-245l-37 -119h-178l238 700h208zM328 514l-75 -240h149z" />
    <glyph glyph-name="uni01CE" unicode="&#x1ce;" horiz-adv-x="512" 
d="M187 534l-93 146h93l67 -58l66 58h93l-93 -146h-133zM212 -11q-81 0 -129 44t-48 109q0 60 43 96.5t112 36.5h96q32 0 32 29q0 15 -20 29t-55 14q-60 0 -88 -52l-106 68q24 48 75.5 80t118.5 32q106 0 162.5 -62t56.5 -143v-270h-140v16q-40 -27 -110 -27zM237 103
q35 0 57 19t22 45v6h-93q-16 0 -26.5 -9.5t-10.5 -24.5q0 -16 14 -26t37 -10z" />
    <glyph glyph-name="uni01CF" unicode="&#x1cf;" horiz-adv-x="461" 
d="M393 930l-93 -146h-133l-93 146h93l67 -58l66 58h93zM396 700v-150h-81v-400h81v-150h-331v150h81v400h-81v150h331z" />
    <glyph glyph-name="uni01D0" unicode="&#x1d0;" horiz-adv-x="230" 
d="M49 534l-93 146h93l67 -58l66 58h93l-93 -146h-133zM190 0h-150v464h150v-464z" />
    <glyph glyph-name="uni01D1" unicode="&#x1d1;" horiz-adv-x="817" 
d="M345 784l-93 146h93l67 -58l66 58h93l-93 -146h-133zM408 -10q-158 0 -265.5 103t-107.5 257t107.5 257t265.5 103t266 -103t108 -257t-108 -257t-266 -103zM408 155q84 0 139 56t55 139t-55 139t-139 56q-83 0 -138 -56t-55 -139t55 -139t138 -56z" />
    <glyph glyph-name="uni01D2" unicode="&#x1d2;" horiz-adv-x="574" 
d="M221 534l-93 146h93l67 -58l66 58h93l-93 -146h-133zM287 -11q-113 0 -185 71.5t-72 171.5t72 171.5t185 71.5t185 -71.5t72 -171.5t-72 -171.5t-185 -71.5zM287 129q46 1 74 30.5t28 72.5t-28 72.5t-74 30.5q-46 -1 -74 -30.5t-28 -72.5t28 -72.5t74 -30.5z" />
    <glyph glyph-name="Gcaron" unicode="&#x1e6;" horiz-adv-x="809" 
d="M342 784l-93 146h93l67 -58l66 58h93l-93 -146h-133zM404 -10q-156 0 -262.5 103t-106.5 257t106.5 257t262.5 103q109 0 191 -47.5t131 -131.5l-151 -83q-53 97 -171 97q-78 0 -133.5 -56t-55.5 -139t55.5 -139t133.5 -56q101 0 156 75h-154v145h368v-21
q0 -160 -105.5 -262t-264.5 -102z" />
    <glyph glyph-name="gcaron" unicode="&#x1e7;" 
d="M456 680l-93 -146h-133l-93 146h93l67 -58l66 58h93zM389 449v15h150v-468q0 -103 -73.5 -170.5t-188.5 -67.5q-74 0 -129 31.5t-82 80.5l111 84q12 -22 40 -37t60 -15q51 0 81.5 27t30.5 67v19q-57 -26 -114 -26q-104 0 -174.5 73t-70.5 170t70.5 170t174.5 73
q57 0 114 -26zM287 129q46 1 74 30.5t28 72.5t-28 72.5t-74 30.5q-46 -1 -74 -30.5t-28 -72.5t28 -72.5t74 -30.5z" />
    <glyph glyph-name="uni0218" unicode="&#x218;" horiz-adv-x="594" 
d="M293 -10q-110 0 -174.5 52.5t-93.5 128.5l137 80q14 -44 47.5 -70t83.5 -26q96 0 96 62q0 53 -71 65l-66 12q-83 15 -135.5 66.5t-52.5 141.5q0 79 66 143.5t183 64.5q83 0 143 -37t91 -97l-138 -87q-23 66 -96 66q-31 0 -52.5 -14.5t-21.5 -36.5q0 -41 56 -52l70 -14
q100 -20 152 -76.5t52 -144.5q0 -95 -74 -161t-202 -66zM371 -126q0 -18 -10 -35l-69 -114h-75l53 87q-21 7 -33.5 24t-12.5 38q0 28 20.5 48t52.5 20q33 0 53.5 -20t20.5 -48z" />
    <glyph glyph-name="uni0219" unicode="&#x219;" horiz-adv-x="407" 
d="M199 -11q-77 0 -122 35.5t-57 89.5l131 43q8 -37 51 -37q39 0 39 24q0 22 -34 26q-86 13 -130.5 48.5t-44.5 109.5q0 61 47.5 104t124.5 43q70 0 112.5 -32.5t55.5 -82.5l-128 -34q-6 25 -39 25q-14 0 -22.5 -6.5t-8.5 -15.5q0 -21 34 -25q93 -13 136 -50t43 -102
q0 -71 -50 -117t-138 -46zM265 -126q0 -18 -10 -35l-69 -114h-75l53 87q-21 7 -33.5 24t-12.5 38q0 28 20.5 48t52.5 20q33 0 53.5 -20t20.5 -48z" />
    <glyph glyph-name="uni021A" unicode="&#x21a;" horiz-adv-x="580" 
d="M377 0h-174v545h-198v155h570v-155h-198v-545zM358 -126q0 -18 -10 -35l-69 -114h-75l53 87q-21 7 -33.5 24t-12.5 38q0 28 20.5 48t52.5 20q33 0 53.5 -20t20.5 -48z" />
    <glyph glyph-name="uni021B" unicode="&#x21b;" horiz-adv-x="424" 
d="M379 -7h-102q-175 0 -175 164v182h-77v111h4q42 0 74.5 37t32.5 85v2h116v-110h127v-125h-127v-155q0 -54 55 -54h72v-137zM315 -126q0 -18 -10 -35l-69 -114h-75l53 87q-21 7 -33.5 24t-12.5 38q0 28 20.5 48t52.5 20q33 0 53.5 -20t20.5 -48z" />
    <glyph glyph-name="uni0237" unicode="&#x237;" horiz-adv-x="236" 
d="M-45 -232v140q42 0 64 18t22 63v475h150v-475q0 -221 -236 -221z" />
    <glyph glyph-name="circumflex" unicode="&#x2c6;" horiz-adv-x="459" 
d="M163 534h-93l93 146h133l93 -146h-93l-66 58z" />
    <glyph glyph-name="caron" unicode="&#x2c7;" horiz-adv-x="459" 
d="M163 534l-93 146h93l67 -58l66 58h93l-93 -146h-133z" />
    <glyph glyph-name="breve" unicode="&#x2d8;" horiz-adv-x="427" 
d="M214 530q-64 0 -104 40t-40 106h86q0 -24 16 -40.5t42 -16.5q27 0 42 16t15 41h86q0 -65 -41 -105.5t-102 -40.5z" />
    <glyph glyph-name="dotaccent" unicode="&#x2d9;" horiz-adv-x="323" 
d="M161 540q-39 0 -65 24.5t-26 60.5q0 37 26 62t65 25q41 0 66.5 -25t25.5 -62t-25.5 -61t-66.5 -24z" />
    <glyph glyph-name="ring" unicode="&#x2da;" horiz-adv-x="348" 
d="M174 511q-45 0 -74.5 28t-29.5 71t29.5 71t74.5 28t74.5 -28t29.5 -71q0 -44 -29 -71.5t-75 -27.5zM174 574q16 0 26.5 10.5t10.5 25.5t-10.5 25.5t-26.5 10.5t-26.5 -10.5t-10.5 -25.5t10.5 -25.5t26.5 -10.5z" />
    <glyph glyph-name="ogonek" unicode="&#x2db;" horiz-adv-x="369" 
d="M219 -242q-60 0 -104.5 32t-44.5 90q0 48 30 83.5t72 52.5l108 -16q-37 -10 -66 -34.5t-29 -57.5q0 -26 18.5 -39.5t44.5 -13.5q16 0 32 4l19 -88q-39 -13 -80 -13z" />
    <glyph glyph-name="tilde" unicode="&#x2dc;" horiz-adv-x="457" 
d="M287 550q-29 0 -60.5 21t-46.5 21q-12 0 -20 -9.5t-8 -23.5h-82q0 68 29.5 100t70.5 32q35 0 66.5 -21t40.5 -21q12 0 20 9.5t8 23.5h82q0 -71 -29 -101.5t-71 -30.5z" />
    <glyph glyph-name="hungarumlaut" unicode="&#x2dd;" horiz-adv-x="471" 
d="M163 534h-93l38 146h133zM323 534h-93l38 146h133z" />
    <glyph glyph-name="uni0312" unicode="&#x312;" horiz-adv-x="0" 
d="M-224 583q0 18 10 35l69 114h75l-53 -87q21 -7 33.5 -24t12.5 -38q0 -28 -20.5 -48t-52.5 -20q-33 0 -53.5 20t-20.5 48z" />
    <glyph glyph-name="uni0326" unicode="&#x326;" horiz-adv-x="0" 
d="M-70 -126q0 -18 -10 -35l-69 -114h-75l53 87q-21 7 -33.5 24t-12.5 38q0 28 20.5 48t52.5 20q33 0 53.5 -20t20.5 -48z" />
    <glyph glyph-name="Wgrave" unicode="&#x1e80;" horiz-adv-x="1024" 
d="M543 930l33 -146h-103l-83 146h153zM395 0h-187l-203 700h181l119 -454l124 454h166l124 -454l119 454h181l-203 -700h-187l-117 407z" />
    <glyph glyph-name="wgrave" unicode="&#x1e81;" horiz-adv-x="754" 
d="M391 680l33 -146h-103l-83 146h153zM293 0h-135l-153 464h160l79 -260l75 260h116l75 -260l79 260h160l-153 -464h-135l-84 244z" />
    <glyph glyph-name="Wacute" unicode="&#x1e82;" horiz-adv-x="1024" 
d="M563 784h-103l33 146h153zM395 0h-187l-203 700h181l119 -454l124 454h166l124 -454l119 454h181l-203 -700h-187l-117 407z" />
    <glyph glyph-name="wacute" unicode="&#x1e83;" horiz-adv-x="754" 
d="M411 534h-103l33 146h153zM293 0h-135l-153 464h160l79 -260l75 260h116l75 -260l79 260h160l-153 -464h-135l-84 244z" />
    <glyph glyph-name="Wdieresis" unicode="&#x1e84;" horiz-adv-x="1024" 
d="M420 793q-32 0 -53 20.5t-21 52.5q0 33 21 53.5t53 20.5q34 0 55 -20.5t21 -53.5q0 -32 -21 -52.5t-55 -20.5zM616 793q-32 0 -53 20.5t-21 52.5q0 33 21 53.5t53 20.5q34 0 55 -20.5t21 -53.5q0 -32 -21 -52.5t-55 -20.5zM395 0h-187l-203 700h181l119 -454l124 454h166
l124 -454l119 454h181l-203 -700h-187l-117 407z" />
    <glyph glyph-name="wdieresis" unicode="&#x1e85;" horiz-adv-x="754" 
d="M268 543q-32 0 -53 20.5t-21 52.5q0 33 21 53.5t53 20.5q34 0 55 -20.5t21 -53.5q0 -32 -21 -52.5t-55 -20.5zM464 543q-32 0 -53 20.5t-21 52.5q0 33 21 53.5t53 20.5q34 0 55 -20.5t21 -53.5q0 -32 -21 -52.5t-55 -20.5zM293 0h-135l-153 464h160l79 -260l75 260h116
l75 -260l79 260h160l-153 -464h-135l-84 244z" />
    <glyph glyph-name="uni1E9E" unicode="&#x1e9e;" horiz-adv-x="737" 
d="M501 -10q-64 0 -127 27.5t-93 60.5l92 128q55 -51 128 -51q41 0 63.5 16t22.5 44q0 41 -60 57l-179 46v103l71 119q-35 10 -66 10q-54 0 -83.5 -30.5t-29.5 -82.5v-437h-170v437q0 131 77.5 202t205.5 71q146 0 280 -83l-103 -186l45 -13q99 -29 145.5 -79.5t46.5 -133.5
q0 -102 -68 -163.5t-198 -61.5z" />
    <glyph glyph-name="uni1EBC" unicode="&#x1ebc;" horiz-adv-x="584" 
d="M378 800q-29 0 -60.5 21t-46.5 21q-12 0 -20 -9.5t-8 -23.5h-82q0 68 29.5 100t70.5 32q35 0 66.5 -21t40.5 -21q12 0 20 9.5t8 23.5h82q0 -71 -29 -101.5t-71 -30.5zM529 0h-459v700h459v-152h-292v-113h263v-150h-263v-133h292v-152z" />
    <glyph glyph-name="uni1EBD" unicode="&#x1ebd;" horiz-adv-x="565" 
d="M362 550q-29 0 -60.5 21t-46.5 21q-12 0 -20 -9.5t-8 -23.5h-82q0 68 29.5 100t70.5 32q35 0 66.5 -21t40.5 -21q12 0 20 9.5t8 23.5h82q0 -71 -29 -101.5t-71 -30.5zM287 -11q-113 0 -185 71.5t-72 171.5t72 171.5t185 71.5q117 0 186.5 -79.5t60.5 -204.5h-345
q24 -65 98 -66q64 2 91 46l117 -84q-75 -98 -208 -98zM192 283h192q-28 59 -97 61q-72 -2 -95 -61z" />
    <glyph glyph-name="Ygrave" unicode="&#x1ef2;" horiz-adv-x="709" 
d="M382 930l33 -146h-103l-83 146h153zM447 0h-170v245l-272 455h193l159 -287l154 287h193l-257 -451v-249z" />
    <glyph glyph-name="ygrave" unicode="&#x1ef3;" horiz-adv-x="559" 
d="M314 680l33 -146h-103l-83 146h153zM190 -232h-176l178 322l-187 374h166l107 -225l112 225h164z" />
    <glyph glyph-name="endash" unicode="&#x2013;" horiz-adv-x="577" 
d="M497 225h-417v115h417v-115z" />
    <glyph glyph-name="emdash" unicode="&#x2014;" horiz-adv-x="797" 
d="M717 225h-637v115h637v-115z" />
    <glyph glyph-name="quoteleft" unicode="&#x2018;" horiz-adv-x="241" 
d="M30 508q0 20 9 41l69 171h103l-58 -136q27 -9 42.5 -31.5t15.5 -49.5q0 -35 -25 -61.5t-65 -26.5q-42 0 -66.5 26t-24.5 67z" />
    <glyph glyph-name="quoteright" unicode="&#x2019;" horiz-adv-x="241" 
d="M211 675q0 -20 -9 -41l-69 -171h-103l58 136q-27 9 -42.5 31.5t-15.5 49.5q0 35 25 61.5t65 26.5q42 0 66.5 -26t24.5 -67z" />
    <glyph glyph-name="quotesinglbase" unicode="&#x201a;" horiz-adv-x="239" 
d="M211 71q0 -20 -9 -41l-69 -171h-103l58 136q-27 9 -42.5 31.5t-15.5 49.5q0 35 25 61.5t65 26.5q42 0 66.5 -26t24.5 -67z" />
    <glyph glyph-name="quotedblleft" unicode="&#x201c;" horiz-adv-x="461" 
d="M30 508q0 20 9 41l69 171h103l-58 -136q27 -9 42.5 -31.5t15.5 -49.5q0 -35 -25 -61.5t-65 -26.5q-42 0 -66.5 26t-24.5 67zM250 508q0 20 9 41l69 171h103l-58 -136q27 -9 42.5 -31.5t15.5 -49.5q0 -35 -25 -61.5t-65 -26.5q-42 0 -66.5 26t-24.5 67z" />
    <glyph glyph-name="quotedblright" unicode="&#x201d;" horiz-adv-x="461" 
d="M211 675q0 -20 -9 -41l-69 -171h-103l58 136q-27 9 -42.5 31.5t-15.5 49.5q0 35 25 61.5t65 26.5q42 0 66.5 -26t24.5 -67zM431 675q0 -20 -9 -41l-69 -171h-103l58 136q-27 9 -42.5 31.5t-15.5 49.5q0 35 25 61.5t65 26.5q42 0 66.5 -26t24.5 -67z" />
    <glyph glyph-name="quotedblbase" unicode="&#x201e;" horiz-adv-x="461" 
d="M211 71q0 -20 -9 -41l-69 -171h-103l58 136q-27 9 -42.5 31.5t-15.5 49.5q0 35 25 61.5t65 26.5q42 0 66.5 -26t24.5 -67zM431 71q0 -20 -9 -41l-69 -171h-103l58 136q-27 9 -42.5 31.5t-15.5 49.5q0 35 25 61.5t65 26.5q42 0 66.5 -26t24.5 -67z" />
    <glyph glyph-name="dagger" unicode="&#x2020;" horiz-adv-x="454" 
d="M273 55h-93l-11 349h-139v102h138v194h117v-194h139v-102h-140z" />
    <glyph glyph-name="daggerdbl" unicode="&#x2021;" horiz-adv-x="454" 
d="M285 55h-117v151h-138v102h139v139h-139v102h138v151h117v-151h139v-102h-140v-139h140v-102h-139v-151z" />
    <glyph glyph-name="bullet" unicode="&#x2022;" horiz-adv-x="354" 
d="M175 119q-43 0 -74 31t-31 74q0 45 31 77t74 32q45 0 77 -32t32 -77q0 -43 -32 -74t-77 -31z" />
    <glyph glyph-name="ellipsis" unicode="&#x2026;" horiz-adv-x="681" 
d="M120 -10q-40 0 -65 25t-25 61t25 62t65 26q41 0 66 -25.5t25 -62.5q0 -36 -25 -61t-66 -25zM340 -10q-40 0 -65 25t-25 61t25 62t65 26q41 0 66 -25.5t25 -62.5q0 -36 -25 -61t-66 -25zM560 -10q-40 0 -65 25t-25 61t25 62t65 26q41 0 66 -25.5t25 -62.5q0 -36 -25 -61
t-66 -25z" />
    <glyph glyph-name="perthousand" unicode="&#x2030;" horiz-adv-x="1076" 
d="M188 367q-62 0 -105 40t-43 101q0 62 43 102t105 40q61 0 103.5 -40.5t42.5 -101.5t-42.5 -101t-103.5 -40zM251 0h-125l361 639h125zM187 460q20 0 33.5 14t13.5 34t-14 34.5t-33 14.5q-20 0 -33.5 -14.5t-13.5 -34.5t13.5 -34t33.5 -14zM560 -11q-62 0 -105 40t-43 101
q0 62 43 102t105 40q61 0 103.5 -40.5t42.5 -101.5t-42.5 -101t-103.5 -40zM890 -11q-62 0 -105 40t-43 101q0 62 43 102t105 40q61 0 103.5 -40.5t42.5 -101.5t-42.5 -101t-103.5 -40zM559 82q20 0 33.5 14t13.5 34t-14 34.5t-33 14.5q-20 0 -33.5 -14.5t-13.5 -34.5
t13.5 -34t33.5 -14zM889 82q20 0 33.5 14t13.5 34t-14 34.5t-33 14.5q-20 0 -33.5 -14.5t-13.5 -34.5t13.5 -34t33.5 -14z" />
    <glyph glyph-name="guilsinglleft" unicode="&#x2039;" horiz-adv-x="301" 
d="M277 81h-127l-130 174l130 173h131l-114 -173z" />
    <glyph glyph-name="guilsinglright" unicode="&#x203a;" horiz-adv-x="301" 
d="M281 255l-130 -174h-127l110 174l-114 173h131z" />
    <glyph glyph-name="fraction" unicode="&#x2044;" horiz-adv-x="308" 
d="M44 -80h-144l364 780h144z" />
    <glyph glyph-name="Euro" unicode="&#x20ac;" horiz-adv-x="755" 
d="M586 231l134 -76q-44 -76 -123 -120.5t-174 -44.5q-115 0 -203.5 64t-120.5 168h-64v79h51q-1 6 -1 19q0 15 1 22h-51v78h65q32 103 120 166.5t203 63.5q96 0 174 -44t122 -120l-133 -76q-24 45 -66.5 71.5t-96.5 26.5q-49 0 -90 -24t-65 -64h212l-21 -78h-217
q-1 -7 -1 -22q0 -13 1 -19h207l-21 -79h-161q24 -42 64.5 -66t91.5 -24q54 0 96.5 27t66.5 72z" />
    <glyph glyph-name="uni2116" unicode="&#x2116;" horiz-adv-x="1168" 
d="M922 222q-91 0 -153.5 60.5t-62.5 152.5q0 93 62.5 154t153.5 61t153.5 -61t62.5 -154t-62.5 -153t-153.5 -60zM660 0h-165l-260 357v-357h-165v640h165l260 -355v355h165v-640zM922 354q34 0 57 23.5t23 57.5q0 36 -23 59.5t-57 23.5t-57 -23.5t-23 -59.5
q0 -34 23 -57.5t57 -23.5zM1098 39h-357v132h357v-132z" />
    <glyph glyph-name="trademark" unicode="&#x2122;" horiz-adv-x="727" 
d="M119 619h-79v81h249v-81h-79v-221h-91v221zM512 552l79 148h96v-302h-84v160l-91 -166l-92 166v-160h-84v302h96z" />
    <glyph glyph-name="minus" unicode="&#x2212;" horiz-adv-x="438" 
d="M428 264h-418v86h418v-86z" />
    <glyph glyph-name="CR" horiz-adv-x="0" 
 />
    <glyph glyph-name="i.loclTRK" horiz-adv-x="230" 
d="M116 540q-39 0 -65 24.5t-26 60.5q0 37 26 62t65 25q41 0 66.5 -25t25.5 -62t-25.5 -61t-66.5 -24zM190 0h-150v464h150v-464z" />
    <glyph glyph-name="a.ss01" 
d="M389 449v15h150v-464h-150v15q-57 -26 -114 -26q-104 0 -174.5 73t-70.5 170t70.5 170t174.5 73q57 0 114 -26zM287 129q46 1 74 30.5t28 72.5t-28 72.5t-74 30.5q-46 -1 -74 -30.5t-28 -72.5t28 -72.5t74 -30.5z" />
    <glyph glyph-name="aacute.ss01" 
d="M272 680h153l-83 -146h-103zM389 449v15h150v-464h-150v15q-57 -26 -114 -26q-104 0 -174.5 73t-70.5 170t70.5 170t174.5 73q57 0 114 -26zM287 129q46 1 74 30.5t28 72.5t-28 72.5t-74 30.5q-46 -1 -74 -30.5t-28 -72.5t28 -72.5t74 -30.5z" />
    <glyph glyph-name="abreve.ss01" 
d="M297 530q-63 0 -103.5 40t-40.5 106h86q0 -24 16 -40.5t42 -16.5q27 0 42 16t15 41h86q0 -65 -41 -105.5t-102 -40.5zM389 449v15h150v-464h-150v15q-57 -26 -114 -26q-104 0 -174.5 73t-70.5 170t70.5 170t174.5 73q57 0 114 -26zM287 129q46 1 74 30.5t28 72.5
t-28 72.5t-74 30.5q-46 -1 -74 -30.5t-28 -72.5t28 -72.5t74 -30.5z" />
    <glyph glyph-name="uni01CE.ss01" 
d="M457 680l-93 -146h-133l-93 146h93l67 -58l66 58h93zM389 449v15h150v-464h-150v15q-57 -26 -114 -26q-104 0 -174.5 73t-70.5 170t70.5 170t174.5 73q57 0 114 -26zM287 129q46 1 74 30.5t28 72.5t-28 72.5t-74 30.5q-46 -1 -74 -30.5t-28 -72.5t28 -72.5t74 -30.5z" />
    <glyph glyph-name="acircumflex.ss01" 
d="M364 534l-66 58l-67 -58h-93l93 146h133l93 -146h-93zM389 449v15h150v-464h-150v15q-57 -26 -114 -26q-104 0 -174.5 73t-70.5 170t70.5 170t174.5 73q57 0 114 -26zM287 129q46 1 74 30.5t28 72.5t-28 72.5t-74 30.5q-46 -1 -74 -30.5t-28 -72.5t28 -72.5t74 -30.5z
" />
    <glyph glyph-name="adieresis.ss01" 
d="M199 543q-32 0 -53 20.5t-21 52.5q0 33 21 53.5t53 20.5q34 0 55 -20.5t21 -53.5q0 -32 -21 -52.5t-55 -20.5zM395 543q-32 0 -53 20.5t-21 52.5q0 33 21 53.5t53 20.5q34 0 55 -20.5t21 -53.5q0 -32 -21 -52.5t-55 -20.5zM389 449v15h150v-464h-150v15q-57 -26 -114 -26
q-104 0 -174.5 73t-70.5 170t70.5 170t174.5 73q57 0 114 -26zM287 129q46 1 74 30.5t28 72.5t-28 72.5t-74 30.5q-46 -1 -74 -30.5t-28 -72.5t28 -72.5t74 -30.5z" />
    <glyph glyph-name="agrave.ss01" 
d="M322 680l33 -146h-103l-83 146h153zM389 449v15h150v-464h-150v15q-57 -26 -114 -26q-104 0 -174.5 73t-70.5 170t70.5 170t174.5 73q57 0 114 -26zM287 129q46 1 74 30.5t28 72.5t-28 72.5t-74 30.5q-46 -1 -74 -30.5t-28 -72.5t28 -72.5t74 -30.5z" />
    <glyph glyph-name="amacron.ss01" 
d="M169 663h265v-100h-265v100zM389 449v15h150v-464h-150v15q-57 -26 -114 -26q-104 0 -174.5 73t-70.5 170t70.5 170t174.5 73q57 0 114 -26zM287 129q46 1 74 30.5t28 72.5t-28 72.5t-74 30.5q-46 -1 -74 -30.5t-28 -72.5t28 -72.5t74 -30.5z" />
    <glyph glyph-name="aogonek.ss01" 
d="M539 -141l19 -88q-39 -13 -80 -13q-60 0 -104.5 32t-44.5 90q0 75 72 120h-12v15q-57 -26 -114 -26q-104 0 -174.5 73t-70.5 170t70.5 170t174.5 73q57 0 114 -26v15h150v-464q-37 -10 -66 -34.5t-29 -57.5q0 -26 18.5 -39.5t44.5 -13.5q16 0 32 4zM287 129q46 1 74 30.5
t28 72.5t-28 72.5t-74 30.5q-46 -1 -74 -30.5t-28 -72.5t28 -72.5t74 -30.5z" />
    <glyph glyph-name="aring.ss01" 
d="M299 511q-45 0 -74.5 28t-29.5 71t29.5 71t74.5 28t74.5 -28t29.5 -71q0 -44 -29 -71.5t-75 -27.5zM299 646q-16 0 -26.5 -10.5t-10.5 -25.5t10.5 -25.5t26.5 -10.5t26.5 10.5t10.5 25.5t-10.5 25.5t-26.5 10.5zM389 449v15h150v-464h-150v15q-57 -26 -114 -26
q-104 0 -174.5 73t-70.5 170t70.5 170t174.5 73q57 0 114 -26zM287 129q46 1 74 30.5t28 72.5t-28 72.5t-74 30.5q-46 -1 -74 -30.5t-28 -72.5t28 -72.5t74 -30.5z" />
    <glyph glyph-name="atilde.ss01" 
d="M251 592q-12 0 -20 -9.5t-8 -23.5h-82q0 68 29.5 100t70.5 32q35 0 66.5 -21t40.5 -21q12 0 20 9.5t8 23.5h82q0 -71 -29 -101.5t-71 -30.5q-29 0 -60.5 21t-46.5 21zM389 449v15h150v-464h-150v15q-57 -26 -114 -26q-104 0 -174.5 73t-70.5 170t70.5 170t174.5 73
q57 0 114 -26zM287 129q46 1 74 30.5t28 72.5t-28 72.5t-74 30.5q-46 -1 -74 -30.5t-28 -72.5t28 -72.5t74 -30.5z" />
    <glyph glyph-name="ae.ss01" horiz-adv-x="947" 
d="M275 -11q-104 0 -174.5 73t-70.5 170t70.5 170t174.5 73q57 0 114 -26v15h150v-28q55 39 130 39q118 0 186 -76.5t61 -207.5h-351q11 -34 38.5 -54.5t65.5 -21.5q30 1 57.5 13.5t39.5 32.5l111 -74q-75 -98 -208 -98q-75 0 -130 39v-28h-150v13q-52 -24 -114 -24z
M568 283h204q-13 33 -40.5 51.5t-62.5 19.5q-77 -2 -101 -71zM287 129q46 1 74 30.5t28 72.5t-28 72.5t-74 30.5q-46 -1 -74 -30.5t-28 -72.5t28 -72.5t74 -30.5z" />
    <glyph glyph-name="ordfeminine.ss01" horiz-adv-x="390" 
d="M263 626v16h97v-301h-97v16q-35 -23 -79 -23q-68 0 -111 47t-43 111q0 63 43 110t111 47q44 0 79 -23zM197 425q29 0 47.5 19.5t18.5 47.5t-18.5 47t-47.5 19q-30 0 -48.5 -19t-18.5 -47t18.5 -47.5t48.5 -19.5z" />
    <glyph glyph-name="zero.tf" horiz-adv-x="579" 
d="M289 -10q-117 0 -185 85.5t-68 243.5t68 244.5t185 86.5t185 -86.5t68 -244.5t-68 -243.5t-185 -85.5zM289 135q45 0 69 40.5t24 143.5t-24 144.5t-69 41.5t-69 -41.5t-24 -144.5t24 -143.5t69 -40.5z" />
    <glyph glyph-name="one.tf" horiz-adv-x="579" 
d="M434 0h-155v454l-146 -97v171l174 112h127v-640z" />
    <glyph glyph-name="two.tf" horiz-adv-x="579" 
d="M451 241l-87 -101h163v-140h-464l251 301q19 23 28.5 36.5t20 38t10.5 48.5q0 34 -24 57.5t-60 23.5t-59 -24t-23 -57q0 -37 30 -62l-90 -102q-41 25 -65.5 73.5t-24.5 106.5q0 82 63.5 146t168.5 64q113 0 178.5 -70.5t65.5 -155.5q0 -88 -82 -183z" />
    <glyph glyph-name="three.tf" horiz-adv-x="579" 
d="M269 -10q-137 0 -203 117l127 77q9 -20 30 -34.5t46 -14.5q36 0 60 23.5t24 57.5q0 32 -23.5 55.5t-60.5 23.5q-35 0 -61 -28l-87 80l122 158h-165v135h421l-165 -223h3q72 -6 124 -64.5t52 -136.5q0 -94 -69 -160t-175 -66z" />
    <glyph glyph-name="four.tf" horiz-adv-x="579" 
d="M504 0h-155v114h-312v115l310 411h157v-393h100v-133h-100v-114zM349 438l-144 -191h144v191z" />
    <glyph glyph-name="five.tf" horiz-adv-x="579" 
d="M270 -10q-142 0 -208 117l127 77q9 -21 30.5 -35t50.5 -14q39 0 64 25.5t25 60.5q0 34 -26 59t-63 25q-55 0 -81 -52l-113 51l46 336h353v-135h-235l-14 -96q33 24 85 24q89 0 148.5 -63.5t59.5 -153.5q0 -95 -70 -160.5t-179 -65.5z" />
    <glyph glyph-name="six.tf" horiz-adv-x="579" 
d="M495 640l-144 -198q80 -18 130 -79t50 -141q0 -96 -68.5 -164t-172.5 -68t-172.5 68t-68.5 164q0 70 40 128l207 290h199zM290 135q34 0 57.5 23.5t23.5 63.5t-24 63t-57 23t-57 -23t-24 -63t23.5 -63.5t57.5 -23.5z" />
    <glyph glyph-name="seven.tf" horiz-adv-x="579" 
d="M276 0h-182l208 495h-252v145h480z" />
    <glyph glyph-name="eight.tf" horiz-adv-x="579" 
d="M291 -10q-106 0 -170 56t-64 140q0 93 77 144q-67 50 -67 134q0 79 61 132.5t162 53.5q100 0 161 -53.5t61 -132.5q0 -83 -65 -133q78 -49 78 -145q0 -84 -64 -140t-170 -56zM290 393q30 0 46.5 18.5t16.5 42.5q0 25 -17.5 42t-45.5 17t-46 -17t-18 -42q0 -24 16.5 -42.5
t47.5 -18.5zM291 134q29 0 48 18t19 44t-17.5 45t-49.5 19t-49.5 -19t-17.5 -45t19 -44t48 -18z" />
    <glyph glyph-name="nine.tf" horiz-adv-x="579" 
d="M531 418q0 -70 -40 -128l-207 -290h-209l146 200q-77 20 -124.5 80.5t-47.5 137.5q0 96 68.5 164t172.5 68t172.5 -68t68.5 -164zM290 505q-34 0 -57.5 -23.5t-23.5 -63.5t24 -63t57 -23t57 23t24 63t-23.5 63.5t-57.5 23.5z" />
    <glyph glyph-name="exclamdown.case" horiz-adv-x="304" 
d="M155 710q41 0 66 -25t25 -61q0 -37 -25 -62.5t-66 -25.5q-40 0 -65 26t-25 62t25 61t65 25zM58 0l39 468h110l39 -468h-188z" />
    <glyph glyph-name="questiondown.case" horiz-adv-x="450" 
d="M225 536q-41 0 -66 25.5t-25 62.5q0 36 25 61t66 25q40 0 65 -25t25 -61t-25 -62t-65 -26zM320 192l110 -76q-24 -61 -77 -93.5t-118 -32.5q-113 0 -179 63t-66 146q0 45 16.5 79.5t39.5 55t46 38t39.5 38t16.5 44.5v14h150v-14q0 -40 -16 -70t-38 -48.5t-44.5 -34.5
t-38.5 -37t-16 -47q0 -38 24.5 -62.5t65.5 -24.5q37 1 57.5 20.5t27.5 41.5z" />
    <glyph glyph-name="parenleft.case" horiz-adv-x="442" 
d="M412 -35v-120q-34 5 -73 21t-83.5 42.5t-84.5 68.5t-73.5 93.5t-53 122.5t-19.5 152t19.5 152t53 122.5t73.5 93t84.5 68.5t83.5 42.5t73 21.5v-120q-23 -5 -51.5 -16.5t-68.5 -40.5t-71.5 -68.5t-54 -106.5t-22.5 -148t22.5 -148t54 -106.5t71.5 -68.5t68.5 -40.5
t51.5 -16.5z" />
    <glyph glyph-name="parenright.case" horiz-adv-x="432" 
d="M20 -155v120q23 5 51.5 16.5t68.5 40.5t71.5 68.5t54 106.5t22.5 148t-22.5 148t-54 106.5t-71.5 68.5t-68.5 40.5t-51.5 16.5v120q34 -6 73 -21.5t83.5 -42.5t84.5 -68.5t73.5 -93t53 -122.5t19.5 -152t-19.5 -152t-53 -122.5t-73.5 -93.5t-84.5 -68.5t-83.5 -42.5
t-73 -21z" />
    <glyph glyph-name="braceleft.case" horiz-adv-x="381" 
d="M366 -40v-110q-127 1 -197 69.5t-70 180.5v111q0 34 -17 56t-45 22h-12v112h12q28 0 45 22t17 56v111q0 112 70 180.5t197 69.5v-110q-71 0 -109.5 -37.5t-38.5 -102.5v-128q0 -95 -69 -117q69 -22 69 -117v-128q0 -65 38.5 -102.5t109.5 -37.5z" />
    <glyph glyph-name="braceright.case" horiz-adv-x="381" 
d="M15 -150v110q71 0 109.5 37.5t38.5 102.5v128q0 95 69 117q-69 22 -69 117v128q0 65 -38.5 102.5t-109.5 37.5v110q127 -1 197 -69.5t70 -180.5v-111q0 -34 17 -56t45 -22h12v-112h-12q-28 0 -45 -22t-17 -56v-111q0 -112 -70 -180.5t-197 -69.5z" />
    <glyph glyph-name="bracketleft.case" horiz-adv-x="327" 
d="M269 -150h-244v990h244v-110h-125v-770h125v-110z" />
    <glyph glyph-name="bracketright.case" horiz-adv-x="327" 
d="M302 840v-990h-244v110h125v770h-125v110h244z" />
    <glyph glyph-name="hyphen.case" horiz-adv-x="427" 
d="M347 410v-115h-267v115h267z" />
    <glyph glyph-name="endash.case" horiz-adv-x="577" 
d="M497 420v-115h-417v115h417z" />
    <glyph glyph-name="emdash.case" horiz-adv-x="797" 
d="M717 420v-115h-637v115h637z" />
    <glyph glyph-name="guillemotleft.case" horiz-adv-x="491" 
d="M277 161h-127l-130 174l130 173h131l-114 -173zM467 161h-127l-130 174l130 173h131l-114 -173z" />
    <glyph glyph-name="guillemotright.case" horiz-adv-x="491" 
d="M281 335l-130 -174h-127l110 174l-114 173h131zM471 335l-130 -174h-127l110 174l-114 173h131z" />
    <glyph glyph-name="guilsinglleft.case" horiz-adv-x="301" 
d="M277 161h-127l-130 174l130 173h131l-114 -173z" />
    <glyph glyph-name="guilsinglright.case" horiz-adv-x="301" 
d="M281 335l-130 -174h-127l110 174l-114 173h131z" />
    <glyph glyph-name="ampersand.ss01" horiz-adv-x="605" 
d="M499 0h-245q-97 0 -158 56.5t-61 138.5q0 95 75 147q-41 49 -41 116q0 82 59.5 137t151.5 55q53 0 96.5 -21t68.5 -58l-112 -94q-14 34 -53 34q-22 0 -39 -15.5t-17 -39.5t16.5 -41t40.5 -17h304v-129h-86v-269zM270 135h84v134h-92q-35 0 -54.5 -18t-19.5 -47
q0 -35 24.5 -52t57.5 -17z" />
    <glyph glyph-name="caron.Slovak" horiz-adv-x="283" 
d="M163 480h-93l10 186h133z" />
    </font>
</defs>
</svg>
