<svg width="110" height="42" viewBox="0 0 125 48" fill="none" xmlns="http://www.w3.org/2000/svg">
<g clip-path="url(#clip0_2132_7732)">
<path d="M22.5805 47.9999C23.8843 48.0008 25.1601 47.6228 26.2531 46.912C27.346 46.2012 28.2088 45.1881 28.7366 43.996C28.7948 43.8635 28.819 43.7186 28.807 43.5745C28.795 43.4303 28.7473 43.2913 28.668 43.1703C28.5888 43.0492 28.4806 42.9499 28.3533 42.8812C28.2259 42.8126 28.0834 42.7768 27.9387 42.7771H17.2272C17.0825 42.7768 16.94 42.8126 16.8127 42.8812C16.6853 42.9499 16.5771 43.0492 16.4979 43.1703C16.4187 43.2913 16.3709 43.4303 16.3589 43.5745C16.347 43.7186 16.3712 43.8635 16.4294 43.996C16.9573 45.187 17.8195 46.1992 18.9114 46.9099C20.0032 47.6206 21.2778 47.9992 22.5805 47.9999Z" fill="url(#paint0_linear_2132_7732)"/>
<path d="M39.0146 36.2961C38.6005 36.2961 38.1904 36.2145 37.8079 36.056C37.4253 35.8974 37.0777 35.665 36.785 35.3721C36.4923 35.0791 36.2602 34.7314 36.1019 34.3487C35.9437 33.966 35.8624 33.5559 35.8627 33.1418V22.0141C35.8627 16.1855 32.1863 11.0662 26.9709 9.18979C26.7086 9.09777 26.4682 8.95217 26.2651 8.76225C26.0621 8.57234 25.9008 8.34225 25.7914 8.08662C25.531 7.45025 25.0874 6.90561 24.5168 6.52185C23.9463 6.13808 23.2746 5.93248 22.587 5.93116C21.8994 5.92984 21.2269 6.13286 20.6549 6.51444C20.0829 6.89601 19.6372 7.43895 19.3744 8.07431C19.2675 8.32666 19.1088 8.55373 18.9086 8.74081C18.7084 8.92788 18.4711 9.07078 18.2121 9.16023C15.6089 10.0658 13.3522 11.7594 11.7553 14.0059C10.1584 16.2523 9.30044 18.9402 9.30057 21.6964V33.1393C9.30189 33.9723 8.97344 34.7719 8.38699 35.3634C7.80054 35.9549 7.00379 36.2903 6.17084 36.2961C5.97467 36.2939 5.77997 36.3303 5.59789 36.4033C5.41581 36.4764 5.24994 36.5846 5.10974 36.7218C4.96953 36.8591 4.85777 37.0226 4.78083 37.2031C4.7039 37.3835 4.66331 37.5774 4.66138 37.7736C4.66138 38.1654 4.81703 38.5412 5.0941 38.8183C5.37118 39.0954 5.74699 39.251 6.13883 39.251H39.0072C39.3991 39.251 39.7749 39.0954 40.052 38.8183C40.329 38.5412 40.4847 38.1654 40.4847 37.7736C40.4847 37.383 40.3301 37.0083 40.0546 36.7315C39.7791 36.4546 39.4052 36.2981 39.0146 36.2961Z" fill="url(#paint1_linear_2132_7732)"/>
<path d="M32.0978 6.4096C33.9126 6.8107 35.5542 7.77513 36.7881 9.16509C38.0219 10.5551 38.7849 12.2994 38.968 14.149C38.9866 14.3501 39.0843 14.5357 39.2397 14.6647C39.3951 14.7938 39.5954 14.8559 39.7966 14.8372C39.9977 14.8186 40.1832 14.7209 40.3123 14.5655C40.4414 14.4101 40.5034 14.2098 40.4848 14.0086C40.2807 11.833 39.3886 9.77902 37.938 8.14471C36.4875 6.51041 34.5539 5.38081 32.4179 4.91983C32.3654 4.90803 32.3117 4.90225 32.2579 4.9026C32.0714 4.9055 31.8925 4.97652 31.7548 5.10228C31.6172 5.22803 31.5303 5.39983 31.5106 5.58524C31.4909 5.77065 31.5398 5.95686 31.648 6.10872C31.7561 6.26059 31.9161 6.36762 32.0978 6.4096Z" fill="url(#paint2_linear_2132_7732)"/>
<path d="M32.9521 1.50708C35.7781 2.12903 38.3349 3.62896 40.2566 5.79222C42.1784 7.95549 43.3667 10.6712 43.6513 13.5508C43.6603 13.6503 43.6888 13.7471 43.7353 13.8356C43.7818 13.924 43.8453 14.0025 43.9222 14.0663C43.9991 14.1301 44.0878 14.1782 44.1833 14.2076C44.2788 14.237 44.3792 14.2473 44.4787 14.2378C44.5784 14.2292 44.6755 14.2008 44.7642 14.1545C44.853 14.1081 44.9317 14.0447 44.9958 13.9678C45.0599 13.8908 45.1081 13.802 45.1377 13.7063C45.1673 13.6107 45.1777 13.5101 45.1682 13.4104C44.8667 10.2048 43.5521 7.17858 41.415 4.77043C39.2778 2.36229 36.4291 0.697455 33.2821 0.0173184C33.2293 0.00684852 33.1758 0.00108218 33.122 8.33952e-05C32.9322 -0.00272556 32.7482 0.0655131 32.6061 0.191408C32.464 0.317303 32.3742 0.49176 32.3541 0.680526C32.3341 0.869292 32.3853 1.05874 32.4978 1.21167C32.6102 1.3646 32.7758 1.46996 32.9619 1.50708H32.9521Z" fill="url(#paint3_linear_2132_7732)"/>
<path d="M13.0631 6.40967C13.2492 6.37255 13.4148 6.26718 13.5272 6.11425C13.6397 5.96133 13.6909 5.77188 13.6709 5.58311C13.6508 5.39435 13.5609 5.21989 13.4189 5.094C13.2768 4.9681 13.0928 4.89986 12.903 4.90267C12.8492 4.90245 12.7955 4.90822 12.7429 4.9199C10.6069 5.38088 8.67335 6.51048 7.2228 8.14478C5.77225 9.77909 4.88018 11.8331 4.67603 14.0087C4.65834 14.21 4.72123 14.4102 4.85088 14.5652C4.91387 14.6428 4.99195 14.7069 5.08041 14.7534C5.16887 14.8 5.26587 14.8281 5.36552 14.8361C5.4652 14.8459 5.56584 14.8359 5.66163 14.8066C5.75742 14.7773 5.84647 14.7294 5.92362 14.6655C6.00077 14.6016 6.06449 14.5231 6.11113 14.4345C6.15777 14.3458 6.18641 14.2488 6.19535 14.1491C6.37755 12.2996 7.13989 10.5551 8.37339 9.16501C9.60689 7.77495 11.2484 6.81053 13.0631 6.40967Z" fill="url(#paint4_linear_2132_7732)"/>
<path d="M12.2086 1.50708C12.3948 1.46996 12.5603 1.3646 12.6728 1.21167C12.7852 1.05874 12.8365 0.869292 12.8164 0.680526C12.7964 0.49176 12.7065 0.317303 12.5644 0.191408C12.4223 0.0655131 12.2383 -0.00272556 12.0485 8.33952e-05C11.9956 0.000946957 11.9428 0.00671534 11.8909 0.0173184C8.74386 0.697455 5.89521 2.36229 3.75803 4.77043C1.62085 7.17858 0.306247 10.2048 0.00481955 13.4104C-0.00496335 13.51 0.00524829 13.6105 0.0348484 13.7061C0.0644484 13.8017 0.112828 13.8903 0.177177 13.9669C0.24017 14.0446 0.318275 14.1086 0.406737 14.1551C0.495198 14.2017 0.592198 14.2298 0.691845 14.2378C0.791525 14.2476 0.892165 14.2376 0.987955 14.2084C1.08375 14.1791 1.17276 14.1311 1.24992 14.0672C1.32707 14.0034 1.39081 13.9248 1.43746 13.8362C1.4841 13.7476 1.51273 13.6506 1.52168 13.5508C1.80558 10.6729 2.992 7.95839 4.91139 5.79531C6.83078 3.63224 9.3849 2.13131 12.2086 1.50708Z" fill="url(#paint5_linear_2132_7732)"/>
<path d="M118.204 17.296C117.337 17.2875 116.478 17.4504 115.675 17.7754C114.872 18.1004 114.142 18.581 113.525 19.1896V9.54429C113.525 9.52791 113.522 9.5117 113.515 9.4966C113.509 9.4815 113.5 9.46782 113.488 9.45635C113.476 9.44489 113.463 9.43586 113.447 9.42982C113.432 9.42378 113.416 9.42084 113.399 9.42117H109.669C109.653 9.42084 109.636 9.42378 109.621 9.42982C109.606 9.43586 109.592 9.44489 109.58 9.45635C109.569 9.46782 109.559 9.4815 109.553 9.4966C109.547 9.5117 109.543 9.52791 109.543 9.54429V35.5819C109.543 35.5983 109.547 35.6145 109.553 35.6296C109.559 35.6447 109.569 35.6584 109.58 35.6699C109.592 35.6814 109.606 35.6904 109.621 35.6964C109.636 35.7025 109.653 35.7054 109.669 35.7051H113.399C113.416 35.7054 113.432 35.7025 113.447 35.6964C113.463 35.6904 113.476 35.6814 113.488 35.6699C113.5 35.6584 113.509 35.6447 113.515 35.6296C113.522 35.6145 113.525 35.5983 113.525 35.5819V25.0132C113.523 24.0748 113.878 23.1708 114.518 22.4848C115.159 21.7988 116.036 21.3822 116.972 21.3196C117.462 21.2922 117.952 21.3646 118.413 21.5324C118.874 21.7001 119.296 21.9597 119.654 22.2954C120.011 22.6311 120.297 23.0359 120.493 23.4853C120.69 23.9347 120.793 24.4194 120.797 24.9098V35.5819C120.797 35.6146 120.81 35.6459 120.833 35.669C120.856 35.6921 120.887 35.7051 120.92 35.7051H124.613C124.63 35.7054 124.646 35.7025 124.661 35.6964C124.676 35.6904 124.69 35.6814 124.702 35.6699C124.714 35.6584 124.723 35.6447 124.729 35.6296C124.736 35.6145 124.739 35.5983 124.739 35.5819V23.9347C124.742 22.1908 124.058 20.5159 122.835 19.2731C121.611 18.0304 119.947 17.32 118.204 17.296Z" fill="#121315"/>
<path d="M90.0312 16.6189H86.3178C86.285 16.6189 86.2534 16.6318 86.2299 16.6548C86.2064 16.6778 86.1929 16.7091 86.1923 16.742V28.3154C86.1883 28.791 86.088 29.2608 85.8973 29.6966C85.7067 30.1323 85.4297 30.5248 85.0831 30.8505C84.7364 31.1762 84.3274 31.4282 83.8807 31.5913C83.4339 31.7545 82.9587 31.8254 82.4838 31.7997C81.5728 31.7432 80.7179 31.3403 80.0943 30.6737C79.4708 30.0071 79.1257 29.1272 79.13 28.2144V16.742C79.1294 16.7091 79.1159 16.6778 79.0924 16.6548C79.0689 16.6318 79.0373 16.6189 79.0044 16.6189H75.2911C75.2585 16.6189 75.2271 16.6319 75.2041 16.655C75.181 16.678 75.168 16.7094 75.168 16.742V28.1455C75.1641 30.1012 75.9195 31.982 77.275 33.3917C78.6305 34.8014 80.4803 35.6299 82.4346 35.7027C83.43 35.7376 84.4222 35.5728 85.3529 35.2181C86.2836 34.8635 87.1339 34.326 87.8535 33.6375C88.5732 32.9491 89.1478 32.1235 89.5434 31.2094C89.9389 30.2953 90.1475 29.3113 90.1567 28.3154V16.742C90.1561 16.7091 90.1426 16.6778 90.1191 16.6548C90.0956 16.6318 90.064 16.6189 90.0312 16.6189Z" fill="#121315"/>
<path d="M64.8824 9.45581H55.471C55.4021 9.45581 55.3479 9.48044 55.3479 9.54938L55.3799 35.6511C55.3799 35.6674 55.3832 35.6837 55.3895 35.6988C55.3958 35.7139 55.4051 35.7275 55.4168 35.739C55.4285 35.7505 55.4424 35.7595 55.4576 35.7655C55.4728 35.7716 55.4891 35.7745 55.5055 35.7742H59.1991C59.2318 35.7742 59.2631 35.7612 59.2862 35.7381C59.3093 35.715 59.3223 35.6837 59.3223 35.6511V25.139H64.8996C69.2163 25.139 72.5972 21.6916 72.5972 17.2962C72.5972 12.9007 69.199 9.45581 64.8824 9.45581ZM64.8159 21.2287H59.5291C59.4638 21.2287 59.4012 21.2027 59.355 21.1565C59.3088 21.1104 59.2828 21.0477 59.2828 20.9824V16.8061C59.28 16.1784 59.0674 15.5696 58.6788 15.0765C58.2901 14.5835 57.7478 14.2345 57.1381 14.0852C57.1105 14.0785 57.086 14.0627 57.0686 14.0403C57.0512 14.018 57.0418 13.9904 57.042 13.962V13.4819C57.042 13.4479 57.0555 13.4153 57.0796 13.3913C57.1036 13.3673 57.1361 13.3538 57.1701 13.3538H64.875C66.8819 13.3538 68.4283 14.8116 68.6795 16.8012C68.7622 17.3527 68.7242 17.9156 68.5681 18.4509C68.412 18.9863 68.1415 19.4814 67.7752 19.9019C67.409 20.3225 66.9558 20.6585 66.447 20.8867C65.9382 21.1149 65.3859 21.2299 64.8282 21.2237L64.8159 21.2287Z" fill="#121315"/>
<path d="M92.6708 31.5412C93.3849 33.1073 95.2169 35.7274 99.4991 35.7274C104.392 35.7274 106.581 32.8389 106.581 29.9751C106.581 26.8331 104.503 24.9395 100.233 24.1811C98.0635 23.8166 97.1351 23.1296 97.1351 21.8885C97.1351 20.7312 98.1669 19.9531 99.701 19.9531C101.085 19.9531 102.25 20.7287 102.671 21.923C102.676 21.9362 102.683 21.9482 102.693 21.9584C102.703 21.9686 102.714 21.9766 102.727 21.9821C102.753 21.992 102.781 21.992 102.806 21.9821L105.877 20.6105C105.9 20.6002 105.918 20.5815 105.928 20.5581C105.937 20.5347 105.938 20.5085 105.928 20.485C104.988 18.0595 102.644 16.6116 99.6616 16.6116C95.4385 16.6116 93.2273 19.2858 93.2273 21.9255C93.2273 25.0429 95.2637 26.9267 99.4523 27.6777C101.681 28.1283 102.631 28.8375 102.631 30.0515C102.631 31.3639 101.476 32.147 99.5385 32.147C98.8191 32.1495 98.1138 31.9485 97.5038 31.5672C96.8938 31.186 96.4041 30.64 96.0911 29.9924C96.0825 29.9755 96.0695 29.9613 96.0534 29.9513C96.0374 29.9413 96.0189 29.936 96 29.9357C95.987 29.9324 95.9735 29.9324 95.9606 29.9357L92.7225 31.396C92.7082 31.4003 92.695 31.408 92.6842 31.4184C92.6734 31.4287 92.6651 31.4415 92.6601 31.4556C92.6551 31.4697 92.6534 31.4848 92.6553 31.4997C92.6571 31.5146 92.6624 31.5288 92.6708 31.5412Z" fill="#121315"/>
</g>
<defs>
<linearGradient id="paint0_linear_2132_7732" x1="29.7806" y1="31.445" x2="21.0144" y2="46.3476" gradientUnits="userSpaceOnUse">
<stop stop-color="#FF94A6"/>
<stop offset="0.32" stop-color="#E03DC1"/>
<stop offset="1" stop-color="#8247E5"/>
</linearGradient>
<linearGradient id="paint1_linear_2132_7732" x1="34.0036" y1="14.9346" x2="15.4936" y2="41.2357" gradientUnits="userSpaceOnUse">
<stop stop-color="#FF94A6"/>
<stop offset="0.32" stop-color="#E03DC1"/>
<stop offset="1" stop-color="#8247E5"/>
</linearGradient>
<linearGradient id="paint2_linear_2132_7732" x1="48.8768" y1="1.31978" x2="3.96955" y2="31.1274" gradientUnits="userSpaceOnUse">
<stop stop-color="#FF94A6"/>
<stop offset="0.32" stop-color="#E03DC1"/>
<stop offset="1" stop-color="#8247E5"/>
</linearGradient>
<linearGradient id="paint3_linear_2132_7732" x1="48.4555" y1="0.684638" x2="3.54584" y2="30.4923" gradientUnits="userSpaceOnUse">
<stop stop-color="#FF94A6"/>
<stop offset="0.32" stop-color="#E03DC1"/>
<stop offset="1" stop-color="#8247E5"/>
</linearGradient>
<linearGradient id="paint4_linear_2132_7732" x1="40.492" y1="-11.3124" x2="-4.41769" y2="18.4952" gradientUnits="userSpaceOnUse">
<stop stop-color="#FF94A6"/>
<stop offset="0.32" stop-color="#E03DC1"/>
<stop offset="1" stop-color="#8247E5"/>
</linearGradient>
<linearGradient id="paint5_linear_2132_7732" x1="38.2856" y1="-14.6366" x2="-6.60679" y2="15.1637" gradientUnits="userSpaceOnUse">
<stop stop-color="#FF94A6"/>
<stop offset="0.32" stop-color="#E03DC1"/>
<stop offset="1" stop-color="#8247E5"/>
</linearGradient>
<clipPath id="clip0_2132_7732">
<rect width="124.736" height="48" fill="white"/>
</clipPath>
</defs>
</svg>
