<?xml version="1.0" encoding="utf-8"?>
<!-- Generator: Adobe Illustrator 26.0.1, SVG Export Plug-In . SVG Version: 6.00 Build 0)  -->
<svg version="1.1" id="Layer_1" xmlns="http://www.w3.org/2000/svg" xmlns:xlink="http://www.w3.org/1999/xlink" x="0px" y="0px"
	 viewBox="0 0 32 32" style="enable-background:new 0 0 32 32;" xml:space="preserve">
<style type="text/css">
	.st0{clip-path:url(#SVGID_00000021111091338385925870000016623990107721533339_);}
	.st1{fill:#D53A94;}
	.st2{fill:#FFFFFF;stroke:#D53A94;stroke-width:1.5;stroke-miterlimit:10;}
</style>
<g>
	<defs>
		<rect id="SVGID_1_" x="4.6" y="2.3" width="27.4" height="27.4"/>
	</defs>
	<clipPath id="SVGID_00000105424468916474331560000012628957215516556165_">
		<use xlink:href="#SVGID_1_"  style="overflow:visible;"/>
	</clipPath>
	<g style="clip-path:url(#SVGID_00000105424468916474331560000012628957215516556165_);">
		<path class="st1" d="M20.8,7.4H10.6c-0.5,0-0.9,0.4-0.9,0.9s0.4,0.9,0.9,0.9h10.3c0.5,0,0.9-0.4,0.9-0.9S21.3,7.4,20.8,7.4z"/>
		<path class="st1" d="M17.4,10.9h-6.9c-0.5,0-0.9,0.4-0.9,0.9c0,0.5,0.4,0.9,0.9,0.9h6.9c0.5,0,0.9-0.4,0.9-0.9
			C18.3,11.2,17.9,10.9,17.4,10.9z"/>
		<path class="st1" d="M23.4,2.3H8c-1.9,0-3.4,1.5-3.4,3.4v17.1c0,0.3,0.2,0.6,0.5,0.8c0.1,0.1,0.2,0.1,0.4,0.1
			c0.2,0,0.4-0.1,0.5-0.2l4.9-4.1h12.5c1.9,0,3.4-1.5,3.4-3.4V5.7C26.8,3.8,25.3,2.3,23.4,2.3z M25.1,16c0,0.9-0.8,1.7-1.7,1.7H10.6
			c-0.2,0-0.4,0.1-0.5,0.2L6.3,21V5.7C6.3,4.8,7,4,8,4h15.4c0.9,0,1.7,0.8,1.7,1.7V16z"/>
		<path class="st1" d="M28.6,9.1c-0.5,0-0.9,0.4-0.9,0.9c0,0.5,0.4,0.9,0.9,0.9c0.9,0,1.7,0.8,1.7,1.7v14.5l-2.9-2.3
			c-0.2-0.1-0.3-0.2-0.5-0.2h-12c-0.9,0-1.7-0.8-1.7-1.7V22c0-0.5-0.4-0.9-0.9-0.9c-0.5,0-0.9,0.4-0.9,0.9v0.9
			c0,1.9,1.5,3.4,3.4,3.4h11.7l4.1,3.2c0.2,0.1,0.3,0.2,0.5,0.2c0.1,0,0.3,0,0.4-0.1c0.3-0.1,0.5-0.4,0.5-0.8V12.6
			C32,10.7,30.5,9.1,28.6,9.1z"/>
	</g>
</g>
<g>
	<path class="st2" d="M21.6,29.2H4c-1.8,0-3.3-1.5-3.3-3.3v-1c0-1.8,1.5-3.3,3.3-3.3h17.6c1.8,0,3.3,1.5,3.3,3.3v1
		C24.9,27.8,23.4,29.2,21.6,29.2z"/>
	<path class="st1" d="M8.9,25.1L8.9,24h0.8l-0.1,1.1l1-0.4l0.2,0.7l-1,0.3l0.7,0.8L9.8,27l-0.6-0.9L8.7,27l-0.6-0.5l0.7-0.8l-1-0.3
		L8,24.7L8.9,25.1z"/>
	<path class="st1" d="M12.9,25.1L12.8,24h0.8l-0.1,1.1l1-0.4l0.2,0.7l-1,0.3l0.7,0.8L13.8,27l-0.6-0.9L12.6,27L12,26.5l0.7-0.8
		l-1-0.3l0.2-0.7L12.9,25.1z"/>
	<path class="st1" d="M16.8,25.1L16.8,24h0.8l-0.1,1.1l1-0.4l0.2,0.7l-1,0.3l0.7,0.8L17.7,27l-0.6-0.9L16.6,27l-0.6-0.5l0.7-0.8
		l-1-0.3l0.2-0.7L16.8,25.1z"/>
	<path class="st1" d="M20.8,25.1L20.7,24h0.8l-0.1,1.1l1-0.4l0.2,0.7l-1,0.3l0.7,0.8L21.7,27l-0.6-0.9L20.5,27l-0.6-0.5l0.7-0.8
		l-1-0.3l0.2-0.7L20.8,25.1z"/>
	<g transform="translate(0.000000,1280.000000) scale(0.100000,-0.100000)">
		<path class="st1" d="M44.7,12567.3c-4.5-0.4-7.9-2.6-9.7-6.3c-0.3-0.7-0.6-1.4-0.6-1.6c0,0,0-0.1,0-0.1s0,0,0-0.1
			c0-0.1,0-0.2-0.1-0.3c-0.1-0.2-0.3-1.2-0.4-1.5c0-0.1,0-0.2,0-0.2c0-0.1,0-0.2,0-0.3c0-0.1,0-0.2,0-0.2c0-0.1-0.1-0.8-0.1-1.3
			c0-0.1,0-0.2,0-0.2c0,0,0,0,0-0.1c0-0.1,0-0.1,0-0.1c0,0,0,0,0-0.1c0,0,0-0.1,0-0.1s0-1.6,0-3.5l0-3.5l-0.1-0.1
			c-0.1,0-0.3-0.1-0.5-0.2c-0.7-0.1-1.1-0.3-1.5-0.5c-0.4-0.2-0.6-0.4-1-0.8c-0.8-0.9-1.4-2.3-1.4-4c0-0.4,0-12.4,0-12.8
			c0-0.7,0.1-1.3,0.2-1.4c0,0,0,0,0,0c0,0,0,0,0-0.1c0,0,0-0.1,0-0.1c0,0,0-0.1,0.1-0.3c0-0.1,0.1-0.2,0.1-0.2s0,0,0,0
			c0,0,0.2-0.2,0.2-0.3c0,0,0,0,0.1-0.1c0,0,0-0.1,0-0.1c0,0,0-0.1,0.1-0.1c0.1-0.1,0.1-0.1,0.1-0.1c0-0.1,0.3-0.5,0.5-0.6
			c0.1-0.1,0.1-0.1,0.1-0.1c-0.1,0.1-0.1,0.1,0,0c0,0,0.1-0.1,0.1-0.1c0,0,0.1,0,0.1-0.1c0.2-0.2,0.3-0.2,0.5-0.4
			c0.7-0.4,1.1-0.5,2.1-0.6c0.5-0.1,1.9-0.1,12.8-0.1c12.7,0,12.8,0,13.6,0.2c0.9,0.2,1.6,0.5,2.2,1.1c0.7,0.7,1,1.4,1.1,2.6
			c0,0.4,0.1,1.7,0.1,7c0,3.5,0,6.4,0,6.5c0,0,0,0.3,0,0.5c0,0.2,0,0.5,0,0.5c0,0,0,0.1,0,0.2c-0.1,0.6-0.3,1.4-0.6,1.9
			c-0.1,0.2-0.4,0.7-0.6,0.9c-0.3,0.3-0.7,0.7-0.7,0.7c-0.1,0-0.2,0.1-0.2,0.2c0,0,0,0,0,0c0-0.1,0-0.1-0.1,0c0,0.1-0.1,0.1-0.1,0.1
			c0,0-0.1,0-0.1,0c0,0-0.1,0.1-0.1,0.1c0,0-0.1,0-0.1,0c0,0,0,0-0.1,0c0,0-0.1,0-0.1,0c0,0,0,0-0.1,0s-0.1,0-0.1,0c0,0,0,0,0,0
			c0,0,0,0,0,0c0,0,0,0,0,0c0,0,0,0,0,0c0,0,0,0-0.1,0c0,0-0.1,0-0.2,0c-0.1,0-0.1,0.1-0.1,0.1c0,0-0.1,0-0.1,0
			c-0.2,0.1-0.2,0.1-0.3,0.1c0,0-0.1,0-0.2,0.1s-0.1,0-0.1,0c0,0-0.1,0-0.1,0.1c-0.1,0.1-0.1,0.1-0.1,0c0,0,0,0-0.1,0.1l-0.1,0.1
			v3.5c0,1.9,0,3.6,0,3.8c0,0.5-0.1,0.8-0.1,1c0,0.1-0.1,0.7-0.2,1c-0.1,0.5-0.1,0.7-0.1,0.7c0,0,0,0,0,0.1c0,0,0,0.1,0,0.1
			c0,0,0,0.1-0.1,0.2c0,0.2-0.1,0.3-0.1,0.4c0,0.1,0,0.1,0,0.1c0,0,0,0.1,0,0.2c0,0.1-0.1,0.2-0.1,0.2c0,0.1,0,0.1,0,0
			c0,0,0,0-0.1,0.1c0,0.1,0,0.2-0.1,0.2c0,0,0,0,0,0.1s0,0.1,0,0.1c0,0,0,0,0,0.1c0,0,0,0.1,0,0.1c0,0,0,0,0,0.1c0,0,0,0.1,0,0
			c0,0,0,0,0,0.1c0,0.1,0,0.1,0,0.1c0,0,0,0,0,0c0,0-0.1,0.4-0.4,0.9c-0.1,0.2-0.2,0.4-0.3,0.6c-0.1,0.1-0.1,0.3-0.2,0.3
			c0,0-0.1,0.1-0.1,0.2c0,0.1-0.1,0.2-0.1,0.2c-0.1,0.1-0.3,0.5-0.4,0.6c-0.1,0.1-0.1,0.2-0.1,0.1s0,0-0.1,0c0,0,0,0.1,0,0.1
			c0,0,0,0.1-0.1,0.1c-0.1,0.1-0.1,0.1-0.1,0.2s0,0,0,0c0,0-0.1,0-0.1,0.1c0,0-0.1,0.1-0.1,0.1c0,0,0,0,0,0c0,0-0.1,0.2-0.2,0.3
			c-0.1,0.1-0.2,0.2-0.2,0.2c0,0,0,0-0.1,0c0,0-0.1,0-0.1,0.1c0,0-0.1,0.1-0.1,0.1s-0.1,0-0.1,0.1c0,0,0,0.1-0.1,0.1c0,0,0,0,0,0
			c0,0,0,0,0,0c0,0-0.1,0-0.1,0c0,0,0,0,0,0c0,0-0.1,0-0.1,0c0,0,0,0.1,0,0.1c0,0,0,0-0.1,0.1c-0.1,0-0.1,0.1-0.1,0.1c0,0,0,0-0.1,0
			c0,0-0.1,0-0.1,0c0,0,0,0,0,0c0,0-0.1,0-0.1,0.1c-0.1,0.1-0.1,0.1-0.1,0.1c0,0-0.3,0.2-0.3,0.2c0,0-0.1,0.1-0.2,0.1
			c-0.1,0-0.2,0.1-0.2,0.1c-0.1,0.1-0.2,0.2-0.6,0.3c-0.2,0.1-0.3,0.2-0.3,0.2s0,0,0,0c0,0-0.1,0-0.2,0.1c-1.5,0.6-2.7,0.9-4.4,1.1
			C46.8,12567.4,45.3,12567.4,44.7,12567.3z M46.7,12562.4c0.4,0,0.6-0.1,1-0.1c0.4-0.1,1.2-0.3,1.3-0.3c0.1,0,0.3-0.1,0.3-0.1
			c0,0,1.1-0.6,1.2-0.7c0,0,0.1-0.1,0.2-0.1c0.1-0.1,0.2-0.2,0.2-0.2c0,0,0.1-0.1,0.2-0.2c0.1-0.1,0.1-0.1,0.1-0.1c0,0,0,0,0.1-0.1
			c0.1-0.1,0.4-0.4,0.6-0.8c0-0.1,0.1-0.2,0.2-0.2c0-0.1,0.1-0.2,0.2-0.3c0.1-0.1,0.3-0.5,0.3-0.6c0,0,0-0.1,0.1-0.2
			c0-0.1,0.1-0.2,0.1-0.2c0,0,0,0,0,0c0,0,0,0,0,0c0-0.1,0.1-0.4,0.2-0.3c0,0,0,0,0,0c0,0,0-0.2,0.1-0.4c0.1-0.2,0.1-0.4,0.1-0.4
			c0,0,0,0,0-0.1c0,0,0-0.1,0-0.1c0,0,0,0,0-0.1c0,0,0-0.1,0-0.1c0,0,0,0,0-0.1c0,0,0.1-0.1,0-0.1c0,0,0,0,0-0.1
			c0-0.1,0-0.2,0.1-0.2c0-0.2,0.1-0.8,0.1-0.9c0-0.1,0-0.1,0-0.2c0,0,0,0,0,0s0,0,0-0.1c0,0,0-0.1,0-0.1c0,0,0,0,0-0.1
			c0,0,0-0.1,0-0.1c0,0,0,0,0,0c-0.1,0-0.1-0.1,0-0.1c0,0,0.1,0,0,0c-0.1,0-0.1-0.9,0-0.9c0,0,0,0,0-0.1c0,0,0-0.9-0.1-2.9l0-2.8
			l-0.1-0.1c-0.1-0.1-0.2-0.1-7-0.1c-5,0-6.9,0-6.9,0c0,0-0.1,0-0.2,0c-0.3,0-0.3-0.2-0.3,3.7c0,2,0,3.6,0,3.6c0,0,0,0.1,0,0.3
			c0,0.3,0,0.5,0.1,0.9c0,0.1,0,0.3,0.1,0.3c0,0.1,0,0.1,0,0.2s0,0.1,0,0.2c0,0.1,0,0.1,0,0.1c0,0,0,0.1,0.1,0.2
			c0,0.2,0.2,0.7,0.3,0.9c0,0.1,0.1,0.1,0.1,0.2c0,0.1,0.8,1.5,1,1.7c0.1,0.2,0.8,0.8,1,1c0.5,0.4,1.6,1,2.1,1.1c0,0,0.1,0,0.2,0.1
			c0.2,0.1,1.1,0.2,1.6,0.2c0.2,0,0.4,0,0.4,0C45.8,12562.4,46.4,12562.4,46.7,12562.4z"/>
	</g>
</g>
</svg>
