<svg width="18" height="19" viewBox="0 0 18 19" fill="none" xmlns="http://www.w3.org/2000/svg">
<path d="M9.00077 18.4078C9.5206 18.4075 10.0292 18.2615 10.4646 17.9876C10.9 17.7136 11.2436 17.3235 11.4535 16.8647C11.4777 16.8138 11.4882 16.7578 11.4839 16.7019C11.4796 16.646 11.4606 16.5921 11.4288 16.5453C11.397 16.4984 11.3534 16.46 11.3021 16.4339C11.2507 16.4077 11.1934 16.3945 11.1353 16.3956H6.86624C6.80825 16.3947 6.75097 16.4079 6.69974 16.4342C6.64852 16.4604 6.60503 16.4988 6.57334 16.5456C6.54164 16.5925 6.52278 16.6463 6.51851 16.7021C6.51424 16.7579 6.52471 16.8139 6.54893 16.8647C6.75876 17.3234 7.10218 17.7134 7.53745 17.9873C7.97271 18.2613 8.48108 18.4073 9.00077 18.4078Z" fill="url(#paint0_linear_6840_10729)"/>
<path d="M15.5524 13.9049C15.219 13.9049 14.8992 13.7771 14.6635 13.5496C14.4277 13.3221 14.2952 13.0136 14.2952 12.6919V8.2853C14.295 7.14898 13.9022 6.04516 13.1789 5.14834C12.4556 4.25153 11.4431 3.6129 10.3014 3.33342C10.2596 3.02449 10.1024 2.74089 9.85938 2.53571C9.61637 2.33053 9.30416 2.21784 8.98123 2.21876C8.6583 2.21967 8.34678 2.33412 8.10502 2.54067C7.86325 2.74722 7.70781 3.03171 7.6678 3.34087C6.64965 3.59763 5.73378 4.14101 5.03688 4.90177C4.33998 5.66253 3.89361 6.60624 3.75464 7.61264C3.75464 7.64325 3.74606 7.67304 3.74263 7.70365C3.7392 7.73427 3.7332 7.78639 3.72977 7.82776C3.72634 7.86913 3.72291 7.9105 3.71948 7.95104C3.71605 7.99158 3.71519 8.01971 3.71348 8.05446C3.71348 8.12479 3.70833 8.19429 3.70747 8.26545V12.6911C3.70748 13.0112 3.57632 13.3184 3.34258 13.5456C3.10884 13.7728 2.79148 13.9016 2.45969 13.9041C2.38175 13.9032 2.3044 13.9171 2.23205 13.9451C2.15971 13.9731 2.09378 14.0145 2.03803 14.0671C1.98229 14.1196 1.93782 14.1822 1.90716 14.2514C1.87651 14.3205 1.86027 14.3948 1.85938 14.47V14.4749C1.85937 14.6264 1.92172 14.7716 2.03269 14.8786C2.14366 14.9857 2.29417 15.0458 2.45111 15.0458H15.5524C15.7054 15.0402 15.8501 14.9777 15.9562 14.8713C16.0624 14.7649 16.1217 14.623 16.1217 14.4754C16.1217 14.3277 16.0624 14.1858 15.9562 14.0794C15.8501 13.9731 15.7054 13.9105 15.5524 13.9049Z" fill="url(#paint1_linear_6840_10729)"/>
<path d="M12.7921 2.46811C13.5155 2.62298 14.1697 2.99437 14.6613 3.52928C15.1529 4.06418 15.4568 4.73525 15.5296 5.44668C15.533 5.48507 15.5443 5.52241 15.5628 5.55655C15.5813 5.59069 15.6066 5.62094 15.6374 5.64557C15.6681 5.67019 15.7035 5.6887 15.7417 5.7C15.7799 5.71131 15.82 5.7152 15.8597 5.71145C15.9399 5.70407 16.0138 5.66663 16.0656 5.6072C16.0911 5.5776 16.1103 5.54343 16.122 5.50666C16.1338 5.46988 16.1379 5.43122 16.1342 5.39291C16.0548 4.55467 15.7002 3.76276 15.1219 3.13251C14.5436 2.50227 13.7719 2.06659 12.9191 1.88894C12.8982 1.88474 12.8769 1.88253 12.8556 1.88232C12.7807 1.88249 12.7086 1.90935 12.653 1.95772C12.5974 2.0061 12.5623 2.07259 12.5544 2.14442C12.5465 2.21625 12.5665 2.28836 12.6103 2.34688C12.6542 2.4054 12.719 2.44622 12.7921 2.46149V2.46811Z" fill="url(#paint2_linear_6840_10729)"/>
<path d="M13.1339 0.579127C14.2599 0.819179 15.2783 1.39659 16.0435 2.22879C16.8087 3.06098 17.2816 4.10533 17.3944 5.21247C17.398 5.25081 17.4094 5.28809 17.4279 5.32218C17.4464 5.35626 17.4718 5.38648 17.5025 5.41108C17.5331 5.43569 17.5686 5.4542 17.6067 5.46555C17.6448 5.4769 17.6849 5.48087 17.7246 5.47723C17.8047 5.46985 17.8786 5.43241 17.9304 5.37298C17.9559 5.34338 17.9751 5.30921 17.9869 5.27244C17.9987 5.23566 18.0028 5.197 17.999 5.15868C17.8786 3.92618 17.3546 2.76268 16.5029 1.83679C15.6511 0.910903 14.5159 0.270735 13.2617 0.00905938C13.2408 0.00486004 13.2196 0.00264422 13.1983 0.00244144C13.1233 0.00240732 13.051 0.0291158 12.9953 0.077428C12.9395 0.12574 12.9042 0.192242 12.8963 0.264132C12.8883 0.336022 12.9081 0.40822 12.952 0.466831C12.9959 0.525443 13.0607 0.566325 13.1339 0.581609V0.579127Z" fill="url(#paint3_linear_6840_10729)"/>
<path d="M5.20664 2.46833C5.27982 2.45306 5.34457 2.41224 5.38845 2.35372C5.43233 2.2952 5.45225 2.22309 5.44438 2.15126C5.4365 2.07943 5.4014 2.01294 5.34581 1.96456C5.29021 1.91618 5.21805 1.88933 5.14318 1.88916C5.12185 1.88936 5.1006 1.89158 5.07972 1.89578C4.22835 2.07294 3.45765 2.50727 2.87951 3.13572C2.30137 3.76417 1.94588 4.55403 1.86463 5.39064C1.86087 5.42896 1.86499 5.46762 1.87676 5.50439C1.88854 5.54117 1.90773 5.57534 1.93324 5.60493C1.95857 5.63471 1.98984 5.65928 2.02519 5.67719C2.06055 5.69509 2.09927 5.70598 2.13906 5.70918C2.1788 5.71294 2.21892 5.70905 2.25709 5.69774C2.29526 5.68643 2.33073 5.66793 2.36144 5.64331C2.39215 5.61868 2.41749 5.58842 2.43599 5.55428C2.45449 5.52014 2.46579 5.4828 2.46923 5.44442C2.54251 4.73343 2.84662 4.06292 3.33817 3.5285C3.82973 2.99408 4.48364 2.62306 5.20664 2.46833Z" fill="url(#paint4_linear_6840_10729)"/>
<path d="M4.86558 0.579167C4.93875 0.563899 5.0035 0.52308 5.04738 0.464557C5.09126 0.406033 5.11118 0.33393 5.10331 0.262099C5.09544 0.190269 5.06033 0.123779 5.00474 0.0754006C4.94915 0.0270222 4.87698 0.000169082 4.80212 0C4.78079 0.000153939 4.75953 0.00237028 4.73865 0.00661794C3.48449 0.268293 2.34928 0.908462 1.49752 1.83435C0.64577 2.76024 0.121731 3.92374 0.00135058 5.15624C-0.0024137 5.19456 0.00170965 5.23322 0.0134837 5.27C0.0252577 5.30677 0.0444504 5.34094 0.0699577 5.37053C0.0952914 5.40031 0.12656 5.42488 0.161914 5.44279C0.197267 5.4607 0.235987 5.47158 0.275778 5.47479C0.315497 5.47843 0.355572 5.47446 0.393696 5.46311C0.43182 5.45176 0.467243 5.43325 0.497926 5.40864C0.52861 5.38404 0.553949 5.35382 0.572487 5.31973C0.591026 5.28565 0.602398 5.24836 0.605949 5.21002C0.719394 4.10349 1.1924 3.05984 1.9574 2.22817C2.7224 1.3965 3.74026 0.819353 4.86558 0.579167Z" fill="url(#paint5_linear_6840_10729)"/>
<defs>
<linearGradient id="paint0_linear_6840_10729" x1="11.8702" y1="12.0411" x2="8.55849" y2="17.8761" gradientUnits="userSpaceOnUse">
<stop stop-color="#FF94A6"/>
<stop offset="0.32" stop-color="#E03DC1"/>
<stop offset="1" stop-color="#8247E5"/>
</linearGradient>
<linearGradient id="paint1_linear_6840_10729" x1="13.5431" y1="5.69808" x2="6.5205" y2="16.0424" gradientUnits="userSpaceOnUse">
<stop stop-color="#FF94A6"/>
<stop offset="0.32" stop-color="#E03DC1"/>
<stop offset="1" stop-color="#8247E5"/>
</linearGradient>
<linearGradient id="paint2_linear_6840_10729" x1="19.4796" y1="0.506388" x2="1.97804" y2="12.5482" gradientUnits="userSpaceOnUse">
<stop stop-color="#FF94A6"/>
<stop offset="0.32" stop-color="#E03DC1"/>
<stop offset="1" stop-color="#8247E5"/>
</linearGradient>
<linearGradient id="paint3_linear_6840_10729" x1="19.3128" y1="0.263067" x2="1.81125" y2="12.304" gradientUnits="userSpaceOnUse">
<stop stop-color="#FF94A6"/>
<stop offset="0.32" stop-color="#E03DC1"/>
<stop offset="1" stop-color="#8247E5"/>
</linearGradient>
<linearGradient id="paint4_linear_6840_10729" x1="16.1383" y1="-4.35096" x2="-1.36245" y2="7.68997" gradientUnits="userSpaceOnUse">
<stop stop-color="#FF94A6"/>
<stop offset="0.32" stop-color="#E03DC1"/>
<stop offset="1" stop-color="#8247E5"/>
</linearGradient>
<linearGradient id="paint5_linear_6840_10729" x1="15.2587" y1="-5.62868" x2="-2.23539" y2="6.40705" gradientUnits="userSpaceOnUse">
<stop stop-color="#FF94A6"/>
<stop offset="0.32" stop-color="#E03DC1"/>
<stop offset="1" stop-color="#8247E5"/>
</linearGradient>
</defs>
</svg>
