<svg width="24" height="24" viewBox="0 0 24 24" fill="none" xmlns="http://www.w3.org/2000/svg">
<g clip-path="url(#clip0_16455_46905)">
<path d="M5.0852 16.9289C7.11395 16.3458 12.3865 14.6696 19.3221 15.0577C19.5415 15.0708 19.5658 15.3858 19.3521 15.4289C16.1327 16.0908 8.01583 17.8046 5.7452 18.6971C5.38333 18.8396 4.97458 18.6839 4.8002 18.3352C4.74395 18.2208 4.68395 18.1008 4.62395 17.9827C4.41208 17.5646 4.63333 17.0583 5.0852 16.9289Z" fill="#F44336"/>
<path d="M1.30543 21.2431C4.4948 20.4481 17.8804 17.0937 23.0629 17.1481C23.2879 17.15 23.3217 17.4706 23.1023 17.5194C19.0711 18.3912 5.17355 21.6162 1.98793 23.1762C1.58105 23.375 1.09355 23.1631 0.951051 22.7337L0.801051 22.2856C0.637926 21.7925 0.881676 21.3481 1.30543 21.2431Z" fill="#F44336" stroke="#F44336" stroke-miterlimit="10"/>
<path d="M1.2197 5.12415C0.563448 5.40165 0.659073 4.10228 1.11282 3.74978C2.4272 2.7279 5.64095 1.52603 7.50095 0.783529C7.88345 0.631654 8.25845 1.02353 8.09157 1.4004C7.07907 3.68978 4.10345 10.3592 2.25095 16.2598C2.15532 16.5635 1.53282 16.5804 1.50095 16.2617C1.3322 14.5367 2.5322 9.77978 5.08407 4.21853C5.17595 4.01978 4.97532 3.80603 4.76157 3.85478C4.01345 4.03103 2.86595 4.4304 1.2197 5.12415Z" fill="#F44336" stroke="#F44336" stroke-miterlimit="10"/>
<path d="M20.9647 1.63097C20.9291 1.6216 20.7041 1.5616 20.6197 1.55785C14.9984 1.36285 12.3753 3.14785 12.2816 3.22285C11.9591 3.48347 11.9084 3.95597 12.1691 4.2766C12.3772 4.53347 12.5891 4.56535 12.7016 4.56347C12.7484 4.5616 12.7897 4.5916 12.8028 4.63847C13.0334 5.5591 13.0728 6.87722 12.6622 8.42222C11.9516 11.0885 10.4009 12.5622 9.60032 12.5622C9.55532 12.5622 9.51219 12.5566 9.47282 12.5453C9.14657 12.4591 8.81282 11.9435 8.62345 11.2328C8.34032 10.1622 8.38719 8.75972 8.75282 7.38347C9.24969 5.51222 10.1628 4.22972 10.9391 3.6316C11.2953 3.35785 11.5803 3.0016 11.7884 2.60222C11.7903 2.60035 11.7903 2.5966 11.7922 2.59472C11.8859 2.41472 12.3228 1.56722 11.8128 1.55597C9.9697 1.55597 7.95782 3.80785 7.12345 6.94847C6.20282 10.4135 7.06157 13.6478 9.04157 14.1747C9.22532 14.2235 9.41282 14.2478 9.60407 14.2478C11.4472 14.2478 13.4591 11.996 14.2934 8.85535C14.7584 7.10785 14.7678 5.42035 14.4097 4.10972C14.3666 3.9541 14.4528 3.79285 14.6066 3.74035C15.1672 3.54722 16.2491 3.35035 17.1941 3.21535C17.3422 3.19472 17.4434 3.36347 17.3516 3.4816C16.6578 4.3966 16.0766 5.5891 15.7147 6.95035C14.7941 10.4153 15.6528 13.6497 17.6328 14.1766C17.8166 14.2253 18.0041 14.2497 18.1953 14.2497C20.0384 14.2497 22.0503 11.9978 22.8847 8.85722C23.8034 5.39222 22.9447 2.15597 20.9647 1.63097ZM21.2516 8.42222C20.5428 11.0885 18.9941 12.5622 18.1934 12.5622C18.1484 12.5622 18.1053 12.5566 18.0659 12.5453C17.7397 12.4591 17.4059 11.9435 17.2166 11.2328C16.9334 10.1622 16.9803 8.75972 17.3459 7.38347C18.0547 4.7191 19.6034 3.24347 20.4059 3.24347C20.4509 3.24347 20.4922 3.2491 20.5334 3.26035C21.2197 3.4441 22.0166 5.5441 21.2516 8.42222Z" fill="#F44336" stroke="#F44336" stroke-miterlimit="10"/>
</g>
<defs>
<clipPath id="clip0_16455_46905">
<rect width="24" height="24" fill="white"/>
</clipPath>
</defs>
</svg>
