<svg width="49" height="22" viewBox="0 0 49 22" fill="none" xmlns="http://www.w3.org/2000/svg" cursor="pointer">
<rect y="0.5" width="49" height="21" rx="6" fill="#657795"/>
<path d="M13.86 14.5L10.656 6.1H9.348L6.084 14.5H7.428L8.076 12.76H11.868L12.516 14.5H13.86ZM9.972 7.708L11.424 11.596H8.52L9.972 7.708ZM19.0121 9.556C18.5201 9.148 17.8841 8.92 17.2361 8.92C15.6281 8.92 14.3561 10.18 14.3561 11.776C14.3561 13.384 15.6281 14.632 17.2361 14.632C17.8841 14.632 18.5201 14.404 19.0121 13.996V14.5H20.1521V6.1H19.0121V9.556ZM17.2841 13.528C16.2881 13.528 15.5561 12.784 15.5561 11.776C15.5561 10.768 16.2881 10.024 17.2841 10.012C18.2681 10.024 19.0121 10.768 19.0121 11.776C19.0121 12.784 18.2681 13.528 17.2841 13.528ZM26.1371 9.556C25.6451 9.148 25.0091 8.92 24.3611 8.92C22.7531 8.92 21.4811 10.18 21.4811 11.776C21.4811 13.384 22.7531 14.632 24.3611 14.632C25.0091 14.632 25.6451 14.404 26.1371 13.996V14.5H27.2771V6.1H26.1371V9.556ZM24.4091 13.528C23.4131 13.528 22.6811 12.784 22.6811 11.776C22.6811 10.768 23.4131 10.024 24.4091 10.012C25.3931 10.024 26.1371 10.768 26.1371 11.776C26.1371 12.784 25.3931 13.528 24.4091 13.528Z" fill="white"/>
<path d="M41.9062 11C41.9062 11.1243 41.8569 11.2435 41.769 11.3315C41.681 11.4194 41.5618 11.4688 41.4375 11.4688H38.4688V14.4375C38.4688 14.5618 38.4194 14.681 38.3315 14.769C38.2435 14.8569 38.1243 14.9062 38 14.9062C37.8757 14.9062 37.7565 14.8569 37.6685 14.769C37.5806 14.681 37.5312 14.5618 37.5312 14.4375V11.4688H34.5625C34.4382 11.4688 34.319 11.4194 34.231 11.3315C34.1431 11.2435 34.0938 11.1243 34.0938 11C34.0938 10.8757 34.1431 10.7565 34.231 10.6685C34.319 10.5806 34.4382 10.5312 34.5625 10.5312H37.5312V7.5625C37.5312 7.43818 37.5806 7.31895 37.6685 7.23104C37.7565 7.14314 37.8757 7.09375 38 7.09375C38.1243 7.09375 38.2435 7.14314 38.3315 7.23104C38.4194 7.31895 38.4688 7.43818 38.4688 7.5625V10.5312H41.4375C41.5618 10.5312 41.681 10.5806 41.769 10.6685C41.8569 10.7565 41.9062 10.8757 41.9062 11Z" fill="white"/>
</svg>
