<svg width="26" height="26" viewBox="0 0 26 26" fill="none" xmlns="http://www.w3.org/2000/svg">
<path d="M13 18C15.7614 18 18 15.7614 18 13C18 10.2386 15.7614 8 13 8C10.2386 8 8 10.2386 8 13C8 15.7614 10.2386 18 13 18Z" stroke="#82828A" stroke-width="2" stroke-linecap="round" stroke-linejoin="round"/>
<path d="M20 23C18.0988 24.2638 15.4538 25 13 25C10.6266 25 8.30655 24.2962 6.33316 22.9776C4.35977 21.6591 2.8217 19.7849 1.91345 17.5922C1.0052 15.3995 0.767559 12.9867 1.23058 10.6589C1.6936 8.33115 2.83649 6.19295 4.51472 4.51472C6.19295 2.83649 8.33115 1.6936 10.6589 1.23058C12.9867 0.767559 15.3995 1.0052 17.5922 1.91345C19.7849 2.8217 21.6591 4.35977 22.9776 6.33316C24.2962 8.30655 25 10.6266 25 13C25 15.7613 24 18 21.5 18C19 18 18 15.7613 18 13V8.00001" stroke="#82828A" stroke-width="2" stroke-linecap="round" stroke-linejoin="round"/>
</svg>
