<svg width="49" height="50" viewBox="0 0 49 50" fill="none" xmlns="http://www.w3.org/2000/svg">
<path d="M32.904 30.3304C32.929 30.4308 33.2532 30.6319 33.3281 30.6821C33.7023 31.0087 34.0765 31.3604 34.4258 31.7121C35.4237 32.742 36.1225 33.8218 36.8462 35.0019C37.2704 35.705 37.7944 36.4333 38.3683 37.0612C38.493 37.1868 38.6178 37.3375 38.7924 37.4381C38.7924 37.4381 35.5259 38.0621 32.3083 36.6535C29.0908 35.27 24.8743 30.6734 24.3499 29.1672L26.3197 28.4666L32.6043 29.3012L32.904 30.3304Z" fill="#4340D3" stroke="black" stroke-width="0.75" stroke-linejoin="round"/>
<path d="M24.3496 29.1682C24.3496 29.1682 27.8659 29.3223 32.2817 33.3652" stroke="black" stroke-width="0.75" stroke-miterlimit="10" stroke-linecap="round"/>
<path d="M35.1746 26.9151C36.8956 26.8418 38.5916 26.9186 40.2878 27.1957C41.1359 27.3467 41.9591 27.5478 42.8072 27.7739C44.1791 28.1257 45.5512 28.6277 46.9978 28.6292C46.5491 29.1293 45.6265 29.8292 45.1278 30.154C43.2578 31.3785 40.9385 32.102 38.569 31.8994C36.7232 31.7473 35.0518 31.1199 33.3805 30.4924C32.5323 30.1912 31.6841 29.7148 30.811 29.4636C29.4889 29.0618 27.7927 28.7347 26.3213 28.9334C26.3212 28.8333 28.9395 27.6596 28.9395 27.6596C30.2863 27.4608 31.6331 27.2869 32.9799 27.1131C33.7281 27.0138 34.4513 26.9394 35.1746 26.9151Z" fill="#BB31DD" stroke="black" stroke-width="0.75" stroke-linejoin="round"/>
<path d="M35.1019 16.5028C35.1019 16.5028 41.0093 12.8435 44.0536 18.2695C43.3308 18.8461 42.6329 19.4731 41.985 20.1C40.3402 21.7553 39.6181 23.8886 37.7488 25.393C35.9294 26.8723 33.5362 27.6231 31.0429 27.6707L30.8427 26.0888L32.2355 18.3828L35.1019 16.5028Z" fill="url(#paint0_linear_17109_3629)" stroke="black" stroke-width="0.75" stroke-linejoin="round"/>
<path d="M44.0759 18.2688C42.9286 17.8663 41.6319 17.7144 40.3852 17.8637C38.0662 18.1372 36.4961 19.9167 35.2998 21.521C34.7516 22.2479 34.2781 23.0251 33.9793 23.8526" stroke="black" stroke-width="0.75" stroke-miterlimit="10"/>
<path d="M28.4882 12.8579C28.4882 12.8579 31.901 8.74194 36.0644 10.9316C36.0644 10.9316 35.7407 11.735 35.7408 11.7853C35.467 12.6139 35.3178 13.4929 35.2185 14.3468C34.8709 17.4612 35.4955 20.6519 34.5746 23.7154C34.2262 24.8454 33.6036 26.0755 32.5073 26.8028C31.3113 27.6054 29.9906 28.2571 28.5451 28.6324C27.2243 28.9827 25.7288 28.9811 24.358 29.1555L27.6943 20.9452L28.0407 15.3441L28.4882 12.8579Z" fill="#4340D3" stroke="black" stroke-width="0.75" stroke-linejoin="round"/>
<path d="M36.0686 10.9261C36.0686 10.9261 31.1329 11.3729 29.8644 17.724" stroke="black" stroke-width="0.75" stroke-miterlimit="10"/>
<path d="M15.8665 30.3274C15.8416 30.4277 15.5175 30.6281 15.4428 30.6783C15.0688 31.0041 14.6949 31.355 14.346 31.706C13.3489 32.7338 12.6512 33.8121 11.9285 34.9908C11.5049 35.693 10.9815 36.4202 10.4083 37.047C10.2836 37.1723 10.159 37.3228 9.9845 37.4229C9.9845 37.4229 13.2516 38.0537 16.4679 36.6517C19.6842 35.2748 23.8965 30.687 24.4195 29.1819L22.4492 28.4772L16.1653 29.2988L15.8665 30.3274Z" fill="#4340D3" stroke="black" stroke-width="0.75" stroke-linejoin="round"/>
<path d="M24.4205 29.1761C24.4205 29.1761 20.9043 29.323 16.4921 33.3568" stroke="black" stroke-width="0.75" stroke-miterlimit="10" stroke-linecap="round"/>
<path d="M13.5963 26.9176C11.9002 26.8408 10.1793 26.9142 8.48334 27.1877C7.63539 27.337 6.81241 27.5364 5.98944 27.7609C4.6178 28.1099 3.24624 28.609 1.79962 28.6076C2.2488 29.1086 3.17196 29.8104 3.67094 30.1362C5.54213 31.3646 7.86204 32.0928 10.2314 31.895C12.0521 31.7467 13.7478 31.1227 15.4186 30.4987C16.2665 30.1992 17.1143 29.7245 17.9872 29.4751C19.3089 29.076 21.0796 28.6773 22.4764 28.9541C22.4764 28.8289 19.832 27.6749 19.832 27.6749C18.4851 27.4733 17.1382 27.2967 15.7912 27.1201C15.0429 27.0192 14.3196 26.9434 13.5963 26.9176Z" fill="#BB31DD" stroke="black" stroke-width="0.75" stroke-linejoin="round"/>
<path d="M13.6716 16.5074C13.6716 16.5074 7.76094 12.8359 4.69664 18.2556C5.41995 18.8338 6.11835 19.4621 6.76688 20.0904C8.41319 21.7491 9.13719 23.8838 11.0078 25.3921C12.8286 26.8752 15.2225 27.6309 17.7158 27.6837L17.9145 26.1022L16.5148 18.3933L13.6716 16.5074Z" fill="url(#paint1_linear_17109_3629)" stroke="black" stroke-width="0.75" stroke-linejoin="round"/>
<path d="M4.69552 18.2579C5.8424 17.8578 7.13901 17.7086 8.38588 17.8604C10.7051 18.1387 12.2768 19.9214 13.4745 21.5282C14.0234 22.2562 14.4975 23.0344 14.7972 23.8625" stroke="black" stroke-width="0.75" stroke-miterlimit="10"/>
<path d="M20.2774 12.8612C20.2774 12.8612 16.8609 8.73819 12.6995 10.9192C12.6995 10.9192 13.0239 11.7233 13.0239 11.7736C13.2984 12.6028 13.4484 13.4821 13.5485 14.3362C13.8988 17.4261 13.302 20.6407 14.2256 23.7061C14.5751 24.8368 15.1987 26.0683 16.2957 26.7978C17.4925 27.6029 18.8138 28.2573 20.2595 28.6356C21.5807 28.9635 23.0762 28.9902 24.4471 29.1674L21.0786 20.9502L20.7272 15.3484L20.2774 12.8612Z" fill="#4340D3" stroke="black" stroke-width="0.75" stroke-linejoin="round"/>
<path d="M12.6992 10.9194C12.6992 10.9194 17.6353 11.3765 18.9095 17.7302" stroke="black" stroke-width="0.75" stroke-miterlimit="10"/>
<path d="M24.5762 43.3893C27.4178 42.2626 26.4443 39.6507 26.4443 39.6507C29.3863 39.8295 29.6094 36.9678 27.4651 36.4635C25.3208 35.9592 24.1734 34.728 24.1734 34.728C24.1734 34.728 23.1269 36.0323 21.0329 36.6828C18.939 37.3334 19.4389 40.1456 22.3308 39.7971C22.3557 39.7971 21.6588 42.4324 24.5762 43.3893Z" fill="#BB31DD" stroke="black" stroke-width="0.75" stroke-linejoin="round"/>
<path d="M24.1716 34.7247C23.6984 35.3771 23.0509 36.1297 22.9266 36.908C22.8521 37.3348 22.9769 37.8371 23.2512 38.1889C23.5504 38.6161 24.2233 38.8679 24.7963 38.6927C25.4939 38.4925 25.8674 37.7145 25.7425 37.162C25.5677 36.2327 24.8696 35.4536 24.1716 34.7247Z" fill="url(#paint2_linear_17109_3629)" stroke="black" stroke-width="0.75" stroke-linejoin="round"/>
<path d="M30.2048 18.7173C30.2073 24.4952 24.3522 29.1617 24.3522 29.1617C24.3522 29.1617 18.6674 24.4832 18.6648 18.7053C18.6622 12.9274 24.3429 8.26077 24.3429 8.26077C24.3429 8.26077 30.2022 12.9394 30.2048 18.7173Z" fill="#D556F4" stroke="black" stroke-width="0.75" stroke-linejoin="round"/>
<path d="M27.6634 22.1337C27.665 25.7512 24.427 29.0388 24.427 29.0388C24.427 29.0388 21.1861 25.9204 21.1845 22.2777C21.1829 18.635 24.4211 15.9001 24.4211 15.9001C24.4211 15.9001 27.6618 18.491 27.6634 22.1337Z" fill="url(#paint3_linear_17109_3629)" stroke="black" stroke-width="0.75" stroke-linejoin="round"/>
<path d="M14.2714 40.6798C15.5425 39.6017 17.6617 39.4532 17.6617 39.4532C17.6617 39.4532 17.5379 41.2354 16.2668 42.3386C14.9957 43.4418 13.0509 43.4146 13.0509 43.4146C13.0509 43.4146 13.0003 41.7578 14.2714 40.6798Z" fill="url(#paint4_linear_17109_3629)" stroke="black" stroke-width="0.75" stroke-linejoin="round"/>
<path d="M34.0516 40.6822C32.7795 39.6015 30.6602 39.4487 30.6602 39.4487C30.6602 39.4487 30.7856 41.2311 32.0577 42.3369C33.3298 43.4427 35.2746 43.4196 35.2746 43.4196C35.2746 43.4196 35.3486 41.763 34.0516 40.6822Z" fill="url(#paint5_linear_17109_3629)" stroke="black" stroke-width="0.75" stroke-linejoin="round"/>
<defs>
<linearGradient id="paint0_linear_17109_3629" x1="37.4663" y1="29.2012" x2="37.4808" y2="15.1571" gradientUnits="userSpaceOnUse">
<stop stop-color="#171719"/>
<stop offset="0.51" stop-color="#4131DB"/>
<stop offset="1" stop-color="#DF5CEA"/>
</linearGradient>
<linearGradient id="paint1_linear_17109_3629" x1="11.3212" y1="29.201" x2="11.3357" y2="15.1568" gradientUnits="userSpaceOnUse">
<stop stop-color="#171719"/>
<stop offset="0.51" stop-color="#4131DB"/>
<stop offset="1" stop-color="#DF5CEA"/>
</linearGradient>
<linearGradient id="paint2_linear_17109_3629" x1="24.353" y1="34.8806" x2="24.3459" y2="41.7104" gradientUnits="userSpaceOnUse">
<stop stop-color="#171719"/>
<stop offset="0.51" stop-color="#4131DB"/>
<stop offset="1" stop-color="#DF5CEA"/>
</linearGradient>
<linearGradient id="paint3_linear_17109_3629" x1="24.4122" y1="32.1665" x2="24.4281" y2="16.7593" gradientUnits="userSpaceOnUse">
<stop stop-color="#171719"/>
<stop offset="0.51" stop-color="#4131DB"/>
<stop offset="1" stop-color="#DF5CEA"/>
</linearGradient>
<linearGradient id="paint4_linear_17109_3629" x1="17.876" y1="39.245" x2="9.1943" y2="46.6905" gradientUnits="userSpaceOnUse">
<stop stop-color="#171719"/>
<stop offset="0.51" stop-color="#4131DB"/>
<stop offset="1" stop-color="#DF5CEA"/>
</linearGradient>
<linearGradient id="paint5_linear_17109_3629" x1="30.9258" y1="39.0281" x2="38.0031" y2="47.1201" gradientUnits="userSpaceOnUse">
<stop stop-color="#171719"/>
<stop offset="0.51" stop-color="#4131DB"/>
<stop offset="1" stop-color="#DF5CEA"/>
</linearGradient>
</defs>
</svg>
