<svg width="24" height="24" viewBox="0 0 24 24" fill="none" xmlns="http://www.w3.org/2000/svg">
<g clip-path="url(#clip0_16455_46941)">
<path d="M9.03607 6.59785C8.70795 6.00723 8.10982 4.93098 8.66295 4.21098C9.15607 3.56973 9.99982 3.77598 10.6786 4.47535L11.0761 4.9066C11.0761 4.9066 10.7404 3.67285 11.7211 3.33723C12.3792 3.11223 12.9248 3.35035 13.8079 4.40973C15.3998 6.31848 18.7767 12.1441 18.7767 12.1441C18.9342 12.4029 19.0898 12.6372 19.2042 12.5979C19.2961 12.566 19.5454 11.6491 19.5454 11.6491C19.5267 10.3854 19.6186 8.91723 20.0592 8.1091C20.5111 7.28035 21.3267 6.98035 21.8948 7.1641C22.3917 7.32535 22.6523 7.71535 22.4948 8.5816C22.3617 9.3166 22.3223 11.186 22.4817 13.0104C22.6092 14.4747 22.6692 15.4272 22.5623 16.6029C22.3579 18.836 21.4748 21.041 18.9323 22.3797C17.5279 23.1204 16.0223 23.2685 14.6217 23.0435C14.6198 23.0454 9.16357 6.8266 9.03607 6.59785Z" fill="#D69513"/>
<path d="M14.7221 10.1978C14.2027 9.05034 13.6102 8.16722 12.9577 7.16784C12.4927 6.45534 11.6771 5.25909 11.4239 4.65909C11.2496 4.24659 11.2533 3.91659 11.2758 3.74034C11.2814 3.70284 11.2327 3.68409 11.2102 3.71409C11.0039 4.01222 10.8952 4.49597 11.1071 5.01534C11.4314 5.80284 12.1289 6.80784 12.6014 7.52972C13.2914 8.58534 13.7733 9.35409 14.2139 10.4153L14.9339 10.9591C14.9358 10.961 14.9152 10.6272 14.7221 10.1978Z" fill="#FFB300"/>
<path d="M10.0147 22.1906C9.51224 21.8681 8.19411 20.8818 6.77849 19.3406C4.67849 17.0531 3.66036 14.6906 3.23286 13.8037C2.82224 12.9506 2.72099 11.9381 3.21224 11.5912C3.76536 11.2012 4.27911 11.5931 4.27911 11.5931C3.80286 10.8487 3.49349 10.1156 3.41286 9.52119C3.30224 8.69244 3.80661 8.30807 3.89849 8.25744C4.33349 8.01744 4.72724 8.32494 4.72724 8.32494C4.72724 8.32494 4.20786 7.59557 4.07474 6.81557C3.99224 6.33557 4.17224 5.84057 4.57911 5.55932C5.09474 5.20494 5.58224 5.30807 6.34349 5.97932L6.65286 6.21557C6.65286 6.21557 6.51036 5.81619 6.50849 5.39432C6.50661 5.00994 6.69036 4.57869 7.14036 4.40432C7.71974 4.17932 8.16224 4.32744 8.95724 5.14869C9.66974 5.88557 12.0379 8.32869 13.6691 9.64869C14.8185 10.5806 16.0935 11.5087 16.7535 11.9024C16.9635 12.0281 17.1416 11.8612 17.0835 11.5649C16.7216 9.73682 16.581 8.32682 16.926 7.25994C17.271 6.19119 17.9291 5.60807 18.6697 5.66619C19.0185 5.69432 19.3654 5.90244 19.5154 6.30744C19.6485 6.67119 19.6522 7.27682 19.6691 7.66119C19.7291 9.14807 20.9554 13.4156 21.2066 14.5893C21.6866 16.8168 21.4991 19.2243 19.4385 21.2943C16.6766 24.0768 12.2854 23.6456 10.0147 22.1906Z" fill="#FFCA28"/>
<path d="M8.32527 17.1165C8.2484 17.3771 8.1059 17.6696 7.90715 17.5028C7.63527 17.274 7.67277 17.0396 7.36902 16.7265C6.49527 15.8246 4.8734 13.4978 4.50027 12.5678C4.2434 11.9265 4.27902 11.5928 4.27902 11.5928C4.27902 11.5928 6.39215 14.8365 8.3009 16.6121C8.46965 16.7696 8.33465 17.0865 8.32527 17.1165Z" fill="#D69513"/>
<path d="M9.45875 14.9585C9.17563 14.8497 9.1175 14.4129 8.9075 14.2104C7.87812 13.2241 5.6675 10.5054 5.00937 9.24535C4.74125 8.72973 4.7375 8.48973 4.71875 8.31348C4.71875 8.31348 7.81625 12.191 9.46813 13.6966C9.57313 13.7922 9.90313 13.8991 9.97438 14.0566C10.1113 14.3604 9.6875 15.0447 9.45875 14.9585Z" fill="#D69513"/>
<path d="M11.6628 11.6048C9.90406 10.1348 6.61719 6.19922 6.61719 6.19922C6.61719 6.19922 6.68469 6.75234 7.07656 7.35797C7.75719 8.41359 9.73156 10.8623 11.0497 12.1073C11.3028 12.3473 11.2878 12.6417 11.5559 12.6642C11.8428 12.6886 12.1916 12.3492 12.2103 12.0905C12.2272 11.8692 11.9553 11.8486 11.6628 11.6048Z" fill="#D69513"/>
<path d="M0.9375 17.6003L3.33375 17.4297" stroke="#B0BEC5" stroke-width="1.5" stroke-miterlimit="10" stroke-linecap="round" stroke-linejoin="round"/>
<path d="M5.7075 20.3193L4.92188 22.59" stroke="#B0BEC5" stroke-width="1.5" stroke-miterlimit="10" stroke-linecap="round" stroke-linejoin="round"/>
<path d="M1.17969 21.2329L4.30344 19.041" stroke="#B0BEC5" stroke-width="1.5" stroke-miterlimit="10" stroke-linecap="round" stroke-linejoin="round"/>
<path d="M22.6827 3.47656L20.832 5.00844" stroke="#B0BEC5" stroke-width="1.5" stroke-miterlimit="10" stroke-linecap="round" stroke-linejoin="round"/>
<path d="M17.2236 4.0368L16.543 1.73242" stroke="#B0BEC5" stroke-width="1.5" stroke-miterlimit="10" stroke-linecap="round" stroke-linejoin="round"/>
<path d="M20.3711 0.664062L19.1055 4.26219" stroke="#B0BEC5" stroke-width="1.5" stroke-miterlimit="10" stroke-linecap="round" stroke-linejoin="round"/>
<path d="M20.3305 10.7267C20.1092 9.82484 19.888 8.83859 19.8167 8.17109C19.7605 7.64422 19.7248 6.78922 19.6742 6.60172C19.4961 5.92672 19.1042 5.80859 19.1042 5.80859C19.1042 5.80859 19.3517 6.06922 19.3573 6.79109C19.363 7.55609 19.3855 9.05422 19.8242 10.7117C20.113 11.803 20.5817 13.3742 20.7955 14.6305C21.2473 17.2761 20.8348 19.138 19.2542 21.0992C18.3373 22.2355 16.3555 23.0736 16.3555 23.0736C16.3555 23.0736 17.9848 22.9705 19.408 21.6017C21.298 19.783 21.9823 17.4242 21.3748 14.5967C21.1686 13.6386 20.4017 11.0192 20.3305 10.7267Z" fill="#D69513"/>
</g>
<defs>
<clipPath id="clip0_16455_46941">
<rect width="24" height="24" fill="white"/>
</clipPath>
</defs>
</svg>
