<svg fill="none" height="24" viewBox="0 0 24 24" width="24" xmlns="http://www.w3.org/2000/svg"><g stroke="#82828a" stroke-linecap="round" stroke-linejoin="round" stroke-width="2"><path d="m12.4856 19.9999-1.2425 1.2425c-1.1283 1.1101-2.64955 1.7294-4.23237 1.7229-1.58283-.0064-3.09898-.638-4.21821-1.7573-1.11924-1.1192-1.75087-2.6354-1.75731-4.2182-.00645-1.5828.61281-3.104 1.7229-4.2324l3.01375-3.00745c1.08102-1.08322 2.53509-1.71243 4.06473-1.7589 1.52961-.04647 3.01921.4933 4.16401 1.5089"/><path d="m11.515 4.00061 1.2425-1.2425c1.1283-1.11009 2.6496-1.72935 4.2324-1.7229 1.5828.00644 3.099.63807 4.2182 1.75731 1.1192 1.11923 1.7509 2.63538 1.7573 4.21821.0064 1.58282-.6128 3.10407-1.7229 4.23237l-3.0137 3.0138c-1.0819 1.0823-2.5364 1.7104-4.066 1.7557-1.5297.0453-3.0188-.4956-4.1628-1.512"/></g></svg>