<?xml version="1.0" encoding="UTF-8"?>
<svg id="Layer_1" data-name="Layer 1" xmlns="http://www.w3.org/2000/svg" version="1.1" xmlns:xlink="http://www.w3.org/1999/xlink" viewBox="0 0 24 24">
  <defs>
    <style>
      .cls-1 {
        fill: #eaeaea;
      }

      .cls-1, .cls-2, .cls-3, .cls-4, .cls-5 {
        stroke-width: 0px;
      }

      .cls-2 {
        fill: #0c9b00;
      }

      .cls-3 {
        fill: #07dc10;
      }

      .cls-4 {
        fill: #b7f7b0;
      }

      .cls-5 {
        fill: none;
      }

      .cls-6 {
        clip-path: url(#clippath);
      }
    </style>
    <clipPath id="clippath">
      <rect class="cls-5" x=".4" y=".5" width="23.2" height="23.1"/>
    </clipPath>
  </defs>
  <g class="cls-6">
    <g>
      <path class="cls-4" d="M12,7.9c2.3,0,4.1,1.8,4.1,4.1s-1.9,4.1-4.1,4.1-4.1-1.8-4.1-4.1,1.9-4.1,4.1-4.1ZM12,.5c-1.6,0-3.1.3-4.5.9-1.4.6-2.6,1.4-3.7,2.5-1.1,1.1-1.9,2.3-2.5,3.7-.6,1.4-.9,2.9-.9,4.5s.3,3.1.9,4.5c.6,1.4,1.4,2.6,2.5,3.7,1.1,1.1,2.3,1.9,3.7,2.5,1.4.6,2.9.9,4.5.9s3.1-.3,4.5-.9c1.4-.6,2.6-1.4,3.7-2.5,1.1-1.1,1.9-2.3,2.5-3.7.6-1.4.9-2.9.9-4.5s-.3-3.1-.9-4.5c-.6-1.4-1.4-2.6-2.5-3.7-1.1-1.1-2.3-1.9-3.7-2.5-1.4-.6-2.9-.9-4.5-.9Z"/>
      <path class="cls-3" d="M12,7.9c2.3,0,4.1,1.8,4.1,4.1s-1.9,4.1-4.1,4.1-4.1-1.8-4.1-4.1,1.9-4.1,4.1-4.1ZM12,2.9C7,2.9,2.9,7,2.9,12s4.1,9.1,9.1,9.1,9.1-4.1,9.1-9.1S17,2.9,12,2.9Z"/>
      <path class="cls-2" d="M12,7.9c2.3,0,4.1,1.8,4.1,4.1s-1.9,4.1-4.1,4.1-4.1-1.8-4.1-4.1,1.9-4.1,4.1-4.1ZM12,5.4c-3.6,0-6.6,3-6.6,6.6s3,6.6,6.6,6.6,6.6-3,6.6-6.6-3-6.6-6.6-6.6Z"/>
      <path class="cls-1" d="M12,7.9c2.3,0,4.1,1.8,4.1,4.1s-1.9,4.1-4.1,4.1-4.1-1.8-4.1-4.1,1.9-4.1,4.1-4.1Z"/>
    </g>
  </g>
</svg>