<svg width="32" height="32" viewBox="0 0 32 32" fill="none" xmlns="http://www.w3.org/2000/svg">
<path d="M4.1875 3L27.8125 29" stroke="#787E99" stroke-width="2" stroke-linecap="round" stroke-linejoin="round"/>
<path d="M23.4375 24.1875C20.75 27.2625 17.3375 28.5625 16.3125 28.9C16.1109 28.9747 15.8891 28.9747 15.6875 28.9C13.9125 28.3125 5 24.8375 5 14.3375V7C5 6.73478 5.10536 6.48043 5.29289 6.29289C5.48043 6.10536 5.73478 6 6 6H6.9125" stroke="#787E99" stroke-width="2" stroke-linecap="round" stroke-linejoin="round"/>
<path d="M12.3125 6H26C26.2652 6 26.5196 6.10536 26.7071 6.29289C26.8946 6.48043 27 6.73478 27 7V14.3375C27 16.85 26.4875 18.95 25.6875 20.7125" stroke="#787E99" stroke-width="2" stroke-linecap="round" stroke-linejoin="round"/>
</svg>
