<svg width="16" height="16" viewBox="0 0 16 16" fill="none" xmlns="http://www.w3.org/2000/svg">
<path d="M5.00899 15H1.60869C1.44726 15 1.29243 14.9359 1.17828 14.8217C1.06413 14.7076 1 14.5527 1 14.3913V10.991C1.00007 10.8298 1.06411 10.6752 1.17804 10.5611L10.561 1.17814C10.6752 1.06407 10.8299 1 10.9913 1C11.1527 1 11.3074 1.06407 11.4216 1.17814L14.8219 4.57616C14.9359 4.6903 15 4.84506 15 5.00643C15 5.16779 14.9359 5.32256 14.8219 5.4367L5.43888 14.822C5.32482 14.9359 5.17021 14.9999 5.00899 15Z" stroke="#494D5F" stroke-width="2" stroke-linecap="round" stroke-linejoin="round"/>
<path d="M8.30469 3.43481L12.5655 7.69565" stroke="#494D5F" stroke-width="2" stroke-linecap="round" stroke-linejoin="round"/>
</svg>
