<svg width="24" height="24" viewBox="0 0 24 24" fill="none" xmlns="http://www.w3.org/2000/svg">
<path d="M12 24C18.6274 24 24 18.6274 24 12C24 5.37258 18.6274 0 12 0C5.37258 0 0 5.37258 0 12C0 18.6274 5.37258 24 12 24Z" fill="#627EEA"/>
<path d="M12.3735 3V9.6525L17.9963 12.165L12.3735 3Z" fill="white" fill-opacity="0.602"/>
<path d="M12.3735 3L6.75 12.165L12.3735 9.6525V3Z" fill="white"/>
<path d="M12.3735 16.476V20.9963L18 13.212L12.3735 16.476Z" fill="white" fill-opacity="0.602"/>
<path d="M12.3735 20.9963V16.4753L6.75 13.212L12.3735 20.9963Z" fill="white"/>
<path d="M12.3735 15.4298L17.9963 12.1651L12.3735 9.65405V15.4298Z" fill="white" fill-opacity="0.2"/>
<path d="M6.75 12.1651L12.3735 15.4298V9.65405L6.75 12.1651Z" fill="white" fill-opacity="0.602"/>
</svg>
