<svg width="16" height="16" viewBox="0 0 16 16" fill="none" xmlns="http://www.w3.org/2000/svg">
<path d="M4.66661 9.45374V2.00041C4.66661 1.8236 4.59637 1.65403 4.47135 1.529C4.34632 1.40398 4.17675 1.33374 3.99994 1.33374C3.82313 1.33374 3.65356 1.40398 3.52854 1.529C3.40351 1.65403 3.33328 1.8236 3.33328 2.00041V9.45374C2.94717 9.59388 2.61358 9.84949 2.37784 10.1859C2.14209 10.5222 2.01563 10.923 2.01562 11.3337C2.01562 11.7445 2.14209 12.1453 2.37784 12.4816C2.61358 12.818 2.94717 13.0736 3.33328 13.2137V14.0004C3.33328 14.1772 3.40351 14.3468 3.52854 14.4718C3.65356 14.5968 3.82313 14.6671 3.99994 14.6671C4.17675 14.6671 4.34632 14.5968 4.47135 14.4718C4.59637 14.3468 4.66661 14.1772 4.66661 14.0004V13.2137C5.05271 13.0736 5.3863 12.818 5.62205 12.4816C5.85779 12.1453 5.98426 11.7445 5.98426 11.3337C5.98426 10.923 5.85779 10.5222 5.62205 10.1859C5.3863 9.84949 5.05271 9.59388 4.66661 9.45374ZM3.99994 12.0004C3.86809 12.0004 3.7392 11.9613 3.62956 11.8881C3.51993 11.8148 3.43448 11.7107 3.38402 11.5889C3.33356 11.467 3.32036 11.333 3.34609 11.2037C3.37181 11.0744 3.4353 10.9556 3.52854 10.8623C3.62177 10.7691 3.74056 10.7056 3.86988 10.6799C3.9992 10.6542 4.13325 10.6674 4.25506 10.7178C4.37688 10.7683 4.481 10.8537 4.55426 10.9634C4.62751 11.073 4.66661 11.2019 4.66661 11.3337C4.66661 11.5106 4.59637 11.6801 4.47135 11.8051C4.34632 11.9302 4.17675 12.0004 3.99994 12.0004ZM13.9999 8.66707C13.9988 8.25445 13.87 7.85227 13.6313 7.5157C13.3926 7.17912 13.0556 6.92462 12.6666 6.78707V2.00041C12.6666 1.8236 12.5964 1.65403 12.4713 1.529C12.3463 1.40398 12.1768 1.33374 11.9999 1.33374C11.8231 1.33374 11.6536 1.40398 11.5285 1.529C11.4035 1.65403 11.3333 1.8236 11.3333 2.00041V6.78707C10.9472 6.92721 10.6136 7.18283 10.3778 7.51918C10.1421 7.85554 10.0156 8.25633 10.0156 8.66707C10.0156 9.07782 10.1421 9.47861 10.3778 9.81496C10.6136 10.1513 10.9472 10.4069 11.3333 10.5471V14.0004C11.3333 14.1772 11.4035 14.3468 11.5285 14.4718C11.6536 14.5968 11.8231 14.6671 11.9999 14.6671C12.1768 14.6671 12.3463 14.5968 12.4713 14.4718C12.5964 14.3468 12.6666 14.1772 12.6666 14.0004V10.5471C13.0556 10.4095 13.3926 10.155 13.6313 9.81845C13.87 9.48187 13.9988 9.0797 13.9999 8.66707ZM11.9999 9.33374C11.8681 9.33374 11.7392 9.29464 11.6296 9.22139C11.5199 9.14813 11.4345 9.04401 11.384 8.9222C11.3336 8.80038 11.3204 8.66634 11.3461 8.53701C11.3718 8.40769 11.4353 8.28891 11.5285 8.19567C11.6218 8.10244 11.7406 8.03894 11.8699 8.01322C11.9992 7.98749 12.1332 8.0007 12.2551 8.05115C12.3769 8.10161 12.481 8.18706 12.5543 8.29669C12.6275 8.40633 12.6666 8.53522 12.6666 8.66707C12.6666 8.84389 12.5964 9.01345 12.4713 9.13848C12.3463 9.2635 12.1768 9.33374 11.9999 9.33374ZM9.99994 3.33374C10.001 2.96684 9.90106 2.60673 9.71113 2.29281C9.5212 1.97889 9.24857 1.72327 8.92309 1.55392C8.59761 1.38457 8.23182 1.30801 7.86574 1.33263C7.49967 1.35725 7.14742 1.4821 6.84755 1.69351C6.54768 1.90492 6.31174 2.19475 6.16555 2.53127C6.01937 2.86779 5.96857 3.23804 6.01872 3.6015C6.06887 3.96496 6.21804 4.30762 6.44989 4.59198C6.68175 4.87634 6.98736 5.09144 7.33328 5.21374V14.0004C7.33328 14.1772 7.40351 14.3468 7.52854 14.4718C7.65356 14.5968 7.82313 14.6671 7.99994 14.6671C8.17675 14.6671 8.34632 14.5968 8.47135 14.4718C8.59637 14.3468 8.66661 14.1772 8.66661 14.0004V5.21374C9.05564 5.0762 9.39261 4.82169 9.63132 4.48512C9.87002 4.14854 9.99878 3.74637 9.99994 3.33374ZM7.99994 4.00041C7.86809 4.00041 7.7392 3.96131 7.62956 3.88805C7.51993 3.8148 7.43448 3.71068 7.38402 3.58886C7.33356 3.46705 7.32036 3.333 7.34609 3.20368C7.37181 3.07436 7.4353 2.95557 7.52854 2.86234C7.62177 2.7691 7.74056 2.70561 7.86988 2.67988C7.9992 2.65416 8.13325 2.66736 8.25507 2.71782C8.37688 2.76828 8.481 2.85373 8.55426 2.96336C8.62751 3.07299 8.66661 3.20189 8.66661 3.33374C8.66661 3.51055 8.59637 3.68012 8.47135 3.80515C8.34632 3.93017 8.17675 4.00041 7.99994 4.00041Z" fill="#8B5CF6"/>
</svg>
