<svg width="24" height="24" viewBox="0 0 24 24" fill="none" xmlns="http://www.w3.org/2000/svg">
<path d="M6.6672 7.63722C6.56033 8.77722 6.48533 10.7947 7.15845 11.6535C7.15845 11.6535 6.84158 9.43722 9.6822 6.6566C10.826 5.53722 11.0903 4.01472 10.691 2.87285C10.4641 2.22597 10.0497 1.6916 9.6897 1.31847C9.4797 1.0991 9.64095 0.737222 9.94658 0.750347C11.7953 0.832847 14.7916 1.3466 16.0647 4.5416C16.6235 5.9441 16.6647 7.39347 16.3985 8.86722C16.2297 9.80847 15.6297 11.901 16.9985 12.1578C17.9753 12.3416 18.4478 11.5653 18.6597 11.0066C18.7478 10.7741 19.0535 10.716 19.2185 10.9016C20.8685 12.7785 21.0091 14.9891 20.6678 16.8922C20.0078 20.571 16.2822 23.2485 12.581 23.2485C7.9572 23.2485 4.27658 20.6028 3.3222 15.8141C2.93783 13.881 3.13283 10.056 6.11408 7.35597C6.33533 7.15347 6.6972 7.33347 6.6672 7.63722Z" fill="url(#paint0_radial_16455_46936)"/>
<path d="M14.2708 14.5165C12.5664 12.3227 13.3295 9.81958 13.7476 8.82208C13.8039 8.69083 13.6539 8.56708 13.5358 8.6477C12.8026 9.14645 11.3008 10.3202 10.6014 11.9721C9.6545 14.2052 9.722 15.2983 10.2826 16.6333C10.6201 17.4377 10.2283 17.6083 10.0314 17.6383C9.84013 17.6683 9.66388 17.5408 9.52325 17.4077C9.12013 17.0233 8.8295 16.5227 8.69075 15.9827C8.66075 15.8665 8.50888 15.8346 8.4395 15.9302C7.9145 16.6558 7.64263 17.8202 7.6295 18.6433C7.58825 21.1877 9.69013 23.2502 12.2326 23.2502C15.437 23.2502 17.7714 19.7065 15.9301 16.744C15.3958 15.8815 14.8933 15.3171 14.2708 14.5165Z" fill="url(#paint1_radial_16455_46936)"/>
<defs>
<radialGradient id="paint0_radial_16455_46936" cx="0" cy="0" r="1" gradientUnits="userSpaceOnUse" gradientTransform="translate(11.6652 23.3068) rotate(-179.751) scale(13.2352 21.7163)">
<stop offset="0.3144" stop-color="#FF9800"/>
<stop offset="0.6616" stop-color="#FF6D00"/>
<stop offset="0.9715" stop-color="#F44336"/>
</radialGradient>
<radialGradient id="paint1_radial_16455_46936" cx="0" cy="0" r="1" gradientUnits="userSpaceOnUse" gradientTransform="translate(12.4088 10.1362) rotate(90.5787) scale(13.8481 10.4217)">
<stop offset="0.2141" stop-color="#FFF176"/>
<stop offset="0.3275" stop-color="#FFF27D"/>
<stop offset="0.4868" stop-color="#FFF48F"/>
<stop offset="0.6722" stop-color="#FFF7AD"/>
<stop offset="0.7931" stop-color="#FFF9C4"/>
<stop offset="0.8221" stop-color="#FFF8BD" stop-opacity="0.804"/>
<stop offset="0.8627" stop-color="#FFF6AB" stop-opacity="0.529"/>
<stop offset="0.9101" stop-color="#FFF38D" stop-opacity="0.2088"/>
<stop offset="0.9409" stop-color="#FFF176" stop-opacity="0"/>
</radialGradient>
</defs>
</svg>
