<svg width="32" height="32" viewBox="0 0 32 32" fill="none" xmlns="http://www.w3.org/2000/svg">
<rect width="32" height="32" rx="16" fill="#B4F9BA"/>
<path d="M12.9317 8.48676L15.8738 6.78758C15.9575 6.73926 16.0617 6.73926 16.1454 6.78758L23.8999 11.2647C23.9836 11.3131 24.0354 11.4025 24.0361 11.4992L24.0465 14.5785C24.0465 14.6759 23.9951 14.7662 23.9104 14.8145L20.9722 16.5113C20.7919 16.616 20.5652 16.4855 20.5645 16.2768L20.5548 13.5133C20.5548 13.4167 20.5024 13.3273 20.4187 13.2789L12.9317 8.95727C12.7503 8.85253 12.7503 8.5915 12.9317 8.48676Z" fill="#010101"/>
<path d="M11.0309 22.4345L8.0895 20.7361C8.00473 20.6878 7.95337 20.5983 7.95337 20.5008V11.5466C7.95337 11.4499 8.00473 11.3605 8.08878 11.3113L10.7507 9.76201C10.8352 9.71287 10.939 9.71287 11.023 9.76201L13.9612 11.4588C14.1415 11.5635 14.1426 11.8237 13.9619 11.9293L11.574 13.3191C11.4903 13.3674 11.4386 13.4568 11.4386 13.5543V22.2C11.4386 22.4095 11.2123 22.54 11.0309 22.4353V22.4345Z" fill="#010101"/>
<path d="M24.0466 17.1034V20.5001C24.0466 20.5976 23.9948 20.687 23.9104 20.7354L16.1559 25.2123C16.0722 25.2608 15.9687 25.2608 15.885 25.2123L13.2127 23.6817C13.1279 23.6334 13.0758 23.5431 13.0758 23.4456V20.053C13.0758 19.8443 13.3014 19.7137 13.4824 19.8169L15.8804 21.1906C15.9641 21.2389 16.0671 21.2381 16.1508 21.1906L23.6382 16.8673C23.8192 16.7626 24.0458 16.8931 24.0458 17.1026L24.0466 17.1034Z" fill="#010101"/>
</svg>
