<svg width="24" height="24" viewBox="0 0 24 24" fill="none" xmlns="http://www.w3.org/2000/svg">
<g clip-path="url(#clip0_6859_12412)">
<path fill-rule="evenodd" clip-rule="evenodd" d="M12 24C5.4 24 0 18.6 0 11.94C0.06 5.34001 5.4 -0.0599931 12.06 6.93317e-06C18.66 0.0600069 24 5.40001 24 12.12C23.94 18.66 18.6 24 12 24Z" fill="#0090FF"/>
<path fill-rule="evenodd" clip-rule="evenodd" d="M13.1402 10.56L12.7802 12.48L16.2002 12.96L15.9602 13.86L12.6002 13.38C12.3602 14.16 12.2402 15 11.9402 15.72C11.6402 16.56 11.3402 17.4 10.9802 18.18C10.5002 19.2 9.66023 19.92 8.52023 20.1C7.86023 20.22 7.14023 20.16 6.60023 19.74C6.42023 19.62 6.24023 19.38 6.24023 19.2C6.24023 18.96 6.36023 18.66 6.54023 18.54C6.66023 18.48 6.96023 18.54 7.14023 18.6C7.32023 18.78 7.50023 19.02 7.62023 19.26C7.98023 19.74 8.46023 19.8 8.94023 19.44C9.48023 18.96 9.78023 18.3 9.96023 17.64C10.3202 16.2 10.6802 14.82 10.9802 13.38V13.14L7.80023 12.66L7.92023 11.76L11.2202 12.24L11.6402 10.38L8.22023 9.84L8.34023 8.88L11.8802 9.36C12.0002 9 12.0602 8.7 12.1802 8.4C12.4802 7.32 12.7802 6.24 13.5002 5.28C14.2202 4.32 15.0602 3.72 16.3202 3.78C16.8602 3.78 17.4002 3.96 17.7602 4.38C17.8202 4.44 17.9402 4.56 17.9402 4.68C17.9402 4.92 17.9402 5.22 17.7602 5.4C17.5202 5.58 17.2202 5.52 16.9802 5.28C16.8002 5.1 16.6802 4.92 16.5002 4.74C16.1402 4.26 15.6002 4.2 15.1802 4.62C14.8802 4.92 14.5802 5.34 14.4002 5.76C13.9802 7.02 13.6802 8.34 13.2602 9.66L16.5602 10.14L16.3202 11.04L13.1402 10.56Z" fill="white"/>
</g>
<defs>
<clipPath id="clip0_6859_12412">
<rect width="24" height="24" fill="white"/>
</clipPath>
</defs>
</svg>
