<svg width="13" height="12" viewBox="0 0 13 12" fill="none" xmlns="http://www.w3.org/2000/svg">
<g clip-path="url(#clip0_11746_42664)">
<path d="M8.3758 3.5625C8.3758 3.31386 8.47457 3.0754 8.65039 2.89959C8.8262 2.72377 9.06466 2.625 9.3133 2.625C9.56194 2.625 9.8004 2.72377 9.97621 2.89959C10.152 3.0754 10.2508 3.31386 10.2508 3.5625V7.125C10.2508 7.61746 10.1538 8.10509 9.96535 8.56006C9.77689 9.01503 9.50067 9.42843 9.15245 9.77665C8.80423 10.1249 8.39083 10.4011 7.93586 10.5895C7.48089 10.778 6.99326 10.875 6.5008 10.875C4.42986 10.875 3.65314 9.8775 2.12642 6.65625C2.00406 6.44104 1.9718 6.18617 2.03666 5.94725C2.10152 5.70834 2.25825 5.50478 2.47265 5.38099C2.68704 5.25721 2.9417 5.22325 3.18103 5.28653C3.42037 5.3498 3.62497 5.50518 3.75017 5.71875L4.6258 7.125V2.8125C4.6258 2.56386 4.72457 2.3254 4.90039 2.14959C5.0762 1.97377 5.31466 1.875 5.5633 1.875C5.81194 1.875 6.0504 1.97377 6.22621 2.14959C6.40203 2.3254 6.5008 2.56386 6.5008 2.8125" stroke="#8B5CF6" stroke-linecap="round" stroke-linejoin="round"/>
<path d="M6.5 5.625V2.0625C6.5 1.81386 6.59877 1.5754 6.77459 1.39959C6.9504 1.22377 7.18886 1.125 7.4375 1.125C7.68614 1.125 7.9246 1.22377 8.10041 1.39959C8.27623 1.5754 8.375 1.81386 8.375 2.0625V5.625" stroke="#8B5CF6" stroke-linecap="round" stroke-linejoin="round"/>
</g>
<defs>
<clipPath id="clip0_11746_42664">
<rect width="12" height="12" fill="white" transform="translate(0.5)"/>
</clipPath>
</defs>
</svg>
