<svg width="24" height="24" viewBox="0 0 24 24" fill="none" xmlns="http://www.w3.org/2000/svg">
<path d="M11.9258 22.275C6.69453 22.275 1.05078 18.9938 1.05078 11.7938C1.05078 4.59375 6.69453 1.3125 11.9258 1.3125C14.832 1.3125 17.5133 2.26875 19.5008 4.0125C21.657 5.925 22.8008 8.625 22.8008 11.7938C22.8008 14.9625 21.657 17.6438 19.5008 19.5563C17.5133 21.3 14.8133 22.275 11.9258 22.275Z" fill="url(#paint0_radial_16457_46996)"/>
<path d="M20.9037 5.56348C21.9031 7.17598 22.4244 9.09598 22.4244 11.2316C22.4244 14.4004 21.2806 17.0816 19.1244 18.9941C17.1369 20.7379 14.4369 21.7129 11.5494 21.7129C8.16313 21.7129 4.61188 20.3347 2.51562 17.4116C4.53312 20.7229 8.32812 22.2754 11.9244 22.2754C14.8119 22.2754 17.5119 21.3004 19.4994 19.5566C21.6556 17.6441 22.7994 14.9629 22.7994 11.7941C22.7994 9.40535 22.1488 7.28285 20.9037 5.56348Z" fill="#EB8F00"/>
<path d="M7.39413 5.8522C7.31163 5.65345 7.08663 5.5522 6.88413 5.62532C6.58038 5.7247 6.28788 5.85407 6.0085 6.0097C5.266 6.41845 4.63038 6.99782 4.15413 7.6972C4.02288 7.87532 4.05663 8.1247 4.231 8.2597C4.32288 8.33657 4.44288 8.37407 4.56288 8.35907C4.65288 8.34595 4.73538 8.30282 4.79913 8.2372C5.51913 7.5322 6.32538 6.92095 7.19725 6.41845L7.21788 6.4072C7.41663 6.30032 7.49538 6.0547 7.39413 5.8522Z" fill="#422B0D"/>
<path d="M17.0055 5.6647C17.088 5.46595 17.313 5.3647 17.5155 5.43782C17.8174 5.53532 18.1099 5.66095 18.3893 5.81282C19.1318 6.22157 19.7674 6.79907 20.2455 7.50032C20.3749 7.67845 20.3411 7.92595 20.1686 8.06282C20.0768 8.1397 19.9568 8.17532 19.8368 8.1622C19.7468 8.14907 19.6643 8.10595 19.6005 8.04032C18.8805 7.33532 18.0743 6.72407 17.2024 6.22157L17.1818 6.21032C16.9886 6.10345 16.9099 5.86532 17.0055 5.6647Z" fill="#422B0D"/>
<path d="M19.138 13.4284C18.8755 12.954 18.3055 12.7459 17.7993 12.9372C15.8755 13.4978 13.8805 13.7772 11.8762 13.7678C9.87178 13.7772 7.87678 13.4978 5.95303 12.9372C5.44865 12.7459 4.87865 12.9522 4.61615 13.4247C4.36115 13.8953 4.5449 14.4409 4.76053 14.9115C5.96428 17.5553 8.6174 19.1378 11.8612 19.1472H11.8912C15.1349 19.1472 17.788 17.5553 18.9937 14.9115C19.2074 14.4372 19.393 13.899 19.138 13.4284Z" fill="#422B0D"/>
<path d="M14.8784 18.401C14.8091 18.3372 14.7378 18.2791 14.6666 18.2135C13.9016 17.5403 12.9116 17.1785 11.8916 17.1991C10.8416 17.1822 9.81969 17.531 9.00031 18.1872C8.92906 18.2453 8.85406 18.3016 8.78469 18.3747C8.71531 18.4478 8.67781 18.5003 8.63281 18.5622C9.66406 18.9653 10.7628 19.1716 11.8709 19.166H11.9009C12.9622 19.166 14.0141 18.9766 15.0078 18.6035C14.9703 18.5322 14.9272 18.4647 14.8784 18.401Z" fill="#ED7770"/>
<path d="M17.8006 12.938C15.8769 13.4986 13.8819 13.778 11.8775 13.7686C9.87313 13.778 7.87813 13.4986 5.95438 12.938C5.45 12.7467 4.88 12.953 4.6175 13.4255C4.58 13.4967 4.55 13.5717 4.53125 13.6486C4.59313 13.6805 4.66437 13.7123 4.74875 13.7461C7.00625 14.8767 9.50187 15.4505 12.0256 15.4205C14.4462 15.4486 16.8388 14.9217 19.025 13.883C19.1131 13.8455 19.1862 13.8098 19.2519 13.7761C19.2369 13.6542 19.1975 13.5342 19.1394 13.4255C18.8769 12.953 18.3069 12.7448 17.8006 12.938Z" fill="white"/>
<path d="M19.1455 13.4303C18.8793 12.9559 18.3074 12.7459 17.7974 12.9372C15.8737 13.4978 13.8787 13.7772 11.8762 13.7678C9.87178 13.7772 7.87678 13.4978 5.95303 12.9372C5.44865 12.7459 4.87865 12.9522 4.61615 13.4247C4.36115 13.8953 4.5449 14.4409 4.76053 14.9115C4.85615 15.1234 4.96303 15.3315 5.08115 15.5322C5.08115 15.5322 4.6874 14.0734 5.02865 13.6497C5.1449 13.4697 5.3399 13.3572 5.55365 13.3459C5.64178 13.3459 5.72803 13.3609 5.8124 13.3872C7.7699 13.9628 9.80053 14.2534 11.8424 14.2497H11.908C13.9499 14.2534 15.9805 13.9628 17.938 13.3872C18.0224 13.3609 18.1087 13.3459 18.1968 13.3459C18.4105 13.3572 18.6074 13.4697 18.7237 13.6497C19.0705 14.0734 18.6712 15.5378 18.6712 15.5378C18.7874 15.3372 18.9037 15.1309 19.0012 14.9172C19.2149 14.4465 19.4005 13.9028 19.1455 13.4303Z" fill="#EB8F00"/>
<path d="M18.8789 10.7051C18.8789 10.7051 22.0664 10.7932 23.3395 13.1426C23.872 14.1288 23.902 15.7676 22.7995 16.3657C21.4664 17.0988 20.2158 16.0582 20.0564 14.9482C19.627 11.937 18.8789 10.7051 18.8789 10.7051Z" fill="#29B6F6"/>
<path d="M23.1126 15.2386C22.9869 15.4673 22.7113 15.5667 22.4694 15.4711C22.2538 15.3567 22.1957 15.0811 22.1619 14.8392L22.0588 14.0892C22.0157 13.7911 21.7119 12.8255 22.0307 12.668C22.2838 12.5442 22.7694 12.8855 22.9119 13.0823C23.2251 13.5286 23.3732 14.7998 23.1126 15.2386Z" fill="#81D4FA"/>
<path d="M22.0312 12.6768C22.2844 12.553 22.77 12.8943 22.9125 13.0911C23.2256 13.528 23.3738 14.7993 23.1131 15.238C22.9875 15.4668 22.7119 15.5661 22.47 15.4705C22.2544 15.3561 22.1963 15.0805 22.1625 14.8386L22.0594 14.0886" fill="#81D4FA"/>
<path d="M5.1208 10.7051C5.1208 10.7051 1.9333 10.7932 0.660175 13.1426C0.127675 14.1195 0.10705 15.7507 1.20017 16.3563C2.5333 17.0895 3.78392 16.0488 3.9433 14.9388C4.37267 11.937 5.1208 10.7051 5.1208 10.7051Z" fill="#29B6F6"/>
<path d="M0.887842 15.2386C1.01347 15.4673 1.28909 15.5667 1.53097 15.4711C1.74659 15.3567 1.80472 15.0811 1.83847 14.8392L1.94159 14.0892C1.98472 13.7911 2.28847 12.8255 1.96972 12.668C1.71659 12.5442 1.23097 12.8855 1.08847 13.0823C0.775342 13.5286 0.627217 14.7998 0.887842 15.2386Z" fill="#81D4FA"/>
<path d="M9.02953 10.4759L9.0014 10.4346L8.96203 10.384C8.94703 10.3634 8.93203 10.3465 8.91328 10.3296L8.7989 10.2134C8.75015 10.1646 8.69578 10.1159 8.63578 10.0652C8.51203 9.95836 8.37328 9.87211 8.22328 9.80461C8.0789 9.74086 7.9214 9.70711 7.7639 9.70711C7.82953 9.70711 7.78078 9.70711 7.79578 9.70711H7.6889C7.67015 9.70523 7.65328 9.70523 7.63453 9.70711C7.60078 9.71086 7.56703 9.71648 7.53328 9.72398C7.4564 9.74273 7.37953 9.76711 7.3064 9.79711C7.1564 9.86273 7.01765 9.95086 6.8939 10.0577C6.79265 10.1421 6.69703 10.234 6.6089 10.3334L6.50203 10.4534L6.44578 10.5171C6.2189 10.7759 5.82703 10.8021 5.56828 10.5771C5.37515 10.4084 5.30578 10.1365 5.39203 9.89461L5.41265 9.83461C5.42953 9.79523 5.44453 9.73523 5.48015 9.66398C5.5664 9.46148 5.6789 9.26836 5.8139 9.09398C6.14203 8.66086 6.60328 8.34586 7.1264 8.19586C7.23328 8.16773 7.34203 8.14711 7.45265 8.13211C7.5089 8.13211 7.5914 8.11523 7.61578 8.11523H7.75828C7.97015 8.11898 8.18203 8.14898 8.38828 8.20148C8.58515 8.25586 8.77265 8.33461 8.95078 8.43586C9.2414 8.60648 9.4964 8.83148 9.70078 9.09961C9.83953 9.28148 9.95765 9.47836 10.0495 9.68836C10.0645 9.71836 10.0777 9.74836 10.0852 9.78023C10.0945 9.80461 10.1002 9.82523 10.1058 9.84211L10.1227 9.89273C10.2295 10.2246 10.0477 10.5809 9.71578 10.6877C9.4664 10.7684 9.19078 10.6859 9.02765 10.4815L9.02953 10.4759Z" fill="#422B0D"/>
<path d="M17.5289 10.4759L17.4952 10.4346L17.4558 10.384C17.4408 10.3634 17.4258 10.3465 17.407 10.3296L17.2908 10.2134C17.2402 10.1609 17.1858 10.1121 17.1295 10.0652C17.0058 9.95836 16.867 9.87211 16.717 9.80461C16.5727 9.74086 16.4152 9.70711 16.2577 9.70711C16.3233 9.70711 16.2745 9.70711 16.2895 9.70711H16.1808C16.162 9.70523 16.1452 9.70523 16.1264 9.70711C16.0927 9.71086 16.0589 9.71648 16.0252 9.72398C15.9483 9.74273 15.8714 9.76711 15.7983 9.79711C15.6464 9.86648 15.5039 9.95648 15.3764 10.0652C15.2752 10.1515 15.1814 10.2434 15.0933 10.3409L14.9864 10.4609L14.9302 10.5246C14.7033 10.7834 14.3114 10.8096 14.0527 10.5846C13.8595 10.4159 13.7902 10.144 13.8764 9.90211L13.897 9.84211C13.9139 9.80273 13.9289 9.74273 13.9627 9.67148C14.0527 9.46523 14.167 9.27211 14.3058 9.09398C14.6339 8.66086 15.0952 8.34586 15.6183 8.19586C15.7252 8.16773 15.8339 8.14711 15.9445 8.13211C16.0008 8.13211 16.0833 8.11523 16.1077 8.11523H16.2502C16.462 8.11898 16.6739 8.14898 16.8802 8.20148C17.0752 8.25773 17.2627 8.33648 17.4389 8.43773C17.7295 8.60648 17.9845 8.83336 18.1889 9.10148C18.2677 9.20273 18.337 9.30961 18.4008 9.42023C18.4514 9.50836 18.4964 9.59836 18.5377 9.69023C18.5527 9.72023 18.5639 9.75023 18.5733 9.78211C18.5733 9.80648 18.5883 9.82711 18.5939 9.84398L18.6108 9.89461C18.7177 10.2265 18.5358 10.5827 18.2039 10.6896C17.9545 10.7702 17.6789 10.6877 17.5158 10.4834L17.5289 10.4759Z" fill="#422B0D"/>
<defs>
<radialGradient id="paint0_radial_16457_46996" cx="0" cy="0" r="1" gradientUnits="userSpaceOnUse" gradientTransform="translate(11.9258 11.7938) scale(10.6799 10.6799)">
<stop offset="0.5" stop-color="#FDE030"/>
<stop offset="0.92" stop-color="#F7C02B"/>
<stop offset="1" stop-color="#F4A223"/>
</radialGradient>
</defs>
</svg>
