<svg width="27" height="27" viewBox="0 0 27 27" fill="none" xmlns="http://www.w3.org/2000/svg">
<g id="Group 4331">
<path id="Vector" d="M11.9144 12.5657C11.6065 13.086 6.79798 13.1734 4.17427 11.6979C1.55125 10.2223 2.82539 5.71108 5.48612 4.52667C8.14686 3.34225 12.2223 12.0454 11.9137 12.5657H11.9144Z" stroke="#657795" stroke-width="2" stroke-linecap="round" stroke-linejoin="round"/>
<path id="Vector_2" d="M11.8771 14.3718C12.1857 14.8921 9.85894 18.9925 7.23592 20.4673C4.61221 21.9429 1.23897 18.6126 1.51602 15.7751C1.79307 12.9383 11.5685 13.8515 11.8764 14.3718H11.8771Z" stroke="#657795" stroke-width="2" stroke-linecap="round" stroke-linejoin="round"/>
<path id="Vector_3" d="M13.4616 15.3057C14.0781 15.3057 16.5598 19.3186 16.5598 22.2697C16.5598 25.2208 11.9125 26.4011 9.52877 24.7487C7.14508 23.0963 12.8451 15.3064 13.4616 15.3064V15.3057Z" stroke="#657795" stroke-width="2" stroke-linecap="round" stroke-linejoin="round"/>
<path id="Vector_4" d="M15.0868 14.4341C15.3947 13.9138 20.2032 13.8264 22.8269 15.302C25.4499 16.7775 24.1758 21.2887 21.5151 22.4732C18.8543 23.6576 14.7789 14.9544 15.0868 14.4341Z" stroke="#657795" stroke-width="2" stroke-linecap="round" stroke-linejoin="round"/>
<path id="Vector_5" d="M15.1213 12.6283C14.8127 12.108 17.1395 8.00759 19.7625 6.53274C22.3856 5.05721 25.7588 8.38817 25.4818 11.225C25.2047 14.0618 15.4292 13.1486 15.1213 12.6283Z" stroke="#657795" stroke-width="2" stroke-linecap="round" stroke-linejoin="round"/>
<path id="Vector_6" d="M13.5357 11.6939C12.9193 11.6939 10.4375 7.6809 10.4375 4.73052C10.4375 1.78014 15.0849 0.599166 17.4679 2.25157C19.8516 3.90397 14.1516 11.6939 13.5351 11.6939H13.5357Z" stroke="#657795" stroke-width="2" stroke-linecap="round" stroke-linejoin="round"/>
</g>
</svg>
