<?xml version="1.0" encoding="UTF-8"?>
<svg xmlns="http://www.w3.org/2000/svg" xmlns:xlink="http://www.w3.org/1999/xlink" width="24px" height="25px" viewBox="0 0 24 24" version="1.1">
<defs>
<clipPath id="clip1">
  <path d="M 5.964844 7 L 16 7 L 16 18 L 5.964844 18 Z M 5.964844 7 "/>
</clipPath>
<clipPath id="clip2">
  <path d="M 13 6 L 17.910156 6 L 17.910156 10 L 13 10 Z M 13 6 "/>
</clipPath>
</defs>
<g id="surface1">
<path style=" stroke:none;fill-rule:nonzero;fill:rgb(38.039216%,87.45098%,100%);fill-opacity:1;" d="M 0 0 L 23.929688 0 L 23.929688 23.957031 L 0 23.957031 Z M 0 0 "/>
<g clip-path="url(#clip1)" clip-rule="nonzero">
<path style=" stroke:none;fill-rule:nonzero;fill:rgb(7.058824%,7.058824%,7.058824%);fill-opacity:1;" d="M 15.882812 18 L 5.964844 18 L 5.964844 7.949219 L 8.234375 7.949219 L 8.234375 16.050781 L 15.882812 16.050781 Z M 15.882812 18 "/>
</g>
<g clip-path="url(#clip2)" clip-rule="nonzero">
<path style=" stroke:none;fill-rule:nonzero;fill:rgb(7.058824%,7.058824%,7.058824%);fill-opacity:1;" d="M 15.882812 9.894531 C 17.003906 9.894531 17.910156 9.023438 17.910156 7.949219 C 17.910156 6.875 17.003906 6 15.882812 6 C 14.765625 6 13.859375 6.875 13.859375 7.949219 C 13.859375 9.023438 14.765625 9.894531 15.882812 9.894531 Z M 15.882812 9.894531 "/>
</g>
</g>
</svg>
