<svg width="15" height="20" viewBox="0 0 15 20" fill="none" xmlns="http://www.w3.org/2000/svg">
<path d="M2.85714 10V4.28571C2.85714 3.14907 3.30867 2.05898 4.1124 1.25526C4.91613 0.451529 6.00622 0 7.14286 0C8.2795 0 9.36959 0.451529 10.1733 1.25526C10.977 2.05898 11.4286 3.14907 11.4286 4.28571V10C11.4286 11.1366 10.977 12.2267 10.1733 13.0305C9.36959 13.8342 8.2795 14.2857 7.14286 14.2857C6.00622 14.2857 4.91613 13.8342 4.1124 13.0305C3.30867 12.2267 2.85714 11.1366 2.85714 10ZM14.2857 10C14.2857 9.81056 14.2105 9.62888 14.0765 9.49492C13.9426 9.36097 13.7609 9.28571 13.5714 9.28571C13.382 9.28571 13.2003 9.36097 13.0664 9.49492C12.9324 9.62888 12.8571 9.81056 12.8571 10C12.8571 11.5155 12.2551 12.969 11.1835 14.0406C10.1118 15.1122 8.65838 15.7143 7.14286 15.7143C5.62733 15.7143 4.17388 15.1122 3.10225 14.0406C2.03061 12.969 1.42857 11.5155 1.42857 10C1.42857 9.81056 1.35332 9.62888 1.21936 9.49492C1.08541 9.36097 0.903726 9.28571 0.714286 9.28571C0.524845 9.28571 0.343164 9.36097 0.20921 9.49492C0.075255 9.62888 0 9.81056 0 10C0.0021751 11.7701 0.660644 13.4766 1.84807 14.7893C3.0355 16.1021 4.66754 16.9279 6.42857 17.1071V19.2857C6.42857 19.4752 6.50383 19.6568 6.63778 19.7908C6.77174 19.9247 6.95342 20 7.14286 20C7.3323 20 7.51398 19.9247 7.64793 19.7908C7.78189 19.6568 7.85714 19.4752 7.85714 19.2857V17.1071C9.61818 16.9279 11.2502 16.1021 12.4376 14.7893C13.6251 13.4766 14.2835 11.7701 14.2857 10Z" fill="#8B5CF6"/>
</svg>
