<svg width="12" height="14" viewBox="0 0 12 14" fill="none" xmlns="http://www.w3.org/2000/svg">
<path d="M11.3701 12.1637L1.37013 1.16369C1.32622 1.1142 1.27292 1.07391 1.21333 1.04516C1.15373 1.01642 1.08902 0.999783 1.02295 0.996229C0.956884 0.992675 0.890766 1.00227 0.828431 1.02446C0.766097 1.04664 0.708786 1.08098 0.65982 1.12548C0.610854 1.16998 0.571207 1.22376 0.543177 1.28369C0.515147 1.34363 0.499292 1.40853 0.49653 1.47463C0.493768 1.54074 0.504154 1.60674 0.527087 1.66881C0.550019 1.73087 0.585042 1.78776 0.630126 1.83619L3.00013 4.44307V6.99994C3.0002 7.53837 3.14517 8.06686 3.41985 8.52996C3.69452 8.99306 4.08877 9.3737 4.56122 9.63195C5.03368 9.8902 5.56693 10.0165 6.10503 9.99771C6.64313 9.97888 7.16625 9.81558 7.6195 9.52494L8.2995 10.2749C7.70016 10.696 6.99672 10.9444 6.26589 10.9931C5.53505 11.0417 4.80489 10.8888 4.15501 10.5509C3.50514 10.213 2.96051 9.70323 2.58052 9.07706C2.20053 8.45088 1.99977 7.7324 2.00013 6.99994C2.00013 6.86734 1.94745 6.74016 1.85368 6.64639C1.75991 6.55262 1.63273 6.49994 1.50013 6.49994C1.36752 6.49994 1.24034 6.55262 1.14657 6.64639C1.0528 6.74016 1.00013 6.86734 1.00013 6.99994C1.00165 8.23903 1.46258 9.43354 2.29378 10.3525C3.12498 11.2714 4.2674 11.8495 5.50013 11.9749V13.4999C5.50013 13.6326 5.5528 13.7597 5.64657 13.8535C5.74034 13.9473 5.86752 13.9999 6.00013 13.9999C6.13273 13.9999 6.25991 13.9473 6.35368 13.8535C6.44745 13.7597 6.50013 13.6326 6.50013 13.4999V11.9743C7.39687 11.8851 8.25265 11.5544 8.97638 11.0174L10.6301 12.8362C10.674 12.8857 10.7273 12.926 10.7869 12.9547C10.8465 12.9835 10.9112 13.0001 10.9773 13.0037C11.0434 13.0072 11.1095 12.9976 11.1718 12.9754C11.2342 12.9532 11.2915 12.9189 11.3404 12.8744C11.3894 12.8299 11.429 12.7761 11.4571 12.7162C11.4851 12.6563 11.501 12.5914 11.5037 12.5253C11.5065 12.4591 11.4961 12.3931 11.4732 12.3311C11.4502 12.269 11.4152 12.2121 11.3701 12.1637ZM6.00013 8.99994C5.46969 8.99994 4.96099 8.78923 4.58591 8.41416C4.21084 8.03908 4.00013 7.53038 4.00013 6.99994V5.54307L6.93263 8.76932C6.64514 8.92081 6.32508 8.99996 6.00013 8.99994ZM3.44763 1.42369C3.79063 0.868277 4.30543 0.439895 4.91393 0.203542C5.52243 -0.0328107 6.19142 -0.0642356 6.8194 0.114035C7.44737 0.292306 8.00007 0.670544 8.39362 1.19136C8.78718 1.71218 9.00011 2.34715 9.00013 2.99994V6.77682C9.00013 6.90943 8.94745 7.0366 8.85368 7.13037C8.75991 7.22414 8.63273 7.27682 8.50013 7.27682C8.36752 7.27682 8.24034 7.22414 8.14657 7.13037C8.0528 7.0366 8.00013 6.90943 8.00013 6.77682V2.99994C8.00037 2.56452 7.8585 2.14091 7.59607 1.79345C7.33364 1.44599 6.96498 1.19367 6.54609 1.0748C6.1272 0.955937 5.68097 0.977024 5.27515 1.13486C4.86934 1.2927 4.52612 1.57866 4.29763 1.94932C4.26433 2.00761 4.21964 2.0586 4.16622 2.09925C4.1128 2.1399 4.05174 2.16938 3.98668 2.18593C3.92162 2.20247 3.85389 2.20575 3.78754 2.19555C3.72119 2.18536 3.65757 2.16192 3.60047 2.12661C3.54338 2.0913 3.49398 2.04486 3.45522 1.99005C3.41646 1.93524 3.38913 1.87319 3.37486 1.80759C3.3606 1.74199 3.35969 1.6742 3.37219 1.60824C3.38469 1.54228 3.41035 1.47952 3.44763 1.42369ZM9.72763 8.45432C9.90853 7.99081 10.001 7.4975 10.0001 6.99994C10.0001 6.86734 10.0528 6.74016 10.1466 6.64639C10.2403 6.55262 10.3675 6.49994 10.5001 6.49994C10.6327 6.49994 10.7599 6.55262 10.8537 6.64639C10.9474 6.74016 11.0001 6.86734 11.0001 6.99994C11.001 7.62199 10.8853 8.23868 10.6589 8.81807C10.636 8.88057 10.6009 8.93788 10.5555 8.98663C10.5102 9.03538 10.4556 9.07459 10.3949 9.10196C10.3343 9.12932 10.2687 9.1443 10.2022 9.14601C10.1356 9.14772 10.0694 9.13613 10.0074 9.11191C9.94543 9.08769 9.88889 9.05134 9.84113 9.00498C9.79336 8.95862 9.75533 8.90319 9.72927 8.84194C9.70321 8.78069 9.68964 8.71486 9.68936 8.6483C9.68907 8.58173 9.70208 8.51579 9.72763 8.45432Z" fill="#E93636"/>
</svg>
