<svg width="16" height="20" viewBox="0 0 16 20" fill="none" xmlns="http://www.w3.org/2000/svg">
<path d="M15.4862 18.3857C15.346 18.5131 15.1609 18.5796 14.9717 18.5705C14.7825 18.5615 14.6047 18.4777 14.4772 18.3375L12.1147 15.7393C11.0808 16.5064 9.8583 16.9788 8.57722 17.1062V19.2857C8.57722 19.4752 8.50197 19.6568 8.36801 19.7908C8.23406 19.9247 8.05238 20 7.86293 20C7.67349 20 7.49181 19.9247 7.35786 19.7908C7.2239 19.6568 7.14865 19.4752 7.14865 19.2857V17.1071C5.3876 16.9279 3.75557 16.1021 2.56813 14.7893C1.3807 13.4765 0.722224 11.7701 0.720048 9.99996C0.720048 9.81052 0.795304 9.62884 0.929259 9.49488C1.06321 9.36093 1.2449 9.28567 1.43434 9.28567C1.62378 9.28567 1.80546 9.36093 1.93942 9.49488C2.07337 9.62884 2.14863 9.81052 2.14863 9.99996C2.14877 11.046 2.43605 12.072 2.97916 12.966C3.52227 13.86 4.30036 14.5878 5.22863 15.07C6.15691 15.5523 7.19975 15.7705 8.24349 15.7008C9.28722 15.6311 10.2918 15.2763 11.1478 14.675L10.1763 13.6035C9.52909 14.0186 8.7821 14.2519 8.01369 14.2789C7.24528 14.306 6.48375 14.1258 5.80892 13.7573C5.13409 13.3888 4.57083 12.8455 4.17817 12.1844C3.78552 11.5234 3.57794 10.7688 3.5772 9.99996V6.34727L0.191475 2.62314C0.12707 2.55396 0.077037 2.47268 0.0442759 2.38402C0.0115148 2.29535 -0.00332312 2.20107 0.000622646 2.10663C0.00456841 2.01219 0.0272194 1.91947 0.0672623 1.83385C0.107305 1.74823 0.163943 1.67141 0.233895 1.60784C0.303847 1.54426 0.38572 1.49521 0.47477 1.46351C0.56382 1.43182 0.658275 1.41811 0.752661 1.42319C0.847046 1.42827 0.939486 1.45203 1.02462 1.4931C1.10976 1.53416 1.18589 1.59172 1.24862 1.66243L15.5344 17.3768C15.6618 17.517 15.7283 17.702 15.7192 17.8912C15.7102 18.0804 15.6264 18.2583 15.4862 18.3857ZM10.9058 10.1616C11.0028 10.2683 11.1298 10.3431 11.2701 10.3763C11.4104 10.4094 11.5574 10.3994 11.6919 10.3474C11.8264 10.2954 11.942 10.204 12.0235 10.0851C12.105 9.96617 12.1487 9.82538 12.1487 9.68121V4.28565C12.1486 3.35309 11.8445 2.44598 11.2822 1.70195C10.72 0.957923 9.93044 0.417582 9.03333 0.162908C8.13621 -0.0917655 7.18051 -0.0468726 6.31122 0.290776C5.44193 0.628425 4.70649 1.2404 4.21649 2.03386C4.13436 2.16538 4.09725 2.32006 4.11079 2.47453C4.12432 2.629 4.18774 2.77487 4.29149 2.89011L10.9058 10.1616ZM13.5933 13.0035C13.6807 13.0376 13.774 13.0541 13.8678 13.0522C13.9616 13.0502 14.0541 13.0298 14.14 12.992C14.2259 12.9543 14.3035 12.9 14.3684 12.8323C14.4333 12.7646 14.4843 12.6847 14.5183 12.5973C14.8417 11.7696 15.0071 10.8886 15.0058 9.99996C15.0058 9.81052 14.9306 9.62884 14.7966 9.49488C14.6627 9.36093 14.481 9.28567 14.2915 9.28567C14.1021 9.28567 13.9204 9.36093 13.7865 9.49488C13.6525 9.62884 13.5772 9.81052 13.5772 9.99996C13.5784 10.7108 13.4464 11.4155 13.188 12.0776C13.1537 12.1651 13.137 12.2583 13.1389 12.3522C13.1407 12.4461 13.1611 12.5386 13.1987 12.6246C13.2364 12.7106 13.2906 12.7883 13.3583 12.8534C13.426 12.9184 13.5059 12.9694 13.5933 13.0035Z" fill="#8B5CF6"/>
</svg>
