<svg width="24" height="24" viewBox="0 0 24 24" fill="none" xmlns="http://www.w3.org/2000/svg">
<g clip-path="url(#clip0_9390_20606)">
<path d="M12 24C18.6274 24 24 18.6274 24 12C24 5.37258 18.6274 0 12 0C5.37258 0 0 5.37258 0 12C0 18.6274 5.37258 24 12 24Z" fill="#FF0420"/>
<path d="M8.50098 15.1872C7.78578 15.1872 7.20018 15.0192 6.74418 14.6832C6.29298 14.3424 6.06738 13.8528 6.06738 13.224C6.06738 13.0896 6.08178 12.9312 6.11058 12.7392C6.18738 12.3072 6.29778 11.7888 6.44178 11.1792C6.84978 9.52799 7.90578 8.70239 9.60498 8.70239C10.0658 8.70239 10.4834 8.77919 10.8482 8.93759C11.213 9.08639 11.501 9.31679 11.7122 9.62399C11.9234 9.92639 12.029 10.2864 12.029 10.704C12.029 10.8288 12.0146 10.9872 11.9858 11.1792C11.8946 11.712 11.789 12.2352 11.6594 12.7392C11.4482 13.56 11.0882 14.1792 10.5698 14.5872C10.0562 14.9904 9.36498 15.1872 8.50098 15.1872ZM8.63058 13.8912C8.96658 13.8912 9.24978 13.7904 9.48498 13.5936C9.72498 13.3968 9.89778 13.0944 9.99858 12.6816C10.1378 12.1152 10.2434 11.6256 10.3154 11.2032C10.3394 11.0784 10.3538 10.9488 10.3538 10.8144C10.3538 10.2672 10.0706 9.99359 9.49938 9.99359C9.16338 9.99359 8.87538 10.0944 8.63538 10.2912C8.40018 10.488 8.23218 10.7904 8.13138 11.2032C8.02098 11.6064 7.91538 12.096 7.80498 12.6816C7.78098 12.8016 7.76658 12.9264 7.76658 13.0608C7.76178 13.6176 8.05458 13.8912 8.63058 13.8912Z" fill="white"/>
<path d="M12.4463 15.1009C12.3791 15.1009 12.3311 15.0817 12.2927 15.0385C12.2639 14.9905 12.2543 14.9377 12.2639 14.8753L13.5071 9.0193C13.5167 8.9521 13.5503 8.8993 13.6079 8.8561C13.6607 8.8129 13.7183 8.7937 13.7807 8.7937H16.1759C16.8431 8.7937 17.3759 8.9329 17.7791 9.2065C18.1871 9.4849 18.3935 9.8833 18.3935 10.4065C18.3935 10.5553 18.3743 10.7137 18.3407 10.8769C18.1919 11.5681 17.8895 12.0769 17.4287 12.4081C16.9775 12.7393 16.3583 12.9025 15.5711 12.9025H14.3567L13.9439 14.8753C13.9295 14.9425 13.9007 14.9953 13.8431 15.0385C13.7903 15.0817 13.7327 15.1009 13.6703 15.1009H12.4463ZM15.6335 11.6593C15.8879 11.6593 16.1039 11.5921 16.2911 11.4529C16.4831 11.3137 16.6079 11.1169 16.6703 10.8577C16.6895 10.7569 16.6991 10.6657 16.6991 10.5889C16.6991 10.4161 16.6463 10.2817 16.5455 10.1905C16.4447 10.0945 16.2671 10.0465 16.0223 10.0465H14.9423L14.6015 11.6593H15.6335Z" fill="white"/>
</g>
<defs>
<clipPath id="clip0_9390_20606">
<rect width="24" height="24" fill="white"/>
</clipPath>
</defs>
</svg>
