<svg width="13" height="12" viewBox="0 0 13 12" fill="none" xmlns="http://www.w3.org/2000/svg">
<path d="M11.9221 10.5533C11.6451 10.5533 11.3794 10.4471 11.1835 10.2581C10.9876 10.0691 10.8775 9.81279 10.8775 9.54551V5.88416C10.8773 4.94002 10.5509 4.02288 9.94997 3.27774C9.349 2.53261 8.50774 2.00199 7.5592 1.76978C7.5244 1.5131 7.39382 1.27746 7.1919 1.10698C6.98999 0.9365 6.73059 0.842874 6.46227 0.843633C6.19395 0.844391 5.93513 0.939482 5.73425 1.1111C5.53337 1.28272 5.40422 1.51909 5.37098 1.77596C4.52503 1.9893 3.76406 2.44078 3.18502 3.07287C2.60599 3.70497 2.23511 4.48907 2.11964 5.32526C2.11964 5.3507 2.11252 5.37544 2.10967 5.40088C2.10682 5.42631 2.10183 5.46962 2.09898 5.504C2.09613 5.53837 2.09328 5.57274 2.09043 5.60643C2.08758 5.64011 2.08687 5.66348 2.08544 5.69236C2.08544 5.75079 2.08117 5.80854 2.08045 5.86766V9.54482C2.08046 9.8108 1.97148 10.066 1.77728 10.2548C1.58307 10.4436 1.31938 10.5506 1.0437 10.5526C0.978949 10.5519 0.914682 10.5635 0.85457 10.5867C0.794458 10.61 0.73968 10.6444 0.693363 10.6881C0.647046 10.7317 0.610098 10.7838 0.584628 10.8412C0.559159 10.8986 0.545666 10.9604 0.544922 11.0228V11.027C0.544922 11.1528 0.596721 11.2734 0.688925 11.3624C0.781128 11.4513 0.906182 11.5013 1.03658 11.5013H11.9221C12.0492 11.4966 12.1694 11.4446 12.2576 11.3563C12.3458 11.2679 12.395 11.15 12.395 11.0273C12.395 10.9046 12.3458 10.7867 12.2576 10.6983C12.1694 10.61 12.0492 10.558 11.9221 10.5533Z" fill="url(#paint0_linear_3807_9244)"/>
<defs>
<linearGradient id="paint0_linear_3807_9244" x1="10.2526" y1="3.7345" x2="4.41772" y2="12.3293" gradientUnits="userSpaceOnUse">
<stop stop-color="#FF94A6"/>
<stop offset="0.32" stop-color="#E03DC1"/>
<stop offset="1" stop-color="#8247E5"/>
</linearGradient>
</defs>
</svg>
