<svg width="16" height="18" viewBox="0 0 16 18" fill="none" xmlns="http://www.w3.org/2000/svg">
<g id="Group">
<path id="Vector" d="M7.99913 17.3172C8.9364 17.3172 9.74232 16.7562 10.1007 15.9503C10.1876 15.7543 10.0429 15.5339 9.82914 15.5339H6.17357C5.95985 15.5339 5.81291 15.7543 5.90196 15.9503C6.26039 16.7562 7.06409 17.3172 8.00358 17.3172" fill="#D548EC"/>
<path id="Vector_2" d="M13.6092 13.3188C13.0148 13.3188 12.5317 12.8379 12.5317 12.2412V8.32964C12.5317 6.21021 11.0757 4.42918 9.11213 3.93272C9.04089 3.37392 8.56446 2.94202 7.98563 2.94202C7.40679 2.94202 6.92591 3.37837 6.85689 3.9394C5.09367 4.39801 3.74677 5.88962 3.5041 7.73077C3.49965 7.75748 3.49742 7.7842 3.49297 7.81091C3.48851 7.84653 3.48406 7.88438 3.48184 7.92C3.47961 7.95562 3.47516 7.99347 3.47293 8.02909C3.47293 8.06026 3.46848 8.0892 3.46625 8.12037C3.46403 8.1827 3.4618 8.24504 3.4618 8.30738V12.2368C3.4618 12.829 2.98537 13.3099 2.39318 13.3143C2.11044 13.3143 1.87891 13.5347 1.87891 13.8174V13.8219C1.87891 14.1024 2.10599 14.3295 2.3865 14.3295H13.607C13.8875 14.3295 14.1146 14.1024 14.1146 13.8219C14.1146 13.5436 13.8897 13.3165 13.6092 13.3165V13.3188Z" fill="#D548EC"/>
<g id="Group_2">
<path id="Vector_3" d="M11.2495 3.16268C12.5118 3.43206 13.4757 4.51849 13.5937 5.80529C13.6071 5.94777 13.7318 6.05463 13.8765 6.04127C13.9455 6.0346 14.0078 6.0012 14.0523 5.94777C14.0969 5.89434 14.1169 5.82755 14.1102 5.75854C14.0412 5.00828 13.7384 4.31367 13.2353 3.75042C12.7366 3.19162 12.0865 2.81315 11.3563 2.65731C11.3385 2.65286 11.3207 2.65063 11.3029 2.65063C11.1827 2.65063 11.0736 2.73523 11.0491 2.85545C11.0179 2.99571 11.1092 3.13374 11.2495 3.16491V3.16268Z" fill="#D548EC"/>
<path id="Vector_4" d="M11.5406 1.49069C13.5042 1.91145 15.0047 3.60343 15.1895 5.60264C15.2028 5.74513 15.3275 5.85199 15.4722 5.83863C15.5412 5.83195 15.6036 5.79856 15.6481 5.74513C15.6926 5.69169 15.7126 5.62491 15.706 5.55589C15.6036 4.44942 15.1583 3.42756 14.4147 2.59715C13.6778 1.77342 12.7227 1.21463 11.6474 0.985317C11.6296 0.980865 11.6118 0.978638 11.594 0.978638C11.4738 0.978638 11.3647 1.06324 11.3402 1.18346C11.309 1.32371 11.3981 1.46174 11.5383 1.49291L11.5406 1.49069Z" fill="#D548EC"/>
<path id="Vector_5" d="M4.75063 3.16259C4.89088 3.13142 4.97993 2.99339 4.95099 2.85313C4.92428 2.73069 4.81741 2.64832 4.69719 2.64832C4.67938 2.64832 4.66157 2.64832 4.64376 2.65499C3.91354 2.81084 3.26569 3.1893 2.76477 3.7481C2.26163 4.31135 1.95886 5.00596 1.88984 5.75622C1.88316 5.82523 1.90542 5.89202 1.94772 5.94545C1.99002 5.99888 2.05458 6.03228 2.1236 6.03896C2.27054 6.05231 2.39299 5.94545 2.40634 5.80297C2.52434 4.5184 3.49055 3.43197 4.75063 3.16259Z" fill="#D548EC"/>
<path id="Vector_6" d="M4.45904 1.49059C4.5993 1.45942 4.68835 1.32139 4.65941 1.18114C4.63269 1.05869 4.52583 0.976318 4.40561 0.976318C4.3878 0.976318 4.36999 0.976318 4.35218 0.982997C3.27688 1.21453 2.32181 1.7711 1.5849 2.59483C0.843548 3.42524 0.398286 4.44933 0.29365 5.55357C0.286972 5.62259 0.309237 5.68937 0.351536 5.74281C0.396062 5.79624 0.4584 5.82963 0.527415 5.83631C0.672124 5.84967 0.796794 5.74281 0.810151 5.60032C0.994933 3.60111 2.49546 1.91136 4.45904 1.49059Z" fill="#D548EC"/>
</g>
</g>
</svg>
