<svg width="24" height="24" viewBox="0 0 24 24" fill="none" xmlns="http://www.w3.org/2000/svg">
<path d="M3.15098 11.8574C3.36286 10.1418 3.85973 6.49117 4.01723 5.86305C4.17661 5.22742 4.47098 4.5843 5.22098 4.53555C6.06286 4.48117 6.27473 5.1843 6.22036 6.06367L5.69161 11.158C5.90536 11.1224 5.89598 11.0437 6.13223 11.008C6.11536 10.8955 6.11911 10.7774 6.13411 10.6649C6.13411 10.6649 6.47161 5.0418 6.61036 4.0593C6.63848 3.8568 6.86723 2.5218 7.85161 2.45805C8.61286 2.4093 9.01973 2.70555 9.03848 3.63555L8.89223 10.768C9.04411 10.7587 9.19598 10.7493 9.34598 10.7418C9.29723 10.4343 9.22598 5.6868 9.37973 3.2343C9.41161 2.72242 9.47348 2.31555 9.50723 2.06055C9.61973 1.24305 10.0547 0.748047 10.6472 0.748047C11.3972 0.748047 11.8191 0.916797 11.9241 2.06992C12.0479 3.42742 12.196 10.393 12.1304 10.3968C12.1491 10.5224 12.1529 10.6574 12.1304 10.7849C12.301 10.7887 12.466 10.7924 12.6254 10.798C12.6254 10.798 12.2466 4.39117 12.3066 3.65617C12.3647 2.92117 12.7285 2.52367 13.3547 2.46742C14.0429 2.40555 14.5754 2.62305 14.7722 3.76305C15.2447 6.49867 15.8429 14.803 15.8916 14.998C15.9404 15.1949 15.7491 15.2568 15.9197 15.3093C16.1972 15.3955 15.0085 23.233 10.0922 23.233C6.81848 23.233 4.65098 21.3412 3.72098 19.1512C2.55473 16.4043 2.91286 13.7793 3.15098 11.8574Z" fill="#FFCA28"/>
<path d="M18.4753 11.0288C16.5291 12.3376 15.9891 14.6644 15.9891 14.6644C15.9891 14.6644 15.9441 14.0869 15.8709 13.2001C14.0241 16.6669 11.7141 21.0076 10.5234 23.2463C13.0866 23.1919 15.8109 22.2394 18.4134 16.9088C19.5516 14.5782 20.3166 13.2544 20.8397 12.5607C21.6928 11.4282 20.2847 9.81006 18.4753 11.0288Z" fill="#FFCA28"/>
<path d="M12.2451 2.39237C12.2901 3.06924 12.637 10.3742 12.697 10.8036C12.7439 11.1392 13.057 11.3905 12.9258 11.6811C12.8339 11.8836 12.3108 11.593 12.1176 11.4261C11.9358 11.2705 11.8758 11.0999 11.8758 10.8317C11.8758 10.5636 11.6583 2.30799 11.6583 2.30799C11.6526 1.60112 11.4501 1.21862 11.2289 1.00862C11.1558 0.939242 11.2289 0.836117 11.3283 0.858617C11.782 0.963617 12.172 1.31049 12.2451 2.39237Z" fill="#EDA600"/>
<path d="M8.82082 4.00256C8.80394 4.98881 8.72707 10.4919 8.69707 10.7376C8.66707 10.9832 8.50019 11.1576 8.70644 11.3863C8.86207 11.5607 9.20144 11.5513 9.41894 11.4744C9.72269 11.3657 9.45644 10.8726 9.45831 10.5257C9.45831 10.1807 9.36644 5.16506 9.35332 4.12443C9.34394 3.30318 9.04582 2.87943 8.69332 2.66756C8.58082 2.60006 8.45894 2.73506 8.53582 2.84006C8.69894 3.06318 8.83019 3.42318 8.82082 4.00256Z" fill="#EDA600"/>
<path d="M6.47651 5.93403C6.47651 5.93403 6.34713 11.3003 6.34901 11.3172C6.34901 11.3172 6.43338 11.739 5.74526 11.9603C5.57276 12.0165 5.31588 12.0615 5.29713 11.8178C5.28776 11.6809 5.53526 11.3509 5.55026 11.2384L6.01526 5.81028C6.02838 5.2534 5.90651 5.1559 5.64963 4.94215C5.38713 4.72278 5.54838 4.58215 5.63276 4.5934C6.16713 4.6684 6.50276 5.16903 6.47651 5.93403Z" fill="#EDA600"/>
<path d="M10.0634 18.4177C11.2034 14.8064 15.3096 14.6846 15.3096 14.6846C15.3096 15.1402 15.9959 14.7127 15.9959 14.7127C15.7353 15.5733 14.959 15.5171 14.1471 15.7177C11.0815 16.4771 10.5209 18.7327 10.2471 19.4696C10.1703 19.6777 10.0915 19.9233 10.024 20.1502C9.97713 20.3058 9.74838 20.2683 9.75401 20.1052C9.76338 19.7058 9.83463 19.1433 10.0634 18.4177Z" fill="#EDA600"/>
<path d="M14.4101 3.66962C14.8788 6.32274 15.0551 12.529 15.2051 14.9965L16.0038 14.7527C15.9701 14.5184 15.4376 6.44462 14.9351 3.84024C14.8001 3.14462 14.4982 2.77149 14.1663 2.59337C14.0426 2.52774 13.9282 2.68899 14.0238 2.79212C14.1851 2.96837 14.3351 3.24212 14.4101 3.66962Z" fill="#EDA600"/>
<path d="M20.2324 12.7053C19.5874 13.4853 18.9537 14.4922 17.7537 16.7366C16.5256 19.0316 15.4549 20.5091 14.0993 21.4391C13.4224 21.9041 12.4531 22.5866 10.1224 22.5941C8.43119 22.5997 7.07182 22.2078 6.23744 21.8835C6.10432 21.831 6.01432 22.0147 6.13432 22.0935C7.15244 22.7572 8.46869 23.1866 10.1599 23.2485C10.6268 23.2653 10.8368 23.2372 11.8062 23.1022C13.0793 22.9241 15.8806 22.2397 18.4831 16.9072C19.6212 14.5766 20.2981 13.2941 20.8193 12.6003C20.9787 12.3885 21.0799 12.1353 21.0893 11.8803C21.0949 11.7566 20.9318 11.7078 20.8699 11.8147C20.7481 12.021 20.5474 12.3247 20.2324 12.7053Z" fill="#EDA600"/>
</svg>
