<svg width="33" height="32" viewBox="0 0 33 32" fill="none" xmlns="http://www.w3.org/2000/svg">
<path d="M26.5 10C27.6046 10 28.5 9.10457 28.5 8C28.5 6.89543 27.6046 6 26.5 6C25.3954 6 24.5 6.89543 24.5 8C24.5 9.10457 25.3954 10 26.5 10Z" fill="white"/>
<path d="M26.5 18C27.6046 18 28.5 17.1046 28.5 16C28.5 14.8954 27.6046 14 26.5 14C25.3954 14 24.5 14.8954 24.5 16C24.5 17.1046 25.3954 18 26.5 18Z" fill="white"/>
<path d="M26.5 26C27.6046 26 28.5 25.1046 28.5 24C28.5 22.8954 27.6046 22 26.5 22C25.3954 22 24.5 22.8954 24.5 24C24.5 25.1046 25.3954 26 26.5 26Z" fill="white"/>
</svg>
