<svg width="25" height="25" viewBox="0 0 25 25" fill="none" xmlns="http://www.w3.org/2000/svg">
<g clip-path="url(#clip0_11578_40408)">
<path d="M6.5 15.75C8.15685 15.75 9.5 14.4069 9.5 12.75C9.5 11.0931 8.15685 9.75 6.5 9.75C4.84315 9.75 3.5 11.0931 3.5 12.75C3.5 14.4069 4.84315 15.75 6.5 15.75Z" stroke="#8B5CF6" stroke-width="1.5" stroke-linecap="round" stroke-linejoin="round"/>
<path d="M17 22.5C18.6569 22.5 20 21.1569 20 19.5C20 17.8431 18.6569 16.5 17 16.5C15.3431 16.5 14 17.8431 14 19.5C14 21.1569 15.3431 22.5 17 22.5Z" stroke="#8B5CF6" stroke-width="1.5" stroke-linecap="round" stroke-linejoin="round"/>
<path d="M17 9C18.6569 9 20 7.65685 20 6C20 4.34315 18.6569 3 17 3C15.3431 3 14 4.34315 14 6C14 7.65685 15.3431 9 17 9Z" stroke="#8B5CF6" stroke-width="1.5" stroke-linecap="round" stroke-linejoin="round"/>
<path d="M14.4778 7.62109L9.02344 11.1273" stroke="#8B5CF6" stroke-width="1.5" stroke-linecap="round" stroke-linejoin="round"/>
<path d="M9.02344 14.3711L14.4778 17.8773" stroke="#8B5CF6" stroke-width="1.5" stroke-linecap="round" stroke-linejoin="round"/>
</g>
<defs>
<clipPath id="clip0_11578_40408">
<rect width="24" height="24" fill="white" transform="translate(0.5 0.75)"/>
</clipPath>
</defs>
</svg>
