<svg width="42" height="42" viewBox="0 0 42 42" fill="none" xmlns="http://www.w3.org/2000/svg">
<path d="M0.5 14.85V37.7145C0.5 39.1502 2.21425 39.8929 3.26166 38.9109L11.1047 31.5581C11.3158 31.3602 11.5944 31.25 11.8838 31.25H26.125C34.6164 31.25 41.5 24.3664 41.5 15.875C41.5 7.38362 34.6164 0.5 26.125 0.5H14.85C6.92471 0.5 0.5 6.92471 0.5 14.85Z" fill="#8B5CF6"/>
<path d="M0.5 14.85V37.7145C0.5 39.1502 2.21425 39.8929 3.26166 38.9109L11.1047 31.5581C11.3158 31.3602 11.5944 31.25 11.8838 31.25H26.125C34.6164 31.25 41.5 24.3664 41.5 15.875C41.5 7.38362 34.6164 0.5 26.125 0.5H14.85C6.92471 0.5 0.5 6.92471 0.5 14.85Z" fill="url(#paint0_linear_13878_66774)"/>
<g clip-path="url(#clip0_13878_66774)">
<path d="M11.9805 13.6191V18.5391" stroke="white" stroke-width="3.28" stroke-linecap="round" stroke-linejoin="round"/>
<path d="M18.541 7.05859V25.0986" stroke="white" stroke-width="3.28" stroke-linecap="round" stroke-linejoin="round"/>
<path d="M25.0996 10.3379L25.0996 21.8179" stroke="white" stroke-width="3.28" stroke-linecap="round" stroke-linejoin="round"/>
<path d="M31.6602 13.6191L31.6602 18.5391" stroke="white" stroke-width="3.28" stroke-linecap="round" stroke-linejoin="round"/>
</g>
<defs>
<linearGradient id="paint0_linear_13878_66774" x1="0.500001" y1="41.5" x2="43.42" y2="39.3805" gradientUnits="userSpaceOnUse">
<stop offset="0.0001" stop-color="#EA4EE4"/>
<stop offset="1" stop-color="#8B5CF6"/>
</linearGradient>
<clipPath id="clip0_13878_66774">
<rect width="36.08" height="36.08" fill="white" transform="translate(2.96094 0.5)"/>
</clipPath>
</defs>
</svg>
