<svg width="42" height="41" viewBox="0 0 42 41" fill="none" xmlns="http://www.w3.org/2000/svg">
<path d="M0.5 14.35V37.2145C0.5 38.6502 2.21425 39.3929 3.26166 38.4109L11.1047 31.0581C11.3158 30.8602 11.5944 30.75 11.8838 30.75H26.125C34.6164 30.75 41.5 23.8664 41.5 15.375C41.5 6.88362 34.6164 0 26.125 0H14.85C6.92471 0 0.5 6.42471 0.5 14.35Z" fill="#8B5CF6"/>
<path d="M0.5 14.35V37.2145C0.5 38.6502 2.21425 39.3929 3.26166 38.4109L11.1047 31.0581C11.3158 30.8602 11.5944 30.75 11.8838 30.75H26.125C34.6164 30.75 41.5 23.8664 41.5 15.375C41.5 6.88362 34.6164 0 26.125 0H14.85C6.92471 0 0.5 6.42471 0.5 14.35Z" fill="url(#paint0_linear_15620_46454)"/>
<g clip-path="url(#clip0_15620_46454)">
<path d="M11.9805 13.1191V18.0391" stroke="white" stroke-width="3.28" stroke-linecap="round" stroke-linejoin="round"/>
<path d="M18.5391 6.55859V24.5986" stroke="white" stroke-width="3.28" stroke-linecap="round" stroke-linejoin="round"/>
<path d="M25.1016 9.83789L25.1016 21.3179" stroke="white" stroke-width="3.28" stroke-linecap="round" stroke-linejoin="round"/>
<path d="M31.6602 13.1191L31.6602 18.0391" stroke="white" stroke-width="3.28" stroke-linecap="round" stroke-linejoin="round"/>
</g>
<defs>
<linearGradient id="paint0_linear_15620_46454" x1="0.500001" y1="41" x2="43.42" y2="38.8805" gradientUnits="userSpaceOnUse">
<stop offset="0.0001" stop-color="#C2C2C2"/>
<stop offset="1" stop-color="#A3A3A3"/>
</linearGradient>
<clipPath id="clip0_15620_46454">
<rect width="36.08" height="36.08" fill="white" transform="translate(2.96094)"/>
</clipPath>
</defs>
</svg>
