<svg width="24" height="24" viewBox="0 0 24 24" fill="none" xmlns="http://www.w3.org/2000/svg">
<path d="M17.6175 1.67969C13.5094 1.67969 12 5.87594 12 5.87594C12 5.87594 10.5113 1.67969 6.37313 1.67969C3.26438 1.67969 -0.279366 4.14344 1.02938 9.74406C2.33813 15.3447 12.0094 22.3216 12.0094 22.3216C12.0094 22.3216 21.645 15.3447 22.9556 9.74406C24.2644 4.14344 20.9756 1.67969 17.6175 1.67969Z" fill="#EF5592"/>
<path d="M5.73844 2.09781C8.96344 2.09781 10.5647 5.56469 11.0822 6.96906C11.1553 7.16969 11.4347 7.17531 11.5191 6.98031L11.9916 5.87781C11.3259 3.74969 9.49594 1.67969 6.37219 1.67969C5.07844 1.67969 3.71156 2.10719 2.64844 3.00906C3.58781 2.39219 4.68844 2.09781 5.73844 2.09781Z" fill="#DA2E75"/>
<path d="M17.6159 1.67969C16.6241 1.67969 15.7841 1.96844 15.0791 2.40156C15.5741 2.21031 16.1216 2.09781 16.7291 2.09781C19.7684 2.09781 22.4891 4.40219 21.2609 9.72906C20.2072 14.3022 14.0497 19.8503 12.1691 21.9672C12.0491 22.1022 12.0078 22.3197 12.0078 22.3197C12.0078 22.3197 21.6434 15.3428 22.9541 9.74219C24.2628 4.14344 20.7228 1.67969 17.6159 1.67969Z" fill="#DA2E75"/>
<path d="M3.1884 4.65389C3.89152 3.77639 5.14777 3.05077 6.21277 3.88702C6.7884 4.33889 6.53715 5.26514 6.02152 5.65514C5.27152 6.22514 4.61902 6.56826 4.16152 7.46077C3.88777 7.99701 3.72277 8.58389 3.6384 9.18202C3.60465 9.41827 3.29527 9.47639 3.17902 9.26826C2.38777 7.86389 2.16277 5.93264 3.1884 4.65389Z" fill="#F386AB"/>
<path d="M13.882 17.267C14.2548 17.267 14.557 16.9648 14.557 16.592C14.557 16.2192 14.2548 15.917 13.882 15.917C13.5092 15.917 13.207 16.2192 13.207 16.592C13.207 16.9648 13.5092 17.267 13.882 17.267Z" fill="#FDD835"/>
<path d="M14.5564 9.10305C14.9996 9.10305 15.3589 8.74376 15.3589 8.30055C15.3589 7.85734 14.9996 7.49805 14.5564 7.49805C14.1132 7.49805 13.7539 7.85734 13.7539 8.30055C13.7539 8.74376 14.1132 9.10305 14.5564 9.10305Z" fill="#FFF891"/>
<path d="M16.8787 12.6222L15.5781 13.9229L16.8787 15.2235L18.1794 13.9229L16.8787 12.6222Z" fill="#FFF891"/>
<path d="M12.2665 14.0423L10.8021 13.5698C9.86462 13.2605 9.31712 12.503 9.06024 11.5505L8.41712 8.41359C8.40024 8.35172 8.34024 8.30859 8.23337 8.30859C8.12649 8.30859 8.06649 8.35172 8.04962 8.41359L7.40649 11.5523C7.14774 12.5048 6.60024 13.2623 5.66462 13.5717L4.20024 14.0442C3.99212 14.1117 3.99024 14.4042 4.19649 14.4736L5.67024 14.9817C6.60399 15.2911 7.14774 16.0486 7.40649 16.9973L8.05149 20.1005C8.06837 20.1623 8.12649 20.2036 8.23524 20.2036C8.34399 20.2036 8.40212 20.1605 8.41899 20.1005L9.06399 16.9973C9.32274 16.0486 9.86649 15.293 10.8002 14.9817L12.274 14.4736C12.4784 14.4023 12.4746 14.1098 12.2665 14.0423Z" fill="#FDD835"/>
<path d="M12.4069 14.1736C12.3844 14.1154 12.3394 14.0648 12.2681 14.0423L10.8038 13.5698C9.86625 13.2604 9.31875 12.5029 9.06188 11.5504L8.41688 8.41355C8.4075 8.37793 8.38125 8.3498 8.34375 8.33105L8.54438 11.4436C8.69813 12.8817 8.83125 13.5586 9.97875 13.7554C10.9631 13.9261 12.1031 14.1211 12.4069 14.1736Z" fill="#FFF176"/>
<path d="M12.4095 14.3369L9.87078 14.92C8.97641 15.1469 8.48328 15.6663 8.48328 17.02L8.26953 20.1982C8.35578 20.1888 8.40266 20.1513 8.41766 20.0988L9.06266 16.9957C9.32141 16.0469 9.86516 15.2913 10.7989 14.98L12.2727 14.4719C12.3439 14.4494 12.387 14.3969 12.4095 14.3369Z" fill="#F4B400"/>
<path d="M20.5404 4.71945C19.3985 4.34258 19.2954 3.91695 19.1023 3.20258L18.6242 0.950703C18.596 0.841953 18.3129 0.841953 18.2829 0.950703L17.9585 3.07508C17.7654 3.78758 17.3548 4.3557 16.6535 4.5882L15.3991 5.07383C15.2435 5.12445 15.2417 5.34383 15.3954 5.39633L16.6573 5.79383C17.3566 6.02633 17.7654 6.59258 17.9585 7.3032L18.2829 9.3582C18.3129 9.46508 18.5942 9.46508 18.6223 9.3582L19.0029 7.30883C19.196 6.59258 19.4904 6.02445 20.441 5.79195L21.6354 5.39258C21.791 5.34008 21.7891 5.1207 21.6335 5.07008L20.5404 4.71945Z" fill="#FDD835"/>
<path d="M18.7162 3.17863C18.8325 4.25488 18.8925 4.55488 19.7644 4.77613L21.72 5.13051C21.7012 5.10426 21.6731 5.08363 21.6356 5.07051L20.5406 4.71801C19.5394 4.37488 19.2844 3.98301 19.0762 3.06988L18.6262 0.951133C18.6169 0.913633 18.5925 0.891133 18.5625 0.879883L18.7162 3.17863Z" fill="#FFF176"/>
<path d="M18.7481 6.93543C18.7481 5.91918 19.3031 5.41855 20.1863 5.41855L21.6956 5.3623C21.6769 5.38855 21.5775 5.4148 21.5419 5.42793L20.5425 5.7748C19.7062 5.9998 19.3406 6.25293 19.1044 7.29168L18.6262 9.35793C18.6169 9.39543 18.5925 9.4198 18.5625 9.43105L18.7481 6.93543Z" fill="#F4B400"/>
</svg>
