<svg width="24" height="24" viewBox="0 0 24 24" fill="none" xmlns="http://www.w3.org/2000/svg">
<g clip-path="url(#clip0_16457_47015)">
<path d="M1.39896 23.1134C1.82459 23.5746 3.57771 22.7703 4.96146 22.1253C5.99834 21.6434 10.1477 19.9409 12.2102 19.0578C12.7671 18.8196 13.5771 18.5084 14.1602 17.7415C14.6777 17.059 16.0502 14.1603 13.2865 11.224C10.4815 8.24277 7.59209 9.0659 6.51209 9.8309C5.87646 10.2809 5.35896 11.2953 5.12646 11.8109C4.14396 13.9896 2.74334 17.9815 2.17334 19.5509C1.75521 20.7078 0.977089 22.6559 1.39896 23.1134Z" fill="#FFC107"/>
<path d="M4.84844 12.4668C4.87469 12.793 4.94031 13.3237 5.16531 14.3455C5.31906 15.0468 5.57031 15.7818 5.77469 16.2674C6.38781 17.728 7.24844 18.3168 8.12031 18.7893C9.60156 19.5918 10.6084 19.7418 10.6084 19.7418L9.40094 20.2349C9.40094 20.2349 8.66969 20.083 7.67219 19.5918C6.72156 19.123 5.73156 18.3299 5.00781 16.7774C4.69469 16.1043 4.51281 15.4518 4.40781 14.9343C4.27844 14.293 4.25781 13.9293 4.25781 13.9293L4.84844 12.4668Z" fill="#FF8F00"/>
<path d="M3.36516 16.2695C3.36516 16.2695 3.51516 17.4864 4.52016 19.022C5.69766 20.8183 7.34203 21.1127 7.34203 21.1127L6.24891 21.5627C6.24891 21.5627 5.02828 21.1895 3.86766 19.6052C3.14391 18.617 2.94141 17.4358 2.94141 17.4358L3.36516 16.2695Z" fill="#FF8F00"/>
<path d="M2.32328 19.1533C2.32328 19.1533 2.59703 20.2033 3.19703 20.9871C3.91141 21.9227 4.82078 22.1946 4.82078 22.1946L3.98266 22.5658C3.98266 22.5658 3.34703 22.4327 2.65141 21.5514C2.12266 20.8821 1.97266 20.1133 1.97266 20.1133L2.32328 19.1533Z" fill="#FF8F00"/>
<g opacity="0.44">
<path d="M1.86774 21.8196C1.83024 21.7352 1.83024 21.6396 1.86961 21.5571L6.64524 11.6533L7.43086 14.6064L2.40586 21.8646C2.27086 22.0671 1.96711 22.0408 1.86774 21.8196Z" fill="#FFFDE7"/>
</g>
<path d="M7.8121 15.5982C10.0433 18.2082 12.584 17.882 13.4296 17.222C14.2771 16.5601 14.9465 14.2857 12.7246 11.7188C10.3958 9.03008 7.7596 9.79696 7.15022 10.3782C6.54085 10.9595 5.7646 13.2038 7.8121 15.5982Z" fill="url(#paint0_linear_16457_47015)"/>
<path d="M15.4759 16.6726C14.6622 15.9901 14.2291 16.112 13.6478 16.3538C12.8978 16.6651 11.7184 16.8957 10.1172 16.3538L10.5991 15.1932C11.5497 15.5138 12.2378 15.3582 12.8322 15.0076C13.5972 14.5576 14.6434 13.9407 16.2709 15.3076C16.9497 15.8776 17.6453 16.2563 18.1553 16.0838C18.5266 15.9601 18.7234 15.407 18.8228 14.9663C18.8322 14.927 18.8472 14.8145 18.8584 14.7151C18.9484 14.027 19.0984 12.542 20.2047 11.7826C21.3878 10.9707 22.6309 10.9707 22.6309 10.9707L22.8559 13.2057C22.2841 13.1213 21.8866 13.2376 21.5509 13.4232C20.2872 14.1263 21.3878 16.8263 19.4209 17.7338C17.5291 18.6132 15.9822 17.0963 15.4759 16.6726Z" fill="#03A9F4"/>
<path d="M8.51639 13.8225L7.70264 13.0931C9.19702 11.4244 8.80327 10.1981 8.51639 9.30562C8.45827 9.12563 8.40389 8.955 8.36827 8.79187C8.24077 8.21438 8.21452 7.71187 8.25389 7.27313C7.68014 6.55875 7.42702 5.81063 7.41014 5.76C7.06139 4.70437 7.32389 3.675 7.92577 2.70937C9.14264 0.75 11.3458 0.75 11.3458 0.75L12.0808 2.71687C11.522 2.69437 9.69014 2.7225 9.12764 3.60938C8.41702 4.72688 8.88389 5.41687 8.91764 5.49563C9.05452 5.3175 9.19327 5.175 9.31702 5.06437C10.2151 4.2675 10.9951 4.15312 11.492 4.19812C12.0508 4.24875 12.557 4.53 12.9189 4.99125C13.3145 5.4975 13.4776 6.15562 13.352 6.75375C13.2301 7.33687 12.842 7.83 12.2589 8.14313C11.2408 8.69063 10.3933 8.61562 9.82514 8.42625C9.82889 8.43937 9.83077 8.45437 9.83452 8.4675C9.85514 8.56125 9.89639 8.6925 9.94514 8.84437C10.277 9.87187 10.8939 11.5031 8.51639 13.8225ZM9.89452 6.78562C10.0033 6.86437 10.1176 6.93 10.2358 6.97687C10.6295 7.13437 11.0589 7.08187 11.5464 6.81938C11.8333 6.66562 11.867 6.50063 11.8783 6.44625C11.912 6.28313 11.8558 6.075 11.7339 5.91937C11.627 5.7825 11.5033 5.71125 11.3551 5.69625C11.0739 5.67188 10.6933 5.85 10.3126 6.18937C10.1308 6.3525 9.99202 6.55312 9.89452 6.78562Z" fill="#F44336"/>
<path d="M11.7698 14.128L10.6055 14.0961C10.6055 14.0961 11.1586 10.9724 12.9492 10.4474C13.2848 10.3499 13.6523 10.2505 14.0217 10.1961C14.2411 10.1624 14.588 10.1118 14.7586 10.048C14.798 9.75363 14.6742 9.37863 14.5355 8.95301C14.4267 8.62301 14.3142 8.28363 14.2542 7.91238C14.138 7.18863 14.3311 6.54926 14.798 6.10863C15.368 5.57426 16.2886 5.40363 17.3273 5.63988C17.9198 5.77488 18.3567 6.06551 18.7411 6.32051C19.2905 6.68613 19.6111 6.87176 20.2823 6.41988C21.0942 5.87238 20.033 3.72926 19.4686 2.49176L21.5742 1.61426C21.8573 2.23301 23.2242 5.41676 22.3223 7.23363C22.0186 7.84488 21.4955 8.24988 20.8092 8.40176C19.3167 8.73551 18.443 8.15426 17.8055 7.73051C17.5036 7.52988 17.2392 7.37238 16.9523 7.28988C14.9592 6.72176 17.7417 9.65426 16.4386 10.9724C15.6567 11.7618 13.7461 11.9699 13.6223 11.9999C12.3923 12.2961 11.7698 14.128 11.7698 14.128Z" fill="#F48FB1"/>
<path d="M8.24986 7.27344C8.21424 7.68594 8.19736 7.93156 8.30424 8.46781C8.81986 8.84656 9.94299 8.84656 9.94299 8.84656C9.89424 8.69469 9.85111 8.56344 9.83236 8.46969C9.82861 8.45656 9.82674 8.44156 9.82299 8.42844C8.68111 7.85844 8.24986 7.27344 8.24986 7.27344Z" fill="#C92B27"/>
<path d="M5.91141 9.12004L3.97266 8.16941L4.93828 6.77441L6.45891 7.78129L5.91141 9.12004Z" fill="#FFC107"/>
<path d="M3.05469 6.48797C2.06469 6.35484 1.05594 5.51484 0.945312 5.41922L1.91844 4.27734C2.21281 4.52672 2.83719 4.94484 3.25531 5.00109L3.05469 6.48797Z" fill="#FB8C00"/>
<path d="M4.80391 3.98781L3.37891 3.52094C3.54203 3.02219 3.58516 2.48406 3.50078 1.96469L4.98203 1.72656C5.10391 2.48031 5.04203 3.26219 4.80391 3.98781Z" fill="#03A9F4"/>
<path d="M15.1685 2.5525L13.7031 2.87305L14.1263 4.80731L15.5916 4.48676L15.1685 2.5525Z" fill="#FB8C00"/>
<path d="M17.3359 3.33184L16.3047 2.24246C16.8447 1.73059 16.9684 1.06121 16.9684 1.05371L18.4497 1.29559C18.4309 1.41371 18.2416 2.47496 17.3359 3.33184Z" fill="#FFC107"/>
<path d="M19.2202 8.69898L17.9102 9.1084L18.3576 10.5401L19.6677 10.1307L19.2202 8.69898Z" fill="#FB8C00"/>
<path d="M18.2906 21.1929L16.8 21.0166C16.8637 20.486 16.4681 19.8354 16.3594 19.691L17.5594 18.791C17.6494 18.9091 18.4313 19.991 18.2906 21.1929Z" fill="#F44336"/>
<path d="M22.5716 19.2923C22.0109 19.2079 21.4372 19.1742 20.8709 19.1948L20.8203 17.6948C21.4784 17.6723 22.1441 17.7098 22.7947 17.8092L22.5716 19.2923Z" fill="#FB8C00"/>
<path d="M21.6086 20.289L20.5547 21.3564L22.005 22.7884L23.0589 21.721L21.6086 20.289Z" fill="#F48FB1"/>
<path d="M18.5408 13.1141L17.457 11.875L16.2179 12.9587L17.3016 14.1979L18.5408 13.1141Z" fill="#F44336"/>
</g>
<defs>
<linearGradient id="paint0_linear_16457_47015" x1="13.9498" y1="11.5948" x2="8.36841" y2="14.9436" gradientUnits="userSpaceOnUse">
<stop offset="0.0235" stop-color="#8F4700"/>
<stop offset="1" stop-color="#703E2D"/>
</linearGradient>
<clipPath id="clip0_16457_47015">
<rect width="24" height="24" fill="white"/>
</clipPath>
</defs>
</svg>
