<svg width="32" height="32" viewBox="0 0 32 32" fill="none" xmlns="http://www.w3.org/2000/svg">
<path d="M6.80762 6.80754C4.98953 8.62562 3.75141 10.942 3.2498 13.4638C2.74819 15.9855 3.00563 18.5994 3.98957 20.9748C4.97351 23.3503 6.63975 25.3806 8.77759 26.809C10.9154 28.2375 13.4288 28.9999 16 28.9999C18.5712 28.9999 21.0846 28.2375 23.2224 26.809C25.3603 25.3806 27.0265 23.3503 28.0104 20.9748C28.9944 18.5994 29.2518 15.9855 28.7502 13.4638C28.2486 10.942 27.0105 8.62562 25.1924 6.80754C22.7526 4.37293 19.4467 3.00562 16 3.00562C12.5533 3.00562 9.24737 4.37293 6.80762 6.80754ZM23.7782 23.7781C22.2398 25.3165 20.2798 26.3641 18.146 26.7886C16.0122 27.213 13.8005 26.9952 11.7905 26.1626C9.7805 25.33 8.06254 23.9201 6.85384 22.1112C5.64514 20.3023 5.00001 18.1755 5.00001 15.9999C5.00001 13.8243 5.64514 11.6976 6.85384 9.88866C8.06254 8.07972 9.7805 6.66982 11.7905 5.83725C13.8005 5.00469 16.0122 4.78685 18.146 5.21129C20.2798 5.63573 22.2398 6.68338 23.7782 8.22176C25.838 10.2863 26.9948 13.0836 26.9948 15.9999C26.9948 18.9163 25.838 21.7136 23.7782 23.7781ZM15.2929 11.0502L11.0503 15.2928C10.8627 15.4804 10.7574 15.7347 10.7574 15.9999C10.7574 16.2651 10.8627 16.5195 11.0503 16.707L15.2929 20.9497C15.4804 21.1372 15.7348 21.2426 16 21.2426C16.2652 21.2426 16.5196 21.1372 16.7071 20.9497L20.9498 16.707C21.1373 16.5195 21.2426 16.2651 21.2426 15.9999C21.2426 15.7347 21.1373 15.4804 20.9498 15.2928L16.7071 11.0502C16.5196 10.8626 16.2652 10.7573 16 10.7573C15.7348 10.7573 15.4804 10.8626 15.2929 11.0502ZM18.8284 15.9999L16 18.8284L13.1716 15.9999L16 13.1715L18.8284 15.9999Z" fill="#787E99"/>
</svg>
