<svg width="20" height="22" viewBox="0 0 20 22" fill="none" xmlns="http://www.w3.org/2000/svg">
<path d="M8 2.5C8 2.10444 8.1173 1.71776 8.33706 1.38886C8.55682 1.05996 8.86918 0.803617 9.23463 0.652242C9.60009 0.500867 10.0022 0.46126 10.3902 0.53843C10.7781 0.615601 11.1345 0.806082 11.4142 1.08579C11.6939 1.36549 11.8844 1.72186 11.9616 2.10982C12.0387 2.49778 11.9991 2.89992 11.8478 3.26537C11.6964 3.63082 11.44 3.94318 11.1111 4.16294C10.7822 4.3827 10.3956 4.5 10 4.5C9.46957 4.5 8.96086 4.28929 8.58579 3.91421C8.21072 3.53914 8 3.03043 8 2.5ZM10 9C9.60444 9 9.21776 9.1173 8.88886 9.33706C8.55996 9.55682 8.30362 9.86918 8.15224 10.2346C8.00087 10.6001 7.96126 11.0022 8.03843 11.3902C8.1156 11.7781 8.30608 12.1345 8.58579 12.4142C8.86549 12.6939 9.22186 12.8844 9.60982 12.9616C9.99778 13.0387 10.3999 12.9991 10.7654 12.8478C11.1308 12.6964 11.4432 12.44 11.6629 12.1111C11.8827 11.7822 12 11.3956 12 11C12 10.4696 11.7893 9.96086 11.4142 9.58579C11.0391 9.21072 10.5304 9 10 9ZM10 17.5C9.60444 17.5 9.21776 17.6173 8.88886 17.8371C8.55996 18.0568 8.30362 18.3692 8.15224 18.7346C8.00087 19.1001 7.96126 19.5022 8.03843 19.8902C8.1156 20.2781 8.30608 20.6345 8.58579 20.9142C8.86549 21.1939 9.22186 21.3844 9.60982 21.4616C9.99778 21.5387 10.3999 21.4991 10.7654 21.3478C11.1308 21.1964 11.4432 20.94 11.6629 20.6111C11.8827 20.2822 12 19.8956 12 19.5C12 18.9696 11.7893 18.4609 11.4142 18.0858C11.0391 17.7107 10.5304 17.5 10 17.5Z" fill="#787E99"/>
</svg>
