<svg width="28" height="18" viewBox="0 0 28 18" fill="none" xmlns="http://www.w3.org/2000/svg">
<path d="M19.25 5.0625V15.5625C19.25 16.0266 19.0656 16.4717 18.7374 16.7999C18.4092 17.1281 17.9641 17.3125 17.5 17.3125H5.25C4.67547 17.3125 4.10656 17.1993 3.57576 16.9795C3.04496 16.7596 2.56266 16.4373 2.15641 16.0311C1.33594 15.2106 0.875 14.0978 0.875 12.9375V2.4375C0.875 1.97337 1.05937 1.52825 1.38756 1.20006C1.71575 0.871874 2.16087 0.6875 2.625 0.6875H14.875C16.0353 0.6875 17.1481 1.14844 17.9686 1.96891C18.7891 2.78938 19.25 3.90218 19.25 5.0625ZM26.6875 2.99531C26.5556 2.91515 26.4043 2.87276 26.25 2.87276C26.0957 2.87276 25.9444 2.91515 25.8125 2.99531L21.4375 5.48906C21.3033 5.56652 21.1921 5.67822 21.1153 5.81273C21.0384 5.94725 20.9986 6.09976 21 6.25469V11.7453C20.9986 11.9002 21.0384 12.0527 21.1153 12.1873C21.1921 12.3218 21.3033 12.4335 21.4375 12.5109L25.8125 15.0047C25.9458 15.0812 26.0963 15.1226 26.25 15.125C26.4039 15.1241 26.5548 15.0826 26.6875 15.0047C26.8216 14.9299 26.933 14.8203 27.01 14.6875C27.087 14.5547 27.1267 14.4035 27.125 14.25V3.75C27.1267 3.59648 27.087 3.44534 27.01 3.31251C26.933 3.17968 26.8216 3.0701 26.6875 2.99531Z" fill="#D53A94"/>
</svg>
