<svg width="20" height="21" viewBox="0 0 20 21" fill="none" xmlns="http://www.w3.org/2000/svg">
<path d="M13.5 9.5C14.3284 9.5 15 8.82843 15 8C15 7.17157 14.3284 6.5 13.5 6.5C12.6716 6.5 12 7.17157 12 8C12 8.82843 12.6716 9.5 13.5 9.5Z" fill="#62626A"/>
<path d="M6.5 9.5C7.32843 9.5 8 8.82843 8 8C8 7.17157 7.32843 6.5 6.5 6.5C5.67157 6.5 5 7.17157 5 8C5 8.82843 5.67157 9.5 6.5 9.5Z" fill="#62626A"/>
<path d="M10 16.5C12.28 16.5 14.22 14.84 15 12.5H5C5.78 14.84 7.72 16.5 10 16.5Z" fill="#62626A"/>
<path d="M9.99 0.5C4.47 0.5 0 4.98 0 10.5C0 16.02 4.47 20.5 9.99 20.5C15.52 20.5 20 16.02 20 10.5C20 4.98 15.52 0.5 9.99 0.5ZM10 18.5C5.58 18.5 2 14.92 2 10.5C2 6.08 5.58 2.5 10 2.5C14.42 2.5 18 6.08 18 10.5C18 14.92 14.42 18.5 10 18.5Z" fill="#62626A"/>
</svg>
