<svg width="28" height="28" viewBox="0 0 28 28" fill="none" xmlns="http://www.w3.org/2000/svg">
<path d="M27.4625 3.24124L20.9125 26.4787C20.8033 26.8722 20.5755 27.2225 20.2602 27.4819C19.9448 27.7414 19.5572 27.8974 19.15 27.9287H18.975C18.5983 27.9279 18.2295 27.8207 17.9111 27.6194C17.5926 27.4182 17.3375 27.1311 17.175 26.7912L12.7125 17.3662C12.6687 17.2716 12.6548 17.1659 12.6727 17.0631C12.6906 16.9604 12.7394 16.8655 12.8125 16.7912L19.225 10.3787C19.3254 10.2878 19.4063 10.1774 19.4627 10.0542C19.5191 9.93107 19.55 9.79773 19.5533 9.6623C19.5566 9.52688 19.5324 9.39219 19.4821 9.26641C19.4318 9.14063 19.3565 9.02637 19.2607 8.93058C19.1649 8.8348 19.0507 8.75947 18.9249 8.70917C18.7991 8.65888 18.6644 8.63466 18.529 8.638C18.3936 8.64133 18.2602 8.67214 18.1371 8.72857C18.0139 8.785 17.9035 8.86585 17.8125 8.96624L11.4 15.3912C11.3258 15.4644 11.2309 15.5132 11.1282 15.5311C11.0254 15.549 10.9197 15.5351 10.825 15.4912L1.45004 11.0537C1.08311 10.8804 0.775053 10.6033 0.563988 10.2567C0.352924 9.91016 0.248118 9.50928 0.262542 9.10374C0.284668 8.68619 0.437922 8.28625 0.700498 7.96083C0.963074 7.63542 1.32159 7.40111 1.72504 7.29124L25.0125 0.728741C25.4198 0.612421 25.8536 0.628425 26.2512 0.774446C26.6488 0.920467 26.9898 1.18896 27.225 1.54124C27.3829 1.79158 27.4857 2.07261 27.5266 2.3657C27.5676 2.65879 27.5457 2.95723 27.4625 3.24124Z" fill="#D53A94"/>
</svg>
